<?xml version="1.0" encoding="utf-8"?>
<!-- Generator: Adobe Illustrator 18.0.0, SVG Export Plug-In . SVG Version: 6.00 Build 0)  -->
<!DOCTYPE svg PUBLIC "-//W3C//DTD SVG 1.1//EN" "http://www.w3.org/Graphics/SVG/1.1/DTD/svg11.dtd">
<svg version="1.1" id="Layer_1" xmlns="http://www.w3.org/2000/svg" xmlns:xlink="http://www.w3.org/1999/xlink" x="0px" y="0px"
	 viewBox="0 0 257.9 434.4" enable-background="new 0 0 257.9 434.4" xml:space="preserve">
<g>
	<path fill="#FFFFFF" d="M203.9,293.7c-0.8-5.5-6.1-9.8-12.6-9.8c-6.5,0-11.8,4.2-12.6,9.7c-4.9,0.2-8.9,3.8-8.9,8.1v0.2
		c0,4.5,4.2,8.2,9.3,8.2h23.4c5.2,0,9.3-3.7,9.3-8.2v-0.2C211.9,297.7,208.4,294.3,203.9,293.7z"/>
	<path fill="#FFFFFF" d="M144.3,394.7c-0.4-2.8-3.1-4.9-6.3-4.9c-3.3,0-5.9,2.1-6.3,4.9c-2.5,0.1-4.4,1.9-4.4,4.1v0.1
		c0,2.3,2.1,4.1,4.7,4.1h11.7c2.6,0,4.7-1.8,4.7-4.1v-0.1C148.2,396.7,146.5,395,144.3,394.7z"/>
	<path fill="#FFFFFF" d="M64.7,216c-1.1-8.1-9-14.3-18.5-14.3c-9.5,0-17.3,6.2-18.5,14.2c-7.2,0.3-13,5.5-13,11.9v0.2
		c0,6.6,6.1,11.9,13.7,11.9h34.2c7.5,0,13.7-5.3,13.7-11.9v-0.2C76.3,221.8,71.2,216.8,64.7,216z"/>
	<g>
		<ellipse fill="#FF8D00" cx="78" cy="296.4" rx="18.7" ry="18.6"/>
		<ellipse fill="#FFDD00" cx="78" cy="296.5" rx="15.6" ry="15.5"/>
		<path fill="#FFDD00" d="M77.4,268.2l-1.2,7c-0.1,0.4,0.3,0.8,0.7,0.8h2.4c0.4,0,0.8-0.4,0.7-0.8l-1.2-7
			C78.6,267.4,77.5,267.4,77.4,268.2z"/>
		<path fill="#FFDD00" d="M97.7,276l-5.9,4.1c-0.4,0.2-0.4,0.8-0.1,1.1l1.7,1.7c0.3,0.3,0.8,0.3,1.1-0.1l4.2-5.8
			C99.1,276.3,98.3,275.5,97.7,276z"/>
		<path fill="#FFDD00" d="M106.5,295.8l-7.1-1.2c-0.4-0.1-0.8,0.3-0.8,0.7v2.4c0,0.4,0.4,0.8,0.8,0.7l7.1-1.2
			C107.2,297,107.3,295.9,106.5,295.8z"/>
		<path fill="#FFDD00" d="M94.5,310.1c-0.2-0.4-0.8-0.4-1.1-0.1l-1.7,1.7c-0.3,0.3-0.3,0.8,0.1,1.1l5.8,4.2c0.6,0.5,1.4-0.3,1-1
			L94.5,310.1z"/>
		<path fill="#FFDD00" d="M79.3,316.9h-2.4c-0.4,0-0.8,0.4-0.7,0.8l1.2,7c0.1,0.8,1.2,0.8,1.4,0l1.2-7
			C80.1,317.3,79.7,316.9,79.3,316.9z"/>
		<path fill="#FFDD00" d="M62.7,310.1c-0.3-0.3-0.8-0.3-1.1,0.1l-4.2,5.8c-0.5,0.6,0.3,1.4,1,1l5.9-4.1c0.4-0.2,0.4-0.8,0.1-1.1
			L62.7,310.1z"/>
		<path fill="#FFDD00" d="M56.7,294.6l-7.1,1.2c-0.8,0.1-0.8,1.2,0,1.4l7.1,1.2c0.4,0.1,0.8-0.3,0.8-0.7l0-2.4
			C57.5,294.9,57.1,294.6,56.7,294.6z"/>
		<path fill="#FFDD00" d="M58.4,276c-0.6-0.5-1.4,0.3-1,1l4.1,5.8c0.2,0.4,0.8,0.4,1.1,0.1l1.7-1.7c0.3-0.3,0.3-0.8-0.1-1.1
			L58.4,276z"/>
	</g>
</g>
<g>
	<path fill="#FFFFFF" d="M177.2,43c-0.5-4.1-3.3-7.1-7-7.1c-3.7,0-6.5,3.1-7,7c-2.7,0.2-4.9,2.7-4.9,5.8v0.2c0,3.3,2.4,5.8,5.1,5.8
		h12.9c2.9,0,5.1-2.7,5.1-5.8v-0.2C181.6,45.9,179.7,43.6,177.2,43z"/>
	<path fill="#FFFFFF" d="M163.1,169.8c-0.3-2.5-2.2-4.6-4.6-4.6c-2.4,0-4.3,1.9-4.6,4.6c-1.8,0.2-3.2,1.7-3.2,3.9l0,0
		c0,2.1,1.6,3.9,3.3,3.9h8.4c1.9,0,3.3-1.7,3.3-3.9l0,0C165.9,171.7,164.7,170,163.1,169.8z"/>
	<path fill="#FFFFFF" d="M244.8,118.1c-0.3-3.1-2.4-5.4-5.1-5.4c-2.6,0-4.8,2.3-5.1,5.4c-1.9,0.2-3.5,2.1-3.5,4.4l0,0
		c0,2.5,1.6,4.4,3.7,4.4h9.2c2.1,0,3.7-1.9,3.7-4.4l0,0C248,120.2,246.7,118.5,244.8,118.1z"/>
</g>
</svg>
