<?xml version="1.0" encoding="utf-8"?>
<!-- Generator: Adobe Illustrator 18.0.0, SVG Export Plug-In . SVG Version: 6.00 Build 0)  -->
<!DOCTYPE svg PUBLIC "-//W3C//DTD SVG 1.1//EN" "http://www.w3.org/Graphics/SVG/1.1/DTD/svg11.dtd">
<svg version="1.1" id="Layer_1" xmlns="http://www.w3.org/2000/svg" xmlns:xlink="http://www.w3.org/1999/xlink" x="0px" y="0px"
	 viewBox="0 0 217.2 438.6" enable-background="new 0 0 217.2 438.6" xml:space="preserve">
<g>
	<path fill="#FFFFFF" d="M189.6,170.4c-0.5-3.7-3.7-6.6-7.9-6.6c-4.1,0-7.3,2.9-7.9,6.4c-3,0.2-5.5,2.5-5.5,5.4v0.2
		c0,3,2.7,5.4,5.7,5.4h14.5c3.2,0,5.7-2.5,5.7-5.4v-0.2C194.6,173.1,192.4,171,189.6,170.4z"/>
	<path fill="#FFFFFF" d="M129.4,187.9c-0.4-2.3-2.5-4.3-5.2-4.3c-2.7,0-4.8,1.8-5.2,4.3c-2,0.2-3.6,1.6-3.6,3.6l0,0
		c0,2,1.8,3.6,3.7,3.6h9.5c2.1,0,3.7-1.6,3.7-3.6l0,0C132.6,189.7,131.2,188.1,129.4,187.9z"/>
	<path fill="#FFFFFF" d="M66.4,320.5c-1-6.4-6.7-11.8-14.1-11.8c-7.1,0-13.1,5-13.8,11.4c-5.4,0.3-9.7,4.4-9.7,9.7v0.3
		c0,5.4,4.7,9.7,10.4,9.7H65c5.7,0,10.4-4.4,10.4-9.7v-0.3C75.4,325.2,71.4,321.2,66.4,320.5z"/>
	<path fill="#FFFFFF" d="M90.8,68.6c-0.4-2.9-2.7-5-5.7-5c-2.9,0-5.4,2.1-5.7,5c-2.1,0.2-3.9,2-3.9,4.1l0,0c0,2.3,1.8,4.1,4.1,4.1
		h10.3c2.3,0,4.1-1.8,4.1-4.1l0,0C94.4,70.6,92.9,69,90.8,68.6z"/>
</g>
<g>
	<path fill="#FFFFFF" d="M145.2,387.6c-0.9-6.9-6-12.7-12.6-12.7c-6.3,0-11.7,5.5-12.3,12.4c-4.8,0.4-8.7,4.7-8.7,10.5v0.4
		c0,5.8,4.2,10.5,9.3,10.5H144c5.1,0,9.3-4.7,9.3-10.5v-0.4C153.3,392.7,149.7,388.3,145.2,387.6z"/>
</g>
</svg>
