<?xml version="1.0" encoding="utf-8"?>
<!-- Generator: Adobe Illustrator 18.0.0, SVG Export Plug-In . SVG Version: 6.00 Build 0)  -->
<!DOCTYPE svg PUBLIC "-//W3C//DTD SVG 1.1//EN" "http://www.w3.org/Graphics/SVG/1.1/DTD/svg11.dtd">
<svg version="1.1" id="Layer_1" xmlns="http://www.w3.org/2000/svg" xmlns:xlink="http://www.w3.org/1999/xlink" x="0px" y="0px"
	 viewBox="0 0 338.5 298.4" enable-background="new 0 0 338.5 298.4" xml:space="preserve">
<g>
	<g>
		<path fill-rule="evenodd" clip-rule="evenodd" fill="#02A436" d="M197.6,175.5l-4.1,4.2c-0.8,0.9-2.2,0.9-3,0.1l-18.1-17.4
			c-0.4-0.4-0.6-0.9-0.7-1.5c0-0.2-0.1-0.4-0.1-0.6l0-3.6c0-1.2,1-2.2,2.2-2.3l3.6,0c0.1,0,0.2,0,0.3,0c0.6-0.1,1.2,0.1,1.7,0.6
			l18.1,17.4C198.4,173.3,198.5,174.6,197.6,175.5z"/>
		<path fill-rule="evenodd" clip-rule="evenodd" fill="#00FA94" d="M138.8,127l4.1-4.2c0.8-0.9,2.2-0.9,3-0.1l18.1,17.4
			c0.4,0.4,0.6,0.9,0.7,1.5c0,0.2,0.1,0.4,0.1,0.6l0,3.6c0,1.2-1,2.2-2.2,2.3l-3.6,0c-0.1,0-0.2,0-0.3,0c-0.6,0.1-1.2-0.1-1.7-0.6
			L138.8,130C138,129.2,137.9,127.8,138.8,127z"/>
		<path fill-rule="evenodd" clip-rule="evenodd" fill="#52575B" d="M144,181.5l-4.2-4.1c-0.9-0.8-0.9-2.2-0.1-3l17.4-18.1
			c0.4-0.4,0.9-0.6,1.5-0.7c0.2,0,0.4-0.1,0.6-0.1l3.6,0c1.2,0,2.2,1,2.3,2.2l0,3.6c0,0.1,0,0.2,0,0.3c0.1,0.6-0.1,1.2-0.6,1.7
			L147,181.4C146.2,182.3,144.8,182.3,144,181.5z"/>
	</g>
	<g>
		<path fill="#FF5900" d="M183.6,127.3c-0.8,0.8-1.4,1.8-2,2.8c-0.7,1-1.4,1.9-2,2.9c-1.3,1.9-2.4,3.7-3,5.9c0,0.1-0.1,0.3-0.1,0.4
			c-0.1,0-0.1,0.1-0.2,0.1c-0.3,0.2-0.6,0.5-0.8,0.8c0,0,0.1,0.1,0.1,0.1c0.2-0.1,0.3-0.2,0.5-0.3c-0.4,0.6-0.8,1.3-1.2,2
			c-0.3,0.6-0.4,1.2-0.6,1.8c-0.2,0.1-0.3,0.3-0.4,0.5c-0.3,0.5-0.4,1.2-0.7,1.8c0,0,0,0-0.1,0.1c-0.2,0.2-0.3,0.3-0.4,0.5
			c-0.5,0.2-1.1,0.4-1.6,0.6c0,0,0,0,0,0.1c0.5,0.1,1,0,1.4-0.2c0,0,0,0,0,0c-0.3,0.3-0.8,0.5-1.2,0.8c-0.3,0-0.6,0.1-0.7,0.4
			c0,0.1-0.2,0.2-0.3,0.3c-0.1,0.1-0.2,0.3-0.3,0.4c-0.2,0.4-0.3,0.8-0.6,1.1c-0.1,0.1-0.3,0.3-0.4,0.4c-0.1,0.2-0.2,0.3-0.4,0.5
			c-0.1,0.1-0.2,0.3-0.4,0.4c-0.1,0.1-0.3,0.3-0.3,0.4c0,0.1-0.1,0.1-0.2,0.2c0,0-0.1,0.2,0,0.2c0.1,0,0.1-0.1,0.2-0.1
			c0.2-0.2,0.3-0.3,0.5-0.5c0.3-0.4,0.7-0.8,1.2-1.1c0.3-0.3,0.7-0.6,0.9-1c0.2-0.4,0.6-0.9,1.1-1.1c0.3-0.1,0.6-0.2,0.8-0.3
			c0.6,0,1-0.8,1.3-1.2c0.2-0.3,0.4-0.7,0.5-1.1c0.1-0.1,0.1-0.1,0.2-0.2c0.7-0.4,0.9-1.2,1.3-2c0.1,0,0.2-0.1,0.3-0.1
			c-0.1,0.4-0.2,0.8-0.2,1.2c0,0,0,0,0,0c0.3-0.4,0.4-0.9,0.6-1.4c0.3-0.1,0.6-0.2,0.9-0.2c0.8-0.1,1.4-0.4,2.1-0.9
			c0.3-0.2,0.6-0.4,0.9-0.6c0,0.1,0,0.1,0,0.1c0,0-0.1,0,0,0l0.1,0.1c0,0,0.1,0,0.1,0c0.1-0.1,0.1-0.3,0.2-0.4
			c0.2-0.1,0.3-0.2,0.5-0.3c0.1-0.1,0.3-0.1,0.4-0.2c0.3-0.2,0.6-0.3,0.9-0.5c0,0,0,0,0,0c0.4-0.2,0.8-0.4,1.2-0.5
			c0.6-0.2,1.1-0.5,1.6-0.8c0.5-0.2,0.9-0.5,1.4-0.8c1.7-1,3.4-2.1,4.9-3.4c0.7-0.6,1.3-1.1,1.7-1.9c0.9-1.5,1.2-2.9,0.4-4.4
			c-0.6-1-1.5-1.8-2.3-2.5c-0.6-0.6-2-2-3.1-1.8c-0.9,0-1.5,0.6-2.3,1.1C185.1,126,184.3,126.6,183.6,127.3z M193.3,132.5
			C193.3,132.5,193.3,132.5,193.3,132.5c-0.2,0.4-0.4,0.7-0.6,0.9c0,0-0.1,0.1-0.1,0.1c0.1-0.1,0.2-0.3,0.3-0.5
			C193,132.8,193.1,132.7,193.3,132.5z M192.8,130.8c0.1,0.1,0.1,0.3,0.2,0.5c0,0,0,0-0.1,0c0,0,0,0,0,0c0-0.1-0.1-0.2-0.1-0.2
			C192.8,130.9,192.8,130.8,192.8,130.8z M189.5,132.8c-0.1,0.2-0.2,0.4-0.2,0.6c0,0-0.1,0.1-0.1,0.1
			C189.3,133.2,189.4,133,189.5,132.8z M190.6,131.2c0.1,0.1,0.2,0.2,0.2,0.3c0,0,0,0,0,0c-0.2,0.3-0.3,0.7-0.5,1
			c-0.1,0.1-0.2,0.1-0.2,0.2c0.2-0.5,0.4-0.9,0.5-1.3C190.6,131.3,190.6,131.3,190.6,131.2z M186.6,135.1c0.1,0,0.2,0,0.4,0
			c0,0,0,0,0,0c-0.1,0.1-0.3,0.2-0.4,0.3c-0.1,0-0.1,0-0.2,0C186.5,135.3,186.6,135.2,186.6,135.1z M184,137.1
			C184,137.2,184,137.2,184,137.1c-0.1,0.2-0.1,0.2-0.2,0.3C183.9,137.3,183.9,137.2,184,137.1z M188.3,131.1
			c0.1-0.1,0.2-0.2,0.3-0.2c0.1,0,0.1-0.1,0.2-0.1c0.1,0.2,0.1,0.5,0.2,0.7c-0.1,0.1-0.1,0.2-0.2,0.3c0,0,0-0.1,0-0.1
			C189,131.1,188.6,130.9,188.3,131.1c0,0.1-0.1,0.1-0.1,0.1v0C188.3,131.1,188.3,131.1,188.3,131.1z M178.5,140.9
			C178.5,140.9,178.5,141,178.5,140.9c0,0.1,0,0.1,0,0.2c0,0-0.1,0.1-0.1,0.1c0,0-0.1,0-0.1,0.1c0,0,0,0,0,0c0,0,0,0,0,0
			C178.3,141.1,178.4,141,178.5,140.9z M184.1,134.6c0,0.2-0.1,0.4-0.1,0.6c-0.1,0.1-0.2,0.1-0.3,0.2
			C183.9,135.2,184,134.9,184.1,134.6z M189.5,127.5C189.5,127.5,189.5,127.5,189.5,127.5c0.2,0.3,0.3,0.4,0.5,0.6
			c0.2,0.3,0.4,0.5,0.5,0.8c0,0-0.1,0-0.1,0c-0.1-0.2-0.2-0.3-0.3-0.5C189.9,128.1,189.7,127.8,189.5,127.5z M188.2,128.5
			C188.2,128.5,188.2,128.5,188.2,128.5c0.1,0.1,0.1,0.3,0.2,0.5c-0.1,0-0.1,0.1-0.2,0.1C188.2,128.9,188.2,128.7,188.2,128.5z
			 M182.8,131.2c0.1,0,0.1,0.1,0.2,0.1c-0.2,0.2-0.4,0.5-0.6,0.7c0,0-0.1,0-0.1,0.1c0.1-0.2,0.1-0.3,0.2-0.5
			C182.7,131.5,182.8,131.3,182.8,131.2L182.8,131.2z M188.2,125.3C188.2,125.3,188.3,125.3,188.2,125.3c0.1,0,0.2,0,0.2-0.1
			c0.2,0,0.5,0.1,0.8,0.3c-0.2,0.1-0.2,0.3-0.1,0.5c0,0-0.1,0.1-0.1,0.1c-0.1,0-0.1-0.1-0.2-0.1c0-0.1,0-0.1,0-0.2
			c0-0.2-0.1-0.4-0.3-0.5C188.5,125.3,188.4,125.3,188.2,125.3C188.3,125.3,188.2,125.3,188.2,125.3z M186.1,126.1
			c0.2-0.1,0.4-0.3,0.6-0.4c-0.1,0.1-0.2,0.2-0.3,0.3C186.3,126,186.2,126,186.1,126.1z"/>
		<path fill="#D32104" d="M174.8,144.3c0.5-0.1,0.4-0.8,0.7-1c0.3-0.3,0.5-0.1,0.9-0.1c1,0,1.8-0.3,2.4-0.8c1.6-1.6,4.4-1.9,6.3-3.2
			c1.7-1.1,3.4-2.2,4.9-3.6c1.1-1,2.7-1.9,3.3-3.4c0.4-1-0.8-3-2.2-3.9c0.7,0.7,1.4,1.4,1.9,2.3c0.1,0.1-0.1,0.2-0.2,0.1
			c-0.9-1-2-1.8-2.9-2.8c0,0-0.1,0-0.1,0c-0.6,0-1,0.3-1.3,0.7c0.6,0.6,1.1,1.1,1.6,1.8c0,0.1,0,0.1-0.1,0.1
			c-0.7-0.4-1.3-0.9-1.8-1.4c-0.6,1-0.9,2.4-1.7,3c-1.4,1.1-2.6,2.2-3.8,3.5c0.4,0.4,0.9,0.9,1.2,1.4c0,0,0,0.1,0,0.1
			c-0.6-0.3-1.1-0.6-1.6-1c-0.8,0.9-1.7,1.8-2.7,2.6c-0.6,0.4-0.7,1.1-1,1.7c0,0-0.1,0.1-0.1,0.2c-0.4,0.5-0.6,1-1.1,1.3
			c-0.4,0.2-1,0.3-1.4,0.5c0.3,0.1,0.6,0.3,0.7,0.7c0,0.1-0.1,0.1-0.1,0.1c-0.3,0-0.6-0.4-0.7-0.7c0,0-0.1,0-0.1,0.1
			C175.4,142.6,174.4,143.4,174.8,144.3z M187.2,134c-0.3-0.2-0.5-0.4-0.7-0.7c0-0.1,0-0.1,0.1-0.1c0.3,0.2,0.5,0.4,0.7,0.6
			C187.4,134,187.3,134.1,187.2,134z M185.2,134.6C185.1,134.6,185.2,134.5,185.2,134.6c0.6,0.4,1.1,0.9,1.6,1.3c0,0,0,0.1,0,0
			C186.2,135.6,185.6,135.2,185.2,134.6z"/>
		<g>
			<path fill="#E92D25" d="M191.8,130.9c0.2,0.1,0.3,0.2,0.5,0.4c0.1,0.1,0.2,0.1,0.2,0.2C192.3,131.3,192.1,131.1,191.8,130.9z"/>
			<path fill="#E92D25" d="M191.5,134.5C191.5,134.5,191.5,134.5,191.5,134.5c-0.1-0.1-0.1-0.1-0.2-0.1c-0.2-0.1-0.5-0.2-0.7-0.4
				c-0.4-0.3-0.9-0.7-1.3-1c0-0.1,0.1-0.2,0.1-0.3c0.9,0.7,1.8,1.3,2.8,1.7c-0.1,0.1-0.1,0.1-0.2,0.2
				C191.9,134.7,191.7,134.6,191.5,134.5z"/>
			<path fill="#E92D25" d="M190.1,132.7c0.8,0.6,1.6,1.1,2.3,1.6c0,0,0,0-0.1,0.1c-0.8-0.5-1.6-1.1-2.4-1.7
				C190,132.6,190.1,132.6,190.1,132.7z"/>
			<path fill="#E92D25" d="M190.3,131.3c0.1,0.1,0.2,0.1,0.3,0.2c0,0.2-0.1,0.5-0.2,0.7c-0.5-0.4-1-0.8-1.4-1.2c0-0.1,0-0.2-0.1-0.3
				c0,0-0.1,0.1-0.1,0.1c-1.5-1.3-2.8-2.8-4.1-4.3c0.1-0.1,0.2-0.2,0.3-0.2C186.4,128.1,188.5,129.8,190.3,131.3z"/>
			<path fill="#E92D25" d="M186.9,130.5c0.8,0.8,1.7,1.6,2.6,2.2c0,0.1-0.1,0.2-0.1,0.3c0,0,0,0,0,0c-0.8-0.7-1.7-1.6-2.5-2.6
				C186.8,130.5,186.9,130.5,186.9,130.5z"/>
			<path fill="#E92D25" d="M180.3,138.4c-0.9-0.7-1.8-1.5-2.6-2.3c0.1-0.1,0.1-0.3,0.2-0.4c0.1,0.1,0.1,0.2,0.2,0.2
				C178.8,136.8,179.5,137.6,180.3,138.4z"/>
			<path fill="#E92D25" d="M183.3,140.2c0,0-0.1,0-0.1,0.1c-0.3-0.3-0.6-0.6-0.9-0.9C182.6,139.7,183,140,183.3,140.2z"/>
			<path fill="#E92D25" d="M184,134.9c0.5,0.4,1,0.8,1.5,1.2c0.6,0.6,1.1,1.1,1.7,1.7c-1.1-0.9-2.2-1.8-3.3-2.7
				C184,135.1,184,135,184,134.9z"/>
			<path fill="#E92D25" d="M183.9,137.3c-0.4-0.3-0.7-0.5-1.1-0.8c-0.1-0.1-0.3-0.3-0.4-0.4c0,0,0,0,0.1,0
				C182.9,136.5,183.4,136.9,183.9,137.3C183.9,137.3,183.9,137.3,183.9,137.3z"/>
			<path fill="#E92D25" d="M183.9,137.3c0.6,0.4,1.2,0.9,1.8,1.3c0.1,0.1,0.2,0.2,0.3,0.2c0,0,0,0-0.1,0
				C185.3,138.3,184.6,137.8,183.9,137.3C183.9,137.3,183.9,137.3,183.9,137.3z"/>
			<path fill="#E92D25" d="M183.9,135.1c-0.3-0.2-0.5-0.4-0.8-0.6c-0.4-0.5-0.8-0.9-1.2-1.4c0.7,0.6,1.4,1.2,2.1,1.8
				C184,134.9,183.9,135,183.9,135.1z"/>
			<path fill="#E92D25" d="M190.5,134.6c0.3,0.2,0.6,0.4,0.9,0.5c-0.1,0.1-0.2,0.1-0.2,0.2c0,0-0.1,0-0.1-0.1
				c-0.4-0.3-0.8-0.7-1.3-1C190.1,134.4,190.3,134.5,190.5,134.6z"/>
			<path fill="#E92D25" d="M182.1,140.8c-1.6-1-3.1-2.6-4.5-3.8c-0.1-0.1-0.2-0.1-0.3-0.1c0,0,0,0-0.1-0.1c0-0.1,0-0.1,0.1-0.2
				c1.6,1.5,3.2,2.8,5,4C182.3,140.7,182.2,140.8,182.1,140.8z"/>
			<path fill="#E92D25" d="M182.7,130.6c-0.3-0.3-0.6-0.6-0.9-0.9c0,0,0-0.1,0.1-0.1c0.2,0.3,0.5,0.5,0.7,0.8
				C182.6,130.5,182.7,130.5,182.7,130.6z"/>
			<path fill="#E92D25" d="M184,130.4c-0.5-0.5-1-1.1-1.6-1.6c0,0,0-0.1,0.1-0.1c0.4,0.5,0.8,1,1.3,1.4
				C183.9,130.2,183.9,130.3,184,130.4z"/>
			<path fill="#E92D25" d="M184.5,139.7C184.4,139.7,184.4,139.8,184.5,139.7c-0.9-0.4-1.7-1-2.5-1.6
				C182.8,138.7,183.6,139.3,184.5,139.7z"/>
			<path fill="#E92D25" d="M184.1,139.9c-0.1,0.1-0.2,0.1-0.3,0.1c-0.6-0.5-1.3-1-1.9-1.6C182.5,138.9,183.3,139.5,184.1,139.9z"/>
			<path fill="#E92D25" d="M182.3,134.6c0.4,0.4,0.8,0.7,1.2,1.1c0.5,0.5,0.9,0.9,1.4,1.4c-1.5-1.1-2.9-2.3-4.3-3.5
				C181.2,133.9,181.8,134.3,182.3,134.6z"/>
			<path fill="#E92D25" d="M179.9,132.5c0.1-0.1,0.1-0.2,0.2-0.3c0.2,0.2,0.4,0.5,0.6,0.7C180.4,132.8,180.1,132.7,179.9,132.5z"/>
			<path fill="#E92D25" d="M180.3,134.8C180.3,134.8,180.2,134.8,180.3,134.8c0.1,0.1,0.3,0.2,0.6,0.3c0.1,0.1,0.1,0.1,0.2,0.2
				C180.8,135.2,180.5,135,180.3,134.8z"/>
			<path fill="#E92D25" d="M186.7,131.2c-0.2-0.2-0.4-0.4-0.6-0.6c-0.9-1-1.8-2.1-2.6-3.1c0,0,0,0,0.1-0.1
				C184.4,128.6,185.5,130,186.7,131.2z"/>
			<path fill="#E92D25" d="M178.8,139.9c0.3,0.3,0.7,0.6,1,0.9c0.2,0.3,0.5,0.5,0.7,0.8c0,0,0,0,0,0c0,0,0,0.1-0.1,0.1
				C180,141.1,179.4,140.5,178.8,139.9z"/>
			<path fill="#E92D25" d="M176.8,140.8c0.4,0.6,0.9,1.2,1.4,1.8c-0.2-0.2-0.4-0.4-0.6-0.6c-0.5-0.6-1.1-1.1-1.7-1.7
				c0,0,0.1-0.1,0.1-0.1C176.3,140.4,176.5,140.6,176.8,140.8z"/>
			<path fill="#E92D25" d="M176.6,143.4c-0.1,0-0.1,0-0.2,0.1c-0.2,0.5-0.4,1-0.6,1.4c0,0,0,0,0,0c0-0.1,0-0.1,0-0.2
				c0.1,0,0.2-0.2,0.1-0.3c0,0,0-0.1,0-0.1c0-0.1,0-0.2,0-0.2c0.1,0,0.2,0,0.3-0.2c0.1-0.1,0.1-0.2,0.1-0.3c0-0.1,0-0.1-0.1-0.2
				c0,0,0,0,0-0.1c0,0,0,0,0,0c0,0,0,0,0,0c0,0,0,0,0,0c0,0,0,0,0,0c0,0,0,0,0,0c0,0,0,0-0.1-0.1c0,0-0.1-0.1-0.1-0.1
				c-0.1-0.1-0.1-0.2-0.2-0.3C176.1,142.9,176.3,143.2,176.6,143.4z"/>
			<path fill="#E92D25" d="M174.4,144.4c-0.2,0-0.4,0-0.6,0c0,0,0-0.1,0.1-0.1c0.1-0.2,0.2-0.3,0.4-0.5c0,0,0-0.1,0-0.1
				C174.3,144,174.4,144.2,174.4,144.4z"/>
			<path fill="#E92D25" d="M186.8,134.3c0.1,0.1,0.2,0.2,0.3,0.3c0.7,0.7,1.4,1.5,2.3,2.1c-0.1,0-0.1,0.1-0.2,0.1
				c-0.4-0.3-0.7-0.7-1.1-1C187.7,135.3,187.3,134.8,186.8,134.3z"/>
			<path fill="#E92D25" d="M189.8,136.1c0.1,0,0.2,0.1,0.2,0.1c-0.1,0-0.1,0.1-0.2,0.1c-0.3-0.2-0.6-0.4-0.9-0.7
				C189.2,135.9,189.5,136,189.8,136.1z"/>
			<path fill="#E92D25" d="M184.3,132.8c-0.2-0.1-0.4-0.3-0.6-0.4c-0.1-0.2-0.3-0.3-0.4-0.5C183.6,132.2,183.9,132.5,184.3,132.8z"
				/>
			<path fill="#E92D25" d="M190.8,131.6c0.7,0.5,1.3,1.1,2,1.6c-0.1,0.1-0.1,0.2-0.2,0.3c0,0,0.1-0.1,0.1-0.1c0,0,0.1-0.1,0.1-0.1
				c0.1,0.1,0.2,0.1,0.3,0.2c-0.1,0.2-0.2,0.3-0.3,0.5c-0.8-0.5-1.6-1.1-2.3-1.6C190.6,132.1,190.7,131.8,190.8,131.6z"/>
			<path fill="#E92D25" d="M189.8,127.9c0,0-0.1-0.1-0.1-0.1c1,0.7,2,1.4,3,2.1c0.5,0.3,1,0.7,1.4,1c0,0.2-0.1,0.5-0.1,0.7
				c-0.8-0.6-1.7-1.2-2.5-1.8C190.9,129.1,190.3,128.5,189.8,127.9z"/>
		</g>
		<g>
			<path fill="#FF972C" d="M179.5,134.1c0.2,0.3,0.5,0.5,0.7,0.7c0.1,0.2,0,0.3-0.2,0.2c-0.2-0.1-0.4-0.3-0.6-0.5
				c-0.1-0.2-0.2-0.4-0.2-0.5C179.2,134,179.4,134,179.5,134.1z"/>
			<path fill="#F7961E" d="M180.5,139.4c0.4,0.1,0.6,0.4,0.8,0.7c0.2,0.2,0,0.4-0.2,0.2c-0.2-0.2-0.4-0.4-0.6-0.5
				C180.2,139.8,180.2,139.3,180.5,139.4z"/>
			<path fill="#FF972C" d="M189.3,134.2c0.3,0.4,0.7,0.7,1,0.9c0.2,0.2,0.1,0.5-0.1,0.3c-0.5-0.2-1-0.6-1.3-1
				C188.6,134,189,133.8,189.3,134.2z"/>
			<path fill="#F7961E" d="M176.2,141c0.2,0,0.3,0.4,0.1,0.3c-0.2,0-0.3,0-0.5-0.1c-0.1-0.1-0.1-0.2,0-0.3
				C175.8,140.9,176,141,176.2,141z"/>
			<path fill="#FF972C" d="M174.5,144.7c0,0.1,0.1,0.2,0.1,0.2c0,0.1,0.1,0.1,0.1,0.2c0-0.1,0,0,0,0c0,0,0,0,0,0
				c0.2,0.3-0.1,0.4-0.3,0.2c0.1,0.1,0,0,0,0c0,0-0.1-0.1-0.1-0.1c-0.1-0.1-0.1-0.2-0.1-0.3C174.3,144.8,174.3,144.6,174.5,144.7
				C174.5,144.6,174.5,144.7,174.5,144.7z"/>
			<path fill="#FF972C" d="M187.5,126.3c-0.2-0.2-0.6-0.4-0.7-0.7c0-0.1,0-0.1,0.1,0C187.1,125.8,187.4,125.9,187.5,126.3
				C187.7,126.2,187.6,126.3,187.5,126.3z"/>
			<path fill="#FF972C" d="M177.1,138.1c0.2,0.2,0.4,0.3,0.6,0.4c0.1,0,0.1,0.2,0.1,0.2l0,0c0,0-0.1,0-0.1,0c0,0,0,0,0,0
				c0,0-0.1,0-0.1-0.1c-0.2-0.1-0.4-0.3-0.6-0.4C176.8,138.1,176.9,138,177.1,138.1z"/>
			<path fill="#F7961E" d="M178.6,142.3c0.1,0.1,0.1,0.1,0.1,0.2c0,0.1,0,0.1-0.1,0.1c-0.1,0-0.2-0.1-0.3-0.2c0,0,0,0,0,0
				c-0.1,0-0.1-0.1,0-0.1c0,0,0,0,0,0c0,0,0,0,0,0C178.3,142.1,178.5,142.1,178.6,142.3z"/>
			<path fill="#FF972C" d="M184.7,131.6c-0.1-0.1,0-0.2,0.1-0.1c0.1,0.1,0.5,0.3,0.5,0.5c0,0.1-0.2,0-0.3-0.1
				C184.9,131.9,184.8,131.7,184.7,131.6z"/>
			<path fill="#F7961E" d="M192.2,130.2c0.2,0.2,0.4,0.4,0.6,0.6c0.2,0.2,0.5,0.5,0.8,0.7c0,0,0,0.1,0,0.1
				C193,131.4,192.6,130.7,192.2,130.2C192.1,130.2,192.2,130.2,192.2,130.2z"/>
			<path fill="#FF972C" d="M183.5,127.6c0.5,0.3,0.5,1,1,1.3c0,0,0,0,0,0c-0.2-0.1-0.4-0.2-0.6-0.4c-0.1-0.1-0.2-0.2-0.3-0.3
				c-0.1-0.2-0.2-0.3-0.4-0.4C183.3,127.6,183.4,127.6,183.5,127.6z"/>
		</g>
		<path fill="#FF972C" d="M187.2,124.8c0,0,0.1,0,0.1,0c0.3,0.5,0.8,1,1.3,1.2c0.1,0,0.2,0,0.1-0.1c-0.1-0.2-0.2-0.4-0.3-0.5
			c0,0,0.1,0,0.1,0c0.1,0.1,0.3,0.2,0.4,0.4c0,0,0,0.1,0,0.1c0,0.1,0,0.1,0,0.2c0.1,0,0.1,0.1,0.2,0.1c0,0,0.1-0.1,0.1-0.1
			c-0.1-0.1-0.1-0.2-0.1-0.2c0.1,0.1,0.1,0.1,0.2,0.2c0.1,0.1,0.2,0,0.1-0.1c-0.1-0.1-0.1-0.1-0.2-0.2c0,0,0.1-0.1,0.1-0.1
			c-0.1-0.1-0.3-0.1-0.4-0.2c-0.3-0.3-0.6-0.6-0.9-0.8c0.1,0,0.2,0,0.3,0c1.1-0.2,2.5,1.2,3.1,1.8c0.8,0.8,1.7,1.5,2.3,2.5
			c0.3,0.5,0.4,1,0.5,1.6c-0.9-0.7-1.8-1.3-2.7-2C189.9,127.3,188.5,126.1,187.2,124.8z"/>
		<g>
			<path fill="#826729" d="M193.1,128.6c0.2-0.1,0.2-0.3,0-0.6c-0.1-0.2-0.2-0.3-0.3-0.5c-0.2-0.5-0.9-1.1-1.3-1.5
				c-0.4-0.3-1-0.8-1.4-1.1c-0.1,0-0.2-0.1-0.3-0.1c-0.3-0.2-0.8-0.3-0.8,0.1c0,0.5,0.8,1.3,1.2,1.8c0,0,0,0,0,0
				c0.3,0.3,0.6,0.6,0.8,0.8C191.7,128.1,192.6,128.9,193.1,128.6z M192.3,128.2c0.1,0,0.3,0,0.4,0c0,0,0.1-0.1,0-0.1
				c0,0,0.1-0.1,0.1-0.1c0,0.1,0.1,0.1,0.1,0.2C193,128.4,192.7,128.4,192.3,128.2z"/>
			<path fill="#826729" d="M188.9,124.6c-0.1,0.1-0.2,0.2-0.1,0.3c0,0.1,0.1,0.3,0.2,0.4c0.1,0.3,0.3,0.5,0.5,0.7
				c0,0.1,0,0.1-0.1,0.1c-0.3-0.2-0.6-0.6-0.7-0.9c-0.1-0.1-0.1-0.3-0.1-0.4C188.6,124.7,188.8,124.6,188.9,124.6
				C188.9,124.6,188.9,124.6,188.9,124.6z"/>
			<path fill="#826729" d="M193.5,128.7C193.5,128.7,193.5,128.7,193.5,128.7c0.1,1.4-3-1.4-3.5-1.9c0,0,0,0,0,0
				C190.5,127.1,193.4,129.8,193.5,128.7z"/>
			<path fill="#826729" d="M177,141.6c0,0.1,0.1,0.1,0.1,0.2c0.1,0.1,0.1,0.1,0.1,0.2c0,0,0,0.1-0.1,0c-0.1,0-0.2-0.1-0.3-0.2
				c0-0.1-0.1-0.2-0.2-0.2c0,0-0.1-0.1,0-0.1C176.7,141.5,176.9,141.5,177,141.6z"/>
			<path fill="#826729" d="M173,146.9C173,146.9,173,146.9,173,146.9c0.1,0.2,0,0.3-0.2,0.3c-0.1,0-0.1-0.1,0-0.1
				C172.9,147.1,173,147,173,146.9z"/>
			<path fill="#826729" d="M185.9,128.8c0.2,0.2,0.3,0.4,0.5,0.5c0,0,0,0.1,0,0C186.1,129.3,186,129.1,185.9,128.8
				C185.8,128.8,185.8,128.8,185.9,128.8z"/>
			<path fill="#826729" d="M183.9,138.4c0.2,0.2,0.5,0.4,0.7,0.5c0.2,0.1,0.4,0.3,0.5,0.5c0,0,0,0.1-0.1,0.1c-0.2,0-0.4-0.3-0.5-0.4
				C184.3,138.9,184.1,138.7,183.9,138.4C183.9,138.4,183.9,138.4,183.9,138.4z"/>
			<path fill="#826729" d="M188.6,136.3c0.1,0.2,0.2,0.3,0.4,0.5c0,0.1,0,0.1-0.1,0.1c-0.2-0.2-0.5-0.3-0.6-0.6c0,0,0-0.1,0-0.1
				C188.4,136,188.5,136.2,188.6,136.3z"/>
			<path fill="#826729" d="M192.9,131.4C192.9,131.3,192.9,131.3,192.9,131.4c0.2,0,0.3,0.1,0.4,0.2c0.1,0.1,0.3,0.3,0.4,0.4
				c0.2,0.2,0,0.3-0.1,0.2c-0.1-0.1-0.2-0.2-0.4-0.3C193.1,131.7,193,131.5,192.9,131.4z"/>
			<path fill="#826729" d="M181.1,131.7c0.2,0.2,0.3,0.3,0.5,0.6c0.1,0.1,0,0.1-0.1,0.1c-0.2-0.1-0.3-0.2-0.5-0.4
				c-0.1-0.1-0.4-0.3-0.4-0.5c0,0,0-0.1,0-0.1C180.8,131.4,180.9,131.5,181.1,131.7z"/>
			<path fill="#826729" d="M185.9,125.6c0.1,0,0.1,0.1,0.2,0.1c0.1,0,0.1,0.1,0.1,0.2c0,0.1,0.1,0.1,0.1,0.2c0,0.1,0,0.1,0.1,0.2
				c0,0,0,0,0,0.1c0,0-0.1,0-0.1,0c-0.1,0-0.2-0.1-0.3-0.3c0-0.1-0.1-0.1-0.1-0.2c0-0.1,0-0.1-0.1-0.2
				C185.7,125.6,185.8,125.6,185.9,125.6z"/>
		</g>
		<path fill="#72923C" d="M184.6,98.6c0.4,0.7,1,1.4,1.6,2c-0.2-0.1-0.4-0.2-0.6-0.3c-0.1,0-0.2,0.1-0.1,0.2c0.3,0.4,0.7,0.7,1,1
			c0,0-0.1-0.1-0.1-0.1c-0.2-0.1-0.3,0-0.2,0.2c0.3,0.5,0.7,0.8,1.1,1.2c0,0-0.1,0-0.1,0c-0.1-0.1-0.3,0-0.2,0.1
			c0.1,0.3,0.3,0.6,0.5,0.8c0,0-0.1,0.1,0,0.2c0.1,0.2,0.3,0.4,0.5,0.5c0,0.1,0,0.1,0.1,0.2c0.3,0.4,0.6,0.7,1,1
			c0.1,0.1,0.2,0.1,0.3,0.1c0.3,0.5,0.5,1,0.8,1.5c0,0-0.1,0-0.1,0c-0.1,0-0.1-0.1-0.2-0.1c-0.1-0.1-0.1-0.1-0.2-0.1
			c-0.1-0.1-0.1-0.1-0.2-0.2c-0.2-0.3-0.4-0.5-0.7-0.7c0,0-0.1,0-0.1,0c-0.4-0.3-0.6-0.8-1.1-1c-0.1,0-0.1,0-0.2,0
			c-0.3-0.3-0.6-0.5-1-0.6l0,0l0,0c0,0,0,0,0,0c0,0-0.1,0-0.1,0c-0.3-0.2-0.7-0.3-1-0.3c-0.2,0-0.1,0.3,0.1,0.4
			c0.3,0.2,0.6,0.4,0.9,0.5c0.2,0.1,0.4,0.1,0.5,0.2c0.1-0.1,0.1-0.1-0.1,0.1c-0.1,0.1,0,0.3,0.2,0.4c0.3,0.1,1.1,0.2,0.8,0.5
			c-0.1,0.1,0,0.3,0.1,0.4c0.3,0.2,0.6,0.3,0.8,0.4c0,0.1,0.1,0.3,0.3,0.4c0.1,0,0.2,0,0.2,0c-0.1,0.1,0,0.3,0.2,0.4
			c0.1,0,0.2,0.1,0.3,0.1c-0.1,0.1-0.1,0.1-0.2,0.2c-0.1,0.1,0.2,0.3,0.3,0.3c0.3,0,0.6-0.1,0.9-0.3c0.1-0.1,0-0.3-0.2-0.3
			c0,0,0,0,0,0c0-0.1,0-0.2-0.1-0.2c0.1,0.1,0.2,0.2,0.3,0.2c0.2,0.4,0.5,0.8,0.6,1.2c0,0,0,0,0,0c0-0.1-0.1-0.2-0.1-0.3
			c0.4,0.8,0.6,1.5,0.9,2.3c0.1,0.2,0.2,0.4,0.2,0.6c0,0,0,0,0,0c-0.1,0-0.5-0.5-0.6-0.7c-0.1-0.1-0.2-0.1-0.3,0
			c-0.1-0.1-0.3-0.3-0.4-0.4c-0.1-0.1-0.3-0.1-0.3,0c0,0,0,0.1,0,0.1c-0.4-0.3-0.7-0.7-1.1-0.9c-0.1,0-0.3,0-0.2,0.2
			c-0.1-0.1-0.3-0.3-0.5-0.4c-0.1,0-0.1,0-0.2,0c-0.2-0.2-0.5-0.3-0.7-0.2c-0.1,0.1-0.1,0.2,0,0.4c-0.1,0-0.1-0.1-0.2-0.1
			c0-0.1-0.1-0.1-0.1-0.1c-0.4-0.2-0.6-0.2-0.8-0.1c-0.1,0,0,0.1,0,0.2c0,0,0.1,0.1,0.1,0.1c-0.2,0-0.5,0-0.6,0.1
			c-0.1,0,0,0.2,0.1,0.3c0.4,0.2,0.8,0.2,1.2,0.3c0.2,0.1,0.4,0.1,0.6,0.1c0.4,0,0.3,0,0.4,0.3c0,0.1,0.2,0.2,0.3,0.1
			c0.1,0,0.2,0,0.3,0c0,0.1,0,0.1,0,0.2c0,0.1,0.1,0.2,0.2,0.2c0.3,0,0.5-0.1,0.8-0.1c0,0,0,0.1,0,0.1c0,0.1,0.1,0.2,0.2,0.2
			c0,0,0,0,0,0c0,0.1,0.2,0.4,0.3,0.3c0.1,0,0.3-0.1,0.4-0.1c0,0.1,0.1,0.3,0.3,0.3c0.1,0,0.1,0,0.2,0c0.1,0.1,0.2,0.2,0.3,0.1
			c0.1-0.1,0.2-0.2,0.4-0.1c0.1,0,0.1,0,0.1-0.1c0,0,0.1,0,0.1,0c0.2,0.6,0.5,1.1,0.7,1.7c0.1,0.3,0.2,0.6,0.3,0.9
			c0.1,0.4,0.2,0.8,0.3,1.2c0-0.1-0.1-0.1-0.1-0.2c-0.1-0.1-0.1-0.2-0.2-0.3c0,0,0-0.1,0-0.1c0,0,0-0.1,0-0.1c0-0.1-0.1-0.2-0.1-0.3
			c0-0.1-0.1-0.1-0.2-0.2c-0.1-0.2-0.1-0.3-0.2-0.5c-0.1-0.1-0.2-0.2-0.3-0.1c-0.1-0.2-0.1-0.4-0.2-0.7c0-0.1-0.2-0.2-0.2-0.2
			c-0.1-0.2-0.1-0.4-0.2-0.5c0-0.2-0.3-0.3-0.3-0.1c0,0.1,0,0.2,0,0.3c-0.1-0.1-0.2-0.3-0.3-0.4c-0.1-0.1-0.3-0.1-0.3,0
			c0.1,0.5,0.2,0.4-0.2,0.1c-0.2-0.1-0.3-0.2-0.5-0.2c-0.1,0-0.1,0.1,0,0.2c0.1,0.1,0.2,0.2,0.3,0.3c0,0,0,0,0,0
			c0,0.1,0,0.2,0.1,0.2c0.3,0.1,0.6,0.2,0.9,0.4c-0.1,0-0.1,0.1-0.2,0.1c-0.1,0.1,0,0.2,0.1,0.2c0.2,0.1,0.3,0.2,0.5,0.3
			c0,0,0,0.1,0.1,0.2c0,0-0.1,0-0.1,0c-0.1,0-0.2,0.1-0.1,0.2c0.2,0.4,0.6,0.6,1,0.7c0.3,0.3,0.6,0.7,0.9,0.9
			c0.1,0.1,0.1,0.2,0.2,0.3c0,0,0,0,0,0c0,0.2,0.1,0.4,0.1,0.7c0.1,0.7,0.3,1.3,0.4,2c0.1,0.9-0.1,1.8-0.3,2.6
			c-0.1,0.3-0.3,0.5-0.5,0.7c-0.5,0.6-0.9,1.2-1.4,1.8c-0.5,0.6-1.1,1.1-1.4,1.8c-0.1,0.2,0.2,0.5,0.4,0.4c1.5-0.8,2.2-2.6,3.1-4
			c0.7-1.3,0.6-3,0.1-4.8c0-0.2,0-0.4-0.1-0.7c0-0.1,0-0.2,0-0.2c0-0.1,0-0.2,0-0.3c0.1-0.1,0.1-0.2,0.2-0.3c0,0.1,0.1,0.1,0.1,0.1
			c0.2-0.2,0.5-0.3,0.9-0.3c0.1,0,0.1-0.2-0.1-0.3c0,0,0,0,0,0l0,0c0,0,0,0,0,0c-0.1,0-0.1,0-0.2,0c0.1,0,0.3,0,0.5,0
			c0.1,0,0.1,0,0.2,0c0.1,0,0.1-0.2,0-0.2c0.1-0.1,0.2-0.1,0.3-0.2c0.1-0.1,0-0.2-0.1-0.3c0.1-0.1,0.2-0.2,0.4-0.3
			c0.1,0,0-0.2-0.1-0.3c0.1-0.1,0.2-0.2,0.3-0.4c0.1-0.1-0.1-0.3-0.3-0.3c0,0,0,0,0-0.1c0-0.2-0.3-0.3-0.3-0.2
			c0,0.1-0.1,0.2-0.2,0.2c-0.1,0-0.1,0-0.1,0.1l0,0c-0.1,0.1-0.3,0.2-0.4,0.2c-0.1,0.1-0.1,0.1-0.2,0.2c-0.1-0.1-0.3-0.2-0.3-0.1
			c0,0.1,0,0.2-0.1,0.3c-0.1-0.1-0.2-0.1-0.2,0c0,0.2,0,0.4,0,0.6c0,0.1,0,0.2-0.1,0.2c0,0.1-0.1,0.1-0.1,0.2
			c-0.1,0.2-0.1,0.5-0.2,0.7c-0.1-0.5-0.1-0.9-0.2-1.4c-0.2-0.8-0.6-1.7-1-2.6c0,0,0-0.1,0-0.1c0-0.1-0.1-0.1-0.1-0.2c0,0,0,0,0,0
			c0.1,0,0.1,0,0.2,0c0,0.1,0,0.1,0,0.2c0,0.2,0.3,0.3,0.3,0.1c0-0.2,0.2-0.2,0.3-0.3c0,0,0,0,0.1-0.1c0,0,0,0,0,0c0,0,0.1,0,0.1,0
			c0.3,0.1,0.6,0.2,0.8,0.1c0.2,0,0.2-0.3,0.1-0.4c0.1,0,0.2,0,0.4,0c0.2,0,0.2-0.2,0.1-0.4c0.1,0,0.2,0,0.2-0.1
			c0.1,0,0.2-0.1,0.1-0.2c0.1,0,0.2-0.1,0.2-0.1c0.3-0.1,0-0.7-0.4-0.7c0,0-0.1,0-0.1,0c0.1,0,0.2-0.1,0.2-0.1
			c0.1,0,0.2-0.1,0.4-0.1c0.2-0.1,0.1-0.3,0-0.4c0.1,0,0.3-0.1,0.4-0.1c0.2-0.1-0.1-0.4-0.3-0.4c-0.1,0-0.2,0-0.2,0
			c0,0,0.1-0.1,0.1-0.1c0.1,0,0.2-0.1,0.3-0.1c0.1,0.1,0.2,0.2,0.3,0.1c0.1-0.1,0.2-0.1,0.2-0.3c0-0.1-0.1-0.2-0.2-0.3
			c0-0.1,0.1-0.2,0.1-0.3c0-0.1,0-0.2-0.1-0.2c0.1-0.2,0.2-0.5,0.2-0.8c0-0.2-0.3-0.3-0.4-0.2c-0.4,0.4-0.5,1.1-0.8,1.5c0,0,0,0,0,0
			c0-0.1,0-0.3,0-0.4c0-0.1-0.2-0.3-0.3-0.3c-0.1,0.1-0.2,0.3-0.3,0.4c0,0,0,0,0,0c-0.1-0.1-0.2-0.2-0.3-0.2
			c-0.2,0.1-0.3,0.3-0.3,0.5c-0.1-0.1-0.2-0.1-0.3-0.1c-0.3,0.1-0.3,0.4-0.4,0.7c0,0,0,0,0,0c-0.1-0.1-0.3-0.2-0.3-0.1
			c-0.2,0.3-0.1,0.6-0.2,1c-0.1-0.1-0.1-0.1-0.2-0.1c-0.4,0-0.2,1-0.3,1c-0.1,0-0.2,0.1-0.3,0.2c-0.2-0.4-0.3-0.7-0.4-1.1
			c-0.2-0.7-0.5-1.3-0.9-2c-0.1-0.1-0.2-0.3-0.2-0.4c0.3-0.1,0.6,0,0.8-0.2c0,0,0.1-0.1,0-0.1c0.2,0,0.4,0,0.6,0
			c0.3,0,0.1-0.5-0.2-0.5c-0.1,0-0.2,0-0.3,0c0.2-0.2,0.5-0.3,0.8-0.4c0.2-0.1-0.1-0.6-0.4-0.5c0,0,0,0-0.1,0
			c0.1-0.1,0.2-0.2,0.3-0.3c0.1-0.1,0-0.3-0.1-0.4c0.1-0.1,0.2-0.2,0.3-0.3c0.1-0.1,0-0.5-0.3-0.5c0.1-0.7,0.3-1.4-0.3-2.2
			c-0.1-0.1-0.3-0.2-0.4-0.1c-0.1,0.3,0.1,0.8,0,1.1c-0.1,0.2-0.1,0.4-0.1,0.6c0,0-0.1,0-0.1,0c-0.2,0.1-0.2,0.4-0.1,0.6
			c-0.1-0.1-0.2-0.1-0.3,0c-0.2,0.3,0,0.8,0,1.1c0,0.2-0.3-0.1-0.5,0c-0.2,0.1-0.2,0.5-0.1,0.8c0,0.2,0,0.3,0,0.4
			c-0.1-0.2-0.1-0.5-0.2-0.7c0-0.1-0.2-0.1-0.2,0c0,0.1,0.1,0.2,0.1,0.4c0,0,0-0.1-0.1-0.1c0-0.1-0.1,0-0.1,0
			c0.1,0.3,0.2,0.6,0.3,0.9c0,0,0,0,0,0c0,0,0,0,0,0c-0.1-0.2-0.2-0.3-0.2-0.5c-0.2-0.6-0.5-1.1-0.8-1.7c0.1-0.1,0.2-0.2,0.4-0.4
			c0.1-0.1-0.1-0.4-0.3-0.4c0-0.2-0.1-0.5-0.1-0.7c0-0.1-0.1-0.3-0.3-0.3c0-0.3,0-0.6,0-1c0-0.3-0.4-0.4-0.5-0.2
			c0,0-0.1,0.1-0.1,0.1c0-0.4,0.1-0.8,0.1-1.1c0-0.3-0.4-0.5-0.5-0.3c-0.1,0.1-0.1,0.2-0.2,0.4c0,0,0,0,0-0.1c0-0.2-0.4-0.4-0.5-0.2
			c0,0,0,0,0,0c0-0.2-0.1-0.4-0.1-0.6c0-0.2-0.3-0.3-0.4-0.3c-0.1,0-0.2,0-0.2,0.1c-0.3-0.3-0.5-0.8-0.7-1.2
			c-0.3-0.4-0.8-0.8-1.2-1.1C184.7,98.3,184.5,98.4,184.6,98.6z M191,106.7c0-0.1-0.1-0.3,0-0.2c0,0,0,0,0.1,0.1
			C191,106.6,191,106.7,191,106.7z M194.3,116.2c0-0.1,0.1-0.1,0.1-0.2c0-0.1,0.1-0.1,0.2-0.2c0,0,0,0,0,0c0,0,0,0,0,0
			c0,0,0,0,0.1,0C194.5,116,194.4,116.1,194.3,116.2z M191,113.3c-0.1,0-0.1,0-0.2-0.1c0,0,0,0,0-0.1
			C190.9,113.2,191,113.3,191,113.3z M191.9,113.7c-0.1-0.1-0.2-0.1-0.2-0.2c0,0-0.1,0-0.1,0c-0.1-0.1-0.2-0.1-0.3-0.2c0,0,0,0,0,0
			c0.1,0,0.1,0,0.1-0.1c0,0.1,0.1,0.1,0.1,0.2c0.1,0.1,0.2,0.1,0.2,0.1c0,0,0,0,0,0C191.8,113.6,191.8,113.7,191.9,113.7z
			 M192,114.2c-0.1-0.1-0.2-0.1-0.4-0.2c0,0,0.1,0,0.1,0c0,0,0,0,0,0C191.9,114,191.9,114.1,192,114.2z M194,110.7
			C194,110.8,194,110.8,194,110.7c0,0.1,0,0.1-0.1,0.1C193.9,110.8,193.9,110.8,194,110.7z M193.6,110.2c0,0.1,0,0.1,0.1,0.2
			c0,0.1,0.1,0.2,0.2,0.2c-0.1,0.1-0.2,0.2-0.3,0.4C193.6,110.6,193.6,110.4,193.6,110.2z M194.2,109.9c0,0.1,0.1,0.1,0.1,0.2
			c-0.1,0.1-0.1,0.1-0.2,0.2c0,0-0.1,0.1-0.1,0.1c0-0.2,0-0.5,0.1-0.7C194.2,109.7,194.2,109.8,194.2,109.9z M194.8,109.6
			c-0.1,0.1-0.1,0.1-0.2,0.2c0-0.2,0-0.4,0.1-0.6C194.8,109.3,194.8,109.4,194.8,109.6z M193.2,110.9c0,0.1,0.1,0.1,0.2,0.1
			c0,0,0,0,0,0.1c0,0-0.1,0.1-0.1,0.1c0,0,0,0.1,0,0.1c-0.1,0.1-0.1,0.2-0.2,0.3c0,0,0,0,0,0c0-0.1,0-0.2,0-0.3
			C193.1,111.2,193.1,110.8,193.2,110.9z M186.8,110.2c0.1,0,0.2,0,0.3,0c0,0,0,0,0,0C187.1,110.2,187,110.2,186.8,110.2z
			 M187.6,110c-0.1,0-0.2-0.1-0.3-0.1c0,0-0.1,0-0.1-0.1c0,0,0.1,0,0.1,0C187.4,109.9,187.5,110,187.6,110z M188.9,110.5
			c-0.2,0-0.3,0-0.5,0c0,0-0.1,0-0.1,0c0.1,0,0.1-0.1,0-0.2C188,109.7,188.7,110.3,188.9,110.5C188.9,110.5,188.9,110.5,188.9,110.5
			z M189.7,111C189.7,111,189.7,111.1,189.7,111c-0.1,0.1-0.2,0.1-0.4,0.1c0-0.1,0-0.1,0-0.2c0-0.1-0.1-0.2-0.2-0.2
			c-0.2-0.1-0.3-0.1-0.5,0c0,0,0,0,0,0c0,0,0-0.1-0.1-0.1c0.1,0,0.1,0,0.2,0c0.2,0,0.3,0,0.5,0.1C189.4,110.8,189.5,110.9,189.7,111
			z M190,110.8c0,0-0.1,0-0.1,0c0,0,0-0.1,0-0.1C189.9,110.7,189.9,110.7,190,110.8z M190.5,111.2c-0.1,0-0.1,0-0.2,0
			c0-0.1-0.1-0.2-0.2-0.2c-0.1,0-0.1,0-0.2,0c0.1,0,0.1-0.1,0.1-0.2c0,0,0,0,0,0c0.1,0,0.2,0.1,0.3,0.2
			C190.3,111.1,190.4,111.2,190.5,111.2z M191.6,111.8c-0.1,0-0.1,0-0.2,0c0,0-0.1-0.1-0.1-0.1c-0.2-0.1-0.4-0.2-0.5-0.2
			c0,0,0,0,0,0c0,0,0-0.1,0-0.2c0,0,0,0,0,0c0.1,0.1,0.3,0.2,0.4,0.2c0.1,0.1,0.1,0.1,0.2,0.2C191.5,111.8,191.6,111.8,191.6,111.8z
			 M190.2,107.5c0.1,0.1,0.1,0.2,0.2,0.3c-0.1-0.1-0.1-0.1-0.2-0.2C190.2,107.6,190.2,107.6,190.2,107.5z M188.9,106.8
			c-0.3-0.1-0.5-0.2-0.8-0.3c0.1-0.1,0.1-0.2,0.1-0.3c0.2,0.2,0.4,0.4,0.6,0.5C188.8,106.8,188.8,106.8,188.9,106.8
			C188.9,106.8,188.9,106.8,188.9,106.8z M188.7,104.8c0.1,0.1,0.1,0.2,0.2,0.4c-0.1-0.1-0.2-0.2-0.3-0.2
			C188.7,104.9,188.7,104.8,188.7,104.8z M188.6,104.1c0.1,0,0.1,0,0.1-0.1c0,0.1,0,0.3,0.1,0.4c0,0.1,0.2,0.2,0.3,0.3
			c0,0.1,0,0.2,0,0.3C188.9,104.7,188.8,104.4,188.6,104.1z M188.1,103.4C188.1,103.3,188.1,103.3,188.1,103.4
			c-0.1-0.1-0.1-0.2-0.1-0.2c0,0,0.1,0,0.1,0C188.1,103.3,188.1,103.3,188.1,103.4z M187.5,103.3c0.1,0,0.2,0.1,0.3,0.1c0,0,0,0,0,0
			c0.1,0.2,0.2,0.4,0.3,0.6C188,103.8,187.7,103.6,187.5,103.3z M187.5,102.2C187.5,102.2,187.5,102.2,187.5,102.2
			c0,0,0.1,0,0.1,0.1c0,0.1,0,0.1,0,0.2C187.6,102.4,187.6,102.3,187.5,102.2z M187,102.1c0.1,0.1,0.2,0.1,0.3,0.2
			c0,0.1,0.1,0.2,0.2,0.3C187.2,102.4,187.1,102.3,187,102.1z M186.1,100.8c0.2,0.1,0.4,0.3,0.5,0.5
			C186.5,101.1,186.3,101,186.1,100.8z"/>
		<path fill="#1E9216" d="M198.8,114.6c0.1,0.2,0.1,0.3,0.2,0.5c0,0,0,0,0,0c0,0-0.1,0-0.1,0c0,0.1,0,0.1,0,0.2c0,0-0.1,0-0.1,0
			c-0.1,0.2,0,0.5,0.2,0.9c-0.1-0.1-0.3-0.2-0.3-0.1c-0.1,0.2,0,0.5,0.2,0.9c-0.1,0-0.2,0-0.3,0c-0.1,0.1-0.1,0.4,0.1,0.6
			c-0.1,0.2,0,0.5,0.2,0.8c0,0,0,0.1,0,0.1c0.1,0.3,0.3,0.6,0.5,0.8c0,0.1,0.1,0.2,0.1,0.2c0,0.3,0,0.7-0.1,1
			c-0.1,0.1-0.2,0.1-0.3,0.2c0,0,0,0,0,0.1c0,0-0.1,0-0.1,0.1c-0.4,0.3-0.8,0.5-1.1,0.8c0.2-0.4,0.3-0.9,0.3-1.5
			c0.2-0.1,0.2-0.4,0.2-0.6c0-0.1,0-0.1-0.1-0.2c0-0.2,0.1-0.4,0.1-0.6c0-0.1-0.1-0.3-0.2-0.3c0-0.1,0.1-0.3,0-0.4
			c-0.1-0.3-0.2-0.6-0.3-0.8c0-0.2-0.1-0.3-0.2-0.4c-0.1-0.3-0.3-0.5-0.4-0.8c-0.1-0.2-0.4-0.3-0.3,0c0.1,0.1,0.1,0.3,0.2,0.5
			c-0.1,0-0.1,0-0.1,0.1c-0.1,0.2,0,0.4,0.2,0.6c-0.1-0.1-0.3,0-0.2,0.2c0.1,0.2,0.2,0.4,0.3,0.5c-0.1,0-0.1,0-0.1,0.1
			c0,0.3,0.2,0.5,0.4,0.7c-0.1,0-0.2,0.1-0.1,0.2c0.1,0.1,0.2,0.3,0.3,0.4c0,0,0,0,0,0.1c0,0.2,0,0.5,0.2,0.7c0,0,0.1,0.1,0.1,0
			c0,0,0,0,0,0c0,0,0,0,0.1,0c0,0,0,0,0,0c0,0.1,0,0.1,0,0.2c0,0.6-0.1,1-0.4,1.5c-0.9,0.6-1.8,1.3-2.7,1.9c-0.7,0.5-1.5,1-2.1,1.5
			c-0.6,0.5-1.3,1.1-1.5,2c0,0.2,0.3,0.4,0.4,0.4c0.8-0.2,1.4-1,1.9-1.5c0.4-0.4,0.8-0.9,1.2-1.3c1-0.7,2-1.5,2.9-2.3
			c0.7-0.6,1.4-1.2,2.1-1.7c0.1,0.1,0.3,0.2,0.4,0.2c0.2,0.3,0.4,0.6,0.6,0.7c0.5,0.4,0.6,1,0.9,1.5c0.1,0.1,0.3,0.1,0.3,0
			c0-0.1,0-0.2,0-0.3c0.2,0.4,0.4,0.8,0.8,1.1c0.1,0.1,0.2,0,0.2,0c0-0.1,0-0.2,0-0.4c0.3,0.3,0.7,0.8,0.6,0.3c0,0,0,0,0,0
			c0,0.2-0.3-0.2-0.5-0.5c0.1,0.1,0.2,0,0.2,0c0.1,0.1,0.1,0.2,0.2,0.3c0.1,0.1,0.1,0.1,0.2,0.1c0.1,0.2,0.2,0.3,0.3,0.5
			c0.1,0.2,0.3,0.2,0.4,0.1c0.1,0.2,0.2,0.3,0.4,0.4c0.1,0,0.1,0.1,0.2,0.1c0.1,0.2,0.2,0.4,0.4,0.5c0.1,0.1,0.1,0.1,0.2,0.1
			c0.1,0.1,0.1,0.3,0.2,0.4c0.1,0.2,0.2,0.1,0.2,0c0-0.2-0.1-0.4-0.2-0.6c0,0,0,0,0.1,0c0,0,0.1,0,0.1,0.1c0.3,0.3,0.5,0.6,0.9,0.7
			c0.2,0.1,0.2-0.1,0.1-0.2c-0.1-0.2-0.3-0.3-0.5-0.5c0,0,0.1,0,0.1,0c0.2,0,0.1-0.3-0.1-0.4c0,0-0.1,0-0.1,0c0,0,0,0,0,0
			c0.1-0.1,0-0.2-0.1-0.3c-0.1-0.1-0.3-0.1-0.4-0.2c0-0.1,0-0.3-0.2-0.3c-0.2-0.1-0.3-0.1-0.5-0.1c0,0,0,0,0.1-0.1
			c0.1-0.1,0-0.3-0.2-0.4c-0.2-0.1-0.3-0.1-0.5-0.1c0,0,0,0,0.1,0c0.1-0.1,0-0.3-0.1-0.4c-0.2-0.2-0.3-0.2-0.5-0.1c0,0,0,0,0,0
			c0-0.1-0.1-0.1-0.1-0.2c-0.3-0.3-0.5-0.4-0.8-0.4c-0.1-0.3-0.2-0.4-0.7-0.6c-0.2-0.1-0.2-0.2-0.5-0.3c-0.4-0.2-0.6,0-1-0.3
			c-0.1,0-0.1,0-0.2,0c-0.2-0.1-0.4-0.2-0.5-0.3c-0.1-0.1-0.2-0.2-0.3-0.2c0,0-0.1,0-0.1,0c0,0,0,0,0,0c0,0,0,0,0,0
			c0.1-0.1,0.2-0.1,0.4-0.2c0.2,0,0.4-0.1,0.5-0.2c0.2-0.1,0.3-0.3,0.4-0.5c0.2-0.1,0.4-0.2,0.6-0.4c0.3,0,0.5-0.1,0.8,0
			c0,0.1,0,0.1,0,0.2c0,0.1,0.1,0.2,0.2,0.3c0.2,0.1,0.5,0.7,0.7,1c0.2,0.1,0.3,0.1,0.4,0c0,0,0,0,0,0c0.1,0.2,0.3,0.4,0.5,0.5
			c0.1,0.1,0.2,0.1,0.3,0c0.1,0.2,0.2,0.3,0.4,0.4c0.1,0.1,0.3,0.1,0.3,0c0.2,0.3,0.3,0.5,0.6,0.5c0.3,0.1,0.3-0.1,0.3-0.3
			c0.2,0.3,0.3,0.5,0.5,0.7c0.1,0.1,0.2,0.1,0.2,0c0.1-0.2,0-0.4,0-0.6c0.2,0.3,0.4,0.6,0.7,0.8c0.1,0,0.1,0.1,0.2,0
			c0-0.1,0-0.3,0-0.4c0.1,0.1,0.2,0.2,0.3,0.3c0.1,0.1,0.2,0,0.2,0c0.1,0.1,0.2,0.2,0.3,0.4c0.1,0.1,0.2,0,0.2,0c0-0.1,0-0.2,0-0.3
			c0.1,0.1,0.2,0.1,0.4,0.2c0.1,0,0.1,0,0.1,0c0.2,0.1,0.3,0.2,0.5,0.3c0.1,0,0.1-0.1,0-0.2c-0.3-0.3-0.7-0.6-1.1-0.7
			c0-0.1,0-0.2-0.1-0.2c-0.2-0.2-0.4-0.3-0.6-0.3c0,0,0-0.1,0-0.1c0.1-0.1-0.1-0.3-0.2-0.3c-0.3,0-0.5-0.1-0.8-0.2c0,0,0,0,0,0
			c0.1-0.1,0-0.3-0.2-0.4c-0.2-0.1-0.4-0.1-0.6-0.1c0,0,0-0.1,0-0.1c0-0.1-0.1-0.3-0.3-0.3c-0.1,0-0.3,0-0.4,0
			c0-0.3-0.4-0.4-0.8-0.5c0,0,0-0.1,0-0.1c0-0.1-0.1-0.3-0.2-0.3c-0.1-0.1-0.2-0.1-0.3,0c0,0,0,0,0-0.1c0-0.1-0.2-0.3-0.3-0.3
			c-0.1,0-0.2,0-0.3,0.1c0,0,0,0,0,0c0-0.1-0.2-0.3-0.3-0.3c-0.3,0-0.5,0-0.7,0c-0.1,0-0.1,0.1-0.1,0.2c-0.1,0-0.2,0-0.3,0
			c0.3-0.2,0.6-0.4,0.8-0.6c0.1-0.1,0.2-0.1,0.3-0.2c0.3,0.1,0.6,0.2,0.9,0.1c0,0,0.1,0,0.1-0.1c0.2,0,0.4,0,0.5,0
			c0.1,0,0.1,0,0.2,0c0.1,0,0.2-0.1,0.1-0.2c0,0,0,0,0,0c0.1,0,0.2,0,0.3,0c0.1,0,0.1-0.1,0.1-0.1c0,0,0.1,0,0.1,0
			c0,0,0.1,0.1,0.1,0.1c0.4,0.2,0.6,0.2,0.9,0c0.1,0,0.1-0.1,0-0.2c0,0,0.1,0,0.1,0c0.2,0,0.3-0.4-0.1-0.5c0,0-0.1,0-0.1,0
			c0.3-0.2,0.7-0.2,0.9-0.3c0.2-0.1,0.1-0.3-0.1-0.5c0.4-0.1,0.8-0.2,1-0.5c0.1-0.1,0-0.2-0.1-0.3c-0.1-0.1,0.4-0.5,0.5-0.5
			c0.1-0.1,0-0.3-0.2-0.5c0,0,0,0,0,0c0-0.1-0.1-0.3-0.2-0.3c-0.1-0.1-0.2-0.1-0.3-0.1c-0.1,0-0.2-0.1-0.3,0
			c-0.2,0.2-0.4,0.5-0.7,0.7c0,0,0,0,0,0c0-0.2-0.2-0.3-0.3-0.3c-0.2,0-0.3,0.1-0.3,0.2c-0.1-0.1-0.2-0.2-0.3-0.2
			c-0.3,0.1-0.4,0.3-0.5,0.6c-0.1,0-0.1-0.1-0.2-0.1c-0.4,0-0.5,0.2-0.6,0.5c-0.1-0.1-0.2-0.1-0.3-0.1c-0.4,0.1-0.4,0.4-0.6,0.7
			c-0.1,0-0.2,0-0.2,0.1c0,0.1-0.1,0.2-0.1,0.4c0,0,0,0,0,0c0,0.1-0.1,0.2-0.2,0.3c0,0-0.1,0-0.1,0.1c-0.3,0.2-0.6,0.3-0.6,0.7
			c0,0,0,0.1,0,0.1c-0.1,0.1-0.3,0.2-0.4,0.3c-0.3,0.2-0.6,0.4-0.9,0.5c0-0.1,0.1-0.2,0.1-0.3c0.1-0.2,0.1-0.4,0.2-0.6
			c0.3-0.1,0.4-0.3,0.5-0.6c0.2-0.3,0.4-0.5,0.4-0.8c0-0.2-0.1-0.3-0.3-0.3c0.1-0.1,0.2-0.2,0.2-0.3c0.1-0.1-0.1-0.4-0.3-0.4
			c0,0,0,0,0,0c0.1-0.2-0.3-0.4-0.4-0.3c0,0,0,0,0,0c0-0.5,0.1-0.9,0.1-1.4c0-0.1-0.1-0.2-0.2-0.3c0-0.1,0-0.2,0-0.2
			c0-0.1-0.1-0.1-0.1-0.1c-0.1-0.2-0.1-0.5-0.1-0.6c-0.1-0.3-0.1-0.7-0.3-1c-0.1-0.2-0.3-0.2-0.4-0.1c-0.1,0.5,0.2,1,0.4,1.6
			c-0.1,0-0.2,0-0.2,0.1c0,0.3,0.1,0.6,0.2,0.8c-0.2-0.2-0.3-0.3-0.4-0.1c-0.1,0.2,0,0.6,0.1,0.9c0,0-0.1,0-0.1,0.1
			c-0.1,0.4,0.1,0.9,0.3,1.3c-0.1,0-0.1,0-0.2,0c-0.2,0.1-0.1,0.4,0,0.7c0,0,0,0,0,0c-0.1,0.2-0.1,0.5,0,0.8c0.1,0.6-0.3,0.7-0.5,1
			c-0.2,0.3-0.4,0.7-0.5,1c-0.2,0.1-0.3,0.2-0.5,0.3c0.1-0.2,0.1-0.4,0.1-0.6c0.3-0.3,0.6-0.7,0.8-1c0.1-0.1-0.1-0.3-0.2-0.4
			c0,0,0,0,0,0c0-0.1-0.1-0.2-0.2-0.2c0.1-0.2,0.2-0.3,0.2-0.6c0-0.2-0.2-0.3-0.3-0.2c0-0.1,0-0.2,0-0.4c0-0.1-0.1-0.2-0.2-0.2
			c0.1-0.1,0.1-0.3,0.2-0.4c0-0.1,0-0.3-0.2-0.3c0-0.1,0-0.2,0-0.3c0-0.1-0.1-0.3-0.3-0.3c-0.1,0-0.1,0-0.2,0
			c-0.2-0.4-0.3-0.9-0.6-1.3c-0.1-0.1-0.3-0.2-0.3,0C198.5,114,198.7,114.3,198.8,114.6z M201.5,114.7c0,0,0-0.1,0-0.1
			c-0.1-0.4-0.1-0.4,0.1-0.2C201.6,114.4,201.5,114.6,201.5,114.7z M202,116.7c0,0,0-0.1,0-0.1c0-0.2,0-0.5,0-0.7c0,0,0,0,0,0
			C202,116.1,202,116.4,202,116.7C202,116.7,202,116.7,202,116.7z M208.2,115.7c0,0,0,0.1,0,0.1c0,0-0.1,0.1-0.1,0.1
			C208.1,115.8,208.2,115.8,208.2,115.7z M207.5,116.1c0,0,0-0.1-0.1-0.1c0,0,0.1,0,0.1,0c0,0,0,0,0,0c0,0,0,0.1,0.1,0.1
			c0,0,0.1,0,0.1,0C207.6,116.1,207.6,116.1,207.5,116.1z M206.1,117.5c0,0,0.1,0,0.1-0.1c0,0,0,0.1,0,0.2c0,0,0,0-0.1,0
			c0,0,0,0,0,0C206.1,117.5,206.1,117.5,206.1,117.5z M208,122.3C208,122.3,208,122.3,208,122.3c0.1,0.1,0.1,0.1,0.2,0.1
			c0,0,0,0,0,0c0,0,0,0.1,0.1,0.1C208.1,122.5,208.1,122.4,208,122.3C208,122.3,208,122.3,208,122.3z M207.6,121.8
			c0.1,0,0.2,0,0.3,0.1c0,0,0,0,0,0c0,0,0,0.1,0,0.1C207.8,121.9,207.7,121.8,207.6,121.8z M206.8,122.1c0.1,0,0.1,0.1,0.2,0.1
			c0,0.1,0,0.2,0,0.2C206.9,122.3,206.8,122.2,206.8,122.1z M206.3,121.1c0.1,0,0.1,0.1,0.2,0.1c0.1,0,0.1,0.1,0.2,0.1
			c0,0,0,0.1,0,0.1c0,0,0,0,0,0c0,0,0,0,0,0c-0.1,0-0.1-0.1-0.2-0.1C206.4,121.3,206.4,121.2,206.3,121.1z M205.7,120.8
			c0.1,0,0.1,0.1,0.2,0.1c0,0,0,0,0.1,0c-0.1,0-0.1,0.1-0.1,0.1c0,0,0,0,0,0C205.8,120.9,205.8,120.9,205.7,120.8z M204.9,120.9
			c0.1,0,0.1,0.1,0.2,0.1c0,0,0,0,0,0c0,0,0,0,0,0c0,0-0.1,0-0.1,0c0,0,0,0,0,0C205,121,205,120.9,204.9,120.9z M204.2,120.3
			c0.1,0,0.1,0,0.2,0c0,0,0,0,0,0.1c-0.1,0-0.1,0-0.2,0.1C204.3,120.4,204.3,120.4,204.2,120.3z M203.5,119.8
			C203.5,119.8,203.6,119.8,203.5,119.8c0.1,0,0.2,0.1,0.2,0.1c0,0,0,0,0,0c0,0,0,0.1,0,0.1C203.6,120,203.6,119.9,203.5,119.8z
			 M205.5,124.5c0,0,0.1,0.1,0.1,0.1c0,0.1,0,0.1,0,0.2C205.5,124.6,205.5,124.6,205.5,124.5z M203.7,122.8c0.1,0,0.2,0,0.2,0.1
			c0,0,0,0.1,0,0.1C203.9,122.9,203.8,122.8,203.7,122.8z M202.6,122.9c0.2,0.2,0.3,0.3,0.5,0.3c0,0,0,0,0,0
			c-0.1,0.1-0.1,0.2-0.1,0.3C202.8,123.4,202.7,123.2,202.6,122.9z M201.8,121.9c0.1,0.1,0.2,0.2,0.4,0.2
			C202,122.1,201.9,122.1,201.8,121.9C201.8,121.9,201.8,121.9,201.8,121.9z M201.5,118.7c0,0.1-0.1,0.3-0.1,0.4
			c0,0-0.1,0.1-0.1,0.1c0,0,0,0,0,0c0,0,0,0,0,0c-0.2,0.1-0.3,0.2-0.5,0.3c0,0,0,0,0,0c0.1-0.1,0.1-0.2,0.2-0.3
			C201.1,119,201.4,118.9,201.5,118.7z M202,117.3c-0.1,0.1-0.1,0.2-0.2,0.2c0,0,0-0.1,0-0.1c0.1-0.1,0.1-0.3,0.1-0.4c0,0,0,0,0.1,0
			C202,117.1,202,117.2,202,117.3z M202.3,117.2c0-0.1,0-0.1,0-0.2c0,0,0.1,0,0.1,0C202.3,117,202.3,117.1,202.3,117.2z
			 M201.5,117.7C201.6,117.7,201.6,117.7,201.5,117.7c0.1,0.1,0.1,0.1,0.1,0.2c0,0.1,0.1,0.1,0.1,0.1c0,0.1-0.1,0.2-0.1,0.3
			C201.6,118.1,201.6,117.9,201.5,117.7z M197.8,118.1c0,0-0.1-0.1-0.1-0.1c0-0.1,0-0.2-0.1-0.2c0.1,0,0.1-0.1,0.1-0.1
			c0-0.1-0.1-0.2-0.2-0.4c0,0,0,0,0,0c0,0,0.1,0,0.1,0C197.6,117.6,197.8,117.9,197.8,118.1z M197.7,118.6c-0.1-0.1-0.2-0.3-0.3-0.4
			c0.1,0.1,0.2,0.1,0.2,0.2C197.7,118.5,197.7,118.6,197.7,118.6z M198,119c0-0.1-0.1-0.2-0.1-0.3c0,0,0.1,0.1,0.1,0.1
			C198,118.9,198,119,198,119z M199.8,118.7c0,0,0,0.1,0.1,0.1c0,0,0,0.1-0.1,0.1C199.8,118.8,199.8,118.7,199.8,118.7z
			 M199.4,118.5c0,0,0.1,0,0.1,0c0,0,0,0.1,0,0.1C199.5,118.6,199.5,118.5,199.4,118.5z M199.3,117.5c0.1,0.1,0.1,0.1,0.2,0.1
			c0,0.2,0,0.4,0,0.6c0,0,0,0,0,0.1c-0.1-0.2-0.2-0.3-0.3-0.4c-0.1-0.1-0.2-0.2-0.2-0.4C198.7,116.9,199.2,117.5,199.3,117.5z
			 M199.3,116.5c0.1,0.2,0.1,0.5,0.2,0.7c-0.2-0.2-0.3-0.5-0.4-0.8C198.9,116,199,116.3,199.3,116.5z"/>
		<path fill="#84EB14" d="M194.3,110.1c0.1,0.2,0.2,0.3,0.3,0.5c0,0,0,0.1,0,0.1c0.1,0.2,0.2,0.3,0.3,0.5c-0.1,0-0.1,0-0.1,0
			c-0.1,0.2,0.2,0.6,0.5,1c0,0,0,0.1,0,0.1c0.1,0.2,0.2,0.5,0.4,0.7c0,0,0,0,0,0c0,0.2,0.1,0.5,0.3,0.7c0,0,0,0,0,0.1
			c0,0.1,0.1,0.3,0.1,0.5c0,0-0.1,0.1,0,0.1c0.1,0.3,0.3,0.6,0.4,0.8c0,0,0,0,0,0c0.1,0.1,0.2,0.2,0.2,0.4c0,0.2,0,0.4,0,0.5
			c0,0,0,0,0,0c0,0.1,0,0.1-0.1,0.2c0,0.2,0,0.3-0.1,0.5c-0.1,0.2-0.2,0.4-0.3,0.6c0,0.1-0.1,0.1-0.1,0.2c-0.3,0.5-0.5,0.9-0.8,1.4
			c-0.3,0.7-0.7,1.4-1.2,2c-0.7,0.8-1.4,1.7-2.1,2.6c-0.5,0.7-0.9,1.4-1.4,2.1c-0.1,0-0.2,0.1-0.1,0.3c0,0,0,0.1,0,0.1
			c0.1,0.2,0.3,0.3,0.4,0.3c0,0,0,0,0,0c0,0,0,0,0,0.1c0.3-0.5,0.7-1,1-1.5c0.1-0.2,0.3-0.4,0.4-0.6c0.4-0.6,0.8-1.2,1.2-1.8
			c0.5-0.8,1-1.6,1.4-2.4c0.4-0.7,0.8-1.4,1.3-2c0.2-0.4,0.6-0.8,0.7-1.2c0-0.3,0.1-0.6,0.2-0.8c0,0,0,0,0,0c0.4,0,0.8-0.1,1.1-0.2
			c0.4,0.1,0.9,0.4,1.1,0.2c0,0,0,0,0-0.1c0.1,0,0.2,0.1,0.3,0.1c0.1,0,0.1,0,0.1-0.1c0.1,0.1,0.3,0.1,0.4,0.2c0.1,0,0.1,0,0.1,0
			c0.2,0.1,0.3,0.1,0.4,0c0,0,0-0.1,0-0.1c0.1,0,0.3,0.1,0.4,0.1c0,0,0,0,0,0c0,0,0.1,0,0.1,0.1c0,0,0.1-0.1,0.1-0.1c0,0,0,0,0,0
			c0,0,0,0,0-0.1c0.2,0.1,0.4,0.1,0.5-0.1c0,0,0-0.2-0.1-0.2c0,0-0.1-0.1-0.1-0.1c0.1-0.1,0.1-0.1,0.2-0.2c0,0,0,0,0,0
			c0.4,0,0.9,0.1,1.1-0.1c0.1-0.1,0-0.2-0.1-0.3c-0.1,0-0.3-0.1-0.4-0.1c0,0,0,0,0-0.1c0,0,0,0,0-0.1c0,0,0,0,0.1-0.1
			c-0.1,0-0.1,0-0.2-0.1c0,0,0,0,0,0c-0.4-0.2-0.7-0.1-0.9,0.1c0,0-0.1-0.1-0.1-0.1c-0.1,0-0.1,0-0.2,0c0,0-0.1-0.1-0.2,0
			c-0.1,0-0.2,0.1-0.3,0.1c-0.1-0.1-0.2-0.1-0.2-0.1c-0.2,0.1-0.4,0.3-0.6,0.4c0,0-0.1,0-0.1,0c0-0.1-0.1-0.2-0.2-0.2
			c-0.4,0.2-0.6,0.5-1,0.6c-0.4,0-0.8,0.1-1.2,0.2c0.1-0.1,0.1-0.2,0.2-0.3c0.1-0.1,0.1-0.3,0.2-0.4c0.4,0,0.7-0.1,1-0.2
			c0,0,0,0,0,0c0.3-0.1,0.6-0.2,0.5-0.5c0-0.1-0.1-0.1-0.1-0.2c0,0,0,0,0,0c0.3-0.1,0.6-0.2,0.7-0.4c0-0.1,0-0.2-0.1-0.2
			c0.2-0.1,0.4-0.1,0.5-0.3c0-0.1,0-0.2-0.1-0.3c0.3-0.1,0.5-0.2,0.6-0.4c0-0.1-0.1-0.3-0.2-0.3c-0.4-0.1-0.6,0-0.9,0
			c0.3-0.3,0.8-0.5,1-0.9c0.1-0.1-0.1-0.4-0.3-0.3c0,0,0,0,0,0c0.2-0.3,0.4-0.7,0-0.8c-0.4-0.1-0.6,0.3-0.8,0.6
			c-0.1-0.1-0.3-0.2-0.4-0.1c-0.2,0.2-0.2,0.4-0.2,0.7c0-0.1-0.1-0.1-0.1-0.2c-0.1-0.1-0.3-0.1-0.3,0c0,0.2-0.1,0.3-0.1,0.5
			c0,0,0,0,0-0.1c-0.1-0.1-0.3-0.2-0.3,0c0,0.1,0,0.3,0,0.4c0,0,0,0,0,0c-0.1-0.1-0.2-0.1-0.2,0c-0.1,0.1-0.2,0.3-0.2,0.4
			c0,0-0.1-0.1-0.2-0.1c0-0.1-0.1-0.1-0.2-0.2c-0.2-0.2-0.4-0.2-0.4,0c-0.1,0.4,0.1,0.8,0.2,1.2c0.1,0.5,0.1,0.9,0.2,1.4
			c0,0,0,0,0,0c0,0,0,0,0,0c0,0,0,0,0-0.1c0,0,0,0,0,0c0-0.1,0-0.2-0.1-0.3c0-0.1-0.1-0.1-0.1-0.1c0-0.2-0.1-0.4-0.3-0.5
			c0,0-0.1,0-0.1,0c0-0.3,0.1-0.6-0.1-0.9c0-0.1-0.1-0.1-0.2-0.1c0-0.2,0-0.3-0.2-0.5c0,0-0.1-0.1-0.1-0.1c0-0.2,0-0.3-0.1-0.5
			c0-0.1-0.2-0.2-0.2-0.1c0-0.2-0.1-0.3-0.2-0.5c-0.1-0.1-0.1-0.1-0.2-0.1c0.2-0.2-0.6-0.9-0.8-1C194.3,109.9,194.3,110,194.3,110.1
			z M201.4,115.5c0.1,0,0.1,0,0.2,0c0,0,0,0-0.1,0.1C201.5,115.6,201.5,115.6,201.4,115.5z M201.8,115.1
			C201.8,115.1,201.8,115.1,201.8,115.1c0,0,0.2,0,0.3,0c0,0,0,0-0.1,0.1C201.9,115.1,201.9,115.1,201.8,115.1
			C201.8,115.1,201.8,115.1,201.8,115.1C201.8,115.1,201.8,115.1,201.8,115.1z M200.7,115.4c-0.1,0-0.2,0-0.3,0
			c0.1-0.1,0.2-0.1,0.3-0.2C200.6,115.3,200.6,115.3,200.7,115.4z M200.7,115.5C200.7,115.5,200.7,115.5,200.7,115.5
			C200.8,115.5,200.8,115.5,200.7,115.5c0.2,0,0.2,0.1,0.3,0.1C200.9,115.6,200.8,115.6,200.7,115.5z M200.4,115.6
			C200.4,115.6,200.5,115.6,200.4,115.6c0.1,0,0.1,0,0.1,0.1C200.5,115.7,200.4,115.7,200.4,115.6z M200,115.8c0,0,0.1,0,0.1,0
			c0,0,0,0.1,0.1,0.1C200.1,115.8,200,115.8,200,115.8z M199.9,115.5c0.1,0,0.1-0.1,0.2-0.1c0,0,0,0,0.1,0.1
			C200,115.5,199.9,115.5,199.9,115.5z M198.9,115.6c0.1,0,0.2-0.1,0.2-0.1c0,0.1,0.1,0.2,0.2,0.1c0,0,0.1,0,0.1,0c0,0,0,0,0,0
			c-0.1,0-0.2,0-0.3,0c0,0,0,0-0.1,0c-0.1,0-0.1,0-0.1,0C199,115.6,199,115.6,198.9,115.6z M198,113.7c0-0.2-0.1-0.5-0.2-0.7
			c0-0.2,0-0.3,0.1-0.4c0,0.3,0.1,0.6,0.1,0.8c0,0.1,0.1,0.1,0.1,0.2C198.1,113.5,198,113.6,198,113.7z M198.1,114.2
			C198.1,114.2,198.1,114.2,198.1,114.2c0.2,0.1,0.2,0.2,0.3,0.2c-0.1,0-0.2,0.1-0.4,0.1c0,0-0.1,0-0.1,0
			C198,114.4,198,114.3,198.1,114.2z M198.3,113.7C198.3,113.7,198.3,113.7,198.3,113.7c0.2,0.1,0.3,0.1,0.3,0c0,0,0.1,0,0.1,0.1
			c-0.2,0.1-0.4,0.1-0.5,0.1c0,0,0,0,0-0.1C198.3,113.7,198.3,113.7,198.3,113.7z M198.5,113.1C198.5,113.1,198.6,113.2,198.5,113.1
			c0,0.1-0.1,0.2-0.1,0.3C198.4,113.3,198.5,113.2,198.5,113.1z M196.7,114.8C196.7,114.8,196.8,114.8,196.7,114.8
			c0.1,0.1,0.1,0.1,0.1,0.1c0,0,0,0,0,0c0,0,0,0,0,0C196.7,114.9,196.7,114.8,196.7,114.8z M196.3,114.4c0.1,0,0.1,0,0.1,0
			c0,0.2,0.1,0.3,0.1,0.5C196.4,114.7,196.4,114.6,196.3,114.4z M196,113.5c0,0,0.1,0,0.1,0c0.1,0.2,0.1,0.4,0.2,0.5
			C196.2,113.9,196.1,113.7,196,113.5z M196.1,113.1C196.1,113.1,196.1,113.1,196.1,113.1c0.1,0,0.1-0.1,0.1-0.1c0,0.1,0,0.3,0,0.4
			C196.2,113.3,196.2,113.2,196.1,113.1z M195.8,112.5C195.9,112.5,195.9,112.5,195.8,112.5c0.1,0.1,0.1,0.1,0.1,0.2
			C195.9,112.6,195.9,112.5,195.8,112.5z M195.2,111.6C195.2,111.6,195.2,111.6,195.2,111.6c0.1,0.1,0.2,0.2,0.2,0.3
			C195.3,111.8,195.3,111.8,195.2,111.6C195.2,111.6,195,111.5,195.2,111.6z"/>
		<path fill="#84EB14" d="M190.9,126.5c-0.2,0.3,0.4,0.8,0.6,0.6c0.3-0.3,1.2-0.2,1.6-0.2c0.6,0,1.2,0,1.9,0c0.9,0,1.8-0.1,2.7,0
			c0.2,0.1,0.4,0.3,0.5,0.4c0,0.1,0.1,0.2,0.1,0.2c0.3,0.2,0.4,0.5,0.6,0.7c0.1,0.1,0.1,0.1,0.2,0.1c0,0.1,0.1,0.1,0.1,0.2
			c0.1,0.1,0.3,0.2,0.3,0.1c0,0,0-0.1,0-0.1c0.1,0.2,0.2,0.5,0.3,0.7c0.1,0.1,0.3,0.1,0.2,0c0-0.2,0.3,0.3,0.3,0.3
			c0,0.1,0.1,0.1,0.1,0.2c0,0.1,0.1,0.1,0.1,0.1c0.1,0.2,0.2,0.4,0.2,0.6c0,0.1,0.2,0.1,0.2,0c0-0.1,0-0.1,0-0.2c0,0,0-0.1,0-0.1
			c0,0,0,0,0,0c0,0,0.1,0,0.1,0c0,0-0.1-0.1-0.1-0.1c0,0,0,0,0,0c0-0.1-0.1-0.1-0.1-0.2c0.1,0.1,0.2,0.2,0.3,0.3
			c0.1,0.1,0.1,0.1,0.2,0c0.2-0.4-0.7-0.8-1.1-1.2c0.1-0.2-0.1-0.5-0.3-0.7c0-0.1,0-0.2-0.1-0.2c-0.1-0.1-0.3-0.2-0.4-0.3
			c0,0-0.1-0.1-0.1-0.1c-0.4-0.2-0.8-0.5-1-0.4c-0.1-0.1-0.2-0.2-0.3-0.2c0,0,0,0,0.1,0c0.6,0,1.2,0,1.7,0c0.1,0.2,0.3,0.4,0.4,0.5
			c0,0.1,0.1,0.2,0.1,0.3c0,0,0,0.1,0.1,0.1c0.1,0.3,0.1,0.6,0.4,0.8c0,0,0.1,0.1,0.1,0.1c0,0.2,0.1,0.4,0.2,0.5
			c0,0.1,0.1,0.1,0.1,0.1c0,0.2,0.1,0.4,0.2,0.6c0,0.1,0.1,0.1,0.2,0.1c0,0.2,0.1,0.4,0.3,0.5c0.1,0.1,0.1,0.1,0.2,0.1
			c0,0,0,0,0-0.1c0,0,0,0.1,0.1,0.1c0,0.1,0.1,0.1,0.1,0c0-0.1,0-0.1-0.1-0.3c0-0.1-0.1-0.1-0.1-0.1c0,0,0,0,0,0c0,0,0,0,0,0
			c-0.2-0.1-0.2-0.5-0.2-0.7c0,0,0,0,0,0c0,0,0,0,0,0c0.1,0.2,0.2,0.4,0.3,0.6c0,0,0,0,0.1,0.1c0.2,0.3,0.4,0.6,0.6,0.8c0,0,0,0,0,0
			c0.1,0.1,0.2,0,0.1-0.1c-0.3-0.3-0.5-0.7-0.7-1c0,0,0.1,0.1,0.1,0.1c0,0,0.1,0.1,0.1,0.1c0,0,0,0,0,0.1c0,0,0,0.1,0,0.1l0.1,0.1
			c0.1,0.1,0.1,0,0.1,0c0.1,0,0.2,0,0.3,0c0.1,0,0.1-0.1,0-0.1c-0.1-0.1-0.3-0.3-0.4-0.4c-0.1-0.1-0.5-0.4-0.2-0.3
			c0.1,0,0.2-0.1,0-0.2c0,0-0.1-0.1-0.1-0.1c0.1,0,0.2,0,0.2-0.1c0.1,0,0-0.2-0.1-0.3c-0.1-0.1-0.3-0.2-0.4-0.2
			c0.1-0.1,0-0.3-0.2-0.3c-0.1-0.1-0.3-0.1-0.4-0.1c0.1-0.2,0.1-0.5-0.4-0.6c-0.4-0.1-0.3-0.2-0.5-0.5c-0.1-0.1-0.3-0.2-0.4-0.3
			c0.2,0,0.3,0,0.5,0c0,0,0.1,0.1,0.1,0.1c0.5,0.2,0.6,0.6,1,0.9c0.1,0.1,0.2,0,0.2-0.1c0,0,0,0,0,0c0.2,0.2,0.3,0.3,0.5,0.3
			c0.1,0,0.2-0.1,0.1-0.3c0,0-0.1-0.1-0.1-0.2c0.1,0.1,0.1,0.1,0.2,0.1c0,0,0.1,0,0.1,0c0.1,0.1,0.1,0.2,0.2,0.2
			c0.2,0.2,0.3,0.5,0.6,0.6c0.1,0,0.1,0,0.1-0.1c0-0.2-0.1-0.4-0.2-0.5c0.1,0.2,0.3,0.3,0.5,0.5c0.1,0,0.1,0.1,0.1,0
			c0-0.1,0-0.1,0-0.2c0.2,0.2,0.4,0.4,0.7,0.6c0,0,0,0,0.1,0c0,0,0,0,0,0c0.1,0.1,0.1,0,0.2,0c0.1,0.1,0.2,0.1,0.3,0.1
			c0.1,0,0.1-0.1,0-0.1c-0.2-0.3-0.5-0.5-0.7-0.7c-0.1-0.1-0.1-0.2-0.2-0.3c0.1,0.1,0.3,0.1,0.4,0.2c0,0,0,0,0,0
			c0,0,0.1,0.1,0.1,0.1c0.1,0.1,0.1,0.1,0.2,0.2c0,0,0,0,0,0c0,0,0,0,0,0c0,0,0,0,0,0c0,0,0,0,0,0c0,0,0,0,0,0c0,0,0,0,0,0
			c0,0,0,0,0,0c0,0,0,0,0,0c0,0,0,0,0,0c0.1,0.1,0.3,0.2,0.5,0.2c0.2,0.1,0.1-0.2,0-0.3c0,0-0.1-0.1-0.1-0.1c0,0,0,0,0,0
			c-0.1-0.1-0.1-0.1-0.2-0.2c0.1-0.1,0-0.2-0.1-0.3c-0.1,0-0.2-0.1-0.3-0.1c0-0.1-0.1-0.3-0.2-0.3c-0.1,0-0.2,0-0.3,0c0,0,0,0,0,0
			c0.1-0.1-0.1-0.3-0.2-0.3c-0.1,0-0.2,0-0.2,0.1c0,0-0.1,0-0.1,0c0,0,0.1-0.1,0.1-0.1c0.1-0.1-0.1-0.2-0.2-0.2
			c-0.1,0-0.1,0.1-0.2,0.1c0,0,0,0-0.1-0.1c0,0-0.1-0.1-0.1-0.1c0-0.1-0.1-0.3-0.2-0.2c0,0-0.1,0.1-0.1,0.1c0,0-0.1,0-0.1,0
			c0,0,0-0.1-0.1-0.1c0-0.1,0.1-0.1,0.1-0.2c0-0.1,0-0.2-0.1-0.2c-0.2-0.1-0.3-0.1-0.5-0.1c0,0,0,0,0,0c0-0.1-0.1-0.2-0.2-0.3
			c-0.3,0-0.6,0-0.9,0.1c0,0,0,0,0,0c-0.4-0.1-0.6,0.2-0.9,0.4c-0.1,0,0,0.2,0.1,0.3c0,0,0,0,0,0c-0.1,0,0,0.1,0,0.2
			c-0.2,0-0.5,0-0.7,0c0.1-0.1,0.1-0.2,0.2-0.3c0,0,0,0,0,0c0.2-0.4,0.3-0.9,0.5-1.3c0,0,0.1,0,0.1-0.1c0.1,0,0-0.2-0.1-0.2
			c0,0-0.1-0.1-0.1-0.1c0,0,0,0,0,0c0-0.2,0-0.5,0-0.8c0-0.1-0.2-0.2-0.3-0.2c0,0,0,0,0,0c-0.1-0.2-0.1-0.4-0.2-0.6
			c-0.1-0.2-0.3-0.4-0.4-0.6c-0.1-0.2-0.3-0.2-0.3-0.1c0,0.1,0.1,0.3,0.1,0.4c-0.1,0-0.2,0-0.2,0.1c0,0.2,0.1,0.4,0.1,0.7
			c-0.1,0-0.1,0.1-0.1,0.1c0.1,0.2,0.2,0.4,0.3,0.6c0,0-0.1,0-0.1,0.1c-0.1,0.2,0,0.4,0.2,0.6c0,0,0,0.1,0,0.1
			c0.1,0.2,0.2,0.5,0.2,0.7c0,0.1,0.1,0.1,0.1,0.2c-0.1,0.2-0.1,0.4-0.3,0.5c0,0,0,0,0,0c0,0,0,0,0,0c0,0-0.1,0,0,0
			c-0.5,0-0.9,0-1.4,0c-0.2,0-0.3,0-0.5,0c0-0.1,0.1-0.2,0.1-0.3c0-0.1,0.1-0.1,0.1-0.2c0,0,0,0,0,0c0,0,0,0,0,0
			c0.4-0.1,0.7-0.4,0.9-0.7c0-0.1,0-0.2-0.1-0.2c0,0,0,0,0.1-0.1c0.1-0.1,0-0.2-0.1-0.3c0-0.6,0-1.4-0.6-2c-0.1-0.1-0.3-0.1-0.2,0.1
			c0.1,0.3,0.1,0.6,0.1,0.9c0,0-0.1,0-0.1,0c-0.1,0.1-0.1,0.3,0,0.5c0,0,0,0,0,0c-0.1,0.2,0,0.3,0,0.5c-0.1,0-0.1,0-0.1,0
			c-0.1,0.2-0.1,0.3-0.1,0.6c0.1,0.4,0,0.7-0.1,1.1c0,0,0,0,0,0c-0.9,0-1.8,0.1-2.8,0c-0.9-0.1-1.8-0.2-2.8-0.3
			C191.4,126.2,191.1,126.2,190.9,126.5z M197.8,125.7c0-0.1-0.1-0.3-0.1-0.4c0.1,0.1,0.2,0.1,0.2,0c0-0.1,0-0.3-0.1-0.5
			c0.1,0,0.2,0,0.1-0.1c0-0.1-0.1-0.2-0.1-0.4c0,0,0.1,0,0.1,0c0,0.3,0.1,0.6,0,0.9C198,125.4,197.9,125.6,197.8,125.7z M200,124.7
			c-0.1-0.1-0.1-0.2-0.2-0.4c0.1,0,0.1-0.1,0-0.2c-0.1-0.2-0.2-0.3-0.2-0.5c0.1,0.1,0.1,0.1,0.2,0.2c0,0.1,0.1,0.1,0.1,0.1
			C200,124.2,200,124.4,200,124.7z M200.2,124.6c0-0.1,0-0.3,0-0.4c0,0,0,0,0.1,0C200.2,124.4,200.2,124.5,200.2,124.6z
			 M200.3,124.8C200.3,124.9,200.3,124.9,200.3,124.8c-0.1,0.1-0.1,0.1-0.1,0.1c0-0.1,0-0.1,0-0.2
			C200.2,124.8,200.3,124.8,200.3,124.8z M202,129.4C202,129.4,202,129.4,202,129.4c0.1,0,0.1,0.1,0.1,0.1c0,0,0,0.1,0,0.2
			c0.1,0.2,0.3,0.3,0.5,0.5c0.1,0.1,0.2,0.2,0.3,0.3c-0.1-0.1-0.2-0.1-0.3-0.1c-0.2-0.2-0.3-0.4-0.5-0.5
			C202.1,129.6,202,129.5,202,129.4z M201.6,128.8c0,0-0.1-0.1-0.1-0.1C201.6,128.6,201.6,128.7,201.6,128.8
			C201.7,128.7,201.7,128.7,201.6,128.8C201.6,128.8,201.6,128.8,201.6,128.8z M201.3,128.6c0.1,0.1,0.2,0.3,0.3,0.4
			c0.1,0.1,0.1,0.2,0.2,0.3c0,0-0.1,0-0.1,0c0,0,0,0,0,0.1c0-0.1,0-0.2,0-0.2c0-0.1-0.1-0.2-0.2-0.2
			C201.3,128.8,201.3,128.7,201.3,128.6z M201.1,128c0.2,0.1,0.2,0,0.1,0.2C201.2,128.1,201.1,128,201.1,128z M201.5,126.7
			c-0.1,0-0.2,0-0.3-0.1c-0.1,0-0.1-0.1-0.2-0.1c0.1,0,0.2-0.1,0.2-0.1c0,0,0.1,0,0.1,0c0,0,0.1,0,0.1,0c0,0,0,0,0.1,0
			C201.5,126.6,201.5,126.7,201.5,126.7z M202.5,127c-0.1,0-0.2,0-0.2-0.1c0,0-0.1,0-0.1-0.1c0,0,0,0,0.1,0c0.1,0,0.1,0,0.2,0
			C202.4,126.8,202.4,126.9,202.5,127C202.4,126.9,202.5,126.9,202.5,127z M202.1,126.6c0,0,0,0.1,0,0.1
			C202.1,126.7,202,126.7,202.1,126.6C202,126.7,202,126.7,202.1,126.6z M202.5,126.6c-0.2,0-0.4,0.1-0.4,0c0.1-0.1,0.2-0.2,0.3-0.3
			c0.1,0,0.2-0.1,0.4,0C202.8,126.4,202.7,126.5,202.5,126.6z M203.4,127c0,0-0.1,0-0.1,0C203.3,127,203.3,127,203.4,127
			C203.4,127,203.4,127,203.4,127z M204.3,128C204.3,127.9,204.2,127.9,204.3,128C204.2,127.9,204.2,127.9,204.3,128
			c-0.1-0.1-0.1-0.1-0.2-0.1c0,0-0.1-0.1-0.1-0.1c0,0,0-0.1-0.1-0.1c0.1,0,0.2,0.1,0.3,0.1C204.2,127.8,204.2,127.8,204.3,128
			C204.2,127.9,204.3,127.9,204.3,128z M203.7,127.9c0.1,0,0.2,0.1,0.3,0.1c0,0.1,0,0.2,0.1,0.2C203.9,128.1,203.8,128,203.7,127.9z
			 M203.1,127.6c0.1,0.1,0.2,0.2,0.3,0.3c0,0.1,0.1,0.2,0.1,0.4C203.3,128.1,203.2,127.9,203.1,127.6
			C203.1,127.7,203.1,127.6,203.1,127.6z M203.1,127.4C203.1,127.4,203.1,127.4,203.1,127.4C203.1,127.4,203.1,127.4,203.1,127.4
			C203.1,127.4,203.1,127.4,203.1,127.4z M202.2,127.2C202.2,127.2,202.1,127.2,202.2,127.2C202.1,127.1,202.1,127.1,202.2,127.2
			C202.2,127.2,202.2,127.2,202.2,127.2c0.1,0.3,0.7,0.9-0.1,0.2C202.2,127.4,202.2,127.3,202.2,127.2z M201.5,127.1
			c0.1,0.1,0.2,0.1,0.4,0.2c0,0,0,0,0,0c0,0,0,0.1,0,0.1C201.7,127.3,201.6,127.2,201.5,127.1z M199,127.7c0.1,0.1,0.2,0.1,0.3,0.2
			c0,0,0,0,0,0.1C199.2,127.9,199.1,127.8,199,127.7z"/>
	</g>
</g>
<g>
	<path fill="#00FB78" d="M70.9,57.9v18.2h-6.7v17.7H44V51.7c0-7.9,2.4-14.5,7.3-19.7c4.9-5.2,11-7.8,18.5-7.8
		c8.2,0,15,3.5,20.5,10.6L73.8,46.9c-0.9-2.6-2.6-3.9-4.9-3.9c-3.1,0-4.7,2.2-4.7,6.5v8.4H70.9z"/>
	<path fill="#00FB78" d="M126.5,24.3c9.6,0,17.8,3.5,24.7,10.5c6.9,7,10.3,15.4,10.3,25.1c0,9.9-3.5,18.3-10.4,25.2
		c-6.9,6.9-15.3,10.4-25.2,10.4c-9.8,0-18.2-3.5-25.2-10.4S90.3,69.7,90.3,59.8c0-9.9,3.5-18.4,10.5-25.2
		C107.8,27.7,116.4,24.3,126.5,24.3z M125.9,44.2c-4.1,0-7.7,1.5-10.6,4.6c-2.9,3-4.4,6.7-4.4,11c0,4.3,1.5,8,4.4,11
		c2.9,3,6.5,4.6,10.6,4.6c4.2,0,7.7-1.5,10.6-4.5c2.9-3,4.3-6.7,4.3-11.1c0-4.3-1.4-8-4.3-11.1C133.6,45.8,130.1,44.2,125.9,44.2z"
		/>
	<path fill="#00FB78" d="M203.2,24.3c9.6,0,17.8,3.5,24.7,10.5c6.9,7,10.3,15.4,10.3,25.1c0,9.9-3.5,18.3-10.4,25.2
		c-6.9,6.9-15.3,10.4-25.2,10.4c-9.8,0-18.2-3.5-25.2-10.4S167,69.7,167,59.8c0-9.9,3.5-18.4,10.5-25.2
		C184.5,27.7,193.1,24.3,203.2,24.3z M202.6,44.2c-4.1,0-7.7,1.5-10.6,4.6c-2.9,3-4.4,6.7-4.4,11c0,4.3,1.5,8,4.4,11
		c2.9,3,6.5,4.6,10.6,4.6c4.2,0,7.7-1.5,10.6-4.5c2.9-3,4.3-6.7,4.3-11.1c0-4.3-1.4-8-4.3-11.1C210.3,45.8,206.8,44.2,202.6,44.2z"
		/>
	<path fill="#00FB78" d="M267.9,45.4v48.3h-20.2V26H274c11.5,0,20.6,2.6,27.1,7.9c7.8,6.3,11.6,14.8,11.6,25.5
		c0,10.3-3.3,18.6-9.9,25.1c-6.6,6.5-15.2,9.7-25.6,9.7c-1.2,0-3.2-0.1-6-0.2V74.1h3.2c11.8,0,17.6-4.9,17.6-14.8
		c0-9.2-5.8-13.9-17.3-13.9H267.9z"/>
</g>
<g>
	<path fill="#00861D" d="M44.2,265.1v-37.8c0-4.7,1.9-8.5,5.7-11.5c3.8-3,8.7-4.5,14.8-4.5c7.2,0,12.7,2.5,16.6,7.4
		c2.4-2.7,4.9-4.6,7.6-5.7c2.7-1.1,6.1-1.7,10-1.7c6.3,0,11.2,1.5,14.5,4.5c3.4,3,5,7.2,5,12.8v36.4H97.7V231c0-1.7-0.2-2.8-0.5-3.4
		c-0.4-0.5-1.1-0.8-2.2-0.8c-2.1,0-3.1,1.3-3.1,3.9v34.4H71V231c0-1.7-0.2-2.8-0.6-3.3c-0.4-0.6-1.1-0.8-2.2-0.8
		c-2.1,0-3.1,1.4-3.1,4.2v34.1H44.2z"/>
	<path fill="#00861D" d="M156.7,238.8v13.8h-6v12.5h-20.9v-33.3c0-6.4,2.4-11.5,7.1-15c4.7-3.6,11.3-5.4,19.9-5.4
		c8.2,0,14.3,1.6,18.3,4.9c3.9,3.2,5.9,8.2,5.9,15v33.9H160v-32.8c0-2-0.3-3.5-1-4.3c-0.7-0.8-1.8-1.2-3.5-1.2
		c-3.3,0-4.9,1.8-4.9,5.5v6.5H156.7z"/>
	<path fill="#00861D" d="M267.2,212.7v52.4h-20.9v-52.4H267.2z M307.3,212.7l-18.5,23.8l18.4,28.6h-23.5l-15.9-28.9l18-23.5H307.3z"
		/>
</g>
<g>
	<path fill="#00671F" d="M213.6,226.8c-4.8,0-7.1,1.2-7.1,3.7c0,2.8,2.1,4.2,6.2,4.2h1.5v13.5l-9.5,16.9h-20.6l11.3-21.6
		c-5.8-3.6-8.7-8.1-8.7-13.4c0-5.2,2.3-9.5,7-12.9c4.2-3,10.2-4.5,17.8-4.5h25.1v52.4h-19.6v-38.3H213.6z"/>
</g>
</svg>
