<?xml version="1.0" encoding="utf-8"?>
<!-- Generator: Adobe Illustrator 18.0.0, SVG Export Plug-In . SVG Version: 6.00 Build 0)  -->
<!DOCTYPE svg PUBLIC "-//W3C//DTD SVG 1.1//EN" "http://www.w3.org/Graphics/SVG/1.1/DTD/svg11.dtd">
<svg version="1.1" id="Layer_1" xmlns="http://www.w3.org/2000/svg" xmlns:xlink="http://www.w3.org/1999/xlink" x="0px" y="0px"
	 viewBox="0 0 128.7 129.1" enable-background="new 0 0 128.7 129.1" xml:space="preserve">
<g>
	<g>
		<circle fill="#FD8973" cx="65" cy="63.8" r="62.8"/>
	</g>
</g>
<g>
	<path fill="#FFFFFF" d="M22.9,80.2c-1.2,1.5-3,2.6-5.5,2.6c-3.1,0.1-0.7-13.3-1.2-15.2c0,0,3.4-0.8,3.1,2.6l-0.1,1.7
		c0.6-1.3,1.5-2.5,2.6-2.4c1.7,0.2,1.1,3.4-0.8,5.7c0.3-0.1,0.6-0.1,0.9-0.1C24.7,75.2,24.6,78,22.9,80.2z M22.9,77.3
		c-0.1-1.6-2.6-0.9-3.9,0.3c0,2.1,0.1,3.8,0.4,4C19.4,81.6,23,80,22.9,77.3z M19.1,76v0.1c2-1.5,3.3-5.7,2.2-5.8
		C20.2,70.3,19.3,75.1,19.1,76z"/>
	<path fill="#FFFFFF" d="M34.8,75.8c-0.1,0.5-1.1,6.6-4.5,6.6c-1.3,0-1.7-1.4-1.6-3.1c-0.5,0.8-1.2,1.5-2.3,1.4
		c-2.8-0.1-1.1-6.2-1.3-7c0,0,2.6-0.5,2.3,1.7c-0.4,2.8-0.5,4.7,0.8,3.4c1.2-1.3,0.9-4.3,0.9-4.3s3-0.7,2.8,2.4
		c-0.2,3.1-0.6,5,0.7,3.4c1.3-1.6,1.6-4.6,1.6-4.6S34.9,75.4,34.8,75.8z"/>
	<path fill="#FFFFFF" d="M41.1,80c1.6,7.2-0.5,8.6-0.9,8.8c-0.2,0.1-0.5,0.1-0.6,0.2c-1.9,0.2-1.8-6.3-1.7-10.6
		c-0.5,1.4-1.3,2.8-2.9,2.8c-2.8-0.1-1.1-6.2-1.3-7c0,0,2.6-0.5,2.3,1.7c-0.4,2.8-0.5,4.7,0.8,3.4c0.8-0.9,1-2.6,1-3.6l0-0.7
		c0,0,2.9-0.9,2.9,2.4c0,0.7,0,1.6,0,2.5c2-2.3,3.2-4,3.2-4l0.3,0.2L41.1,80z M40.6,80c0,2,0,4.2,0.2,5.7
		C41.6,83.2,40.9,80.8,40.6,80z"/>
	<path fill="#FFFFFF" d="M53.2,83.3c0,0-1.1-3,1.2-3.2c3-0.1,3.7-0.4,3.3-1.2c-1.3-2.6-7.7-3.7-2.2-10.2c0.1-0.1,0.4-0.4,0.7-0.7
		c0.5-0.4,1.2-0.8,1.9-0.6c1.1,0.4,1.3,1.4,1.1,2.6c-0.3,1.2-0.5,3.1-0.5,3.7h-0.7c0,0,0.2-2,0.3-3.2c0-0.4-0.4,0-0.9,0.5
		c-4.4,4.7,1.8,6.1,2,9.1C59.6,83.8,53.9,82.9,53.2,83.3z"/>
	<path fill="#FFFFFF" d="M67.7,76.3c-3,5.9-8.8,7.5-7.9,2c0.5-3.4,3.4-3.5,4.3-3.2c0.7,0.2,1.3,1.2,0.6,2.5c-0.5,0.9-1.6,1-2.3,1
		c-0.5,4.5,4.4-1.2,5-2.5L67.7,76.3z M62.4,78.1c1.1,0.1,1.6-0.5,1.7-0.9c0.1-0.3,0.3-1.1-0.4-1.1C63.5,76.1,62.7,76,62.4,78.1z"/>
	<path fill="#FFFFFF" d="M77.1,77.9c-0.1,0.3-1.5,4.6-3.8,5.5c-0.2,0.1-0.4,0.1-0.6,0.1c-0.1,0-0.1,0-0.2,0h0
		c-0.8,0-1.2-1.8-1.3-3.9c-0.6,1.2-1.6,2.5-2.7,2.9c-0.2,0.1-0.4,0.1-0.6,0.1c-0.1,0-0.1,0-0.2,0h0c-2.2,0-1.1-11.9-1-12.3
		c0.2-1.7,0.2-2.7,1-2.6c0,0,0.6,0,1.2,0.5c0.4,0.3,0.7,0.6,0.9,1c0.3,0.5,0.5,1.2,0.6,2c0.2,1.3,0,2.5-0.5,3.5
		c-0.2,0.5-0.5,0.8-0.8,1.1c-0.1,1.4-0.1,2.7-0.1,3.6c0.1,1.2,0.3,1.6,0.9,0.9c0.5-0.6,0.8-1.3,1.1-1.9c-0.1-3.3,0.3-6.9,0.3-7.2
		c0.2-1.7,0.2-2.7,1-2.6c0,0,0.6,0,1.2,0.4c0.4,0.3,0.7,0.6,0.9,1c0.3,0.5,0.5,1.2,0.6,2c0.2,1.3,0.1,2.5-0.5,3.5
		c-0.2,0.4-0.5,0.8-0.8,1.1c-0.1,1.4-0.1,2.6-0.1,3.6c0.1,1.2,0.3,1.6,0.9,0.8c1.1-1.4,1.8-3.4,1.8-3.4L77.1,77.9z M69.3,74.9
		c0.3-0.5,0.6-1.1,0.7-2c0-0.1,0.1-1.6-0.5-2.5C69.5,71.7,69.4,73.3,69.3,74.9z M74,75.8c0.3-0.5,0.6-1.1,0.7-2
		c0-0.1,0.1-1.6-0.5-2.5C74.2,72.5,74.1,74.2,74,75.8z"/>
	<path fill="#FFFFFF" d="M89.2,76.6c1.6,2.6,3.9,5.4,1.7,6.8c-0.4,0.2-1.2,0.6-2.1,0.4h0c0,0-0.1,0-0.1,0c-0.1,0-0.3-0.1-0.4-0.1
		c-0.2-0.1-0.4-0.2-0.6-0.3c-0.2-0.1-0.5-0.4-0.7-0.6c-0.2-0.3-0.4-0.6-0.5-1c0-0.1,0-0.1,0-0.1l0,0v0l0-0.1l0-0.1v-0.1
		c0-0.1,0-0.1,0-0.1c0-0.2-0.1-0.4-0.1-0.6c0-0.4,0-0.8,0.1-1.2c0.1-0.4,0.3-0.8,0.5-1.2l0-0.1c-0.2-0.3-0.4-0.6-0.6-0.9
		c-2.4-4,1.5-4.7,1.5-4.7c-0.4,1,0.2,2.2,0.9,3.5c1.9-1.1,4.2,0.5,4.2,0.5l0.1,0.4C93.2,77,90.5,75.4,89.2,76.6z M88.2,82.6l0.1,0.1
		c0.3,0.1,0.6,0.1,0.7-0.3c0.3-1.1-0.5-2.2-1.5-3.6c-0.1,0.2-0.2,0.5-0.2,0.7c-0.1,0.3-0.1,0.7-0.1,1l0.1,0.5c0,0.1,0.1,0.3,0.1,0.4
		c0.1,0.3,0.2,0.5,0.3,0.7C87.9,82.3,88,82.5,88.2,82.6z"/>
	<path fill="#FFFFFF" d="M105.4,75.6c0,0-0.4,2.3-2.7,1.8c-0.1,0.5-0.2,0.9-0.3,1.4c-0.1,0.4-0.3,0.9-0.5,1.2
		c-0.2,0.4-0.4,0.7-0.7,0.9c-0.2,0.2-0.4,0.4-0.5,0.5c-0.3,0.3-0.7,0.4-1.2,0.6c-1.4,0.4-2-1.5-2.2-3.4c-0.5,1.3-1.4,2.6-3.1,2.8
		c-2.8,0.4-1.5-6.2-2.1-7.8c0,0,2.9-1.1,3,2c0.1,3.1-0.1,5.1,1.1,3.3c0.5-0.8,0.8-1.5,0.9-2.1c-0.1-0.6-0.1-1.1-0.1-1.4
		c0,0,2.4-1.3,2.8,1.4c0.2,1.3,0.4,2.5,0.6,3.1c0.2-0.1,0.3-0.4,0.5-0.6c0.2-0.3,0.3-0.6,0.5-0.9c0.1-0.4,0.2-0.8,0.3-1.2
		c0-0.1,0-0.1,0-0.1c-0.2-0.1-0.4-0.2-0.6-0.3c-0.2-0.1-0.4-0.2-0.6-0.4s-0.3-0.4-0.5-0.7c-0.1-0.1-0.1-0.3-0.1-0.5
		c0-0.1,0-0.3,0-0.5c0.1-0.3,0.3-0.6,0.5-0.8c0.2-0.2,0.6-0.3,0.9-0.3c0.2,0,0.3,0.1,0.5,0.1c0.2,0.1,0.3,0.2,0.4,0.3
		c0.1,0.1,0.2,0.3,0.2,0.4c0.1,0.1,0.1,0.3,0.1,0.4c0,0.1,0.1,0.3,0.1,0.4c0,0.1,0,0.1,0,0.2v0.2c0,0.4,0,0.7-0.1,1
		c0,0,1.9,0.5,2.3-1.4L105.4,75.6z M101.8,75.5c0-0.1,0-0.2,0-0.3c0-0.2-0.1-0.4-0.2-0.5c-0.1-0.1-0.2-0.2-0.3-0.2
		c-0.1,0-0.3,0-0.4,0.1c-0.1,0.1-0.2,0.2-0.3,0.4c0,0.1,0,0.3,0,0.4c0.1,0.2,0.2,0.3,0.3,0.5c0.1,0.1,0.3,0.3,0.4,0.4l0.4,0.2
		c0-0.2,0.1-0.4,0.1-0.7c0,0,0-0.1,0-0.2V75.5z"/>
	<path fill="#FFFFFF" d="M114.4,75.6c0,0-1.7,6.2-5.3,6.2c-1.4,0-1.6-1.6-1.5-3.4c-0.6,0.6-1.4,1.2-2.6,1c-1.8-0.3-1.4-2.9,0.1-3.9
		c1.1-0.7,2.3-0.6,2.8-0.5c0-0.5,0-0.9,0-1.2c0,0,3-0.7,2.7,2.4c-0.2,3.1-0.1,4.8,1,3.4c1.6-1.9,2.1-4,2.1-4H114.4z M107.8,77.1
		c0-0.4,0.1-0.7,0.1-1.1c-0.5,0-2.1,0.1-2.2,1.4C105.7,78.8,107,78,107.8,77.1z"/>
	<path fill="#FFFFFF" d="M115.8,81.3c-0.1,2.6-0.1,5.1,0.3,5.3c-0.3,1.2-1.2,1.3-1.7,1.4c-2.8,0.1-0.6-13-1-14.7c0,0,3-0.7,2.7,2.4
		c0,0.3-0.1,0.7-0.1,1.1c0.5-1.1,1.2-2.2,2.3-2.1C120.2,75,118.6,79.7,115.8,81.3z M115.8,80.3L115.8,80.3c1.8-1.2,2.9-4.9,1.9-4.9
		C116.7,75.3,115.8,80.4,115.8,80.3L115.8,80.3z"/>
	<path fill="#FFFFFF" d="M29.7,98.6l-3.2-0.7c1.5,9.4-2.3,10-2.6,10h0c-2.2,0-1.1-17.4-1-17.8c0.2-1.7,0.2-2.7,1-2.6
		c0,0,0.6,0,1.2,0.5c0.4,0.3,0.7,0.6,0.9,1c0.3,0.5,0.5,1.2,0.6,2c0.2,1.3,0,2.5-0.5,3.5c-0.2,0.4-0.5,0.7-0.7,1
		c-0.1,3.5-0.2,7.4-0.1,9.5c1.4-3.4,0.5-7.7,0.5-7.7c1.5,0.2,3.9,0.9,3.9,0.9L29.7,98.6z M26.1,92.7c0-0.1,0.1-1.6-0.5-2.5
		c-0.1,1.1-0.1,2.6-0.2,4.4C25.8,94.1,26,93.5,26.1,92.7z"/>
	<path fill="#FFFFFF" d="M37.4,98.9c-0.1,0.4-1.7,8-5.1,7.8c-2.3-0.1-1.1-5.3-0.8-8c-3.9-0.1-2.4-1.7-2.8-2.9c0,0,2.5-1.2,2.4,1.2
		c0,0.5,0.7,0.5,0.8,0.5c0.8-0.1,2.6,0.1,2.3,2.5c-0.4,3.1-0.9,6.2,0.5,4.6c1.4-1.6,2.2-6,2.2-6S37.5,98.4,37.4,98.9z"/>
	<path fill="#FFFFFF" d="M43.6,98.6c-3,5.9-8.8,7.5-7.9,2c0.5-3.4,3.4-3.5,4.3-3.2c0.7,0.2,1.3,1.2,0.6,2.5c-0.5,0.9-1.6,1-2.3,1
		c-0.5,4.5,4.4-1.2,5-2.5L43.6,98.6z M38.4,100.4c1.1,0.1,1.6-0.5,1.7-0.9c0.1-0.3,0.3-1.1-0.4-1.1C39.5,98.4,38.7,98.3,38.4,100.4z
		"/>
	<path fill="#FFFFFF" d="M45.8,99c1.6,2.6,3.9,5.4,1.7,6.8c-0.4,0.2-1.2,0.6-2.1,0.4h0c0,0-0.1,0-0.1,0c-0.1,0-0.3-0.1-0.4-0.1
		c-0.2-0.1-0.4-0.2-0.6-0.3c-0.2-0.1-0.5-0.4-0.7-0.6s-0.4-0.6-0.5-1c0-0.1,0-0.1,0-0.1l0,0v0l0-0.1l0-0.1v-0.1c0-0.1,0-0.1,0-0.1
		c0-0.2-0.1-0.4-0.1-0.6c0-0.4,0-0.8,0.1-1.2c0.1-0.4,0.3-0.8,0.5-1.2l0-0.1c-0.2-0.3-0.4-0.6-0.6-0.9c-2.4-4,1.5-4.7,1.5-4.7
		c-0.4,1,0.2,2.2,0.9,3.5c1.9-1.1,4.2,0.5,4.2,0.5l0.1,0.4C49.7,99.3,47,97.8,45.8,99z M44.7,104.9l0.1,0.1c0.3,0.1,0.6,0.1,0.7-0.3
		c0.3-1.1-0.5-2.2-1.5-3.6c-0.1,0.2-0.2,0.5-0.2,0.7c-0.1,0.3-0.1,0.7-0.1,1l0.1,0.5c0,0.1,0.1,0.3,0.1,0.4c0.1,0.3,0.2,0.5,0.3,0.7
		C44.4,104.7,44.6,104.8,44.7,104.9z"/>
	<path fill="#FFFFFF" d="M58.4,98.8c0,0-1.5,4.5-3,4.2c-1.5-0.3-0.9-6-2.1-6c-1.2,0-0.2,7.2-3.3,7.1c-2.8,0.1-0.6-13-1-14.7
		c0,0,3-0.7,2.7,2.3c-0.1,1.7-0.3,4.5-0.4,6.9c0.3-1.7,0.9-3.3,1.9-3.3c2,0,1.2,6.4,2.2,6.7c0.9,0.3,2.5-3.4,2.5-3.4L58.4,98.8z"/>
	<path fill="#FFFFFF" d="M65,103.7c-0.1,2.6-0.1,5.1,0.3,5.3c-0.3,1.2-1.2,1.3-1.7,1.4c-2.8,0.1-0.6-13-1-14.7c0,0,3-0.7,2.7,2.4
		c0,0.3-0.1,0.7-0.1,1.1c0.5-1.1,1.2-2.2,2.3-2.1C69.5,97.3,67.9,102,65,103.7z M65.1,102.7L65.1,102.7c1.8-1.2,2.9-4.9,1.9-4.9
		C65.9,97.7,65.1,102.7,65.1,102.7L65.1,102.7z"/>
	<path fill="#FFFFFF" d="M77.9,98.9c-0.1,0.4-1.7,8-5.1,7.8c-2.3-0.1-1.1-5.3-0.8-8c-3.9-0.1-2.4-1.7-2.8-2.9c0,0,2.5-1.2,2.4,1.2
		c0,0.5,0.7,0.5,0.8,0.5c0.8-0.1,2.6,0.1,2.3,2.5c-0.4,3.1-0.9,6.2,0.5,4.6c1.4-1.6,2.2-6,2.2-6S78,98.4,77.9,98.9z"/>
	<path fill="#FFFFFF" d="M85.1,98c0,0-0.1,0.1-0.2,0.2c0,0-0.1,0.1-0.1,0.1l-0.2,0.1c-0.1,0-0.1,0.1-0.2,0.1l-0.2,0.1
		c-0.1,0-0.2,0.1-0.2,0.1c-0.1,0.1-0.2,0.1-0.2,0.1L83.6,99c0,0-0.1,0-0.1,0s-0.1,0-0.1,0c-0.1,0-0.1,0-0.1,0.1
		c-0.1,0-0.1,0-0.1,0.1l-0.6,0.3c-0.2,0.1-0.4,0.2-0.6,0.2c-0.1,0-0.2,0.1-0.3,0.1c0,0.2-0.1,0.4-0.2,0.7c-0.6,1.9-2.2,3.1-3.6,2.6
		c-1.4-0.5-2.1-2.4-1.5-4.4c0.6-1.9,2.2-3.1,3.6-2.6c1,0.3,1.6,1.4,1.7,2.7h0.1c0.2,0,0.4-0.1,0.6-0.1c0.2,0,0.4-0.1,0.6-0.2
		l0.1-0.1c0.1,0,0.1,0,0.1,0c0,0,0.1,0,0.1,0l0.1,0c0,0,0.1,0,0.1-0.1l0.3-0.1c0.1,0,0.2-0.1,0.2-0.1c0.1,0,0.1-0.1,0.2-0.1
		c0.1,0,0.1-0.1,0.2-0.1c0.1,0,0.1-0.1,0.2-0.1l0.2-0.1c0.2-0.1,0.3-0.1,0.3-0.1L85.1,98z M80.9,100.5c0.1-0.2,0.1-0.4,0.1-0.6
		c-0.2,0-0.4,0-0.5,0c-0.1,0-0.2,0-0.4-0.1c-0.1,0-0.2-0.1-0.4-0.1c-0.2-0.1-0.4-0.2-0.6-0.3c-0.1,0-0.1-0.1-0.1-0.1
		c-0.1,0.1-0.1,0.3-0.2,0.5c-0.3,1.2-0.2,2.3,0.4,2.5C79.8,102.5,80.5,101.7,80.9,100.5z M79.7,98.2c0,0.1,0.1,0.1,0.1,0.2
		c0.1,0.1,0.2,0.2,0.3,0.2c0.1,0,0.1,0.1,0.2,0.1c0.1,0,0.1,0.1,0.2,0.1c0.1,0,0.3,0.1,0.4,0.1c-0.1-0.4-0.2-0.7-0.5-0.8
		C80.3,97.9,80,98,79.7,98.2z"/>
	<path fill="#FFFFFF" d="M92.7,98.8c-0.2,0.4-1.3,4.3-4.7,4.1c-1.4-0.1-1.4-1.5-1.2-3c-0.4,0.8-1.6,1.8-2.8,1.5
		c-1.8-0.4-1.2-2.9,0.3-3.9c1.2-0.7,2.3-0.5,2.8-0.4c0.4-3.2,0.4-7.7,0.3-8c0,0,3.1-0.3,2.7,2.8c-0.4,3.3-1.6,10,0.1,8.8
		c1.4-1,1.9-2.3,1.9-2.3L92.7,98.8z M87.1,98.2c-0.5,0-2.1,0-2.2,1.3C84.7,100.8,86.4,100,87.1,98.2z"/>
	<path fill="#FFFFFF" d="M101.8,98.1c-0.1,0.5-1.1,6.6-4.5,6.6c-1.3,0-1.7-1.4-1.6-3.1c-0.5,0.8-1.2,1.5-2.3,1.4
		c-2.8-0.1-1.1-6.2-1.3-7c0,0,2.6-0.5,2.3,1.7c-0.4,2.8-0.5,4.7,0.8,3.4c1.2-1.3,0.9-4.3,0.9-4.3s3-0.7,2.8,2.4
		c-0.2,3.1-0.6,5,0.7,3.4c1.3-1.6,1.6-4.6,1.6-4.6S102,97.7,101.8,98.1z"/>
	<path fill="#FFFFFF" d="M104.2,99.6c-0.3,0-0.4-0.2-0.4-0.2s0.3-1.1-0.4-1.1c-0.2,0-1-0.1-1.3,2.1c-0.7,4.7,4.5-0.8,5.1-2.2
		l0.3,0.3c-3,5.9-8.9,6.9-8.1,2c0.5-3.3,3.4-3.5,4.3-3.2C104.4,97.5,104.8,98.1,104.2,99.6z"/>
	<path fill="#FFFFFF" d="M114,98.6c-3,5.9-8.8,7.5-7.9,2c0.5-3.4,3.4-3.5,4.3-3.2c0.7,0.2,1.3,1.2,0.6,2.5c-0.5,0.9-1.6,1-2.3,1
		c-0.5,4.5,4.4-1.2,5-2.5L114,98.6z M108.7,100.4c1.1,0.1,1.6-0.5,1.7-0.9c0.1-0.3,0.3-1.1-0.4-1.1C109.8,98.4,109,98.3,108.7,100.4
		z"/>
</g>
<g>
	<g>
		<path fill-rule="evenodd" clip-rule="evenodd" fill="#02A436" d="M75.4,38.7L74,40.2c-0.3,0.3-0.8,0.3-1.1,0L66.5,34
			c-0.1-0.1-0.2-0.3-0.2-0.5c0-0.1,0-0.1,0-0.2l0-1.3c0-0.4,0.3-0.8,0.8-0.8l1.3,0c0,0,0.1,0,0.1,0c0.2,0,0.4,0,0.6,0.2l6.4,6.1
			C75.7,37.9,75.7,38.4,75.4,38.7z"/>
		<path fill-rule="evenodd" clip-rule="evenodd" fill="#00FA94" d="M54.6,21.6l1.4-1.5c0.3-0.3,0.8-0.3,1.1,0l6.4,6.1
			c0.1,0.1,0.2,0.3,0.2,0.5c0,0.1,0,0.1,0,0.2l0,1.3c0,0.4-0.3,0.8-0.8,0.8l-1.3,0c0,0-0.1,0-0.1,0c-0.2,0-0.4,0-0.6-0.2l-6.4-6.1
			C54.4,22.3,54.3,21.9,54.6,21.6z"/>
		<path fill-rule="evenodd" clip-rule="evenodd" fill="#52575B" d="M56.5,40.8L55,39.4c-0.3-0.3-0.3-0.8,0-1.1l6.1-6.4
			c0.1-0.1,0.3-0.2,0.5-0.2c0.1,0,0.1,0,0.2,0l1.3,0c0.4,0,0.8,0.3,0.8,0.8l0,1.3c0,0,0,0.1,0,0.1c0,0.2,0,0.4-0.2,0.6l-6.1,6.4
			C57.2,41.1,56.8,41.1,56.5,40.8z"/>
	</g>
	<g>
		<path fill="#FF5900" d="M70.4,21.7c-0.3,0.3-0.5,0.6-0.7,1c-0.2,0.3-0.5,0.7-0.7,1c-0.4,0.7-0.8,1.3-1,2.1c0,0,0,0.1,0,0.2
			c0,0,0,0-0.1,0c-0.1,0.1-0.2,0.2-0.3,0.3c0,0,0,0,0,0c0.1,0,0.1-0.1,0.2-0.1c-0.2,0.2-0.3,0.4-0.4,0.7c-0.1,0.2-0.2,0.4-0.2,0.6
			c-0.1,0-0.1,0.1-0.1,0.2c-0.1,0.2-0.2,0.4-0.2,0.6c0,0,0,0,0,0c-0.1,0.1-0.1,0.1-0.1,0.2c-0.2,0.1-0.4,0.1-0.6,0.2c0,0,0,0,0,0
			c0.2,0,0.3,0,0.5-0.1c0,0,0,0,0,0c-0.1,0.1-0.3,0.2-0.4,0.3c-0.1,0-0.2,0-0.2,0.2c0,0-0.1,0.1-0.1,0.1c0,0-0.1,0.1-0.1,0.1
			c-0.1,0.1-0.1,0.3-0.2,0.4c0,0.1-0.1,0.1-0.1,0.1c0,0.1-0.1,0.1-0.1,0.2c0,0-0.1,0.1-0.1,0.1c0,0-0.1,0.1-0.1,0.2c0,0,0,0-0.1,0.1
			c0,0,0,0.1,0,0.1c0,0,0,0,0.1,0c0.1-0.1,0.1-0.1,0.2-0.2c0.1-0.1,0.3-0.3,0.4-0.4c0.1-0.1,0.2-0.2,0.3-0.3
			c0.1-0.1,0.2-0.3,0.4-0.4c0.1,0,0.2-0.1,0.3-0.1c0.2,0,0.4-0.3,0.4-0.4c0.1-0.1,0.1-0.2,0.2-0.4c0,0,0,0,0.1-0.1
			c0.2-0.1,0.3-0.4,0.4-0.7c0,0,0.1,0,0.1,0c0,0.1-0.1,0.3-0.1,0.4c0,0,0,0,0,0c0.1-0.2,0.1-0.3,0.2-0.5c0.1,0,0.2-0.1,0.3-0.1
			c0.3,0,0.5-0.2,0.7-0.3c0.1-0.1,0.2-0.1,0.3-0.2c0,0,0,0,0,0c0,0,0,0,0,0l0,0c0,0,0,0,0,0c0,0,0-0.1,0.1-0.1
			c0.1,0,0.1-0.1,0.2-0.1c0,0,0.1,0,0.1-0.1c0.1-0.1,0.2-0.1,0.3-0.2c0,0,0,0,0,0c0.1-0.1,0.3-0.1,0.4-0.2c0.2-0.1,0.4-0.2,0.6-0.3
			c0.2-0.1,0.3-0.2,0.5-0.3c0.6-0.4,1.2-0.8,1.7-1.2c0.2-0.2,0.5-0.4,0.6-0.7c0.3-0.5,0.4-1,0.1-1.5c-0.2-0.4-0.5-0.6-0.8-0.9
			c-0.2-0.2-0.7-0.7-1.1-0.6c-0.3,0-0.5,0.2-0.8,0.4C71,21.2,70.7,21.5,70.4,21.7z M73.8,23.5C73.9,23.5,73.9,23.5,73.8,23.5
			c-0.1,0.1-0.1,0.2-0.2,0.3c0,0,0,0,0,0c0-0.1,0.1-0.1,0.1-0.2C73.7,23.6,73.8,23.6,73.8,23.5z M73.7,22.9c0,0.1,0,0.1,0.1,0.2
			c0,0,0,0,0,0c0,0,0,0,0,0C73.7,23,73.7,23,73.7,22.9C73.7,23,73.7,22.9,73.7,22.9z M72.5,23.6c0,0.1-0.1,0.1-0.1,0.2c0,0,0,0,0,0
			C72.4,23.8,72.5,23.7,72.5,23.6z M72.9,23.1C72.9,23.1,73,23.1,72.9,23.1c0.1,0.1,0.1,0.1,0.1,0.1c-0.1,0.1-0.1,0.2-0.2,0.3
			c0,0-0.1,0-0.1,0.1C72.8,23.4,72.9,23.3,72.9,23.1C72.9,23.1,72.9,23.1,72.9,23.1z M71.5,24.4c0,0,0.1,0,0.1,0c0,0,0,0,0,0
			c0,0-0.1,0.1-0.1,0.1c0,0,0,0-0.1,0C71.5,24.5,71.5,24.5,71.5,24.4z M70.6,25.2C70.6,25.2,70.6,25.2,70.6,25.2
			C70.6,25.2,70.5,25.2,70.6,25.2C70.5,25.2,70.6,25.2,70.6,25.2z M72.1,23c0,0,0.1-0.1,0.1-0.1c0,0,0,0,0.1-0.1
			c0,0.1,0,0.2,0.1,0.2c0,0,0,0.1-0.1,0.1c0,0,0,0,0,0C72.3,23,72.2,23,72.1,23C72.1,23,72.1,23.1,72.1,23L72.1,23
			C72.1,23,72.1,23,72.1,23z M68.6,26.5C68.6,26.5,68.6,26.5,68.6,26.5C68.6,26.5,68.6,26.5,68.6,26.5c0,0.1,0,0.1,0,0.1
			c0,0,0,0,0,0c0,0,0,0,0,0c0,0,0,0,0,0C68.6,26.6,68.6,26.5,68.6,26.5z M70.6,24.3c0,0.1,0,0.1,0,0.2c0,0-0.1,0-0.1,0.1
			C70.5,24.5,70.6,24.4,70.6,24.3z M72.5,21.8C72.5,21.8,72.5,21.8,72.5,21.8c0.1,0.1,0.1,0.2,0.2,0.2c0.1,0.1,0.1,0.2,0.2,0.3
			c0,0,0,0,0,0c0-0.1-0.1-0.1-0.1-0.2C72.6,22,72.6,21.9,72.5,21.8z M72.1,22.1C72.1,22.1,72.1,22.1,72.1,22.1c0,0.1,0,0.1,0.1,0.2
			c0,0,0,0-0.1,0.1C72.1,22.3,72.1,22.2,72.1,22.1z M70.2,23.1C70.2,23.1,70.2,23.1,70.2,23.1c0,0.1-0.1,0.2-0.1,0.3c0,0,0,0,0,0
			c0-0.1,0.1-0.1,0.1-0.2C70.1,23.2,70.1,23.1,70.2,23.1L70.2,23.1z M72.1,21C72.1,21,72.1,21,72.1,21C72.1,21,72.1,21,72.1,21
			c0.2,0,0.3,0,0.4,0.1c-0.1,0-0.1,0.1,0,0.2c0,0,0,0,0,0c0,0,0,0-0.1,0c0,0,0,0,0-0.1c0-0.1,0-0.1-0.1-0.2C72.2,21,72.1,21,72.1,21
			C72.1,21,72.1,21,72.1,21z M71.3,21.3c0.1,0,0.1-0.1,0.2-0.1c0,0-0.1,0.1-0.1,0.1C71.4,21.2,71.4,21.2,71.3,21.3z"/>
		<path fill="#D32104" d="M67.3,27.7c0.2,0,0.1-0.3,0.3-0.4c0.1-0.1,0.2,0,0.3,0c0.3,0,0.6-0.1,0.8-0.3c0.6-0.6,1.5-0.7,2.2-1.1
			c0.6-0.4,1.2-0.8,1.7-1.3c0.4-0.4,1-0.7,1.2-1.2c0.1-0.4-0.3-1.1-0.8-1.4c0.3,0.3,0.5,0.5,0.7,0.8c0,0,0,0.1-0.1,0
			c-0.3-0.3-0.7-0.6-1-1c0,0,0,0,0,0c-0.2,0-0.3,0.1-0.4,0.2c0.2,0.2,0.4,0.4,0.6,0.6c0,0,0,0,0,0c-0.2-0.1-0.5-0.3-0.6-0.5
			c-0.2,0.4-0.3,0.9-0.6,1.1c-0.5,0.4-0.9,0.8-1.3,1.2c0.2,0.2,0.3,0.3,0.4,0.5c0,0,0,0,0,0c-0.2-0.1-0.4-0.2-0.6-0.4
			c-0.3,0.3-0.6,0.6-1,0.9c-0.2,0.1-0.2,0.4-0.3,0.6c0,0,0,0,0,0.1c-0.1,0.2-0.2,0.3-0.4,0.4c-0.2,0.1-0.3,0.1-0.5,0.2
			C67.9,27,68,27,68,27.1c0,0,0,0.1,0,0c-0.1,0-0.2-0.1-0.3-0.2c0,0,0,0,0,0C67.5,27.1,67.2,27.4,67.3,27.7z M71.7,24.1
			c-0.1-0.1-0.2-0.2-0.2-0.2c0,0,0,0,0,0C71.6,23.9,71.7,23.9,71.7,24.1C71.8,24.1,71.8,24.1,71.7,24.1z M71,24.3
			C71,24.3,71,24.2,71,24.3c0.2,0.2,0.4,0.3,0.6,0.5c0,0,0,0,0,0C71.3,24.6,71.1,24.5,71,24.3z"/>
		<g>
			<path fill="#E92D25" d="M73.3,23c0.1,0,0.1,0.1,0.2,0.1c0,0,0.1,0.1,0.1,0.1C73.5,23.1,73.4,23,73.3,23z"/>
			<path fill="#E92D25" d="M73.2,24.2C73.2,24.2,73.2,24.2,73.2,24.2C73.2,24.2,73.2,24.2,73.2,24.2c-0.1-0.1-0.2-0.1-0.3-0.2
				c-0.2-0.1-0.3-0.2-0.5-0.4c0,0,0-0.1,0-0.1c0.3,0.2,0.6,0.4,1,0.6c0,0,0,0-0.1,0.1C73.4,24.3,73.3,24.3,73.2,24.2z"/>
			<path fill="#E92D25" d="M72.7,23.6c0.3,0.2,0.6,0.4,0.8,0.6c0,0,0,0,0,0C73.2,24,73,23.8,72.7,23.6
				C72.7,23.6,72.7,23.6,72.7,23.6z"/>
			<path fill="#E92D25" d="M72.8,23.1C72.8,23.1,72.9,23.1,72.8,23.1c0.1,0.2,0,0.2,0,0.3c-0.2-0.1-0.3-0.3-0.5-0.4c0,0,0-0.1,0-0.1
				c0,0,0,0,0,0c-0.5-0.5-1-1-1.5-1.5c0,0,0.1-0.1,0.1-0.1C71.4,22,72.2,22.6,72.8,23.1z"/>
			<path fill="#E92D25" d="M71.6,22.8c0.3,0.3,0.6,0.5,0.9,0.8c0,0,0,0.1,0,0.1c0,0,0,0,0,0C72.2,23.5,71.9,23.1,71.6,22.8
				C71.6,22.8,71.6,22.8,71.6,22.8z"/>
			<path fill="#E92D25" d="M69.3,25.6c-0.3-0.3-0.6-0.5-0.9-0.8c0,0,0-0.1,0.1-0.1c0,0,0,0.1,0.1,0.1C68.7,25,69,25.3,69.3,25.6z"/>
			<path fill="#E92D25" d="M70.3,26.2C70.3,26.3,70.3,26.3,70.3,26.2c-0.1-0.1-0.3-0.2-0.4-0.3C70.1,26.1,70.2,26.2,70.3,26.2z"/>
			<path fill="#E92D25" d="M70.6,24.4c0.2,0.1,0.4,0.3,0.5,0.4c0.2,0.2,0.4,0.4,0.6,0.6C71.4,25.1,71,24.8,70.6,24.4
				C70.6,24.4,70.6,24.4,70.6,24.4z"/>
			<path fill="#E92D25" d="M70.5,25.2c-0.1-0.1-0.3-0.2-0.4-0.3c-0.1,0-0.1-0.1-0.2-0.2c0,0,0,0,0,0C70.2,24.9,70.4,25.1,70.5,25.2
				C70.5,25.2,70.5,25.2,70.5,25.2z"/>
			<path fill="#E92D25" d="M70.6,25.2c0.2,0.2,0.4,0.3,0.6,0.5c0,0,0.1,0.1,0.1,0.1c0,0,0,0,0,0C71,25.6,70.8,25.4,70.6,25.2
				C70.5,25.2,70.6,25.2,70.6,25.2z"/>
			<path fill="#E92D25" d="M70.5,24.4c-0.1-0.1-0.2-0.1-0.3-0.2c-0.1-0.2-0.3-0.3-0.4-0.5C70.1,23.9,70.3,24.2,70.5,24.4
				C70.6,24.4,70.6,24.4,70.5,24.4z"/>
			<path fill="#E92D25" d="M72.9,24.3c0.1,0.1,0.2,0.1,0.3,0.2c0,0-0.1,0-0.1,0.1c0,0,0,0,0,0c-0.1-0.1-0.3-0.2-0.4-0.4
				C72.7,24.2,72.8,24.2,72.9,24.3z"/>
			<path fill="#E92D25" d="M69.9,26.4c-0.6-0.3-1.1-0.9-1.6-1.3c0,0-0.1,0-0.1,0c0,0,0,0,0,0c0,0,0,0,0-0.1
				C68.8,25.5,69.4,26,69.9,26.4C70,26.4,69.9,26.4,69.9,26.4z"/>
			<path fill="#E92D25" d="M70.1,22.9c-0.1-0.1-0.2-0.2-0.3-0.3c0,0,0,0,0,0C69.9,22.6,70,22.7,70.1,22.9
				C70.1,22.8,70.1,22.8,70.1,22.9z"/>
			<path fill="#E92D25" d="M70.6,22.8c-0.2-0.2-0.4-0.4-0.5-0.6c0,0,0,0,0,0c0.1,0.2,0.3,0.3,0.5,0.5C70.5,22.7,70.6,22.8,70.6,22.8
				z"/>
			<path fill="#E92D25" d="M70.7,26.1C70.7,26.1,70.7,26.1,70.7,26.1c-0.3-0.2-0.6-0.4-0.9-0.6C70.1,25.7,70.4,25.9,70.7,26.1z"/>
			<path fill="#E92D25" d="M70.6,26.1c0,0-0.1,0-0.1,0.1c-0.2-0.2-0.4-0.4-0.7-0.6C70.1,25.8,70.3,26,70.6,26.1z"/>
			<path fill="#E92D25" d="M70,24.3c0.1,0.1,0.3,0.3,0.4,0.4c0.2,0.2,0.3,0.3,0.5,0.5c-0.5-0.4-1-0.8-1.5-1.2
				C69.6,24,69.8,24.1,70,24.3z"/>
			<path fill="#E92D25" d="M69.1,23.5C69.1,23.5,69.2,23.5,69.1,23.5c0.1,0,0.2,0.1,0.3,0.1C69.3,23.6,69.2,23.6,69.1,23.5z"/>
			<path fill="#E92D25" d="M69.3,24.3C69.3,24.3,69.3,24.3,69.3,24.3c0,0,0.1,0.1,0.2,0.1c0,0,0,0,0.1,0.1
				C69.4,24.5,69.4,24.4,69.3,24.3z"/>
			<path fill="#E92D25" d="M71.5,23.1c-0.1-0.1-0.2-0.1-0.2-0.2c-0.3-0.4-0.6-0.7-0.9-1.1c0,0,0,0,0,0
				C70.7,22.2,71.1,22.6,71.5,23.1z"/>
			<path fill="#E92D25" d="M68.8,26.1c0.1,0.1,0.2,0.2,0.4,0.3c0.1,0.1,0.2,0.2,0.2,0.3c0,0,0,0,0,0c0,0,0,0,0,0.1
				C69.2,26.6,69,26.4,68.8,26.1z"/>
			<path fill="#E92D25" d="M68,26.5c0.2,0.2,0.3,0.4,0.5,0.6c-0.1-0.1-0.1-0.1-0.2-0.2c-0.2-0.2-0.4-0.4-0.6-0.6c0,0,0,0,0-0.1
				C67.9,26.3,67.9,26.4,68,26.5z"/>
			<path fill="#E92D25" d="M68,27.4C67.9,27.4,67.9,27.4,68,27.4c-0.1,0.2-0.2,0.4-0.3,0.5c0,0,0,0,0,0c0,0,0,0,0-0.1
				c0,0,0.1-0.1,0-0.1c0,0,0,0,0,0c0,0,0-0.1,0-0.1c0,0,0.1,0,0.1-0.1c0,0,0-0.1,0-0.1c0,0,0,0,0-0.1c0,0,0,0,0,0c0,0,0,0,0,0l0,0
				c0,0,0,0,0,0l0,0c0,0,0,0,0,0c0,0,0,0,0,0c0,0,0,0,0,0c0,0,0-0.1-0.1-0.1C67.8,27.2,67.9,27.3,68,27.4z"/>
			<path fill="#E92D25" d="M67.2,27.7c-0.1,0-0.1,0-0.2,0c0,0,0,0,0-0.1c0-0.1,0.1-0.1,0.1-0.2c0,0,0,0,0,0
				C67.2,27.6,67.2,27.6,67.2,27.7z"/>
			<path fill="#E92D25" d="M71.6,24.2c0,0,0.1,0.1,0.1,0.1c0.2,0.3,0.5,0.5,0.8,0.7c0,0,0,0-0.1,0c-0.1-0.1-0.3-0.2-0.4-0.3
				C71.9,24.5,71.7,24.3,71.6,24.2z"/>
			<path fill="#E92D25" d="M72.6,24.8C72.7,24.8,72.7,24.8,72.6,24.8C72.7,24.9,72.7,24.9,72.6,24.8c-0.1,0-0.2,0-0.3-0.1
				C72.4,24.7,72.5,24.8,72.6,24.8z"/>
			<path fill="#E92D25" d="M70.7,23.6c-0.1-0.1-0.1-0.1-0.2-0.2c-0.1-0.1-0.1-0.1-0.2-0.2C70.4,23.4,70.6,23.5,70.7,23.6z"/>
			<path fill="#E92D25" d="M73,23.2c0.2,0.2,0.5,0.4,0.7,0.6c0,0,0,0.1-0.1,0.1c0,0,0,0,0,0c0,0,0,0,0-0.1c0,0,0.1,0.1,0.1,0.1
				c0,0.1-0.1,0.1-0.1,0.2c-0.3-0.2-0.6-0.4-0.8-0.6C72.9,23.4,72.9,23.3,73,23.2z"/>
			<path fill="#E92D25" d="M72.6,21.9C72.6,21.9,72.6,21.9,72.6,21.9c0.3,0.2,0.7,0.5,1,0.7c0.2,0.1,0.3,0.2,0.5,0.4
				c0,0.1,0,0.2,0,0.2c-0.3-0.2-0.6-0.4-0.9-0.6C73,22.3,72.8,22.1,72.6,21.9z"/>
		</g>
		<g>
			<path fill="#FF972C" d="M69,24.1c0.1,0.1,0.2,0.2,0.3,0.3c0,0.1,0,0.1-0.1,0.1c-0.1,0-0.1-0.1-0.2-0.2
				C68.9,24.2,68.9,24.1,69,24.1C68.9,24,69,24,69,24.1z"/>
			<path fill="#F7961E" d="M69.3,26c0.1,0,0.2,0.1,0.3,0.2c0.1,0.1,0,0.1-0.1,0.1c-0.1-0.1-0.1-0.1-0.2-0.2
				C69.3,26.1,69.2,25.9,69.3,26z"/>
			<path fill="#FF972C" d="M72.4,24.1c0.1,0.1,0.2,0.2,0.4,0.3c0.1,0.1,0.1,0.2,0,0.1c-0.2-0.1-0.4-0.2-0.5-0.4
				C72.2,24.1,72.3,24,72.4,24.1z"/>
			<path fill="#F7961E" d="M67.8,26.5c0.1,0,0.1,0.1,0,0.1c-0.1,0-0.1,0-0.2,0c0,0,0-0.1,0-0.1C67.7,26.5,67.8,26.5,67.8,26.5z"/>
			<path fill="#FF972C" d="M67.2,27.8C67.2,27.8,67.3,27.9,67.2,27.8c0.1,0.1,0.1,0.1,0.1,0.2c0,0,0,0,0,0c0,0,0,0,0,0
				c0.1,0.1,0,0.2-0.1,0.1c0,0,0,0,0,0c0,0,0,0,0,0C67.2,28,67.1,27.9,67.2,27.8C67.2,27.8,67.2,27.8,67.2,27.8
				C67.2,27.8,67.2,27.8,67.2,27.8z"/>
			<path fill="#FF972C" d="M71.8,21.3c-0.1-0.1-0.2-0.1-0.3-0.3c0,0,0,0,0,0C71.7,21.1,71.8,21.2,71.8,21.3
				C71.9,21.3,71.8,21.3,71.8,21.3z"/>
			<path fill="#FF972C" d="M68.1,25.5c0.1,0.1,0.1,0.1,0.2,0.2c0,0,0,0.1,0,0.1l0,0c0,0,0,0,0,0c0,0,0,0,0,0c0,0,0,0,0,0
				C68.2,25.7,68.2,25.6,68.1,25.5C68,25.5,68.1,25.4,68.1,25.5z"/>
			<path fill="#F7961E" d="M68.7,27C68.7,27,68.7,27,68.7,27c0.1,0.1,0,0.1,0,0.1C68.6,27.1,68.6,27,68.7,27
				C68.6,27,68.6,27,68.7,27c-0.1,0-0.1,0-0.1,0c0,0,0,0,0,0c0,0,0,0,0,0C68.6,26.9,68.6,26.9,68.7,27z"/>
			<path fill="#FF972C" d="M70.8,23.2C70.8,23.2,70.8,23.1,70.8,23.2c0.1,0,0.2,0.1,0.2,0.1c0,0-0.1,0-0.1,0
				C70.9,23.3,70.9,23.2,70.8,23.2z"/>
			<path fill="#F7961E" d="M73.5,22.7c0.1,0.1,0.2,0.1,0.2,0.2c0.1,0.1,0.2,0.2,0.3,0.2c0,0,0,0,0,0C73.8,23.1,73.6,22.9,73.5,22.7
				C73.4,22.7,73.5,22.7,73.5,22.7z"/>
			<path fill="#FF972C" d="M70.4,21.8c0.2,0.1,0.2,0.3,0.4,0.5c0,0,0,0,0,0c-0.1,0-0.1-0.1-0.2-0.1c0,0-0.1-0.1-0.1-0.1
				C70.5,22,70.4,21.9,70.4,21.8C70.3,21.8,70.4,21.8,70.4,21.8z"/>
		</g>
		<path fill="#FF972C" d="M71.7,20.8C71.7,20.8,71.7,20.8,71.7,20.8c0.2,0.2,0.3,0.3,0.5,0.4c0,0,0.1,0,0,0c0-0.1-0.1-0.1-0.1-0.2
			c0,0,0,0,0,0c0,0,0.1,0.1,0.2,0.1c0,0,0,0,0,0c0,0,0,0,0,0.1c0,0,0,0,0.1,0c0,0,0,0,0,0c0,0,0-0.1,0-0.1c0,0,0,0,0.1,0.1
			c0,0,0.1,0,0,0c0,0,0-0.1-0.1-0.1c0,0,0,0,0,0c0,0-0.1-0.1-0.1-0.1c-0.1-0.1-0.2-0.2-0.3-0.3c0,0,0.1,0,0.1,0
			c0.4-0.1,0.9,0.4,1.1,0.6c0.3,0.3,0.6,0.5,0.8,0.9c0.1,0.2,0.2,0.4,0.2,0.5c-0.3-0.2-0.6-0.5-1-0.7C72.6,21.7,72.1,21.3,71.7,20.8
			z"/>
		<g>
			<path fill="#826729" d="M73.8,22.1c0.1,0,0.1-0.1,0-0.2c0-0.1-0.1-0.1-0.1-0.2c-0.1-0.2-0.3-0.4-0.5-0.5
				c-0.2-0.1-0.3-0.3-0.5-0.4c0,0-0.1,0-0.1,0c-0.1-0.1-0.3-0.1-0.3,0.1c0,0.2,0.3,0.5,0.4,0.6c0,0,0,0,0,0c0.1,0.1,0.2,0.2,0.3,0.3
				C73.3,22,73.6,22.2,73.8,22.1z M73.5,22c0.1,0,0.1,0,0.2,0c0,0,0,0,0,0c0,0,0,0,0,0c0,0,0,0,0,0.1C73.8,22.1,73.6,22.1,73.5,22z"
				/>
			<path fill="#826729" d="M72.3,20.7c0,0-0.1,0.1,0,0.1c0,0,0,0.1,0.1,0.2c0,0.1,0.1,0.2,0.2,0.3c0,0,0,0,0,0
				c-0.1-0.1-0.2-0.2-0.3-0.3c0,0,0-0.1,0-0.1C72.2,20.8,72.3,20.8,72.3,20.7C72.3,20.7,72.3,20.7,72.3,20.7z"/>
			<path fill="#826729" d="M73.9,22.2C73.9,22.2,73.9,22.2,73.9,22.2c0,0.5-1.1-0.5-1.2-0.7c0,0,0,0,0,0
				C72.9,21.6,73.9,22.6,73.9,22.2z"/>
			<path fill="#826729" d="M68.1,26.7C68.1,26.8,68.1,26.8,68.1,26.7c0.1,0.1,0.1,0.1,0.1,0.1c0,0,0,0,0,0
				C68.1,26.9,68.1,26.9,68.1,26.7C68.1,26.8,68,26.8,68.1,26.7c-0.1,0-0.1,0-0.1,0C68,26.7,68.1,26.7,68.1,26.7z"/>
			<path fill="#826729" d="M66.7,28.6C66.7,28.6,66.7,28.6,66.7,28.6c0,0.1,0,0.1-0.1,0.1C66.6,28.7,66.6,28.7,66.7,28.6
				C66.7,28.7,66.7,28.6,66.7,28.6z"/>
			<path fill="#826729" d="M71.2,22.2c0.1,0.1,0.1,0.1,0.2,0.2c0,0,0,0,0,0C71.3,22.4,71.3,22.3,71.2,22.2
				C71.2,22.2,71.2,22.2,71.2,22.2z"/>
			<path fill="#826729" d="M70.6,25.6c0.1,0.1,0.2,0.1,0.3,0.2c0.1,0,0.1,0.1,0.2,0.2c0,0,0,0,0,0c-0.1,0-0.1-0.1-0.2-0.1
				C70.7,25.8,70.6,25.7,70.6,25.6C70.5,25.6,70.5,25.6,70.6,25.6z"/>
			<path fill="#826729" d="M72.2,24.8c0,0.1,0.1,0.1,0.1,0.2c0,0,0,0,0,0c-0.1-0.1-0.2-0.1-0.2-0.2c0,0,0,0,0,0
				C72.1,24.8,72.2,24.8,72.2,24.8z"/>
			<path fill="#826729" d="M73.7,23.1C73.7,23.1,73.7,23.1,73.7,23.1c0.1,0,0.1,0,0.1,0.1c0,0,0.1,0.1,0.1,0.1
				c0.1,0.1,0,0.1-0.1,0.1c0,0-0.1-0.1-0.1-0.1C73.8,23.2,73.8,23.2,73.7,23.1z"/>
			<path fill="#826729" d="M69.5,23.2c0.1,0.1,0.1,0.1,0.2,0.2c0,0,0,0,0,0C69.6,23.4,69.6,23.4,69.5,23.2c-0.1,0-0.2,0-0.2-0.1
				c0,0,0,0,0,0C69.5,23.1,69.5,23.2,69.5,23.2z"/>
			<path fill="#826729" d="M71.2,21.1C71.3,21.1,71.3,21.1,71.2,21.1c0.1,0.1,0.1,0.1,0.1,0.1c0,0,0,0,0,0.1c0,0,0,0,0,0.1
				c0,0,0,0,0,0c0,0,0,0,0,0c0,0-0.1,0-0.1-0.1C71.3,21.2,71.3,21.2,71.2,21.1C71.2,21.2,71.2,21.1,71.2,21.1
				C71.2,21.1,71.2,21.1,71.2,21.1z"/>
		</g>
		<path fill="#72923C" d="M70.8,11.6c0.1,0.3,0.3,0.5,0.6,0.7c-0.1,0-0.1-0.1-0.2-0.1c0,0-0.1,0,0,0.1c0.1,0.1,0.2,0.2,0.3,0.4
			c0,0,0,0,0,0c-0.1,0-0.1,0-0.1,0.1c0.1,0.2,0.2,0.3,0.4,0.4c0,0,0,0,0,0c0,0-0.1,0-0.1,0c0,0.1,0.1,0.2,0.2,0.3c0,0,0,0,0,0.1
			c0,0.1,0.1,0.1,0.2,0.2c0,0,0,0,0,0.1c0.1,0.1,0.2,0.2,0.4,0.3c0,0,0.1,0,0.1,0c0.1,0.2,0.2,0.4,0.3,0.5c0,0,0,0,0,0
			c0,0,0,0-0.1,0c0,0-0.1,0-0.1,0c0,0-0.1,0-0.1-0.1c-0.1-0.1-0.1-0.2-0.3-0.2c0,0,0,0,0,0c-0.1-0.1-0.2-0.3-0.4-0.4c0,0,0,0-0.1,0
			c-0.1-0.1-0.2-0.2-0.3-0.2l0,0l0,0c0,0,0,0,0,0c0,0,0,0,0,0c-0.1-0.1-0.2-0.1-0.4-0.1c-0.1,0,0,0.1,0,0.1c0.1,0.1,0.2,0.1,0.3,0.2
			c0.1,0,0.1,0,0.2,0.1c0,0,0,0,0,0c0,0,0,0.1,0.1,0.1c0.1,0,0.4,0.1,0.3,0.2c0,0,0,0.1,0,0.1c0.1,0.1,0.2,0.1,0.3,0.1
			c0,0,0,0.1,0.1,0.1c0,0,0.1,0,0.1,0c0,0,0,0.1,0.1,0.1c0,0,0.1,0,0.1,0c0,0,0,0-0.1,0.1c0,0,0.1,0.1,0.1,0.1c0.1,0,0.2,0,0.3-0.1
			c0,0,0-0.1-0.1-0.1c0,0,0,0,0,0c0,0,0-0.1,0-0.1c0,0,0.1,0.1,0.1,0.1c0.1,0.1,0.2,0.3,0.2,0.4c0,0,0,0,0,0c0,0,0-0.1,0-0.1
			c0.1,0.3,0.2,0.5,0.3,0.8c0,0.1,0.1,0.1,0.1,0.2c0,0,0,0,0,0c0,0-0.2-0.2-0.2-0.2c0,0-0.1,0-0.1,0c0,0-0.1-0.1-0.1-0.1
			c0,0-0.1,0-0.1,0c0,0,0,0,0,0c-0.1-0.1-0.2-0.3-0.4-0.3c0,0-0.1,0-0.1,0.1c-0.1,0-0.1-0.1-0.2-0.1c0,0,0,0-0.1,0
			c-0.1-0.1-0.2-0.1-0.2-0.1c0,0,0,0.1,0,0.1c0,0,0,0-0.1,0c0,0,0,0,0,0c-0.1-0.1-0.2-0.1-0.3,0c0,0,0,0.1,0,0.1c0,0,0,0,0,0
			c-0.1,0-0.2,0-0.2,0c0,0,0,0.1,0,0.1c0.1,0.1,0.3,0.1,0.4,0.1c0.1,0,0.1,0,0.2,0c0.1,0,0.1,0,0.1,0.1c0,0,0.1,0.1,0.1,0.1
			c0,0,0.1,0,0.1,0c0,0,0,0.1,0,0.1c0,0,0,0.1,0.1,0.1c0.1,0,0.2,0,0.3,0c0,0,0,0,0,0c0,0,0,0.1,0.1,0.1c0,0,0,0,0,0
			c0,0,0.1,0.1,0.1,0.1c0,0,0.1,0,0.1,0c0,0,0,0.1,0.1,0.1c0,0,0.1,0,0.1,0c0,0,0.1,0.1,0.1,0c0,0,0.1-0.1,0.2-0.1c0,0,0,0,0,0
			c0,0,0,0,0,0c0.1,0.2,0.2,0.4,0.3,0.6c0,0.1,0.1,0.2,0.1,0.3c0,0.1,0.1,0.3,0.1,0.4c0,0,0,0,0-0.1c0,0,0-0.1-0.1-0.1c0,0,0,0,0,0
			c0,0,0,0,0,0c0,0,0-0.1,0-0.1c0,0,0-0.1-0.1-0.1c0-0.1-0.1-0.1-0.1-0.2c0,0-0.1-0.1-0.1,0c0-0.1,0-0.2-0.1-0.2
			c0,0-0.1-0.1-0.1-0.1c0-0.1,0-0.1-0.1-0.2c0-0.1-0.1-0.1-0.1,0c0,0,0,0.1,0,0.1c0,0-0.1-0.1-0.1-0.1c0-0.1-0.1-0.1-0.1,0
			c0,0.2,0.1,0.1-0.1,0.1c-0.1,0-0.1-0.1-0.2-0.1c0,0,0,0,0,0.1c0,0,0.1,0.1,0.1,0.1c0,0,0,0,0,0c0,0,0,0.1,0,0.1
			c0.1,0,0.2,0.1,0.3,0.1c0,0,0,0-0.1,0c0,0,0,0.1,0,0.1c0.1,0,0.1,0.1,0.2,0.1c0,0,0,0,0,0.1c0,0,0,0,0,0c0,0-0.1,0,0,0.1
			c0.1,0.1,0.2,0.2,0.3,0.3c0.1,0.1,0.2,0.2,0.3,0.3c0,0,0,0.1,0.1,0.1c0,0,0,0,0,0c0,0.1,0,0.2,0,0.2c0,0.2,0.1,0.5,0.1,0.7
			c0,0.3,0,0.6-0.1,0.9c0,0.1-0.1,0.2-0.2,0.3c-0.2,0.2-0.3,0.4-0.5,0.6c-0.2,0.2-0.4,0.4-0.5,0.6c0,0.1,0.1,0.2,0.1,0.1
			c0.5-0.3,0.8-0.9,1.1-1.4c0.3-0.4,0.2-1.1,0-1.7c0-0.1,0-0.2,0-0.2c0,0,0-0.1,0-0.1c0,0,0-0.1,0-0.1c0,0,0-0.1,0.1-0.1
			c0,0,0,0,0,0c0.1-0.1,0.2-0.1,0.3-0.1c0,0,0-0.1,0-0.1c0,0,0,0,0,0l0,0c0,0,0,0,0,0c0,0,0,0-0.1,0c0.1,0,0.1,0,0.2,0
			c0,0,0,0,0.1,0c0,0,0-0.1,0-0.1c0,0,0.1,0,0.1-0.1c0,0,0-0.1,0-0.1c0,0,0.1-0.1,0.1-0.1c0,0,0-0.1,0-0.1c0,0,0.1-0.1,0.1-0.1
			c0,0,0-0.1-0.1-0.1c0,0,0,0,0,0c0-0.1-0.1-0.1-0.1-0.1c0,0,0,0.1-0.1,0.1c0,0,0,0,0,0l0,0c-0.1,0-0.1,0.1-0.1,0.1c0,0,0,0-0.1,0.1
			c0,0-0.1-0.1-0.1,0c0,0,0,0.1,0,0.1c0,0-0.1,0-0.1,0c0,0.1,0,0.2,0,0.2c0,0,0,0.1,0,0.1c0,0,0,0,0,0.1c0,0.1,0,0.2-0.1,0.3
			c0-0.2,0-0.3-0.1-0.5c-0.1-0.3-0.2-0.6-0.3-0.9c0,0,0,0,0,0c0,0,0,0,0-0.1c0,0,0,0,0,0c0,0,0.1,0,0.1,0c0,0,0,0,0,0.1
			c0,0.1,0.1,0.1,0.1,0c0-0.1,0.1-0.1,0.1-0.1c0,0,0,0,0,0c0,0,0,0,0,0c0,0,0,0,0,0c0.1,0,0.2,0.1,0.3,0.1c0.1,0,0.1-0.1,0-0.1
			c0,0,0.1,0,0.1,0c0.1,0,0.1-0.1,0-0.1c0,0,0.1,0,0.1,0c0,0,0.1,0,0-0.1c0,0,0.1,0,0.1,0c0.1-0.1,0-0.2-0.1-0.2c0,0,0,0,0,0
			c0,0,0.1,0,0.1,0c0,0,0.1,0,0.1,0c0.1,0,0-0.1,0-0.1c0.1,0,0.1,0,0.1,0c0.1,0,0-0.2-0.1-0.1c0,0-0.1,0-0.1,0c0,0,0,0,0,0
			c0,0,0.1,0,0.1,0c0,0,0.1,0.1,0.1,0c0.1,0,0.1,0,0.1-0.1c0,0,0-0.1-0.1-0.1c0,0,0-0.1,0-0.1c0,0,0-0.1,0-0.1
			c0-0.1,0.1-0.2,0.1-0.3c0-0.1-0.1-0.1-0.1-0.1c-0.1,0.2-0.2,0.4-0.3,0.5c0,0,0,0,0,0c0,0,0-0.1,0-0.1c0-0.1-0.1-0.1-0.1-0.1
			c-0.1,0-0.1,0.1-0.1,0.2c0,0,0,0,0,0c0,0-0.1-0.1-0.1-0.1c-0.1,0-0.1,0.1-0.1,0.2c0,0-0.1,0-0.1,0c-0.1,0-0.1,0.1-0.1,0.3
			c0,0,0,0,0,0c0,0-0.1-0.1-0.1,0c-0.1,0.1-0.1,0.2-0.1,0.3c0,0,0,0-0.1,0c-0.1,0-0.1,0.4-0.1,0.4c-0.1,0-0.1,0-0.1,0.1
			c-0.1-0.1-0.1-0.3-0.1-0.4c-0.1-0.2-0.2-0.5-0.3-0.7c0-0.1-0.1-0.1-0.1-0.2c0.1,0,0.2,0,0.3-0.1c0,0,0,0,0,0c0.1,0,0.2,0,0.2,0
			c0.1,0,0-0.2-0.1-0.2c0,0-0.1,0-0.1,0c0.1-0.1,0.2-0.1,0.3-0.1c0.1,0,0-0.2-0.1-0.2c0,0,0,0,0,0c0,0,0.1-0.1,0.1-0.1
			c0,0,0-0.1,0-0.1c0,0,0.1-0.1,0.1-0.1c0-0.1,0-0.2-0.1-0.2c0-0.2,0.1-0.5-0.1-0.8c0-0.1-0.1-0.1-0.1,0c0,0.1,0,0.3,0,0.4
			c0,0.1,0,0.1,0,0.2c0,0,0,0,0,0c-0.1,0.1-0.1,0.1-0.1,0.2c0,0-0.1,0-0.1,0c-0.1,0.1,0,0.3,0,0.4c0,0.1-0.1,0-0.2,0
			c-0.1,0-0.1,0.2,0,0.3c0,0.1,0,0.1,0,0.1c0-0.1,0-0.2-0.1-0.2c0,0-0.1,0-0.1,0c0,0,0,0.1,0,0.1c0,0,0,0,0,0c0,0,0,0,0,0
			c0,0.1,0.1,0.2,0.1,0.3l0,0c0,0,0,0,0,0c0-0.1-0.1-0.1-0.1-0.2c-0.1-0.2-0.2-0.4-0.3-0.6c0,0,0.1-0.1,0.1-0.1c0,0,0-0.1-0.1-0.1
			c0-0.1,0-0.2,0-0.2c0,0-0.1-0.1-0.1-0.1c0-0.1,0-0.2,0-0.3c0-0.1-0.1-0.1-0.2-0.1c0,0,0,0,0,0c0-0.1,0-0.3,0-0.4
			c0-0.1-0.1-0.2-0.2-0.1c0,0,0,0.1-0.1,0.1c0,0,0,0,0,0c0-0.1-0.1-0.1-0.2-0.1c0,0,0,0,0,0c0-0.1,0-0.1,0-0.2
			c0-0.1-0.1-0.1-0.1-0.1c0,0-0.1,0-0.1,0c-0.1-0.1-0.2-0.3-0.3-0.4c-0.1-0.1-0.3-0.3-0.4-0.4C70.8,11.4,70.8,11.5,70.8,11.6z
			 M73,14.4C73,14.4,73,14.3,73,14.4C73,14.4,73,14.4,73,14.4C73,14.4,73,14.4,73,14.4z M74.2,17.8C74.2,17.8,74.2,17.7,74.2,17.8
			c0-0.1,0.1-0.1,0.1-0.1c0,0,0,0,0,0c0,0,0,0,0,0c0,0,0,0,0,0C74.3,17.7,74.3,17.7,74.2,17.8z M73.1,16.8
			C73,16.7,73,16.7,73.1,16.8C73,16.7,73,16.7,73.1,16.8C73,16.7,73,16.7,73.1,16.8z M73.4,16.9C73.3,16.9,73.3,16.9,73.4,16.9
			c-0.1-0.1-0.1-0.1-0.1-0.1c0,0-0.1,0-0.1-0.1l0,0c0,0,0,0,0,0c0,0,0,0,0.1,0.1C73.2,16.8,73.3,16.8,73.4,16.9c0-0.1,0-0.1,0-0.1
			C73.3,16.8,73.3,16.9,73.4,16.9z M73.4,17.1c0,0-0.1,0-0.1-0.1C73.3,17,73.3,17,73.4,17.1C73.3,17,73.3,17,73.4,17.1
			C73.4,17,73.4,17,73.4,17.1z M74.1,15.9C74.1,15.9,74.1,15.9,74.1,15.9C74.1,15.9,74.1,15.9,74.1,15.9
			C74.1,15.9,74.1,15.9,74.1,15.9z M74,15.7C74,15.7,74,15.7,74,15.7c0,0.1,0.1,0.1,0.1,0.1c0,0-0.1,0.1-0.1,0.1
			C74,15.8,74,15.7,74,15.7z M74.2,15.5C74.2,15.6,74.2,15.6,74.2,15.5c0,0.1,0,0.1,0,0.1c0,0,0,0,0,0
			C74.1,15.6,74.1,15.5,74.2,15.5C74.2,15.5,74.2,15.5,74.2,15.5z M74.4,15.4C74.4,15.5,74.4,15.5,74.4,15.4c-0.1,0,0-0.1,0-0.2
			C74.4,15.3,74.4,15.4,74.4,15.4z M73.8,15.9C73.8,16,73.9,16,73.8,15.9C73.9,16,73.9,16,73.8,15.9c0.1,0.1,0,0.1,0,0.1
			c0,0,0,0,0,0c0,0,0,0.1-0.1,0.1c0,0,0,0,0,0c0,0,0-0.1,0-0.1C73.8,16,73.8,15.9,73.8,15.9z M71.6,15.7c0,0,0.1,0,0.1,0
			c0,0,0,0,0,0C71.7,15.7,71.6,15.7,71.6,15.7z M71.8,15.6c0,0-0.1,0-0.1,0c0,0,0,0,0,0C71.7,15.6,71.7,15.6,71.8,15.6
			C71.8,15.6,71.8,15.6,71.8,15.6z M72.3,15.8c-0.1,0-0.1,0-0.2,0c0,0,0,0,0,0c0,0,0-0.1,0-0.1C72,15.5,72.2,15.7,72.3,15.8
			C72.3,15.8,72.3,15.8,72.3,15.8z M72.6,15.9C72.6,16,72.6,16,72.6,15.9c0,0-0.1,0-0.1,0c0,0,0,0,0-0.1c0,0,0-0.1-0.1-0.1
			c-0.1,0-0.1,0-0.2,0c0,0,0,0,0,0c0,0,0,0,0,0c0,0,0,0,0.1,0c0.1,0,0.1,0,0.2,0C72.5,15.9,72.5,15.9,72.6,15.9z M72.7,15.9
			C72.7,15.9,72.7,15.8,72.7,15.9C72.6,15.8,72.6,15.8,72.7,15.9C72.6,15.8,72.7,15.8,72.7,15.9z M72.9,16C72.8,16,72.8,16,72.9,16
			c-0.1,0-0.1-0.1-0.1-0.1c0,0,0,0-0.1,0c0,0,0,0,0-0.1c0,0,0,0,0,0C72.7,15.9,72.7,15.9,72.9,16C72.8,16,72.8,16,72.9,16z
			 M73.3,16.2C73.2,16.2,73.2,16.2,73.3,16.2c-0.1,0-0.1,0-0.1,0c-0.1,0-0.1-0.1-0.2-0.1c0,0,0,0,0,0c0,0,0,0,0-0.1c0,0,0,0,0,0
			c0.1,0,0.1,0.1,0.2,0.1C73.2,16.2,73.2,16.2,73.3,16.2C73.2,16.2,73.2,16.2,73.3,16.2z M72.8,14.7c0,0,0,0.1,0.1,0.1
			C72.8,14.8,72.8,14.8,72.8,14.7C72.8,14.7,72.8,14.7,72.8,14.7z M72.3,14.5c-0.1,0-0.2-0.1-0.3-0.1c0,0,0-0.1,0-0.1
			C72.1,14.3,72.2,14.4,72.3,14.5C72.3,14.4,72.3,14.5,72.3,14.5C72.3,14.5,72.3,14.5,72.3,14.5z M72.2,13.7c0,0,0,0.1,0.1,0.1
			C72.3,13.8,72.2,13.8,72.2,13.7C72.2,13.8,72.2,13.8,72.2,13.7z M72.2,13.5C72.2,13.5,72.2,13.5,72.2,13.5c0.1,0,0.1,0.1,0.1,0.1
			c0,0,0.1,0.1,0.1,0.1c0,0,0,0.1,0,0.1C72.3,13.7,72.3,13.6,72.2,13.5z M72,13.3C72,13.2,72,13.2,72,13.3C72,13.2,72,13.2,72,13.3
			C72,13.2,72,13.2,72,13.3C72,13.2,72,13.2,72,13.3z M71.8,13.2c0,0,0.1,0,0.1,0c0,0,0,0,0,0c0,0.1,0.1,0.1,0.1,0.2
			C72,13.4,71.9,13.3,71.8,13.2z M71.8,12.9C71.8,12.8,71.8,12.8,71.8,12.9C71.8,12.9,71.8,12.9,71.8,12.9
			C71.9,12.9,71.9,12.9,71.8,12.9C71.9,12.9,71.8,12.9,71.8,12.9z M71.6,12.8C71.7,12.8,71.7,12.9,71.6,12.8
			c0.1,0.1,0.1,0.1,0.2,0.1C71.7,12.9,71.7,12.9,71.6,12.8z M71.3,12.3c0.1,0.1,0.1,0.1,0.2,0.2C71.5,12.5,71.4,12.4,71.3,12.3z"/>
		<path fill="#1E9216" d="M75.8,17.2c0,0.1,0.1,0.1,0.1,0.2c0,0,0,0,0,0c0,0,0,0,0,0c0,0,0,0,0,0.1c0,0,0,0,0,0
			c-0.1,0.1,0,0.2,0.1,0.3c0,0-0.1-0.1-0.1,0c0,0.1,0,0.2,0.1,0.3c0,0-0.1,0-0.1,0c0,0,0,0.1,0,0.2c0,0.1,0,0.2,0.1,0.3c0,0,0,0,0,0
			c0,0.1,0.1,0.2,0.2,0.3c0,0,0,0.1,0,0.1c0,0.1,0,0.2,0,0.3c0,0-0.1,0-0.1,0.1c0,0,0,0,0,0c0,0,0,0,0,0c-0.1,0.1-0.3,0.2-0.4,0.3
			c0.1-0.1,0.1-0.3,0.1-0.5c0.1,0,0.1-0.1,0.1-0.2c0,0,0,0,0-0.1c0-0.1,0-0.1,0-0.2c0,0,0-0.1-0.1-0.1c0,0,0-0.1,0-0.1
			c0-0.1-0.1-0.2-0.1-0.3c0-0.1,0-0.1-0.1-0.1c0-0.1-0.1-0.2-0.1-0.3c0-0.1-0.2-0.1-0.1,0c0,0,0,0.1,0.1,0.2c0,0,0,0,0,0
			c0,0.1,0,0.1,0.1,0.2c-0.1,0-0.1,0-0.1,0.1c0,0.1,0.1,0.1,0.1,0.2c0,0,0,0,0,0c0,0.1,0.1,0.2,0.1,0.3c0,0-0.1,0,0,0.1
			c0,0,0.1,0.1,0.1,0.1c0,0,0,0,0,0c0,0.1,0,0.2,0.1,0.2c0,0,0,0,0,0c0,0,0,0,0,0c0,0,0,0,0,0c0,0,0,0,0,0c0,0,0,0,0,0.1
			c0,0.2,0,0.4-0.1,0.5c-0.3,0.2-0.6,0.4-0.9,0.7c-0.2,0.2-0.5,0.3-0.7,0.5c-0.2,0.2-0.5,0.4-0.5,0.7c0,0.1,0.1,0.1,0.1,0.1
			c0.3-0.1,0.5-0.3,0.7-0.5c0.1-0.1,0.3-0.3,0.4-0.4c0.4-0.3,0.7-0.5,1-0.8c0.2-0.2,0.5-0.4,0.7-0.6c0,0,0.1,0.1,0.1,0.1
			c0.1,0.1,0.1,0.2,0.2,0.3c0.2,0.1,0.2,0.4,0.3,0.5c0,0,0.1,0,0.1,0c0,0,0-0.1,0-0.1c0.1,0.1,0.1,0.3,0.3,0.4c0,0,0.1,0,0.1,0
			c0,0,0-0.1,0-0.1c0.1,0.1,0.2,0.3,0.2,0.1c0,0,0,0,0,0c0,0.1-0.1-0.1-0.2-0.2c0,0,0.1,0,0.1,0c0,0,0.1,0.1,0.1,0.1
			c0,0,0.1,0,0.1,0c0,0.1,0.1,0.1,0.1,0.2c0,0.1,0.1,0.1,0.1,0c0,0.1,0.1,0.1,0.1,0.2c0,0,0,0,0.1,0c0,0.1,0.1,0.1,0.1,0.2
			c0,0,0,0,0.1,0c0,0,0,0.1,0.1,0.1c0,0.1,0.1,0,0.1,0c0-0.1,0-0.2-0.1-0.2c0,0,0,0,0,0c0,0,0,0,0,0c0.1,0.1,0.2,0.2,0.3,0.3
			c0.1,0,0.1,0,0-0.1c-0.1-0.1-0.1-0.1-0.2-0.2c0,0,0,0,0,0c0.1,0,0-0.1,0-0.1c0,0,0,0,0,0c0,0,0,0,0,0c0,0,0-0.1,0-0.1
			c-0.1,0-0.1-0.1-0.2-0.1c0,0,0-0.1-0.1-0.1c-0.1,0-0.1,0-0.2,0c0,0,0,0,0,0c0,0,0-0.1-0.1-0.1c-0.1,0-0.1,0-0.2,0c0,0,0,0,0,0
			c0,0,0-0.1,0-0.1c-0.1-0.1-0.1-0.1-0.2-0.1c0,0,0,0,0,0c0,0,0,0,0-0.1c-0.1-0.1-0.2-0.1-0.3-0.1c0-0.1-0.1-0.2-0.2-0.2
			c-0.1,0-0.1-0.1-0.2-0.1c-0.1-0.1-0.2,0-0.4-0.1c0,0-0.1,0-0.1,0c-0.1,0-0.1-0.1-0.2-0.1c0,0-0.1-0.1-0.1-0.1c0,0,0,0,0,0
			c0,0,0,0,0,0c0,0,0,0,0,0c0,0,0.1-0.1,0.1-0.1c0.1,0,0.1,0,0.2-0.1c0.1,0,0.1-0.1,0.2-0.2c0.1,0,0.1-0.1,0.2-0.1
			c0.1,0,0.2,0,0.3,0c0,0,0,0,0,0.1c0,0,0,0.1,0.1,0.1c0.1,0,0.2,0.3,0.2,0.3c0.1,0,0.1,0,0.1,0c0,0,0,0,0,0c0,0.1,0.1,0.1,0.2,0.2
			c0,0,0.1,0,0.1,0c0,0.1,0.1,0.1,0.1,0.2c0,0,0.1,0,0.1,0c0.1,0.1,0.1,0.2,0.2,0.2c0.1,0,0.1,0,0.1-0.1c0.1,0.1,0.1,0.2,0.2,0.3
			c0,0,0.1,0,0.1,0c0-0.1,0-0.1,0-0.2c0.1,0.1,0.1,0.2,0.2,0.3c0,0,0,0,0.1,0c0,0,0-0.1,0-0.1c0,0,0.1,0.1,0.1,0.1c0,0,0.1,0,0.1,0
			c0,0,0.1,0.1,0.1,0.1c0,0,0.1,0,0.1,0c0,0,0-0.1,0-0.1c0,0,0.1,0,0.1,0.1c0,0,0,0,0,0c0.1,0,0.1,0.1,0.2,0.1c0,0,0,0,0-0.1
			c-0.1-0.1-0.3-0.2-0.4-0.3c0,0,0-0.1,0-0.1c-0.1-0.1-0.1-0.1-0.2-0.1c0,0,0,0,0,0c0,0,0-0.1-0.1-0.1c-0.1,0-0.2,0-0.3-0.1
			c0,0,0,0,0,0c0,0,0-0.1-0.1-0.1c-0.1,0-0.1,0-0.2,0c0,0,0,0,0,0c0,0,0-0.1-0.1-0.1c0,0-0.1,0-0.1,0c0-0.1-0.1-0.1-0.3-0.2
			c0,0,0,0,0,0c0,0,0-0.1-0.1-0.1c-0.1,0-0.1,0-0.1,0c0,0,0,0,0,0c0,0-0.1-0.1-0.1-0.1c0,0-0.1,0-0.1,0c0,0,0,0,0,0
			c0,0-0.1-0.1-0.1-0.1c-0.1,0-0.2,0-0.3,0c0,0,0,0,0,0.1c0,0-0.1,0-0.1,0c0.1-0.1,0.2-0.1,0.3-0.2c0,0,0.1-0.1,0.1-0.1
			c0.1,0,0.2,0.1,0.3,0c0,0,0,0,0,0c0.1,0,0.1,0,0.2,0c0,0,0.1,0,0.1,0c0.1,0,0.1,0,0-0.1c0,0,0,0,0,0c0,0,0.1,0,0.1,0c0,0,0,0,0,0
			c0,0,0,0,0,0c0,0,0,0,0.1,0c0.1,0.1,0.2,0.1,0.3,0c0,0,0,0,0-0.1c0,0,0,0,0,0c0.1,0,0.1-0.1,0-0.2c0,0,0,0,0,0
			c0.1-0.1,0.3-0.1,0.3-0.1c0.1,0,0-0.1,0-0.2c0.1,0,0.3-0.1,0.4-0.2c0,0,0-0.1,0-0.1c0,0,0.2-0.2,0.2-0.2c0,0,0-0.1-0.1-0.2
			c0,0,0,0,0,0c0,0,0-0.1-0.1-0.1c0,0-0.1,0-0.1,0c0,0-0.1,0-0.1,0c-0.1,0.1-0.2,0.2-0.2,0.2c0,0,0,0,0,0c0-0.1-0.1-0.1-0.1-0.1
			c-0.1,0-0.1,0-0.1,0.1c0,0-0.1-0.1-0.1-0.1c-0.1,0-0.1,0.1-0.2,0.2c0,0,0,0-0.1,0c-0.1,0-0.2,0.1-0.2,0.2c0,0-0.1,0-0.1,0
			c-0.1,0-0.2,0.2-0.2,0.3c0,0-0.1,0-0.1,0c0,0,0,0.1-0.1,0.1c0,0,0,0,0,0c0,0,0,0.1-0.1,0.1c0,0,0,0,0,0c-0.1,0.1-0.2,0.1-0.2,0.3
			c0,0,0,0,0,0c0,0-0.1,0.1-0.1,0.1c-0.1,0.1-0.2,0.1-0.3,0.2c0,0,0-0.1,0-0.1c0-0.1,0-0.1,0.1-0.2c0.1,0,0.1-0.1,0.2-0.2
			c0.1-0.1,0.1-0.2,0.1-0.3c0-0.1,0-0.1-0.1-0.1c0,0,0.1-0.1,0.1-0.1c0,0,0-0.1-0.1-0.1c0,0,0,0,0,0c0-0.1-0.1-0.2-0.1-0.1
			c0,0,0,0,0,0c0-0.2,0-0.3,0-0.5c0,0,0-0.1-0.1-0.1c0,0,0-0.1,0-0.1c0,0,0,0,0,0c0-0.1,0-0.2,0-0.2c0-0.1,0-0.2-0.1-0.4
			c0-0.1-0.1-0.1-0.1,0c0,0.2,0.1,0.4,0.1,0.6c0,0-0.1,0-0.1,0c0,0.1,0,0.2,0.1,0.3c-0.1-0.1-0.1-0.1-0.1,0c0,0.1,0,0.2,0,0.3
			c0,0,0,0,0,0c0,0.1,0,0.3,0.1,0.5c0,0,0,0-0.1,0c-0.1,0,0,0.2,0,0.3c0,0,0,0,0,0c0,0.1,0,0.2,0,0.3c0,0.2-0.1,0.2-0.2,0.4
			c-0.1,0.1-0.1,0.2-0.2,0.4c-0.1,0-0.1,0.1-0.2,0.1c0-0.1,0-0.1,0-0.2c0.1-0.1,0.2-0.2,0.3-0.4c0,0,0-0.1-0.1-0.1c0,0,0,0,0,0
			c0,0,0-0.1-0.1-0.1c0-0.1,0.1-0.1,0.1-0.2c0-0.1-0.1-0.1-0.1-0.1c0,0,0-0.1,0-0.1c0,0,0-0.1-0.1-0.1c0-0.1,0-0.1,0.1-0.1
			c0,0,0-0.1-0.1-0.1c0,0,0-0.1,0-0.1c0,0-0.1-0.1-0.1-0.1c0,0,0,0-0.1,0c-0.1-0.2-0.1-0.3-0.2-0.5c0-0.1-0.1-0.1-0.1,0
			C75.7,17,75.8,17.1,75.8,17.2z M76.8,17.2C76.8,17.2,76.8,17.2,76.8,17.2c-0.1-0.2,0-0.2,0-0.1C76.8,17.2,76.8,17.2,76.8,17.2z
			 M76.9,17.9C76.9,17.9,76.9,17.9,76.9,17.9c0-0.1,0-0.2,0-0.3c0,0,0,0,0,0C76.9,17.7,76.9,17.8,76.9,17.9
			C76.9,17.9,76.9,17.9,76.9,17.9z M79.1,17.6C79.1,17.6,79.1,17.6,79.1,17.6C79.1,17.6,79.1,17.7,79.1,17.6
			C79.1,17.6,79.1,17.6,79.1,17.6z M78.9,17.7C78.9,17.7,78.8,17.7,78.9,17.7C78.8,17.7,78.9,17.7,78.9,17.7
			C78.9,17.7,78.9,17.7,78.9,17.7C78.9,17.7,78.9,17.7,78.9,17.7C78.9,17.7,78.9,17.7,78.9,17.7C78.9,17.7,78.9,17.7,78.9,17.7z
			 M78.4,18.2C78.4,18.2,78.4,18.2,78.4,18.2C78.4,18.2,78.4,18.2,78.4,18.2C78.4,18.3,78.4,18.3,78.4,18.2
			C78.4,18.3,78.4,18.3,78.4,18.2C78.4,18.2,78.4,18.2,78.4,18.2z M79,19.9C79,19.9,79,19.9,79,19.9C79.1,19.9,79.1,19.9,79,19.9
			C79.1,20,79.1,20,79,19.9C79.1,20,79.1,20,79,19.9C79.1,20,79.1,20,79,19.9C79,19.9,79,19.9,79,19.9z M78.9,19.7c0,0,0.1,0,0.1,0
			c0,0,0,0,0,0c0,0,0,0,0,0C79,19.8,78.9,19.8,78.9,19.7z M78.6,19.9C78.6,19.9,78.6,19.9,78.6,19.9c0.1,0.1,0.1,0.1,0.1,0.1
			C78.7,19.9,78.6,19.9,78.6,19.9z M78.5,19.5C78.5,19.5,78.5,19.5,78.5,19.5c0.1,0.1,0.1,0.1,0.1,0.1c0,0,0,0,0,0c0,0,0,0,0,0l0,0
			C78.5,19.6,78.5,19.6,78.5,19.5C78.5,19.6,78.5,19.5,78.5,19.5z M78.2,19.4C78.2,19.4,78.3,19.4,78.2,19.4
			C78.3,19.4,78.3,19.4,78.2,19.4C78.3,19.4,78.3,19.4,78.2,19.4C78.3,19.5,78.3,19.5,78.2,19.4C78.3,19.4,78.2,19.4,78.2,19.4z
			 M78,19.4C78,19.4,78,19.5,78,19.4C78,19.5,78,19.5,78,19.4C78,19.5,78,19.5,78,19.4C78,19.5,78,19.5,78,19.4
			C78,19.5,78,19.5,78,19.4C78,19.5,78,19.4,78,19.4z M77.7,19.2C77.7,19.2,77.8,19.2,77.7,19.2C77.8,19.2,77.8,19.2,77.7,19.2
			C77.8,19.2,77.7,19.3,77.7,19.2C77.7,19.3,77.7,19.2,77.7,19.2z M77.4,19.1C77.5,19.1,77.5,19.1,77.4,19.1
			C77.5,19.1,77.5,19.1,77.4,19.1C77.5,19.1,77.5,19.1,77.4,19.1c0.1,0.1,0.1,0.1,0.1,0.1C77.5,19.1,77.5,19.1,77.4,19.1z
			 M78.1,20.7C78.2,20.7,78.2,20.7,78.1,20.7C78.2,20.7,78.2,20.8,78.1,20.7C78.2,20.7,78.2,20.7,78.1,20.7z M77.5,20.1
			C77.6,20.1,77.6,20.1,77.5,20.1C77.6,20.1,77.6,20.1,77.5,20.1C77.6,20.1,77.6,20.1,77.5,20.1z M77.1,20.2
			c0.1,0.1,0.1,0.1,0.2,0.1c0,0,0,0,0,0c0,0,0,0.1,0,0.1C77.2,20.3,77.2,20.2,77.1,20.2z M76.8,19.8c0,0,0.1,0.1,0.1,0.1
			C76.9,19.9,76.9,19.9,76.8,19.8C76.9,19.8,76.8,19.8,76.8,19.8z M76.8,18.6c0,0,0,0.1,0,0.1c0,0,0,0,0,0c0,0,0,0,0,0c0,0,0,0,0,0
			c-0.1,0-0.1,0.1-0.2,0.1c0,0,0,0,0,0c0,0,0-0.1,0.1-0.1C76.6,18.7,76.7,18.7,76.8,18.6z M76.9,18.2C76.9,18.2,76.9,18.2,76.9,18.2
			C76.9,18.2,76.8,18.2,76.9,18.2c0,0,0,0,0-0.1c0,0,0,0,0,0C76.9,18.1,76.9,18.1,76.9,18.2z M77,18.1C77,18.1,77,18.1,77,18.1
			C77,18,77,18,77,18.1C77,18.1,77,18.1,77,18.1z M76.8,18.3C76.8,18.3,76.8,18.3,76.8,18.3C76.8,18.3,76.8,18.3,76.8,18.3
			C76.8,18.4,76.8,18.4,76.8,18.3c0.1,0.1,0,0.2,0,0.2C76.8,18.4,76.8,18.4,76.8,18.3z M75.4,18.5C75.4,18.4,75.4,18.4,75.4,18.5
			c0-0.1,0-0.1-0.1-0.1c0,0,0,0,0-0.1c0,0,0-0.1-0.1-0.1c0,0,0,0,0,0c0,0,0,0,0,0C75.4,18.3,75.4,18.4,75.4,18.5z M75.4,18.6
			c0-0.1-0.1-0.1-0.1-0.1C75.3,18.5,75.4,18.5,75.4,18.6C75.4,18.6,75.4,18.6,75.4,18.6z M75.5,18.8C75.5,18.7,75.5,18.7,75.5,18.8
			C75.5,18.7,75.5,18.7,75.5,18.8C75.5,18.7,75.5,18.8,75.5,18.8z M76.1,18.6C76.2,18.7,76.2,18.7,76.1,18.6
			C76.2,18.7,76.2,18.7,76.1,18.6C76.1,18.7,76.1,18.7,76.1,18.6z M76,18.6C76,18.6,76,18.6,76,18.6C76.1,18.6,76.1,18.6,76,18.6
			C76,18.6,76,18.6,76,18.6z M76,18.2C76,18.3,76,18.3,76,18.2c0.1,0.1,0.1,0.2,0.1,0.2c0,0,0,0,0,0C76,18.4,76,18.4,76,18.2
			c-0.1,0-0.1,0-0.1,0C75.8,18,75.9,18.2,76,18.2z M76,17.9c0,0.1,0,0.2,0.1,0.3C76,18.1,75.9,18,76,17.9
			C75.8,17.7,75.9,17.8,76,17.9z"/>
		<path fill="#84EB14" d="M74.2,15.6c0,0.1,0.1,0.1,0.1,0.2c0,0,0,0,0,0c0,0.1,0.1,0.1,0.1,0.2c0,0,0,0,0,0c0,0.1,0.1,0.2,0.2,0.3
			c0,0,0,0,0,0c0,0.1,0.1,0.2,0.1,0.2c0,0,0,0,0,0c0,0.1,0,0.2,0.1,0.3c0,0,0,0,0,0c0,0,0,0.1,0,0.2c0,0,0,0,0,0
			c0,0.1,0.1,0.2,0.1,0.3c0,0,0,0,0,0c0,0,0.1,0.1,0.1,0.1c0,0.1,0,0.1,0,0.2c0,0,0,0,0,0c0,0,0,0,0,0.1c0,0.1,0,0.1,0,0.2
			c0,0.1-0.1,0.1-0.1,0.2c0,0,0,0,0,0.1c-0.1,0.2-0.2,0.3-0.3,0.5c-0.1,0.3-0.3,0.5-0.4,0.7c-0.3,0.3-0.5,0.6-0.7,0.9
			c-0.2,0.2-0.3,0.5-0.5,0.7c0,0-0.1,0,0,0.1c0,0,0,0,0,0c0,0.1,0.1,0.1,0.2,0.1c0,0,0,0,0,0c0,0,0,0,0,0c0.1-0.2,0.2-0.3,0.4-0.5
			c0-0.1,0.1-0.1,0.1-0.2c0.1-0.2,0.3-0.4,0.4-0.6c0.2-0.3,0.4-0.6,0.5-0.9c0.1-0.2,0.3-0.5,0.4-0.7c0.1-0.1,0.2-0.3,0.2-0.4
			c0-0.1,0-0.2,0.1-0.3c0,0,0,0,0,0c0.1,0,0.3,0,0.4-0.1c0.1,0,0.3,0.1,0.4,0.1c0,0,0,0,0,0c0,0,0.1,0,0.1,0c0,0,0,0,0,0
			c0,0,0.1,0,0.2,0.1c0,0,0,0,0,0c0.1,0,0.1,0,0.2,0c0,0,0,0,0,0c0,0,0.1,0,0.1,0c0,0,0,0,0,0c0,0,0,0,0,0c0,0,0,0,0,0c0,0,0,0,0,0
			c0,0,0,0,0,0c0.1,0,0.1,0,0.2,0c0,0,0-0.1,0-0.1c0,0,0,0,0,0c0,0,0,0,0.1-0.1c0,0,0,0,0,0c0.1,0,0.3,0,0.4,0c0,0,0-0.1,0-0.1
			c0,0-0.1,0-0.1,0c0,0,0,0,0,0c0,0,0,0,0,0c0,0,0,0,0,0c0,0,0,0-0.1,0c0,0,0,0,0,0c-0.1-0.1-0.2,0-0.3,0c0,0,0,0,0,0c0,0,0,0-0.1,0
			c0,0,0,0-0.1,0c0,0-0.1,0-0.1,0c0,0-0.1,0-0.1,0c-0.1,0-0.2,0.1-0.2,0.1c0,0,0,0,0,0c0,0,0-0.1-0.1-0.1c-0.1,0.1-0.2,0.2-0.4,0.2
			c-0.1,0-0.3,0-0.4,0.1c0,0,0-0.1,0.1-0.1c0,0,0-0.1,0.1-0.1c0.1,0,0.2,0,0.3-0.1c0,0,0,0,0,0c0.1,0,0.2-0.1,0.2-0.2
			c0,0,0-0.1-0.1-0.1c0,0,0,0,0,0c0.1,0,0.2-0.1,0.2-0.1c0,0,0-0.1,0-0.1c0.1,0,0.1-0.1,0.2-0.1c0,0,0-0.1,0-0.1
			c0.1,0,0.2-0.1,0.2-0.1c0,0,0-0.1-0.1-0.1c-0.1,0-0.2,0-0.3,0c0.1-0.1,0.3-0.2,0.4-0.3c0,0,0-0.1-0.1-0.1c0,0,0,0,0,0
			c0.1-0.1,0.1-0.2,0-0.3c-0.1,0-0.2,0.1-0.3,0.2c0-0.1-0.1-0.1-0.1,0c-0.1,0.1-0.1,0.2-0.1,0.2c0,0,0,0-0.1-0.1c0,0-0.1,0-0.1,0
			c0,0.1,0,0.1,0,0.2c0,0,0,0,0,0c0,0-0.1-0.1-0.1,0c0,0,0,0.1,0,0.1c0,0,0,0,0,0c0,0-0.1,0-0.1,0c0,0-0.1,0.1-0.1,0.2
			c0,0,0,0-0.1,0c0,0,0,0-0.1-0.1c-0.1-0.1-0.1-0.1-0.1,0c0,0.1,0.1,0.3,0.1,0.4c0,0.2,0,0.3,0.1,0.5c0,0,0,0,0,0c0,0,0,0,0,0
			c0,0,0,0,0,0c0,0,0,0,0,0c0,0,0-0.1,0-0.1c0,0,0,0,0,0c0-0.1,0-0.1-0.1-0.2c0,0,0,0,0,0c0-0.1,0-0.2-0.1-0.3c0,0,0,0-0.1,0
			c0-0.1,0-0.1-0.1-0.2c0,0,0,0,0,0c0-0.1,0-0.1,0-0.2c0,0-0.1-0.1-0.1,0c0-0.1,0-0.1-0.1-0.2c0,0-0.1,0-0.1,0
			C74.6,15.8,74.3,15.6,74.2,15.6C74.2,15.5,74.2,15.6,74.2,15.6z M76.7,17.5C76.7,17.5,76.8,17.5,76.7,17.5
			C76.8,17.5,76.8,17.6,76.7,17.5C76.7,17.6,76.7,17.6,76.7,17.5z M76.8,17.4C76.8,17.4,76.8,17.4,76.8,17.4c0,0,0.1,0,0.1,0
			C76.9,17.4,76.9,17.4,76.8,17.4C76.9,17.4,76.9,17.4,76.8,17.4C76.9,17.4,76.9,17.4,76.8,17.4C76.8,17.4,76.8,17.4,76.8,17.4z
			 M76.5,17.5c0,0-0.1,0-0.1,0C76.4,17.5,76.4,17.5,76.5,17.5C76.4,17.4,76.4,17.5,76.5,17.5z M76.5,17.5
			C76.5,17.5,76.5,17.5,76.5,17.5C76.5,17.5,76.5,17.5,76.5,17.5c0.1,0,0.1,0,0.1,0C76.5,17.6,76.5,17.5,76.5,17.5z M76.4,17.6
			C76.4,17.6,76.4,17.6,76.4,17.6C76.4,17.6,76.4,17.6,76.4,17.6C76.4,17.6,76.4,17.6,76.4,17.6z M76.2,17.6
			C76.2,17.6,76.2,17.6,76.2,17.6C76.2,17.6,76.3,17.6,76.2,17.6C76.2,17.6,76.2,17.6,76.2,17.6z M76.2,17.5
			C76.2,17.5,76.2,17.5,76.2,17.5C76.2,17.5,76.2,17.5,76.2,17.5C76.2,17.5,76.2,17.5,76.2,17.5z M75.8,17.6
			C75.9,17.5,75.9,17.5,75.8,17.6c0.1,0,0.1,0,0.2,0c0,0,0,0,0,0c0,0,0,0,0,0c0,0-0.1,0-0.1,0C75.9,17.6,75.9,17.6,75.8,17.6
			C75.9,17.5,75.9,17.6,75.8,17.6C75.9,17.6,75.8,17.6,75.8,17.6z M75.5,16.9c0-0.1,0-0.2-0.1-0.3c0-0.1,0-0.1,0-0.1
			c0,0.1,0,0.2,0,0.3C75.5,16.8,75.5,16.8,75.5,16.9C75.5,16.8,75.5,16.9,75.5,16.9z M75.5,17.1C75.5,17.1,75.6,17.1,75.5,17.1
			c0.1,0,0.1,0.1,0.1,0.1c0,0-0.1,0-0.1,0c0,0,0,0,0,0C75.5,17.1,75.5,17.1,75.5,17.1z M75.6,16.9C75.6,16.9,75.6,16.9,75.6,16.9
			c0.1,0,0.1,0,0.1,0c0,0,0,0,0,0C75.7,16.9,75.6,16.9,75.6,16.9C75.6,16.9,75.6,16.9,75.6,16.9C75.6,16.9,75.6,16.9,75.6,16.9z
			 M75.7,16.7C75.7,16.7,75.7,16.7,75.7,16.7c0,0,0,0.1,0,0.1C75.7,16.8,75.7,16.7,75.7,16.7z M75.1,17.3
			C75.1,17.3,75.1,17.3,75.1,17.3C75.1,17.3,75.1,17.3,75.1,17.3C75.1,17.3,75.1,17.3,75.1,17.3C75.1,17.3,75.1,17.3,75.1,17.3
			C75.1,17.3,75.1,17.3,75.1,17.3z M74.9,17.1C74.9,17.2,74.9,17.2,74.9,17.1c0.1,0.1,0.1,0.1,0.1,0.2C75,17.3,74.9,17.2,74.9,17.1z
			 M74.8,16.8C74.8,16.8,74.8,16.8,74.8,16.8c0.1,0.1,0.1,0.1,0.1,0.2C74.9,17,74.8,16.9,74.8,16.8z M74.9,16.7
			C74.9,16.7,74.9,16.7,74.9,16.7C74.9,16.7,74.9,16.7,74.9,16.7c0.1,0,0.1,0.1,0,0.1C74.9,16.8,74.9,16.7,74.9,16.7z M74.8,16.5
			C74.8,16.5,74.8,16.5,74.8,16.5C74.8,16.5,74.8,16.5,74.8,16.5C74.8,16.5,74.8,16.5,74.8,16.5z M74.5,16.1
			C74.5,16.2,74.5,16.2,74.5,16.1c0,0,0.1,0.1,0.1,0.1C74.6,16.2,74.6,16.2,74.5,16.1C74.5,16.2,74.5,16.1,74.5,16.1z"/>
		<path fill="#84EB14" d="M73,21.4c-0.1,0.1,0.1,0.3,0.2,0.2c0.1-0.1,0.4-0.1,0.6-0.1c0.2,0,0.4,0,0.7,0c0.3,0,0.6,0,1,0
			c0.1,0,0.1,0.1,0.2,0.1c0,0,0,0.1,0.1,0.1c0.1,0.1,0.1,0.2,0.2,0.3c0,0,0,0,0.1,0c0,0,0,0,0,0.1c0,0,0.1,0.1,0.1,0c0,0,0,0,0,0
			c0,0.1,0.1,0.2,0.1,0.3c0,0,0.1,0,0.1,0c0-0.1,0.1,0.1,0.1,0.1c0,0,0,0,0,0.1c0,0,0,0,0.1,0c0,0.1,0.1,0.1,0.1,0.2
			c0,0,0.1,0,0.1,0c0,0,0,0,0-0.1c0,0,0,0,0,0c0,0,0,0,0,0c0,0,0,0,0,0c0,0,0,0,0-0.1c0,0,0,0,0,0c0,0,0,0,0-0.1
			c0,0,0.1,0.1,0.1,0.1c0,0,0,0,0.1,0c0.1-0.1-0.2-0.3-0.4-0.4c0-0.1,0-0.2-0.1-0.2c0,0,0-0.1,0-0.1c0,0-0.1-0.1-0.1-0.1
			c0,0,0,0,0,0c-0.1-0.1-0.3-0.2-0.4-0.1c0,0-0.1-0.1-0.1-0.1c0,0,0,0,0,0c0.2,0,0.4,0,0.6,0c0,0.1,0.1,0.1,0.2,0.2c0,0,0,0.1,0,0.1
			c0,0,0,0,0,0c0,0.1,0,0.2,0.1,0.3c0,0,0,0,0,0c0,0.1,0,0.1,0.1,0.2c0,0,0,0,0,0c0,0.1,0,0.1,0.1,0.2c0,0,0,0,0.1,0
			c0,0.1,0,0.1,0.1,0.2c0,0,0,0,0.1,0c0,0,0,0,0,0c0,0,0,0,0,0c0,0,0,0,0.1,0c0,0,0,0,0-0.1c0,0,0,0,0,0c0,0,0,0,0,0c0,0,0,0,0,0
			c-0.1,0-0.1-0.2-0.1-0.3l0,0c0,0,0,0,0,0c0,0.1,0.1,0.1,0.1,0.2c0,0,0,0,0,0c0.1,0.1,0.1,0.2,0.2,0.3l0,0c0,0,0.1,0,0,0
			c-0.1-0.1-0.2-0.2-0.3-0.4c0,0,0,0,0,0c0,0,0,0,0,0.1c0,0,0,0,0,0c0,0,0,0,0,0l0,0c0,0,0,0,0,0c0,0,0.1,0,0.1,0c0,0,0,0,0,0
			c0-0.1-0.1-0.1-0.1-0.1c0,0-0.2-0.1-0.1-0.1c0,0,0.1,0,0-0.1c0,0,0,0,0,0c0,0,0.1,0,0.1,0c0,0,0-0.1,0-0.1c-0.1,0-0.1-0.1-0.1-0.1
			c0,0,0-0.1-0.1-0.1c0,0-0.1,0-0.1,0c0-0.1,0-0.2-0.1-0.2c-0.1,0-0.1-0.1-0.2-0.2c0,0-0.1-0.1-0.2-0.1c0.1,0,0.1,0,0.2,0
			c0,0,0,0,0,0c0.2,0.1,0.2,0.2,0.4,0.3c0,0,0.1,0,0.1,0c0,0,0,0,0,0c0.1,0.1,0.1,0.1,0.2,0.1c0,0,0.1,0,0-0.1c0,0,0,0,0-0.1
			c0,0,0,0,0.1,0.1c0,0,0,0,0,0c0,0,0,0.1,0.1,0.1c0.1,0.1,0.1,0.2,0.2,0.2c0,0,0,0,0,0c0-0.1,0-0.1-0.1-0.2
			c0.1,0.1,0.1,0.1,0.2,0.2c0,0,0,0,0.1,0c0,0,0,0,0-0.1c0.1,0.1,0.1,0.2,0.2,0.2c0,0,0,0,0,0c0,0,0,0,0,0c0,0,0,0,0.1,0
			c0,0,0.1,0,0.1,0c0,0,0,0,0,0c-0.1-0.1-0.2-0.2-0.3-0.3c0,0-0.1-0.1-0.1-0.1c0,0,0.1,0.1,0.1,0.1c0,0,0,0,0,0c0,0,0,0,0,0
			c0,0,0,0,0.1,0.1c0,0,0,0,0,0l0,0c0,0,0,0,0,0c0,0,0,0,0,0c0,0,0,0,0,0c0,0,0,0,0,0c0,0,0,0,0,0c0,0,0,0,0,0c0,0,0,0,0,0
			c0,0,0.1,0.1,0.2,0.1c0.1,0,0-0.1,0-0.1c0,0,0,0,0,0c0,0,0,0,0,0c0,0,0,0-0.1-0.1c0,0,0-0.1,0-0.1c0,0-0.1,0-0.1,0
			c0,0,0-0.1-0.1-0.1c0,0-0.1,0-0.1,0c0,0,0,0,0,0c0,0,0-0.1-0.1-0.1c0,0-0.1,0-0.1,0c0,0,0,0,0,0c0,0,0,0,0,0c0,0,0-0.1-0.1-0.1
			c0,0,0,0-0.1,0c0,0,0,0,0,0c0,0,0,0,0,0c0,0,0-0.1-0.1-0.1c0,0,0,0,0,0c0,0,0,0,0,0c0,0,0,0,0,0c0,0,0,0,0-0.1c0,0,0-0.1,0-0.1
			c-0.1,0-0.1,0-0.2,0c0,0,0,0,0,0c0,0,0-0.1-0.1-0.1c-0.1,0-0.2,0-0.3,0c0,0,0,0,0,0c-0.1,0-0.2,0.1-0.3,0.1c0,0,0,0.1,0,0.1
			c0,0,0,0,0,0c0,0,0,0,0,0.1c-0.1,0-0.2,0-0.3,0c0,0,0-0.1,0.1-0.1c0,0,0,0,0,0c0.1-0.1,0.1-0.3,0.2-0.5c0,0,0,0,0,0
			c0,0,0-0.1,0-0.1c0,0,0,0,0,0c0,0,0,0,0,0c0-0.1,0-0.2,0-0.3c0,0-0.1-0.1-0.1-0.1c0,0,0,0,0,0c0-0.1,0-0.1-0.1-0.2
			c0-0.1-0.1-0.1-0.1-0.2c0-0.1-0.1-0.1-0.1,0c0,0,0,0.1,0,0.1c0,0-0.1,0-0.1,0c0,0.1,0,0.2,0.1,0.2c0,0,0,0,0,0.1
			c0,0.1,0.1,0.1,0.1,0.2c0,0,0,0,0,0c0,0.1,0,0.1,0.1,0.2c0,0,0,0,0,0c0,0.1,0.1,0.2,0.1,0.2c0,0,0,0,0,0.1c0,0.1,0,0.1-0.1,0.2
			c0,0,0,0,0,0c0,0,0,0,0,0c0,0,0,0,0,0c-0.2,0-0.3,0-0.5,0c-0.1,0-0.1,0-0.2,0c0,0,0-0.1,0-0.1c0,0,0,0,0-0.1l0,0c0,0,0,0,0,0
			c0.1,0,0.2-0.1,0.3-0.2c0,0,0-0.1,0-0.1c0,0,0,0,0,0c0,0,0-0.1,0-0.1c0-0.2,0-0.5-0.2-0.7c0,0-0.1,0-0.1,0c0,0.1,0,0.2,0,0.3
			c0,0,0,0,0,0c0,0,0,0.1,0,0.2c0,0,0,0,0,0c0,0.1,0,0.1,0,0.2c0,0,0,0,0,0c0,0.1,0,0.1,0,0.2c0,0.1,0,0.3,0,0.4c0,0,0,0,0,0
			c-0.3,0-0.6,0-1,0c-0.3,0-0.7-0.1-1-0.1C73.2,21.3,73.1,21.3,73,21.4z M75.5,21.1c0,0,0-0.1,0-0.1c0,0,0.1,0,0.1,0
			c0-0.1,0-0.1,0-0.2c0,0,0.1,0,0.1,0c0,0,0-0.1,0-0.1c0,0,0,0,0,0c0,0.1,0,0.2,0,0.3C75.5,21,75.5,21.1,75.5,21.1z M76.2,20.8
			c0,0-0.1-0.1-0.1-0.1c0,0,0,0,0-0.1c0-0.1-0.1-0.1-0.1-0.2c0,0,0,0.1,0.1,0.1c0,0,0,0,0.1,0C76.2,20.6,76.2,20.7,76.2,20.8z
			 M76.3,20.7c0,0,0-0.1,0-0.1c0,0,0,0,0,0C76.3,20.7,76.3,20.7,76.3,20.7z M76.3,20.8C76.3,20.8,76.3,20.8,76.3,20.8
			C76.3,20.8,76.3,20.9,76.3,20.8C76.3,20.8,76.3,20.8,76.3,20.8C76.3,20.8,76.3,20.8,76.3,20.8z M76.9,22.4
			C76.9,22.4,76.9,22.4,76.9,22.4C76.9,22.4,77,22.4,76.9,22.4C77,22.4,77,22.5,76.9,22.4c0.1,0.1,0.2,0.2,0.2,0.2
			c0,0,0.1,0.1,0.1,0.1c0,0-0.1,0-0.1,0c-0.1-0.1-0.1-0.1-0.2-0.2C77,22.5,76.9,22.5,76.9,22.4z M76.8,22.2
			C76.8,22.2,76.8,22.2,76.8,22.2C76.8,22.2,76.8,22.2,76.8,22.2C76.8,22.2,76.8,22.2,76.8,22.2C76.8,22.2,76.8,22.2,76.8,22.2z
			 M76.7,22.1c0,0,0.1,0.1,0.1,0.1c0,0,0,0.1,0.1,0.1c0,0,0,0,0,0c0,0,0,0,0,0c0,0,0-0.1,0-0.1c0,0,0-0.1-0.1-0.1
			C76.7,22.2,76.7,22.2,76.7,22.1z M76.6,21.9C76.7,22,76.7,21.9,76.6,21.9C76.6,22,76.6,22,76.6,21.9z M76.8,21.5c0,0-0.1,0-0.1,0
			c0,0,0,0-0.1,0C76.6,21.4,76.6,21.4,76.8,21.5C76.7,21.4,76.7,21.4,76.8,21.5C76.7,21.4,76.7,21.4,76.8,21.5
			C76.7,21.4,76.7,21.4,76.8,21.5C76.7,21.4,76.7,21.5,76.8,21.5z M77.1,21.6C77.1,21.6,77,21.5,77.1,21.6c-0.1,0-0.1,0-0.1,0
			C77,21.5,77,21.5,77.1,21.6C77,21.5,77.1,21.5,77.1,21.6C77.1,21.5,77.1,21.5,77.1,21.6C77.1,21.5,77.1,21.6,77.1,21.6z
			 M76.9,21.5C76.9,21.5,76.9,21.5,76.9,21.5C76.9,21.5,76.9,21.5,76.9,21.5C76.9,21.5,76.9,21.5,76.9,21.5z M77.1,21.4
			c-0.1,0-0.1,0-0.1,0c0,0,0.1-0.1,0.1-0.1c0,0,0.1,0,0.1,0C77.2,21.4,77.2,21.4,77.1,21.4z M77.4,21.6
			C77.4,21.6,77.4,21.6,77.4,21.6C77.4,21.6,77.4,21.6,77.4,21.6C77.4,21.6,77.4,21.6,77.4,21.6z M77.7,21.9
			C77.7,21.9,77.7,21.9,77.7,21.9C77.7,21.9,77.7,21.9,77.7,21.9C77.7,21.9,77.7,21.9,77.7,21.9C77.7,21.9,77.6,21.9,77.7,21.9
			c-0.1-0.1-0.1-0.1-0.1-0.1C77.6,21.8,77.7,21.9,77.7,21.9C77.7,21.9,77.7,21.9,77.7,21.9C77.7,21.9,77.7,21.9,77.7,21.9z
			 M77.5,21.9C77.5,21.9,77.6,21.9,77.5,21.9c0.1,0.1,0.1,0.1,0.1,0.1C77.6,22,77.5,21.9,77.5,21.9z M77.3,21.8
			C77.3,21.8,77.4,21.9,77.3,21.8c0.1,0.1,0.1,0.2,0.1,0.2C77.4,22,77.3,21.9,77.3,21.8C77.3,21.8,77.3,21.8,77.3,21.8z M77.3,21.7
			C77.3,21.7,77.3,21.7,77.3,21.7C77.3,21.7,77.3,21.7,77.3,21.7C77.3,21.7,77.3,21.7,77.3,21.7z M77,21.7C77,21.6,77,21.6,77,21.7
			C77,21.6,77,21.6,77,21.7C77,21.6,77,21.7,77,21.7C77,21.8,77.2,22,77,21.7C77,21.7,77,21.7,77,21.7z M76.8,21.6
			c0,0,0.1,0,0.1,0.1c0,0,0,0,0,0c0,0,0,0,0,0C76.8,21.7,76.8,21.7,76.8,21.6z M75.9,21.8c0,0,0.1,0,0.1,0.1
			C76,21.9,76,21.9,75.9,21.8C75.9,21.9,75.9,21.9,75.9,21.8z"/>
	</g>
</g>
<g>
	<path fill="#00FB78" d="M18.2,57.6V61H17v3.3h-3.8v-7.8c0-1.5,0.5-2.7,1.4-3.7c0.9-1,2.1-1.4,3.4-1.4c1.5,0,2.8,0.7,3.8,2l-3.1,2.2
		c-0.2-0.5-0.5-0.7-0.9-0.7c-0.6,0-0.9,0.4-0.9,1.2v1.6H18.2z"/>
	<path fill="#00FB78" d="M28.6,51.3c1.8,0,3.3,0.6,4.6,1.9c1.3,1.3,1.9,2.9,1.9,4.7c0,1.8-0.6,3.4-1.9,4.7c-1.3,1.3-2.9,1.9-4.7,1.9
		c-1.8,0-3.4-0.6-4.7-1.9c-1.3-1.3-1.9-2.9-1.9-4.7c0-1.8,0.7-3.4,2-4.7C25.1,52,26.7,51.3,28.6,51.3z M28.4,55
		c-0.8,0-1.4,0.3-2,0.8c-0.5,0.6-0.8,1.3-0.8,2.1c0,0.8,0.3,1.5,0.8,2.1c0.5,0.6,1.2,0.8,2,0.8c0.8,0,1.4-0.3,2-0.8
		c0.5-0.6,0.8-1.2,0.8-2.1c0-0.8-0.3-1.5-0.8-2.1C29.9,55.3,29.2,55,28.4,55z"/>
	<path fill="#00FB78" d="M42.8,51.3c1.8,0,3.3,0.6,4.6,1.9c1.3,1.3,1.9,2.9,1.9,4.7c0,1.8-0.6,3.4-1.9,4.7c-1.3,1.3-2.9,1.9-4.7,1.9
		c-1.8,0-3.4-0.6-4.7-1.9c-1.3-1.3-1.9-2.9-1.9-4.7c0-1.8,0.7-3.4,2-4.7C39.3,52,40.9,51.3,42.8,51.3z M42.7,55
		c-0.8,0-1.4,0.3-2,0.8c-0.5,0.6-0.8,1.3-0.8,2.1c0,0.8,0.3,1.5,0.8,2.1c0.5,0.6,1.2,0.8,2,0.8c0.8,0,1.4-0.3,2-0.8
		c0.5-0.6,0.8-1.2,0.8-2.1c0-0.8-0.3-1.5-0.8-2.1C44.1,55.3,43.5,55,42.7,55z"/>
	<path fill="#00FB78" d="M54.8,55.3v9h-3.8V51.6H56c2.1,0,3.8,0.5,5,1.5c1.4,1.2,2.2,2.7,2.2,4.7c0,1.9-0.6,3.5-1.8,4.7
		c-1.2,1.2-2.8,1.8-4.8,1.8c-0.2,0-0.6,0-1.1,0v-3.7h0.6c2.2,0,3.3-0.9,3.3-2.7c0-1.7-1.1-2.6-3.2-2.6H54.8z"/>
</g>
<g>
	<path fill="#00861D" d="M63.5,64.1v-9c0-1.1,0.5-2,1.4-2.7c0.9-0.7,2.1-1.1,3.5-1.1c1.7,0,3,0.6,3.9,1.8c0.6-0.6,1.2-1.1,1.8-1.4
		c0.6-0.3,1.4-0.4,2.4-0.4c1.5,0,2.6,0.4,3.4,1.1c0.8,0.7,1.2,1.7,1.2,3v8.6h-5V56c0-0.4,0-0.7-0.1-0.8c-0.1-0.1-0.3-0.2-0.5-0.2
		c-0.5,0-0.7,0.3-0.7,0.9v8.1h-5V56c0-0.4,0-0.7-0.1-0.8c-0.1-0.1-0.3-0.2-0.5-0.2c-0.5,0-0.7,0.3-0.7,1v8.1H63.5z"/>
	<path fill="#00861D" d="M90.2,57.9v3.3h-1.4v3h-5v-7.9c0-1.5,0.6-2.7,1.7-3.6c1.1-0.8,2.7-1.3,4.7-1.3c2,0,3.4,0.4,4.3,1.2
		c0.9,0.8,1.4,2,1.4,3.6v8h-5v-7.8c0-0.5-0.1-0.8-0.2-1c-0.2-0.2-0.4-0.3-0.8-0.3c-0.8,0-1.2,0.4-1.2,1.3v1.5H90.2z"/>
	<path fill="#00861D" d="M116.4,51.7v12.4h-5V51.7H116.4z M125.9,51.7l-4.4,5.6l4.4,6.8h-5.6l-3.8-6.9l4.3-5.6H125.9z"/>
</g>
<g>
	<path fill="#00671F" d="M103.6,55c-1.1,0-1.7,0.3-1.7,0.9c0,0.7,0.5,1,1.5,1h0.4v3.2l-2.3,4h-4.9l2.7-5.1c-1.4-0.9-2.1-1.9-2.1-3.2
		c0-1.2,0.6-2.2,1.7-3c1-0.7,2.4-1.1,4.2-1.1h6v12.4h-4.6V55H103.6z"/>
</g>
<g>
	<path fill="#FFFFFF" d="M48.2,78.4c0,0.9-0.1,1.7,0,1.9c0,0-1,0.7-1.1-1.9c-0.9,0-1.7-0.1-1.9,0c0,0-0.7-1,1.9-1.1
		c0-0.6,0.1-1.2,0.1-2c0.7-0.3,0.9,0.8,1,2c0.6,0,1.2,0.1,2,0.1C50.4,78.1,49.4,78.3,48.2,78.4z"/>
</g>
<g>
	<path fill="#FFFFFF" d="M81.6,78.4c0,0.9-0.1,1.7,0,1.9c0,0-1,0.7-1.1-1.9c-0.9,0-1.7-0.1-1.9,0c0,0-0.7-1,1.9-1.1
		c0-0.6,0.1-1.2,0.1-2c0.7-0.3,0.9,0.8,1,2c0.6,0,1.2,0.1,2,0.1C83.8,78.1,82.8,78.3,81.6,78.4z"/>
</g>
</svg>
