<?xml version="1.0" encoding="UTF-8" standalone="no"?>
<!-- Generator: Adobe Illustrator 18.0.0, SVG Export Plug-In . SVG Version: 6.00 Build 0)  -->

<svg
   xmlns:dc="http://purl.org/dc/elements/1.1/"
   xmlns:cc="http://creativecommons.org/ns#"
   xmlns:rdf="http://www.w3.org/1999/02/22-rdf-syntax-ns#"
   xmlns:svg="http://www.w3.org/2000/svg"
   xmlns="http://www.w3.org/2000/svg"
   xmlns:sodipodi="http://sodipodi.sourceforge.net/DTD/sodipodi-0.dtd"
   xmlns:inkscape="http://www.inkscape.org/namespaces/inkscape"
   version="1.1"
   id="Layer_1"
   x="0px"
   y="0px"
   viewBox="0 0 18.6 21.6"
   enable-background="new 0 0 18.6 21.6"
   xml:space="preserve"
   inkscape:version="0.91 r13725"
   sodipodi:docname="mark-16.svg"><metadata
     id="metadata165"><rdf:RDF><cc:Work
         rdf:about=""><dc:format>image/svg+xml</dc:format><dc:type
           rdf:resource="http://purl.org/dc/dcmitype/StillImage" /></cc:Work></rdf:RDF></metadata><defs
     id="defs163" /><sodipodi:namedview
     pagecolor="#ffffff"
     bordercolor="#666666"
     borderopacity="1"
     objecttolerance="10"
     gridtolerance="10"
     guidetolerance="10"
     inkscape:pageopacity="0"
     inkscape:pageshadow="2"
     inkscape:window-width="1920"
     inkscape:window-height="1016"
     id="namedview161"
     showgrid="false"
     inkscape:zoom="21.851851"
     inkscape:cx="3.6975001"
     inkscape:cy="-0.88490762"
     inkscape:window-x="0"
     inkscape:window-y="27"
     inkscape:window-maximized="1"
     inkscape:current-layer="Layer_1" /><g
     id="g3"><g
       id="g5"><path
         fill-rule="evenodd"
         clip-rule="evenodd"
         fill="#02A436"
         d="M15.2,19.6l-1.1,1c-0.2,0.2-0.6,0.2-0.8,0l-4.4-4.5    c-0.1-0.1-0.2-0.2-0.2-0.4c0,0,0-0.1,0-0.1l0-0.9c0-0.3,0.3-0.6,0.6-0.6l0.9,0c0,0,0,0,0.1,0c0.2,0,0.3,0,0.4,0.2l4.4,4.5    C15.4,19,15.4,19.3,15.2,19.6z"
         id="path7" /><path
         fill-rule="evenodd"
         clip-rule="evenodd"
         fill="#00FA94"
         d="M0.7,6.9l1.1-1c0.2-0.2,0.6-0.2,0.8,0l4.4,4.5    c0.1,0.1,0.2,0.2,0.2,0.4c0,0,0,0.1,0,0.1l0,0.9c0,0.3-0.3,0.6-0.6,0.6l-0.9,0c0,0,0,0-0.1,0c-0.2,0-0.3,0-0.4-0.2L0.7,7.7    C0.5,7.5,0.5,7.1,0.7,6.9z"
         id="path9" /><path
         fill-rule="evenodd"
         clip-rule="evenodd"
         fill="#52575B"
         d="M1.6,20.7l-1-1.1c-0.2-0.2-0.2-0.6,0-0.8l4.5-4.4    c0.1-0.1,0.2-0.2,0.4-0.2c0,0,0.1,0,0.1,0l0.9,0c0.3,0,0.6,0.3,0.6,0.6l0,0.9c0,0,0,0,0,0.1c0,0.2,0,0.3-0.2,0.4l-4.5,4.4    C2.2,20.9,1.8,20.9,1.6,20.7z"
         id="path11" /></g><g
       id="g13"><path
         fill="#FF5900"
         d="M12,7.4c-0.2,0.2-0.4,0.4-0.5,0.7c-0.2,0.2-0.4,0.5-0.5,0.7c-0.3,0.5-0.6,0.9-0.8,1.5c0,0,0,0.1,0,0.1    c0,0,0,0,0,0c-0.1,0.1-0.2,0.1-0.2,0.2c0,0,0,0,0,0c0,0,0.1,0,0.1-0.1c-0.1,0.1-0.2,0.3-0.3,0.5c-0.1,0.1-0.1,0.3-0.2,0.4    c0,0-0.1,0.1-0.1,0.1c-0.1,0.1-0.1,0.3-0.2,0.5c0,0,0,0,0,0c0,0-0.1,0.1-0.1,0.1c-0.1,0-0.3,0.1-0.4,0.1c0,0,0,0,0,0    c0.1,0,0.2,0,0.3,0c0,0,0,0,0,0c-0.1,0.1-0.2,0.1-0.3,0.2c-0.1,0-0.1,0-0.2,0.1c0,0-0.1,0.1-0.1,0.1c0,0-0.1,0.1-0.1,0.1    c0,0.1-0.1,0.2-0.2,0.3c0,0-0.1,0.1-0.1,0.1c0,0-0.1,0.1-0.1,0.1c0,0-0.1,0.1-0.1,0.1c0,0-0.1,0.1-0.1,0.1c0,0,0,0,0,0.1    c0,0,0,0,0,0c0,0,0,0,0,0c0,0,0.1-0.1,0.1-0.1c0.1-0.1,0.2-0.2,0.3-0.3C8.4,13,8.5,13,8.5,12.9c0.1-0.1,0.2-0.2,0.3-0.3    c0.1,0,0.1,0,0.2-0.1c0.2,0,0.3-0.2,0.3-0.3c0.1-0.1,0.1-0.2,0.1-0.3c0,0,0,0,0,0c0.2-0.1,0.2-0.3,0.3-0.5c0,0,0,0,0.1,0    c0,0.1-0.1,0.2-0.1,0.3c0,0,0,0,0,0c0.1-0.1,0.1-0.2,0.2-0.3c0.1,0,0.1,0,0.2,0c0.2,0,0.4-0.1,0.5-0.2c0.1,0,0.1-0.1,0.2-0.1    c0,0,0,0,0,0c0,0,0,0,0,0l0,0c0,0,0,0,0,0c0,0,0-0.1,0-0.1c0,0,0.1,0,0.1-0.1c0,0,0.1,0,0.1,0c0.1,0,0.2-0.1,0.2-0.1c0,0,0,0,0,0    c0.1,0,0.2-0.1,0.3-0.1c0.1-0.1,0.3-0.1,0.4-0.2c0.1-0.1,0.2-0.1,0.4-0.2c0.4-0.2,0.9-0.5,1.3-0.8c0.2-0.1,0.3-0.3,0.4-0.5    c0.2-0.4,0.3-0.7,0.1-1.1c-0.1-0.3-0.4-0.5-0.6-0.7c-0.1-0.1-0.5-0.5-0.8-0.5c-0.2,0-0.4,0.1-0.6,0.2C12.3,7,12.1,7.2,12,7.4z     M14.4,8.7C14.4,8.7,14.4,8.7,14.4,8.7c0,0.1-0.1,0.2-0.2,0.2c0,0,0,0,0,0c0,0,0.1-0.1,0.1-0.1C14.3,8.8,14.3,8.8,14.4,8.7z     M14.3,8.3c0,0,0,0.1,0,0.1c0,0,0,0,0,0c0,0,0,0,0,0C14.3,8.4,14.3,8.4,14.3,8.3C14.3,8.3,14.3,8.3,14.3,8.3z M13.4,8.8    c0,0,0,0.1-0.1,0.2c0,0,0,0,0,0C13.4,8.9,13.4,8.8,13.4,8.8z M13.7,8.4C13.7,8.4,13.7,8.4,13.7,8.4C13.8,8.5,13.7,8.5,13.7,8.4    c0,0.2,0,0.2-0.1,0.3c0,0,0,0-0.1,0C13.6,8.6,13.7,8.5,13.7,8.4C13.7,8.4,13.7,8.4,13.7,8.4z M12.7,9.3    C12.7,9.3,12.7,9.3,12.7,9.3C12.8,9.3,12.8,9.3,12.7,9.3C12.7,9.4,12.7,9.4,12.7,9.3C12.6,9.4,12.6,9.4,12.7,9.3    C12.6,9.4,12.7,9.4,12.7,9.3z M12,9.8C12,9.8,12,9.8,12,9.8C12,9.9,12,9.9,12,9.8C12,9.9,12,9.8,12,9.8z M13.1,8.3    C13.2,8.3,13.2,8.3,13.1,8.3c0.1-0.1,0.1-0.1,0.1-0.1c0,0.1,0,0.1,0,0.2c0,0,0,0,0,0.1c0,0,0,0,0,0C13.3,8.3,13.2,8.3,13.1,8.3    C13.1,8.4,13.1,8.4,13.1,8.3L13.1,8.3C13.1,8.3,13.1,8.3,13.1,8.3z M10.6,10.7C10.6,10.7,10.6,10.7,10.6,10.7    C10.6,10.8,10.6,10.8,10.6,10.7C10.6,10.8,10.6,10.8,10.6,10.7C10.5,10.8,10.5,10.8,10.6,10.7C10.5,10.8,10.5,10.8,10.6,10.7    C10.5,10.8,10.5,10.8,10.6,10.7C10.5,10.8,10.6,10.8,10.6,10.7z M12,9.2c0,0.1,0,0.1,0,0.2c0,0,0,0-0.1,0.1C12,9.3,12,9.3,12,9.2z     M13.4,7.4C13.4,7.4,13.5,7.5,13.4,7.4c0,0.1,0.1,0.1,0.1,0.2c0,0.1,0.1,0.1,0.1,0.2c0,0,0,0,0,0c0,0-0.1-0.1-0.1-0.1    C13.5,7.6,13.5,7.5,13.4,7.4z M13.1,7.7C13.1,7.7,13.1,7.7,13.1,7.7c0,0,0,0.1,0,0.1c0,0,0,0,0,0C13.1,7.8,13.1,7.7,13.1,7.7z     M11.7,8.3C11.8,8.3,11.8,8.3,11.7,8.3c0,0.1-0.1,0.1-0.1,0.2c0,0,0,0,0,0C11.6,8.5,11.7,8.5,11.7,8.3C11.7,8.4,11.7,8.4,11.7,8.3    L11.7,8.3z M13.1,6.9C13.1,6.9,13.2,6.9,13.1,6.9C13.2,6.9,13.2,6.9,13.1,6.9c0.1,0,0.2,0,0.3,0.1c0,0-0.1,0.1,0,0.1c0,0,0,0,0,0    c0,0,0,0,0,0c0,0,0,0,0,0c0-0.1,0-0.1-0.1-0.1C13.2,6.9,13.2,6.9,13.1,6.9C13.2,6.9,13.1,6.9,13.1,6.9z M12.6,7.1    C12.7,7,12.7,7,12.8,7C12.7,7,12.7,7,12.6,7.1C12.7,7,12.6,7.1,12.6,7.1z"
         id="path15" /><path
         fill="#D32104"
         d="M9.6,11.6c0.1,0,0.1-0.2,0.2-0.3c0.1-0.1,0.1,0,0.2,0c0.2,0,0.5-0.1,0.6-0.2c0.4-0.4,1.1-0.5,1.6-0.8    c0.4-0.3,0.9-0.5,1.3-0.9c0.3-0.2,0.7-0.4,0.8-0.8c0.1-0.2-0.2-0.8-0.5-1C14,7.8,14.2,8,14.3,8.3c0,0,0,0,0,0    c-0.2-0.2-0.5-0.5-0.7-0.7c0,0,0,0,0,0c-0.1,0-0.2,0.1-0.3,0.2c0.1,0.1,0.3,0.3,0.4,0.5c0,0,0,0,0,0c-0.2-0.1-0.3-0.2-0.5-0.4    c-0.2,0.3-0.2,0.6-0.4,0.7c-0.4,0.3-0.7,0.5-1,0.8c0.1,0.1,0.2,0.2,0.3,0.4c0,0,0,0,0,0c-0.1-0.1-0.3-0.2-0.4-0.3    c-0.2,0.2-0.4,0.4-0.7,0.6c-0.1,0.1-0.2,0.3-0.3,0.4c0,0,0,0,0,0c-0.1,0.1-0.1,0.2-0.3,0.3c-0.1,0-0.2,0.1-0.4,0.1    c0.1,0,0.2,0.1,0.2,0.2c0,0,0,0,0,0c-0.1,0-0.1-0.1-0.2-0.2c0,0,0,0,0,0C9.8,11.1,9.5,11.3,9.6,11.6z M12.8,9.1    C12.8,9,12.7,9,12.7,8.9c0,0,0,0,0,0C12.7,8.9,12.8,9,12.8,9.1C12.9,9.1,12.9,9.1,12.8,9.1z M12.3,9.2C12.3,9.2,12.3,9.2,12.3,9.2    c0.1,0.1,0.3,0.2,0.4,0.3c0,0,0,0,0,0C12.6,9.5,12.4,9.4,12.3,9.2z"
         id="path17" /><g
         id="g19"><path
           fill="#E92D25"
           d="M14,8.3c0,0,0.1,0.1,0.1,0.1c0,0,0,0,0.1,0.1C14.1,8.4,14.1,8.4,14,8.3z"
           id="path21" /><path
           fill="#E92D25"
           d="M13.9,9.2C13.9,9.2,13.9,9.2,13.9,9.2C13.9,9.2,13.9,9.2,13.9,9.2c-0.1,0-0.2-0.1-0.2-0.1     c-0.1-0.1-0.2-0.2-0.3-0.3c0,0,0,0,0-0.1c0.2,0.2,0.4,0.3,0.7,0.4c0,0,0,0-0.1,0C14,9.3,14,9.2,13.9,9.2z"
           id="path23" /><path
           fill="#E92D25"
           d="M13.6,8.7C13.8,8.9,14,9,14.1,9.2c0,0,0,0,0,0C13.9,9,13.7,8.9,13.6,8.7C13.5,8.7,13.6,8.7,13.6,8.7z"
           id="path25" /><path
           fill="#E92D25"
           d="M13.6,8.4C13.6,8.4,13.7,8.4,13.6,8.4c0,0.1,0,0.2,0,0.2c-0.1-0.1-0.2-0.2-0.4-0.3c0,0,0,0,0-0.1     c0,0,0,0,0,0c-0.4-0.3-0.7-0.7-1-1.1c0,0,0.1,0,0.1-0.1C12.7,7.6,13.2,8,13.6,8.4z"
           id="path27" /><path
           fill="#E92D25"
           d="M12.8,8.2c0.2,0.2,0.4,0.4,0.6,0.6c0,0,0,0,0,0.1c0,0,0,0,0,0C13.2,8.6,13,8.4,12.8,8.2     C12.8,8.2,12.8,8.2,12.8,8.2z"
           id="path29" /><path
           fill="#E92D25"
           d="M11.1,10.1c-0.2-0.2-0.4-0.4-0.6-0.6c0,0,0-0.1,0.1-0.1c0,0,0,0,0,0.1C10.7,9.7,10.9,9.9,11.1,10.1z"
           id="path31" /><path
           fill="#E92D25"
           d="M11.8,10.6C11.8,10.6,11.8,10.6,11.8,10.6c-0.1-0.1-0.2-0.1-0.2-0.2C11.6,10.5,11.7,10.5,11.8,10.6z"
           id="path33" /><path
           fill="#E92D25"
           d="M12,9.3c0.1,0.1,0.3,0.2,0.4,0.3c0.1,0.1,0.3,0.3,0.4,0.4C12.6,9.8,12.3,9.5,12,9.3C12,9.3,12,9.3,12,9.3     z"
           id="path35" /><path
           fill="#E92D25"
           d="M12,9.9c-0.1-0.1-0.2-0.1-0.3-0.2c0,0-0.1-0.1-0.1-0.1c0,0,0,0,0,0C11.7,9.7,11.8,9.8,12,9.9     C12,9.9,12,9.9,12,9.9z"
           id="path37" /><path
           fill="#E92D25"
           d="M12,9.9c0.1,0.1,0.3,0.2,0.4,0.3c0,0,0.1,0,0.1,0.1c0,0,0,0,0,0C12.3,10.1,12.1,10,12,9.9     C12,9.9,12,9.9,12,9.9z"
           id="path39" /><path
           fill="#E92D25"
           d="M12,9.3c-0.1-0.1-0.1-0.1-0.2-0.2c-0.1-0.1-0.2-0.2-0.3-0.4C11.7,8.9,11.8,9.1,12,9.3     C12,9.3,12,9.3,12,9.3z"
           id="path41" /><path
           fill="#E92D25"
           d="M13.7,9.2c0.1,0.1,0.1,0.1,0.2,0.1c0,0,0,0-0.1,0c0,0,0,0,0,0c-0.1-0.1-0.2-0.2-0.3-0.3     C13.5,9.2,13.6,9.2,13.7,9.2z"
           id="path43" /><path
           fill="#E92D25"
           d="M11.5,10.7c-0.4-0.3-0.8-0.7-1.1-1c0,0,0,0-0.1,0c0,0,0,0,0,0c0,0,0,0,0,0C10.7,10,11.1,10.4,11.5,10.7     C11.5,10.7,11.5,10.7,11.5,10.7z"
           id="path45" /><path
           fill="#E92D25"
           d="M11.7,8.2c-0.1-0.1-0.2-0.2-0.2-0.2c0,0,0,0,0,0C11.6,8,11.6,8.1,11.7,8.2C11.7,8.1,11.7,8.2,11.7,8.2z"
           id="path47" /><path
           fill="#E92D25"
           d="M12,8.1c-0.1-0.1-0.3-0.3-0.4-0.4c0,0,0,0,0,0C11.8,7.8,11.9,7.9,12,8.1C12,8.1,12,8.1,12,8.1z"
           id="path49" /><path
           fill="#E92D25"
           d="M12.1,10.5C12.1,10.5,12.1,10.5,12.1,10.5c-0.2-0.1-0.4-0.3-0.6-0.4C11.7,10.2,11.9,10.4,12.1,10.5z"
           id="path51" /><path
           fill="#E92D25"
           d="M12,10.5C12,10.5,11.9,10.5,12,10.5c-0.2-0.1-0.4-0.2-0.5-0.4C11.6,10.3,11.8,10.4,12,10.5z"
           id="path53" /><path
           fill="#E92D25"
           d="M11.6,9.2c0.1,0.1,0.2,0.2,0.3,0.3c0.1,0.1,0.2,0.2,0.3,0.4c-0.4-0.3-0.7-0.6-1.1-0.9     C11.3,9,11.5,9.1,11.6,9.2z"
           id="path55" /><path
           fill="#E92D25"
           d="M11,8.6C11,8.6,11,8.6,11,8.6c0.1,0,0.1,0.1,0.2,0.1C11.1,8.7,11.1,8.7,11,8.6z"
           id="path57" /><path
           fill="#E92D25"
           d="M11.1,9.2C11.1,9.2,11.1,9.2,11.1,9.2c0,0,0.1,0,0.1,0.1c0,0,0,0,0,0C11.2,9.3,11.1,9.3,11.1,9.2z"
           id="path59" /><path
           fill="#E92D25"
           d="M12.7,8.3c-0.1,0-0.1-0.1-0.2-0.1c-0.2-0.3-0.4-0.5-0.6-0.8c0,0,0,0,0,0C12.2,7.7,12.4,8,12.7,8.3z"
           id="path61" /><path
           fill="#E92D25"
           d="M10.7,10.5c0.1,0.1,0.2,0.2,0.3,0.2c0.1,0.1,0.1,0.1,0.2,0.2c0,0,0,0,0,0c0,0,0,0,0,0     C11,10.8,10.8,10.6,10.7,10.5z"
           id="path63" /><path
           fill="#E92D25"
           d="M10.2,10.7c0.1,0.2,0.2,0.3,0.3,0.4c0-0.1-0.1-0.1-0.1-0.2c-0.1-0.1-0.3-0.3-0.4-0.4c0,0,0,0,0,0     C10,10.6,10.1,10.6,10.2,10.7z"
           id="path65" /><path
           fill="#E92D25"
           d="M10.1,11.3C10.1,11.3,10.1,11.4,10.1,11.3c-0.1,0.1-0.2,0.3-0.2,0.4c0,0,0,0,0,0c0,0,0,0,0-0.1     c0,0,0,0,0-0.1c0,0,0,0,0,0c0,0,0,0,0-0.1c0,0,0.1,0,0.1,0C10,11.4,10,11.4,10.1,11.3c-0.1,0-0.1,0-0.1,0     C10,11.3,10,11.3,10.1,11.3C10,11.3,10,11.3,10.1,11.3C10,11.3,10,11.3,10.1,11.3c-0.1,0-0.1-0.1-0.1-0.1c0,0,0,0,0,0     c0,0,0,0,0,0c0,0,0,0,0,0c0,0,0,0,0,0c0,0,0,0,0-0.1C10,11.2,10,11.3,10.1,11.3z"
           id="path67" /><path
           fill="#E92D25"
           d="M9.5,11.6c0,0-0.1,0-0.1,0c0,0,0,0,0,0c0,0,0.1-0.1,0.1-0.1c0,0,0,0,0,0C9.5,11.5,9.5,11.5,9.5,11.6z"
           id="path69" /><path
           fill="#E92D25"
           d="M12.7,9.1C12.8,9.2,12.8,9.2,12.7,9.1c0.2,0.3,0.4,0.5,0.6,0.6c0,0,0,0,0,0c-0.1-0.1-0.2-0.2-0.3-0.3     C13,9.4,12.8,9.3,12.7,9.1z"
           id="path71" /><path
           fill="#E92D25"
           d="M13.5,9.6C13.5,9.6,13.5,9.6,13.5,9.6C13.5,9.7,13.5,9.7,13.5,9.6c-0.1,0-0.1,0-0.2-0.1     C13.3,9.5,13.4,9.6,13.5,9.6z"
           id="path73" /><path
           fill="#E92D25"
           d="M12.1,8.7c0,0-0.1-0.1-0.1-0.1c0,0-0.1-0.1-0.1-0.1C11.9,8.6,12,8.7,12.1,8.7z"
           id="path75" /><path
           fill="#E92D25"
           d="M13.7,8.5c0.2,0.1,0.3,0.3,0.5,0.4c0,0,0,0.1,0,0.1c0,0,0,0,0,0c0,0,0,0,0,0c0,0,0,0,0.1,0.1     c0,0-0.1,0.1-0.1,0.1c-0.2-0.1-0.4-0.3-0.6-0.4C13.7,8.6,13.7,8.5,13.7,8.5z"
           id="path77" /><path
           fill="#E92D25"
           d="M13.5,7.5C13.5,7.5,13.5,7.5,13.5,7.5C13.7,7.7,14,7.9,14.2,8c0.1,0.1,0.2,0.2,0.4,0.3c0,0.1,0,0.1,0,0.2     c-0.2-0.2-0.4-0.3-0.6-0.5C13.8,7.9,13.6,7.7,13.5,7.5z"
           id="path79" /></g><g
         id="g81"><path
           fill="#FF972C"
           d="M10.9,9c0,0.1,0.1,0.1,0.2,0.2c0,0,0,0.1,0,0.1c0,0-0.1-0.1-0.1-0.1C10.8,9.1,10.8,9.1,10.9,9     C10.8,9,10.9,9,10.9,9z"
           id="path83" /><path
           fill="#F7961E"
           d="M11.1,10.4c0.1,0,0.1,0.1,0.2,0.2c0,0.1,0,0.1-0.1,0c0,0-0.1-0.1-0.1-0.1C11,10.5,11,10.3,11.1,10.4z"
           id="path85" /><path
           fill="#FF972C"
           d="M13.3,9.1c0.1,0.1,0.2,0.2,0.2,0.2c0.1,0,0,0.1,0,0.1c-0.1-0.1-0.2-0.2-0.3-0.3C13.2,9.1,13.3,9,13.3,9.1     z"
           id="path87" /><path
           fill="#F7961E"
           d="M10,10.7C10.1,10.8,10.1,10.8,10,10.7c0,0.1-0.1,0.1-0.1,0c0,0,0-0.1,0-0.1C9.9,10.7,10,10.7,10,10.7z"
           id="path89" /><path
           fill="#FF972C"
           d="M9.6,11.7C9.6,11.7,9.6,11.7,9.6,11.7c0,0.1,0,0.1,0.1,0.1c0,0,0,0,0,0c0,0,0,0,0,0c0,0.1,0,0.1-0.1,0     c0,0,0,0,0,0c0,0,0,0,0,0C9.5,11.7,9.5,11.7,9.6,11.7C9.5,11.7,9.5,11.6,9.6,11.7C9.6,11.6,9.6,11.6,9.6,11.7z"
           id="path91" /><path
           fill="#FF972C"
           d="M13,7.1c-0.1-0.1-0.1-0.1-0.2-0.2c0,0,0,0,0,0C12.9,7,12.9,7,13,7.1C13,7.1,13,7.1,13,7.1z"
           id="path93" /><path
           fill="#FF972C"
           d="M10.3,10c0,0,0.1,0.1,0.1,0.1c0,0,0,0,0,0.1l0,0c0,0,0,0,0,0c0,0,0,0,0,0c0,0,0,0,0,0     C10.3,10.1,10.3,10.1,10.3,10C10.2,10,10.2,10,10.3,10z"
           id="path95" /><path
           fill="#F7961E"
           d="M10.6,11.1C10.6,11.1,10.6,11.1,10.6,11.1C10.6,11.2,10.6,11.2,10.6,11.1C10.6,11.2,10.6,11.1,10.6,11.1     C10.5,11.1,10.5,11.1,10.6,11.1C10.5,11.1,10.5,11.1,10.6,11.1C10.5,11.1,10.5,11.1,10.6,11.1C10.5,11.1,10.5,11.1,10.6,11.1     C10.5,11,10.6,11,10.6,11.1z"
           id="path97" /><path
           fill="#FF972C"
           d="M12.2,8.4C12.2,8.4,12.2,8.4,12.2,8.4c0.1,0,0.2,0.1,0.1,0.1C12.4,8.6,12.3,8.6,12.2,8.4     C12.3,8.5,12.2,8.5,12.2,8.4z"
           id="path99" /><path
           fill="#F7961E"
           d="M14.1,8.1c0.1,0,0.1,0.1,0.2,0.2c0.1,0.1,0.1,0.1,0.2,0.2c0,0,0,0,0,0C14.3,8.4,14.2,8.3,14.1,8.1     C14.1,8.1,14.1,8.1,14.1,8.1z"
           id="path101" /><path
           fill="#FF972C"
           d="M12,7.4c0.1,0.1,0.1,0.3,0.2,0.3c0,0,0,0,0,0c-0.1,0-0.1-0.1-0.1-0.1c0,0,0-0.1-0.1-0.1     C12,7.5,11.9,7.5,12,7.4C11.9,7.4,11.9,7.4,12,7.4z"
           id="path103" /></g><path
         fill="#FF972C"
         d="M12.9,6.7C12.9,6.7,12.9,6.7,12.9,6.7C13,6.9,13.1,7,13.2,7c0,0,0,0,0,0c0,0,0-0.1-0.1-0.1c0,0,0,0,0,0    c0,0,0.1,0.1,0.1,0.1c0,0,0,0,0,0c0,0,0,0,0,0c0,0,0,0,0,0c0,0,0,0,0,0c0,0,0,0,0-0.1c0,0,0,0,0,0c0,0,0,0,0,0c0,0,0,0,0-0.1    c0,0,0,0,0,0c0,0-0.1,0-0.1-0.1c-0.1-0.1-0.1-0.1-0.2-0.2c0,0,0,0,0.1,0c0.3,0,0.6,0.3,0.8,0.5c0.2,0.2,0.4,0.4,0.6,0.7    c0.1,0.1,0.1,0.3,0.1,0.4c-0.2-0.2-0.4-0.3-0.7-0.5C13.5,7.4,13.2,7.1,12.9,6.7z"
         id="path105" /><g
         id="g107"><path
           fill="#826729"
           d="M14.3,7.7c0.1,0,0-0.1,0-0.1c0,0,0-0.1-0.1-0.1c0-0.1-0.2-0.3-0.3-0.4c-0.1-0.1-0.2-0.2-0.4-0.3     c0,0,0,0-0.1,0c-0.1,0-0.2-0.1-0.2,0c0,0.1,0.2,0.3,0.3,0.5c0,0,0,0,0,0c0.1,0.1,0.1,0.1,0.2,0.2C14,7.6,14.2,7.8,14.3,7.7z      M14.2,7.6c0,0,0.1,0,0.1,0c0,0,0,0,0,0c0,0,0,0,0,0c0,0,0,0,0,0.1C14.3,7.7,14.2,7.7,14.2,7.6z"
           id="path109" /><path
           fill="#826729"
           d="M13.3,6.7C13.3,6.7,13.3,6.8,13.3,6.7c0,0.1,0,0.2,0,0.2c0,0.1,0.1,0.1,0.1,0.2c0,0,0,0,0,0     C13.4,7,13.3,7,13.3,6.9C13.2,6.8,13.2,6.8,13.3,6.7C13.2,6.7,13.3,6.7,13.3,6.7C13.3,6.7,13.3,6.7,13.3,6.7z"
           id="path111" /><path
           fill="#826729"
           d="M14.5,7.8C14.5,7.8,14.5,7.8,14.5,7.8c0,0.4-0.7-0.4-0.9-0.5c0,0,0,0,0,0C13.7,7.4,14.4,8.1,14.5,7.8z"
           id="path113" /><path
           fill="#826729"
           d="M10.2,10.9C10.2,10.9,10.2,10.9,10.2,10.9c0,0.1,0.1,0.1,0.1,0.1c0,0,0,0,0,0C10.2,11,10.2,11,10.2,10.9     C10.2,10.9,10.1,10.9,10.2,10.9C10.1,10.9,10.1,10.9,10.2,10.9C10.1,10.9,10.2,10.9,10.2,10.9z"
           id="path115" /><path
           fill="#826729"
           d="M9.2,12.2C9.2,12.2,9.2,12.2,9.2,12.2C9.2,12.2,9.2,12.3,9.2,12.2C9.1,12.3,9.1,12.2,9.2,12.2     C9.1,12.2,9.2,12.2,9.2,12.2z"
           id="path117" /><path
           fill="#826729"
           d="M12.5,7.8c0,0,0.1,0.1,0.1,0.1c0,0,0,0,0,0C12.6,7.9,12.6,7.8,12.5,7.8C12.5,7.8,12.5,7.7,12.5,7.8z"
           id="path119" /><path
           fill="#826729"
           d="M12,10.1c0.1,0,0.1,0.1,0.2,0.1c0,0,0.1,0.1,0.1,0.1c0,0,0,0,0,0c0,0-0.1-0.1-0.1-0.1     C12.1,10.3,12,10.2,12,10.1C12,10.1,12,10.1,12,10.1z"
           id="path121" /><path
           fill="#826729"
           d="M13.2,9.6c0,0,0.1,0.1,0.1,0.1c0,0,0,0,0,0C13.2,9.7,13.1,9.7,13.2,9.6C13.1,9.6,13.1,9.6,13.2,9.6     C13.1,9.6,13.1,9.6,13.2,9.6z"
           id="path123" /><path
           fill="#826729"
           d="M14.3,8.4C14.3,8.4,14.3,8.4,14.3,8.4c0,0,0.1,0,0.1,0c0,0,0.1,0.1,0.1,0.1c0,0,0,0.1,0,0     c0,0-0.1-0.1-0.1-0.1C14.3,8.5,14.3,8.5,14.3,8.4z"
           id="path125" /><path
           fill="#826729"
           d="M11.3,8.4c0,0,0.1,0.1,0.1,0.1c0,0,0,0,0,0C11.4,8.6,11.3,8.5,11.3,8.4c-0.1,0-0.1,0-0.1-0.1c0,0,0,0,0,0     C11.2,8.4,11.3,8.4,11.3,8.4z"
           id="path127" /><path
           fill="#826729"
           d="M12.6,6.9C12.6,7,12.6,7,12.6,6.9C12.6,7,12.6,7,12.6,6.9c0.1,0.1,0.1,0.1,0.1,0.1c0,0,0,0,0,0     c0,0,0,0,0,0c0,0,0,0,0,0c0,0-0.1,0-0.1-0.1C12.6,7,12.6,7,12.6,6.9C12.5,7,12.5,7,12.6,6.9C12.5,6.9,12.5,6.9,12.6,6.9z"
           id="path129" /></g><path
         fill="#72923C"
         d="M12.4,0.1c0.1,0.2,0.2,0.3,0.4,0.5c0,0-0.1-0.1-0.1-0.1c0,0,0,0,0,0.1c0.1,0.1,0.2,0.2,0.2,0.3    c0,0,0,0,0,0c0,0-0.1,0,0,0C12.9,1,13,1.1,13.1,1.2c0,0,0,0,0,0c0,0-0.1,0-0.1,0c0,0.1,0.1,0.1,0.1,0.2c0,0,0,0,0,0.1    c0,0.1,0.1,0.1,0.1,0.1c0,0,0,0,0,0.1c0.1,0.1,0.2,0.2,0.2,0.3c0,0,0.1,0,0.1,0c0.1,0.1,0.1,0.3,0.2,0.4c0,0,0,0,0,0    c0,0,0,0-0.1,0c0,0,0,0-0.1,0c0,0,0,0-0.1,0c0-0.1-0.1-0.1-0.2-0.2c0,0,0,0,0,0c-0.1-0.1-0.2-0.2-0.3-0.3c0,0,0,0,0,0    c-0.1-0.1-0.1-0.1-0.2-0.2l0,0l0,0c0,0,0,0,0,0c0,0,0,0,0,0c-0.1,0-0.2-0.1-0.2-0.1c0,0,0,0.1,0,0.1c0.1,0,0.2,0.1,0.2,0.1    c0,0,0.1,0,0.1,0.1c0,0,0,0,0,0c0,0,0,0.1,0,0.1C13,2,13.2,2,13.1,2.1c0,0,0,0.1,0,0.1c0.1,0,0.1,0.1,0.2,0.1c0,0,0,0.1,0.1,0.1    c0,0,0,0,0.1,0c0,0,0,0.1,0,0.1c0,0,0,0,0.1,0c0,0,0,0,0,0.1c0,0,0,0.1,0.1,0.1c0.1,0,0.2,0,0.2-0.1c0,0,0-0.1,0-0.1c0,0,0,0,0,0    c0,0,0,0,0-0.1c0,0,0,0,0.1,0.1c0.1,0.1,0.1,0.2,0.2,0.3c0,0,0,0,0,0c0,0,0-0.1,0-0.1c0.1,0.2,0.1,0.4,0.2,0.6    c0,0.1,0,0.1,0.1,0.2c0,0,0,0,0,0c0,0-0.1-0.1-0.1-0.2c0,0-0.1,0-0.1,0c0,0-0.1-0.1-0.1-0.1c0,0-0.1,0-0.1,0c0,0,0,0,0,0    c-0.1-0.1-0.2-0.2-0.3-0.2c0,0-0.1,0,0,0c0,0-0.1-0.1-0.1-0.1c0,0,0,0,0,0c-0.1-0.1-0.1-0.1-0.2-0.1c0,0,0,0.1,0,0.1c0,0,0,0,0,0    c0,0,0,0,0,0c-0.1,0-0.2-0.1-0.2,0c0,0,0,0,0,0.1c0,0,0,0,0,0c-0.1,0-0.1,0-0.2,0c0,0,0,0.1,0,0.1c0.1,0,0.2,0.1,0.3,0.1    c0.1,0,0.1,0,0.2,0c0.1,0,0.1,0,0.1,0.1c0,0,0,0.1,0.1,0c0,0,0,0,0.1,0c0,0,0,0,0,0.1c0,0,0,0.1,0.1,0.1c0.1,0,0.1,0,0.2,0    c0,0,0,0,0,0c0,0,0,0,0.1,0.1c0,0,0,0,0,0c0,0,0,0.1,0.1,0.1c0,0,0.1,0,0.1,0c0,0,0,0.1,0.1,0.1c0,0,0,0,0.1,0c0,0,0,0,0.1,0    c0,0,0.1-0.1,0.1,0c0,0,0,0,0,0c0,0,0,0,0,0c0.1,0.1,0.1,0.3,0.2,0.4c0,0.1,0,0.2,0.1,0.2c0,0.1,0,0.2,0.1,0.3c0,0,0,0,0,0    c0,0,0-0.1,0-0.1c0,0,0,0,0,0c0,0,0,0,0,0c0,0,0-0.1,0-0.1c0,0,0,0,0,0c0,0,0-0.1-0.1-0.1c0,0,0,0-0.1,0c0-0.1,0-0.1-0.1-0.2    c0,0,0,0-0.1,0c0,0,0-0.1,0-0.1c0,0-0.1-0.1-0.1,0c0,0,0,0,0,0.1c0,0,0-0.1-0.1-0.1c0,0-0.1,0-0.1,0c0,0.1,0,0.1-0.1,0    c0,0-0.1,0-0.1,0c0,0,0,0,0,0.1c0,0,0,0,0.1,0.1c0,0,0,0,0,0c0,0,0,0,0,0.1c0.1,0,0.1,0,0.2,0.1c0,0,0,0,0,0c0,0,0,0,0,0.1    c0,0,0.1,0,0.1,0.1c0,0,0,0,0,0c0,0,0,0,0,0c0,0,0,0,0,0c0.1,0.1,0.1,0.1,0.2,0.2c0.1,0.1,0.1,0.2,0.2,0.2c0,0,0,0.1,0,0.1    c0,0,0,0,0,0c0,0.1,0,0.1,0,0.2c0,0.2,0.1,0.3,0.1,0.5c0,0.2,0,0.4-0.1,0.7c0,0.1-0.1,0.1-0.1,0.2c-0.1,0.1-0.2,0.3-0.4,0.5    C14,6.9,13.9,7,13.8,7.2c0,0,0.1,0.1,0.1,0.1c0.4-0.2,0.6-0.6,0.8-1c0.2-0.3,0.2-0.8,0.1-1.2c0-0.1,0-0.1,0-0.2c0,0,0,0,0-0.1    c0,0,0-0.1,0-0.1c0,0,0-0.1,0-0.1c0,0,0,0,0,0c0.1,0,0.1-0.1,0.2-0.1c0,0,0-0.1,0-0.1c0,0,0,0,0,0l0,0c0,0,0,0,0,0c0,0,0,0,0,0    c0,0,0.1,0,0.1,0c0,0,0,0,0.1,0c0,0,0,0,0-0.1c0,0,0,0,0.1,0c0,0,0-0.1,0-0.1c0,0,0.1,0,0.1-0.1c0,0,0-0.1,0-0.1    c0,0,0.1-0.1,0.1-0.1c0,0,0-0.1-0.1-0.1c0,0,0,0,0,0c0,0-0.1-0.1-0.1,0c0,0,0,0,0,0.1c0,0,0,0,0,0l0,0c0,0-0.1,0-0.1,0.1    c0,0,0,0,0,0c0,0-0.1-0.1-0.1,0c0,0,0,0,0,0.1c0,0-0.1,0-0.1,0c0,0,0,0.1,0,0.2c0,0,0,0,0,0.1c0,0,0,0,0,0c0,0,0,0.1-0.1,0.2    c0-0.1,0-0.2,0-0.4c0-0.2-0.1-0.4-0.2-0.7c0,0,0,0,0,0c0,0,0,0,0-0.1c0,0,0,0,0,0c0,0,0,0,0.1,0c0,0,0,0,0,0.1c0,0,0.1,0.1,0.1,0    c0,0,0.1-0.1,0.1-0.1c0,0,0,0,0,0c0,0,0,0,0,0c0,0,0,0,0,0c0.1,0,0.1,0,0.2,0c0,0,0.1-0.1,0-0.1c0,0,0.1,0,0.1,0    c0.1,0,0.1-0.1,0-0.1c0,0,0,0,0.1,0c0,0,0,0,0-0.1c0,0,0,0,0.1,0c0.1,0,0-0.2-0.1-0.2c0,0,0,0,0,0c0,0,0,0,0.1,0c0,0,0.1,0,0.1,0    c0,0,0-0.1,0-0.1c0,0,0.1,0,0.1,0c0,0,0-0.1-0.1-0.1c0,0,0,0-0.1,0c0,0,0,0,0,0c0,0,0,0,0.1,0c0,0,0.1,0,0.1,0c0,0,0,0,0.1-0.1    c0,0,0-0.1,0-0.1c0,0,0,0,0-0.1c0,0,0,0,0-0.1c0-0.1,0.1-0.1,0.1-0.2c0,0-0.1-0.1-0.1-0.1c-0.1,0.1-0.1,0.3-0.2,0.4c0,0,0,0,0,0    c0,0,0-0.1,0-0.1c0,0-0.1-0.1-0.1-0.1c0,0-0.1,0.1-0.1,0.1c0,0,0,0,0,0c0,0-0.1-0.1-0.1,0c0,0-0.1,0.1-0.1,0.1c0,0,0,0-0.1,0    c-0.1,0-0.1,0.1-0.1,0.2c0,0,0,0,0,0c0,0-0.1,0-0.1,0c0,0.1,0,0.2-0.1,0.2c0,0,0,0-0.1,0c-0.1,0-0.1,0.3-0.1,0.3c0,0-0.1,0-0.1,0    c0-0.1-0.1-0.2-0.1-0.3C14.2,3,14.1,2.8,14,2.7c0,0,0-0.1-0.1-0.1c0.1,0,0.1,0,0.2,0c0,0,0,0,0,0c0.1,0,0.1,0,0.2,0    c0.1,0,0-0.1,0-0.1c0,0,0,0-0.1,0c0.1,0,0.1-0.1,0.2-0.1c0.1,0,0-0.1-0.1-0.1c0,0,0,0,0,0c0,0,0.1,0,0.1-0.1c0,0,0-0.1,0-0.1    c0,0,0.1-0.1,0.1-0.1c0,0,0-0.1-0.1-0.1c0-0.2,0.1-0.3-0.1-0.5c0,0-0.1-0.1-0.1,0c0,0.1,0,0.2,0,0.3c0,0,0,0.1,0,0.2c0,0,0,0,0,0    c0,0,0,0.1,0,0.1c0,0-0.1,0-0.1,0c0,0.1,0,0.2,0,0.3c0,0-0.1,0-0.1,0c-0.1,0,0,0.1,0,0.2c0,0,0,0.1,0,0.1c0-0.1,0-0.1,0-0.2    c0,0,0,0,0,0c0,0,0,0.1,0,0.1c0,0,0,0,0,0c0,0,0,0,0,0c0,0.1,0.1,0.2,0.1,0.2c0,0,0,0,0,0c0,0,0,0,0,0c0,0,0-0.1-0.1-0.1    c-0.1-0.1-0.1-0.3-0.2-0.4c0,0,0.1-0.1,0.1-0.1c0,0,0-0.1-0.1-0.1c0-0.1,0-0.1,0-0.2c0,0,0-0.1-0.1-0.1c0-0.1,0-0.2,0-0.2    c0-0.1-0.1-0.1-0.1-0.1c0,0,0,0,0,0c0-0.1,0-0.2,0-0.3c0-0.1-0.1-0.1-0.1-0.1c0,0,0,0.1,0,0.1c0,0,0,0,0,0c0-0.1-0.1-0.1-0.1-0.1    c0,0,0,0,0,0c0-0.1,0-0.1,0-0.2c0,0-0.1-0.1-0.1-0.1c0,0,0,0-0.1,0c-0.1-0.1-0.1-0.2-0.2-0.3C12.7,0.3,12.6,0.2,12.4,0.1    C12.5,0.1,12.4,0.1,12.4,0.1z M14,2.2C14,2.2,13.9,2.2,14,2.2C14,2.2,14,2.2,14,2.2C14,2.2,14,2.2,14,2.2z M14.7,4.6    C14.7,4.6,14.8,4.6,14.7,4.6C14.8,4.6,14.8,4.6,14.7,4.6C14.8,4.6,14.8,4.6,14.7,4.6C14.8,4.6,14.8,4.6,14.7,4.6    C14.8,4.6,14.8,4.6,14.7,4.6C14.8,4.6,14.8,4.6,14.7,4.6z M13.9,3.9C13.9,3.9,13.9,3.9,13.9,3.9C13.9,3.9,13.9,3.9,13.9,3.9    C13.9,3.9,13.9,3.9,13.9,3.9z M14.1,4C14.1,4,14.1,4,14.1,4C14.1,3.9,14.1,3.9,14.1,4C14,3.9,14,3.9,14,3.9c0,0,0,0,0,0    c0,0,0,0,0,0C14,3.9,14,3.9,14.1,4C14.1,3.9,14.1,4,14.1,4C14.1,3.9,14.1,3.9,14.1,4C14.1,4,14.1,4,14.1,4z M14.2,4.1    C14.1,4.1,14.1,4.1,14.2,4.1C14.1,4.1,14.1,4.1,14.2,4.1C14.1,4.1,14.1,4.1,14.2,4.1C14.1,4.1,14.2,4.1,14.2,4.1z M14.7,3.3    C14.7,3.3,14.7,3.3,14.7,3.3C14.7,3.3,14.7,3.3,14.7,3.3C14.7,3.3,14.7,3.3,14.7,3.3z M14.6,3.1C14.6,3.1,14.6,3.1,14.6,3.1    C14.6,3.2,14.6,3.2,14.6,3.1c0,0.1,0,0.1,0,0.2C14.6,3.2,14.6,3.2,14.6,3.1z M14.8,3C14.8,3.1,14.8,3.1,14.8,3    C14.8,3.1,14.8,3.1,14.8,3c0,0.1,0,0.1,0,0.1C14.7,3.1,14.7,3,14.8,3C14.8,3,14.8,3,14.8,3z M14.9,3C14.9,3,14.9,3,14.9,3    c0,0,0-0.1,0-0.1C14.9,2.9,14.9,2.9,14.9,3z M14.5,3.3C14.5,3.3,14.5,3.3,14.5,3.3C14.5,3.3,14.5,3.4,14.5,3.3    C14.5,3.4,14.5,3.4,14.5,3.3c0,0.1,0,0.1,0,0.1c0,0,0,0,0,0.1c0,0,0,0,0,0C14.5,3.5,14.5,3.4,14.5,3.3C14.5,3.4,14.5,3.3,14.5,3.3    z M12.9,3.1C12.9,3.1,13,3.1,12.9,3.1C13,3.1,13,3.1,12.9,3.1C13,3.1,12.9,3.1,12.9,3.1z M13.1,3C13.1,3,13,3,13.1,3    C13,3,13,3,13.1,3C13,3,13,3,13.1,3C13,3,13.1,3,13.1,3z M13.4,3.2c0,0-0.1,0-0.1,0c0,0,0,0,0,0c0,0,0,0,0-0.1    C13.2,3,13.4,3.1,13.4,3.2C13.4,3.2,13.4,3.2,13.4,3.2z M13.6,3.3C13.6,3.3,13.6,3.3,13.6,3.3C13.6,3.3,13.6,3.3,13.6,3.3    C13.5,3.3,13.5,3.3,13.6,3.3c-0.1,0-0.1-0.1-0.1-0.1c0,0-0.1,0-0.1,0c0,0,0,0,0,0c0,0,0,0,0,0c0,0,0,0,0,0c0,0,0.1,0,0.1,0    C13.5,3.2,13.6,3.3,13.6,3.3z M13.7,3.2C13.7,3.2,13.7,3.2,13.7,3.2C13.7,3.2,13.7,3.2,13.7,3.2C13.7,3.2,13.7,3.2,13.7,3.2z     M13.8,3.4C13.8,3.4,13.8,3.4,13.8,3.4c0,0-0.1,0-0.1-0.1c0,0,0,0,0,0c0,0,0,0,0,0c0,0,0,0,0,0C13.7,3.3,13.7,3.3,13.8,3.4    C13.8,3.3,13.8,3.3,13.8,3.4z M14.1,3.5C14.1,3.5,14.1,3.5,14.1,3.5C14,3.5,14,3.5,14.1,3.5c-0.1-0.1-0.2-0.1-0.2-0.1c0,0,0,0,0,0    c0,0,0,0,0,0c0,0,0,0,0,0C13.9,3.4,14,3.4,14.1,3.5C14,3.5,14,3.5,14.1,3.5C14.1,3.5,14.1,3.5,14.1,3.5z M13.8,2.4    C13.8,2.5,13.8,2.5,13.8,2.4C13.8,2.5,13.8,2.5,13.8,2.4C13.8,2.4,13.8,2.4,13.8,2.4z M13.4,2.2c-0.1,0-0.1,0-0.2-0.1    c0,0,0,0,0-0.1C13.3,2.1,13.4,2.2,13.4,2.2C13.4,2.2,13.4,2.2,13.4,2.2C13.4,2.2,13.4,2.2,13.4,2.2z M13.4,1.7    C13.4,1.8,13.4,1.8,13.4,1.7C13.4,1.8,13.4,1.8,13.4,1.7C13.4,1.7,13.4,1.7,13.4,1.7z M13.4,1.6C13.4,1.6,13.4,1.6,13.4,1.6    C13.4,1.6,13.4,1.6,13.4,1.6c0.1,0.1,0.1,0.1,0.1,0.2c0,0,0,0.1,0,0.1C13.5,1.7,13.4,1.6,13.4,1.6z M13.3,1.4    C13.3,1.4,13.3,1.4,13.3,1.4C13.3,1.3,13.3,1.3,13.3,1.4C13.3,1.3,13.3,1.3,13.3,1.4C13.3,1.3,13.3,1.4,13.3,1.4z M13.1,1.3    C13.2,1.4,13.2,1.4,13.1,1.3C13.2,1.4,13.2,1.4,13.1,1.3c0.1,0.1,0.1,0.1,0.2,0.2C13.2,1.5,13.2,1.4,13.1,1.3z M13.1,1.1    C13.1,1.1,13.1,1.1,13.1,1.1C13.1,1.1,13.2,1.1,13.1,1.1C13.2,1.1,13.2,1.1,13.1,1.1C13.2,1.1,13.1,1.1,13.1,1.1z M13,1    C13,1.1,13,1.1,13,1c0.1,0.1,0.1,0.1,0.1,0.1C13.1,1.1,13,1.1,13,1z M12.8,0.7c0,0,0.1,0.1,0.1,0.1C12.9,0.8,12.8,0.8,12.8,0.7z"
         id="path131" /><path
         fill="#1E9216"
         d="M15.9,4.3c0,0,0,0.1,0,0.1c0,0,0,0,0,0c0,0,0,0,0,0c0,0,0,0,0,0c0,0,0,0,0,0c0,0,0,0.1,0,0.2    c0,0-0.1,0-0.1,0c0,0.1,0,0.1,0,0.2c0,0,0,0-0.1,0c0,0,0,0.1,0,0.2c0,0,0,0.1,0,0.2c0,0,0,0,0,0c0,0.1,0.1,0.1,0.1,0.2    c0,0,0,0,0,0.1c0,0.1,0,0.2,0,0.2c0,0,0,0-0.1,0c0,0,0,0,0,0c0,0,0,0,0,0c-0.1,0.1-0.2,0.1-0.3,0.2c0.1-0.1,0.1-0.2,0.1-0.4    c0,0,0-0.1,0.1-0.1c0,0,0,0,0,0c0-0.1,0-0.1,0-0.2c0,0,0-0.1-0.1-0.1c0,0,0-0.1,0-0.1c0-0.1-0.1-0.1-0.1-0.2c0,0,0-0.1-0.1-0.1    c0-0.1-0.1-0.1-0.1-0.2c0-0.1-0.1-0.1-0.1,0c0,0,0,0.1,0,0.1c0,0,0,0,0,0c0,0,0,0.1,0,0.2c0,0-0.1,0,0,0c0,0,0.1,0.1,0.1,0.1    c0,0,0,0,0,0c0,0.1,0.1,0.1,0.1,0.2c0,0,0,0,0,0c0,0,0,0.1,0.1,0.1c0,0,0,0,0,0c0,0.1,0,0.1,0,0.2c0,0,0,0,0,0c0,0,0,0,0,0    c0,0,0,0,0,0c0,0,0,0,0,0c0,0,0,0,0,0.1c0,0.1,0,0.3-0.1,0.4c-0.2,0.2-0.5,0.3-0.7,0.5c-0.2,0.1-0.4,0.2-0.5,0.4    C14.2,7,14,7.2,13.9,7.4c0,0,0.1,0.1,0.1,0.1c0.2-0.1,0.4-0.2,0.5-0.4c0.1-0.1,0.2-0.2,0.3-0.3c0.3-0.2,0.5-0.4,0.8-0.5    c0.2-0.1,0.3-0.3,0.5-0.4c0,0,0.1,0,0.1,0.1c0,0.1,0.1,0.1,0.1,0.2c0.1,0.1,0.1,0.3,0.2,0.4c0,0,0.1,0,0.1,0c0,0,0,0,0-0.1    c0.1,0.1,0.1,0.2,0.2,0.3c0,0,0.1,0,0.1,0c0,0,0-0.1,0-0.1c0.1,0.1,0.2,0.2,0.2,0.1c0,0,0,0,0,0c0,0.1-0.1-0.1-0.1-0.1    c0,0,0,0,0.1,0c0,0,0,0,0.1,0.1c0,0,0,0,0.1,0c0,0,0,0.1,0.1,0.1c0,0,0.1,0.1,0.1,0c0,0,0.1,0.1,0.1,0.1c0,0,0,0,0,0    c0,0,0.1,0.1,0.1,0.1c0,0,0,0,0,0c0,0,0,0.1,0,0.1c0,0,0.1,0,0.1,0c0-0.1,0-0.1,0-0.2c0,0,0,0,0,0c0,0,0,0,0,0    c0.1,0.1,0.1,0.1,0.2,0.2c0,0,0.1,0,0-0.1c0-0.1-0.1-0.1-0.1-0.1c0,0,0,0,0,0c0,0,0-0.1,0-0.1c0,0,0,0,0,0c0,0,0,0,0,0    c0,0,0-0.1,0-0.1c0,0-0.1,0-0.1-0.1c0,0,0-0.1,0-0.1c0,0-0.1,0-0.1,0c0,0,0,0,0,0c0,0,0-0.1,0-0.1c0,0-0.1,0-0.1,0c0,0,0,0,0,0    c0,0,0-0.1,0-0.1c-0.1,0-0.1,0-0.1,0c0,0,0,0,0,0c0,0,0,0,0,0c-0.1-0.1-0.1-0.1-0.2-0.1c0-0.1-0.1-0.1-0.2-0.1    c-0.1,0-0.1-0.1-0.1-0.1c-0.1,0-0.1,0-0.3-0.1c0,0,0,0,0,0c0,0-0.1,0-0.1-0.1c0,0-0.1,0-0.1-0.1c0,0,0,0,0,0c0,0,0,0,0,0    c0,0,0,0,0,0c0,0,0.1,0,0.1-0.1c0.1,0,0.1,0,0.1,0c0,0,0.1-0.1,0.1-0.1c0.1,0,0.1-0.1,0.2-0.1c0.1,0,0.1,0,0.2,0c0,0,0,0,0,0.1    c0,0,0,0.1,0.1,0.1c0.1,0,0.1,0.2,0.2,0.2c0,0,0.1,0,0.1,0c0,0,0,0,0,0c0,0,0.1,0.1,0.1,0.1c0,0,0.1,0,0.1,0c0,0,0.1,0.1,0.1,0.1    c0,0,0.1,0,0.1,0c0,0.1,0.1,0.1,0.1,0.1c0.1,0,0.1,0,0.1-0.1c0,0.1,0.1,0.1,0.1,0.2c0,0,0.1,0,0.1,0c0,0,0-0.1,0-0.1    C18,6.3,18,6.4,18.1,6.5c0,0,0,0,0,0c0,0,0-0.1,0-0.1c0,0,0.1,0,0.1,0.1c0,0,0,0,0,0c0,0,0,0.1,0.1,0.1c0,0,0,0,0,0    c0,0,0-0.1,0-0.1c0,0,0.1,0,0.1,0c0,0,0,0,0,0c0,0,0.1,0.1,0.1,0.1c0,0,0,0,0,0c-0.1-0.1-0.2-0.1-0.3-0.2c0,0,0,0,0-0.1    c0,0-0.1-0.1-0.1-0.1c0,0,0,0,0,0c0,0,0-0.1-0.1-0.1c-0.1,0-0.1,0-0.2,0c0,0,0,0,0,0c0,0,0-0.1,0-0.1c-0.1,0-0.1,0-0.1,0    c0,0,0,0,0,0c0,0,0-0.1-0.1-0.1c0,0-0.1,0-0.1,0c0-0.1-0.1-0.1-0.2-0.1c0,0,0,0,0,0c0,0,0-0.1-0.1-0.1c0,0-0.1,0-0.1,0    c0,0,0,0,0,0c0,0,0-0.1-0.1-0.1c0,0-0.1,0-0.1,0c0,0,0,0,0,0c0,0,0-0.1-0.1-0.1c-0.1,0-0.1,0-0.2,0c0,0,0,0,0,0c0,0,0,0-0.1,0    c0.1,0,0.1-0.1,0.2-0.1c0,0,0,0,0.1-0.1c0.1,0,0.2,0.1,0.2,0c0,0,0,0,0,0c0,0,0.1,0,0.1,0c0,0,0,0,0.1,0c0,0,0,0,0-0.1    c0,0,0,0,0,0c0,0,0,0,0.1,0c0,0,0,0,0,0c0,0,0,0,0,0c0,0,0,0,0,0c0.1,0,0.2,0.1,0.2,0c0,0,0,0,0-0.1c0,0,0,0,0,0    c0.1,0,0.1-0.1,0-0.1c0,0,0,0,0,0C18,5,18.1,5,18.1,5c0.1,0,0-0.1,0-0.1c0.1,0,0.2,0,0.3-0.1c0,0,0-0.1,0-0.1c0,0,0.1-0.1,0.1-0.1    c0,0,0-0.1,0-0.1c0,0,0,0,0,0c0,0,0-0.1,0-0.1c0,0,0,0-0.1,0c0,0,0,0-0.1,0c-0.1,0.1-0.1,0.1-0.2,0.2c0,0,0,0,0,0    c0,0-0.1-0.1-0.1-0.1c0,0-0.1,0-0.1,0c0,0-0.1-0.1-0.1,0c-0.1,0-0.1,0.1-0.1,0.1c0,0,0,0-0.1,0c-0.1,0-0.1,0.1-0.2,0.1    c0,0,0,0-0.1,0c-0.1,0-0.1,0.1-0.2,0.2c0,0,0,0,0,0c0,0,0,0.1,0,0.1c0,0,0,0,0,0c0,0,0,0,0,0.1c0,0,0,0,0,0C17.1,5,17,5,17,5.1    c0,0,0,0,0,0c0,0-0.1,0.1-0.1,0.1c-0.1,0-0.2,0.1-0.2,0.1c0,0,0-0.1,0-0.1c0,0,0-0.1,0-0.1c0.1,0,0.1-0.1,0.1-0.1    c0-0.1,0.1-0.1,0.1-0.2c0,0,0-0.1-0.1-0.1c0,0,0,0,0.1-0.1c0,0,0-0.1-0.1-0.1c0,0,0,0,0,0c0-0.1-0.1-0.1-0.1-0.1c0,0,0,0,0,0    c0-0.1,0-0.2,0-0.4c0,0,0-0.1,0-0.1c0,0,0,0,0-0.1c0,0,0,0,0,0c0-0.1,0-0.1,0-0.2c0-0.1,0-0.2-0.1-0.3c0,0-0.1-0.1-0.1,0    c0,0.1,0,0.3,0.1,0.4c0,0,0,0,0,0c0,0.1,0,0.1,0,0.2c0,0-0.1-0.1-0.1,0c0,0.1,0,0.1,0,0.2c0,0,0,0,0,0c0,0.1,0,0.2,0.1,0.3    c0,0,0,0,0,0c0,0,0,0.1,0,0.2c0,0,0,0,0,0c0,0.1,0,0.1,0,0.2c0,0.1-0.1,0.2-0.1,0.2c-0.1,0.1-0.1,0.2-0.1,0.3c0,0-0.1,0.1-0.1,0.1    c0,0,0-0.1,0-0.2c0.1-0.1,0.1-0.2,0.2-0.3c0,0,0-0.1-0.1-0.1c0,0,0,0,0,0c0,0,0-0.1-0.1-0.1c0,0,0-0.1,0.1-0.1c0,0,0-0.1-0.1-0.1    c0,0,0-0.1,0-0.1c0,0,0-0.1,0-0.1c0,0,0-0.1,0-0.1c0,0,0-0.1,0-0.1c0,0,0,0,0-0.1c0,0,0-0.1-0.1-0.1c0,0,0,0,0,0    c0-0.1-0.1-0.2-0.1-0.3c0,0-0.1,0-0.1,0C15.8,4.1,15.9,4.2,15.9,4.3z M16.6,4.3C16.6,4.3,16.6,4.3,16.6,4.3    C16.5,4.2,16.5,4.2,16.6,4.3C16.6,4.2,16.6,4.3,16.6,4.3z M16.7,4.8C16.7,4.8,16.7,4.8,16.7,4.8c0-0.1,0-0.2,0-0.2c0,0,0,0,0,0    C16.7,4.7,16.7,4.7,16.7,4.8C16.7,4.8,16.7,4.8,16.7,4.8z M18.2,4.6C18.2,4.6,18.2,4.6,18.2,4.6C18.2,4.6,18.2,4.7,18.2,4.6    C18.2,4.6,18.2,4.6,18.2,4.6z M18.1,4.7C18.1,4.7,18,4.7,18.1,4.7C18,4.7,18,4.7,18.1,4.7C18.1,4.7,18.1,4.7,18.1,4.7    C18.1,4.7,18.1,4.7,18.1,4.7C18.1,4.7,18.1,4.7,18.1,4.7C18.1,4.7,18.1,4.7,18.1,4.7z M17.7,5C17.7,5,17.7,5,17.7,5    C17.7,5,17.7,5,17.7,5C17.7,5.1,17.7,5.1,17.7,5C17.7,5.1,17.7,5.1,17.7,5C17.7,5.1,17.7,5,17.7,5z M18.1,6.3    C18.1,6.3,18.1,6.3,18.1,6.3C18.2,6.3,18.2,6.3,18.1,6.3C18.2,6.3,18.2,6.3,18.1,6.3C18.2,6.3,18.2,6.3,18.1,6.3    C18.2,6.3,18.2,6.3,18.1,6.3C18.1,6.3,18.1,6.3,18.1,6.3z M18,6.1C18.1,6.1,18.1,6.1,18,6.1C18.1,6.1,18.1,6.2,18,6.1    C18.1,6.2,18.1,6.2,18,6.1C18.1,6.2,18.1,6.1,18,6.1z M17.8,6.2C17.8,6.2,17.9,6.2,17.8,6.2C17.9,6.3,17.9,6.3,17.8,6.2    C17.9,6.3,17.8,6.2,17.8,6.2z M17.7,6C17.7,6,17.8,6,17.7,6C17.8,6,17.8,6,17.7,6C17.8,6,17.8,6,17.7,6C17.8,6,17.8,6,17.7,6    C17.8,6,17.8,6,17.7,6C17.8,6,17.8,6,17.7,6C17.7,6,17.7,6,17.7,6z M17.6,5.9C17.6,5.9,17.6,5.9,17.6,5.9    C17.6,5.9,17.6,5.9,17.6,5.9C17.6,5.9,17.6,5.9,17.6,5.9C17.6,5.9,17.6,5.9,17.6,5.9C17.6,5.9,17.6,5.9,17.6,5.9z M17.4,5.9    C17.4,5.9,17.4,5.9,17.4,5.9C17.4,5.9,17.4,5.9,17.4,5.9C17.4,5.9,17.4,5.9,17.4,5.9C17.4,5.9,17.4,5.9,17.4,5.9    C17.4,5.9,17.4,5.9,17.4,5.9C17.4,5.9,17.4,5.9,17.4,5.9z M17.2,5.7C17.2,5.7,17.2,5.7,17.2,5.7C17.3,5.7,17.3,5.8,17.2,5.7    C17.2,5.8,17.2,5.8,17.2,5.7C17.2,5.8,17.2,5.8,17.2,5.7z M17,5.6C17,5.6,17,5.6,17,5.6C17.1,5.6,17.1,5.6,17,5.6    C17.1,5.7,17.1,5.7,17,5.6C17.1,5.7,17.1,5.7,17,5.6C17,5.7,17,5.6,17,5.6z M17.5,6.8C17.5,6.8,17.5,6.8,17.5,6.8    C17.5,6.8,17.5,6.8,17.5,6.8C17.5,6.8,17.5,6.8,17.5,6.8z M17.1,6.4C17.1,6.4,17.1,6.4,17.1,6.4C17.1,6.4,17.1,6.4,17.1,6.4    C17.1,6.4,17.1,6.4,17.1,6.4z M16.8,6.4c0,0,0.1,0.1,0.1,0.1c0,0,0,0,0,0c0,0,0,0.1,0,0.1C16.8,6.5,16.8,6.4,16.8,6.4z M16.6,6.1    C16.6,6.1,16.6,6.2,16.6,6.1C16.6,6.2,16.6,6.2,16.6,6.1C16.6,6.1,16.6,6.1,16.6,6.1z M16.5,5.3C16.5,5.3,16.5,5.4,16.5,5.3    c0,0.1-0.1,0.1-0.1,0.1c0,0,0,0,0,0c0,0,0,0,0,0c0,0-0.1,0.1-0.1,0.1c0,0,0,0,0,0c0,0,0-0.1,0-0.1C16.4,5.4,16.5,5.4,16.5,5.3z     M16.7,5C16.6,5,16.6,5,16.7,5C16.6,5,16.6,5,16.7,5C16.6,5,16.6,4.9,16.7,5C16.7,4.9,16.7,4.9,16.7,5C16.7,4.9,16.7,4.9,16.7,5z     M16.7,4.9C16.7,4.9,16.7,4.9,16.7,4.9C16.7,4.9,16.8,4.9,16.7,4.9C16.7,4.9,16.7,4.9,16.7,4.9z M16.5,5.1    C16.6,5.1,16.6,5.1,16.5,5.1C16.6,5.1,16.6,5.1,16.5,5.1C16.6,5.1,16.6,5.1,16.5,5.1c0,0.1,0,0.1,0,0.2    C16.6,5.2,16.6,5.1,16.5,5.1z M15.6,5.1C15.6,5.1,15.6,5.1,15.6,5.1C15.6,5.1,15.6,5.1,15.6,5.1c0-0.1,0-0.1,0-0.1    c0,0,0-0.1-0.1-0.1c0,0,0,0,0,0c0,0,0,0,0,0C15.6,5,15.6,5.1,15.6,5.1z M15.6,5.3c0,0-0.1-0.1-0.1-0.1C15.5,5.2,15.5,5.2,15.6,5.3    C15.6,5.2,15.6,5.3,15.6,5.3z M15.6,5.4C15.6,5.4,15.6,5.3,15.6,5.4C15.6,5.3,15.6,5.3,15.6,5.4C15.6,5.3,15.6,5.4,15.6,5.4z     M16.1,5.3C16.1,5.3,16.1,5.3,16.1,5.3C16.1,5.3,16.1,5.3,16.1,5.3C16.1,5.3,16.1,5.3,16.1,5.3z M16,5.2C16,5.2,16,5.2,16,5.2    C16,5.3,16,5.3,16,5.2C16,5.3,16,5.3,16,5.2z M16,5C16,5,16,5,16,5C16,5.1,16,5.1,16,5.2c0,0,0,0,0,0C16,5.1,16,5.1,16,5    C15.9,5,15.9,5,16,5C15.8,4.8,16,5,16,5z M16,4.8c0,0.1,0,0.1,0,0.2C16,4.9,15.9,4.8,16,4.8C15.9,4.6,15.9,4.7,16,4.8z"
         id="path133" /><path
         fill="#84EB14"
         d="M14.8,3.1c0,0,0,0.1,0.1,0.1c0,0,0,0,0,0c0,0,0,0.1,0.1,0.1c0,0,0,0,0,0c0,0.1,0,0.2,0.1,0.2c0,0,0,0,0,0    c0,0.1,0.1,0.1,0.1,0.2c0,0,0,0,0,0c0,0,0,0.1,0.1,0.2c0,0,0,0,0,0c0,0,0,0.1,0,0.1c0,0,0,0,0,0c0,0.1,0.1,0.1,0.1,0.2    c0,0,0,0,0,0c0,0,0,0.1,0,0.1c0,0,0,0.1,0,0.1c0,0,0,0,0,0c0,0,0,0,0,0c0,0,0,0.1,0,0.1c0,0-0.1,0.1-0.1,0.1c0,0,0,0,0,0    C15,5.1,15,5.2,14.9,5.4c-0.1,0.2-0.2,0.3-0.3,0.5c-0.2,0.2-0.4,0.4-0.5,0.6c-0.1,0.2-0.2,0.3-0.4,0.5c0,0,0,0,0,0.1c0,0,0,0,0,0    c0,0.1,0.1,0.1,0.1,0.1c0,0,0,0,0,0c0,0,0,0,0,0C13.9,7.1,14,7,14,6.9c0-0.1,0.1-0.1,0.1-0.2c0.1-0.1,0.2-0.3,0.3-0.4    c0.1-0.2,0.3-0.4,0.4-0.6c0.1-0.2,0.2-0.3,0.3-0.5c0.1-0.1,0.2-0.2,0.2-0.3c0-0.1,0-0.1,0-0.2c0,0,0,0,0,0c0.1,0,0.2,0,0.3,0    c0.1,0,0.2,0.1,0.3,0.1c0,0,0,0,0,0c0,0,0.1,0,0.1,0c0,0,0,0,0,0c0,0,0.1,0,0.1,0c0,0,0,0,0,0c0,0,0.1,0,0.1,0c0,0,0,0,0,0    c0,0,0.1,0,0.1,0c0,0,0,0,0,0c0,0,0,0,0,0c0,0,0,0,0,0c0,0,0,0,0,0c0,0,0,0,0,0c0.1,0,0.1,0,0.1,0c0,0,0,0,0-0.1c0,0,0,0,0,0    c0,0,0,0,0,0c0,0,0,0,0,0c0.1,0,0.2,0,0.3,0c0,0,0-0.1,0-0.1c0,0-0.1,0-0.1,0c0,0,0,0,0,0c0,0,0,0,0,0c0,0,0,0,0,0c0,0,0,0,0,0    c0,0,0,0,0,0c-0.1,0-0.2,0-0.2,0c0,0,0,0,0,0c0,0,0,0,0,0c0,0,0,0,0,0c0,0-0.1,0-0.1,0c0,0,0,0-0.1,0c-0.1,0-0.1,0.1-0.2,0.1    c0,0,0,0,0,0c0,0,0-0.1-0.1,0c-0.1,0-0.2,0.1-0.3,0.1c-0.1,0-0.2,0-0.3,0c0,0,0-0.1,0-0.1c0,0,0-0.1,0.1-0.1c0.1,0,0.2,0,0.2,0    c0,0,0,0,0,0c0.1,0,0.2,0,0.1-0.1c0,0,0,0,0,0c0,0,0,0,0,0c0.1,0,0.1,0,0.2-0.1c0,0,0,0,0-0.1c0.1,0,0.1,0,0.1-0.1    c0,0,0-0.1,0-0.1c0.1,0,0.1,0,0.1-0.1c0,0,0-0.1,0-0.1c-0.1,0-0.2,0-0.2,0c0.1-0.1,0.2-0.1,0.3-0.2c0,0,0-0.1-0.1-0.1c0,0,0,0,0,0    c0.1-0.1,0.1-0.2,0-0.2c-0.1,0-0.2,0.1-0.2,0.1c0,0-0.1-0.1-0.1,0c0,0,0,0.1-0.1,0.2c0,0,0,0,0,0c0,0-0.1,0-0.1,0c0,0,0,0.1,0,0.1    c0,0,0,0,0,0c0,0-0.1,0-0.1,0c0,0,0,0.1,0,0.1c0,0,0,0,0,0c0,0,0,0-0.1,0c0,0,0,0.1-0.1,0.1c0,0,0,0,0,0c0,0,0,0,0-0.1    c0,0-0.1,0-0.1,0c0,0.1,0,0.2,0,0.3c0,0.1,0,0.2,0,0.3c0,0,0,0,0,0c0,0,0,0,0,0c0,0,0,0,0,0c0,0,0,0,0,0c0,0,0-0.1,0-0.1    c0,0,0,0,0,0c0-0.1,0-0.1-0.1-0.1c0,0,0,0,0,0c0-0.1,0-0.2,0-0.2c0,0,0,0,0,0c0,0,0-0.1,0-0.1c0,0,0,0,0,0c0,0,0-0.1,0-0.1    c0,0,0,0-0.1,0c0,0,0-0.1,0-0.1c0,0,0,0,0,0C15.1,3.3,14.9,3.1,14.8,3.1C14.8,3,14.8,3.1,14.8,3.1z M16.5,4.5    C16.5,4.5,16.6,4.5,16.5,4.5C16.6,4.5,16.6,4.5,16.5,4.5C16.5,4.5,16.5,4.5,16.5,4.5z M16.6,4.4C16.6,4.4,16.6,4.4,16.6,4.4    C16.6,4.4,16.7,4.4,16.6,4.4C16.7,4.4,16.7,4.4,16.6,4.4C16.7,4.4,16.7,4.4,16.6,4.4C16.6,4.4,16.6,4.4,16.6,4.4    C16.6,4.4,16.6,4.4,16.6,4.4z M16.3,4.5C16.3,4.5,16.3,4.5,16.3,4.5C16.3,4.5,16.3,4.5,16.3,4.5C16.3,4.4,16.3,4.5,16.3,4.5z     M16.4,4.5C16.4,4.5,16.4,4.5,16.4,4.5C16.4,4.5,16.4,4.5,16.4,4.5C16.4,4.5,16.4,4.5,16.4,4.5C16.4,4.5,16.4,4.5,16.4,4.5z     M16.3,4.5C16.3,4.5,16.3,4.5,16.3,4.5C16.3,4.5,16.3,4.6,16.3,4.5C16.3,4.6,16.3,4.5,16.3,4.5z M16.2,4.6    C16.2,4.6,16.2,4.6,16.2,4.6C16.2,4.6,16.2,4.6,16.2,4.6C16.2,4.6,16.2,4.6,16.2,4.6z M16.1,4.5C16.2,4.5,16.2,4.5,16.1,4.5    C16.2,4.5,16.2,4.5,16.1,4.5C16.2,4.5,16.2,4.5,16.1,4.5z M15.9,4.5C15.9,4.5,15.9,4.5,15.9,4.5c0.1,0,0.1,0,0.1,0c0,0,0,0,0,0    c0,0,0,0,0,0C16,4.5,16,4.5,15.9,4.5C16,4.5,16,4.5,15.9,4.5C16,4.5,15.9,4.5,15.9,4.5C15.9,4.5,15.9,4.5,15.9,4.5z M15.7,4    c0-0.1,0-0.1,0-0.2c0,0,0-0.1,0-0.1C15.7,3.8,15.7,3.9,15.7,4C15.7,4,15.7,4,15.7,4C15.7,4,15.7,4,15.7,4z M15.7,4.2    C15.7,4.2,15.7,4.2,15.7,4.2C15.7,4.2,15.8,4.2,15.7,4.2C15.7,4.2,15.7,4.2,15.7,4.2C15.7,4.2,15.7,4.2,15.7,4.2    C15.7,4.2,15.7,4.2,15.7,4.2z M15.8,4C15.8,4,15.8,4,15.8,4C15.8,4,15.8,4,15.8,4c0.1,0,0.1,0,0.1,0C15.8,4.1,15.8,4.1,15.8,4    C15.7,4.1,15.7,4.1,15.8,4C15.8,4,15.8,4,15.8,4z M15.8,3.9C15.8,3.9,15.8,3.9,15.8,3.9C15.8,3.9,15.8,3.9,15.8,3.9    C15.8,3.9,15.8,3.9,15.8,3.9z M15.4,4.3C15.4,4.3,15.4,4.3,15.4,4.3C15.4,4.3,15.4,4.3,15.4,4.3C15.4,4.3,15.4,4.3,15.4,4.3    C15.4,4.3,15.4,4.3,15.4,4.3C15.4,4.3,15.4,4.3,15.4,4.3z M15.2,4.2C15.3,4.2,15.3,4.2,15.2,4.2c0,0,0,0.1,0,0.1    C15.3,4.3,15.3,4.2,15.2,4.2z M15.2,4C15.2,4,15.2,4,15.2,4c0,0,0.1,0.1,0.1,0.1C15.2,4.1,15.2,4,15.2,4z M15.2,3.9    C15.2,3.9,15.2,3.9,15.2,3.9C15.2,3.9,15.2,3.9,15.2,3.9C15.3,3.9,15.3,3.9,15.2,3.9C15.2,3.9,15.2,3.9,15.2,3.9z M15.2,3.7    C15.2,3.7,15.2,3.7,15.2,3.7C15.2,3.7,15.2,3.7,15.2,3.7C15.2,3.7,15.2,3.7,15.2,3.7z M15,3.5C15,3.5,15,3.5,15,3.5    C15,3.5,15,3.5,15,3.5C15,3.5,15,3.5,15,3.5C15,3.5,14.9,3.4,15,3.5z"
         id="path135" /><path
         fill="#84EB14"
         d="M13.8,7.2c-0.1,0.1,0.1,0.2,0.1,0.1c0.1-0.1,0.3,0,0.4,0c0.2,0,0.3,0,0.5,0c0.2,0,0.5,0,0.7,0    c0,0,0.1,0.1,0.1,0.1c0,0,0,0,0,0.1c0.1,0,0.1,0.1,0.1,0.2c0,0,0,0,0,0c0,0,0,0,0,0.1c0,0,0.1,0,0.1,0c0,0,0,0,0,0    c0,0.1,0,0.1,0.1,0.2c0,0,0.1,0,0.1,0c0-0.1,0.1,0.1,0.1,0.1c0,0,0,0,0,0c0,0,0,0,0,0c0,0.1,0,0.1,0.1,0.2c0,0,0,0,0,0    c0,0,0,0,0,0c0,0,0,0,0,0c0,0,0,0,0,0c0,0,0,0,0,0c0,0,0,0,0,0c0,0,0,0,0,0c0,0,0,0,0,0c0,0,0,0,0.1,0.1c0,0,0,0,0,0    c0-0.1-0.2-0.2-0.3-0.3c0-0.1,0-0.1-0.1-0.2c0,0,0,0,0-0.1c0,0-0.1,0-0.1-0.1c0,0,0,0,0,0c-0.1-0.1-0.2-0.1-0.3-0.1    c0,0-0.1,0-0.1-0.1c0,0,0,0,0,0c0.1,0,0.3,0,0.4,0c0,0,0.1,0.1,0.1,0.1c0,0,0,0,0,0.1c0,0,0,0,0,0c0,0.1,0,0.1,0.1,0.2    c0,0,0,0,0,0c0,0,0,0.1,0,0.1c0,0,0,0,0,0c0,0,0,0.1,0.1,0.1c0,0,0,0,0,0c0,0,0,0.1,0.1,0.1c0,0,0,0,0,0c0,0,0,0,0,0c0,0,0,0,0,0    c0,0,0,0,0,0c0,0,0,0,0-0.1c0,0,0,0,0,0c0,0,0,0,0,0c0,0,0,0,0,0c-0.1,0-0.1-0.1-0.1-0.2c0,0,0,0,0,0c0,0,0,0,0,0    c0,0.1,0,0.1,0.1,0.2c0,0,0,0,0,0c0,0.1,0.1,0.1,0.1,0.2c0,0,0,0,0,0c0,0,0.1,0,0,0c-0.1-0.1-0.1-0.2-0.2-0.3c0,0,0,0,0,0    c0,0,0,0,0,0c0,0,0,0,0,0c0,0,0,0,0,0l0,0c0,0,0,0,0,0c0,0,0,0,0.1,0c0,0,0,0,0,0c0,0-0.1-0.1-0.1-0.1c0,0-0.1-0.1,0-0.1    c0,0,0,0,0-0.1c0,0,0,0,0,0c0,0,0,0,0.1,0c0,0,0,0,0-0.1c0,0-0.1,0-0.1-0.1c0,0,0-0.1,0-0.1c0,0-0.1,0-0.1,0c0-0.1,0-0.1-0.1-0.2    c-0.1,0-0.1,0-0.1-0.1c0,0-0.1-0.1-0.1-0.1c0,0,0.1,0,0.1,0c0,0,0,0,0,0c0.1,0.1,0.2,0.2,0.3,0.2c0,0,0.1,0,0,0c0,0,0,0,0,0    c0,0,0.1,0.1,0.1,0.1c0,0,0.1,0,0-0.1c0,0,0,0,0-0.1c0,0,0,0,0,0c0,0,0,0,0,0c0,0,0,0,0,0.1c0,0.1,0.1,0.1,0.1,0.1c0,0,0,0,0,0    c0,0,0-0.1,0-0.1c0,0,0.1,0.1,0.1,0.1c0,0,0,0,0,0c0,0,0,0,0,0c0,0.1,0.1,0.1,0.2,0.1c0,0,0,0,0,0c0,0,0,0,0,0c0,0,0,0,0,0    c0,0,0.1,0,0.1,0c0,0,0,0,0,0c0-0.1-0.1-0.1-0.2-0.2c0,0,0,0-0.1-0.1c0,0,0.1,0,0.1,0.1c0,0,0,0,0,0c0,0,0,0,0,0c0,0,0,0,0,0    c0,0,0,0,0,0c0,0,0,0,0,0c0,0,0,0,0,0c0,0,0,0,0,0c0,0,0,0,0,0c0,0,0,0,0,0c0,0,0,0,0,0c0,0,0,0,0,0c0,0,0,0,0,0    c0,0,0.1,0,0.1,0.1c0,0,0-0.1,0-0.1c0,0,0,0,0,0c0,0,0,0,0,0c0,0,0,0,0,0c0,0,0-0.1,0-0.1c0,0,0,0-0.1,0c0,0,0-0.1-0.1-0.1    c0,0-0.1,0-0.1,0c0,0,0,0,0,0c0,0,0-0.1-0.1-0.1c0,0,0,0-0.1,0c0,0,0,0,0,0c0,0,0,0,0,0c0,0,0-0.1,0-0.1c0,0,0,0-0.1,0    c0,0,0,0,0,0c0,0,0,0,0,0c0,0,0-0.1-0.1,0c0,0,0,0,0,0c0,0,0,0,0,0c0,0,0,0,0,0c0,0,0,0,0-0.1c0,0,0,0,0-0.1c0,0-0.1,0-0.1,0    c0,0,0,0,0,0c0,0,0-0.1-0.1-0.1c-0.1,0-0.2,0-0.2,0c0,0,0,0,0,0c-0.1,0-0.1,0.1-0.2,0.1c0,0,0,0,0,0.1c0,0,0,0,0,0c0,0,0,0,0,0    c-0.1,0-0.1,0-0.2,0c0,0,0,0,0-0.1c0,0,0,0,0,0c0.1-0.1,0.1-0.2,0.1-0.3c0,0,0,0,0,0c0,0,0,0,0-0.1c0,0,0,0,0,0c0,0,0,0,0,0    c0-0.1,0-0.1,0-0.2c0,0,0-0.1-0.1,0c0,0,0,0,0,0c0-0.1,0-0.1-0.1-0.2c0-0.1-0.1-0.1-0.1-0.2c0,0-0.1-0.1-0.1,0c0,0,0,0.1,0,0.1    c0,0,0,0,0,0c0,0.1,0,0.1,0,0.2c0,0,0,0,0,0c0,0.1,0,0.1,0.1,0.2c0,0,0,0,0,0c0,0,0,0.1,0,0.2c0,0,0,0,0,0C16,7,16.1,7,16.1,7.1    c0,0,0,0,0,0c0,0.1,0,0.1-0.1,0.1c0,0,0,0,0,0c0,0,0,0,0,0c0,0,0,0,0,0c-0.1,0-0.2,0-0.4,0c0,0-0.1,0-0.1,0c0,0,0,0,0-0.1    c0,0,0,0,0,0c0,0,0,0,0,0c0,0,0,0,0,0c0.1,0,0.2-0.1,0.2-0.2c0,0,0,0,0-0.1c0,0,0,0,0,0c0,0,0-0.1,0-0.1c0-0.2,0-0.4-0.1-0.5    c0,0-0.1,0-0.1,0c0,0.1,0,0.2,0,0.2c0,0,0,0,0,0c0,0,0,0.1,0,0.1c0,0,0,0,0,0c0,0,0,0.1,0,0.1c0,0,0,0,0,0c0,0,0,0.1,0,0.1    c0,0.1,0,0.2,0,0.3c0,0,0,0,0,0c-0.2,0-0.5,0-0.7,0c-0.2,0-0.5-0.1-0.7-0.1C13.9,7.1,13.9,7.1,13.8,7.2z M15.6,7.1    c0,0,0-0.1,0-0.1c0,0,0.1,0,0.1,0c0,0,0-0.1,0-0.1c0,0,0,0,0,0c0,0,0-0.1,0-0.1c0,0,0,0,0,0c0,0.1,0,0.2,0,0.2    C15.6,7,15.6,7,15.6,7.1z M16.1,6.8C16.1,6.8,16.1,6.7,16.1,6.8c0-0.1,0-0.1,0-0.1c0,0,0-0.1-0.1-0.1c0,0,0,0,0,0.1c0,0,0,0,0,0    C16.1,6.7,16.1,6.7,16.1,6.8z M16.2,6.8c0,0,0-0.1,0-0.1C16.2,6.7,16.2,6.7,16.2,6.8C16.2,6.7,16.2,6.8,16.2,6.8z M16.2,6.9    C16.2,6.9,16.2,6.9,16.2,6.9C16.2,6.9,16.2,6.9,16.2,6.9C16.2,6.9,16.2,6.8,16.2,6.9C16.2,6.8,16.2,6.8,16.2,6.9z M16.6,8    C16.6,8,16.6,8,16.6,8C16.6,8,16.6,8,16.6,8C16.6,8,16.6,8,16.6,8c0.1,0.1,0.1,0.1,0.2,0.2c0,0,0.1,0,0.1,0.1c0,0,0,0-0.1,0    C16.7,8.2,16.7,8.1,16.6,8C16.6,8.1,16.6,8,16.6,8z M16.5,7.8C16.5,7.8,16.5,7.8,16.5,7.8C16.5,7.8,16.5,7.8,16.5,7.8    C16.5,7.8,16.5,7.8,16.5,7.8C16.5,7.8,16.5,7.8,16.5,7.8z M16.4,7.8c0,0,0,0.1,0.1,0.1c0,0,0,0.1,0,0.1c0,0,0,0,0,0c0,0,0,0,0,0    c0,0,0,0,0-0.1C16.5,7.9,16.4,7.9,16.4,7.8C16.4,7.9,16.4,7.8,16.4,7.8z M16.4,7.6C16.4,7.7,16.4,7.7,16.4,7.6    C16.4,7.7,16.4,7.7,16.4,7.6z M16.5,7.3C16.5,7.3,16.4,7.3,16.5,7.3c-0.1,0-0.1,0-0.1,0C16.4,7.3,16.4,7.3,16.5,7.3    C16.4,7.3,16.4,7.3,16.5,7.3C16.4,7.3,16.5,7.3,16.5,7.3C16.5,7.3,16.5,7.3,16.5,7.3C16.5,7.3,16.5,7.3,16.5,7.3z M16.7,7.4    C16.7,7.4,16.7,7.4,16.7,7.4C16.6,7.4,16.6,7.4,16.7,7.4C16.6,7.4,16.6,7.4,16.7,7.4C16.7,7.4,16.7,7.4,16.7,7.4    C16.7,7.4,16.7,7.4,16.7,7.4C16.7,7.4,16.7,7.4,16.7,7.4z M16.6,7.3C16.6,7.3,16.6,7.3,16.6,7.3C16.6,7.3,16.6,7.3,16.6,7.3    C16.6,7.3,16.6,7.3,16.6,7.3z M16.7,7.3C16.7,7.3,16.6,7.3,16.7,7.3C16.7,7.3,16.7,7.3,16.7,7.3C16.7,7.2,16.8,7.2,16.7,7.3    C16.8,7.3,16.8,7.3,16.7,7.3z M16.9,7.4C16.9,7.4,16.9,7.4,16.9,7.4C16.9,7.4,16.9,7.4,16.9,7.4C16.9,7.4,16.9,7.4,16.9,7.4z     M17.2,7.7C17.2,7.7,17.2,7.7,17.2,7.7C17.1,7.7,17.1,7.7,17.2,7.7C17.1,7.6,17.1,7.6,17.2,7.7C17.1,7.6,17.1,7.6,17.2,7.7    C17.1,7.6,17.1,7.6,17.2,7.7C17.1,7.6,17.1,7.6,17.2,7.7C17.1,7.6,17.1,7.6,17.2,7.7C17.2,7.6,17.2,7.7,17.2,7.7z M17,7.6    C17,7.6,17.1,7.7,17,7.6C17.1,7.7,17.1,7.7,17,7.6C17.1,7.7,17,7.7,17,7.6z M16.9,7.6C16.9,7.6,16.9,7.6,16.9,7.6    c0.1,0.1,0.1,0.1,0.1,0.2C16.9,7.7,16.9,7.6,16.9,7.6C16.9,7.6,16.9,7.6,16.9,7.6z M16.9,7.5C16.9,7.5,16.9,7.5,16.9,7.5    C16.9,7.5,16.9,7.5,16.9,7.5C16.9,7.5,16.9,7.5,16.9,7.5z M16.6,7.5C16.6,7.5,16.6,7.4,16.6,7.5C16.6,7.4,16.6,7.4,16.6,7.5    C16.6,7.4,16.6,7.5,16.6,7.5C16.7,7.5,16.8,7.7,16.6,7.5C16.6,7.5,16.6,7.5,16.6,7.5z M16.5,7.4C16.5,7.5,16.5,7.5,16.5,7.4    C16.6,7.5,16.6,7.5,16.5,7.4C16.5,7.5,16.5,7.5,16.5,7.4C16.5,7.5,16.5,7.5,16.5,7.4z M15.8,7.6C15.9,7.6,15.9,7.6,15.8,7.6    C15.9,7.6,15.9,7.6,15.8,7.6C15.9,7.6,15.9,7.6,15.8,7.6z"
         id="path137" /></g></g></svg>