<?xml version="1.0" encoding="utf-8"?>
<!-- Generator: Adobe Illustrator 18.0.0, SVG Export Plug-In . SVG Version: 6.00 Build 0)  -->
<!DOCTYPE svg PUBLIC "-//W3C//DTD SVG 1.1//EN" "http://www.w3.org/Graphics/SVG/1.1/DTD/svg11.dtd">
<svg version="1.1" id="Layer_1" xmlns="http://www.w3.org/2000/svg" xmlns:xlink="http://www.w3.org/1999/xlink" x="0px" y="0px"
	 viewBox="173.7 470.4 93.8 106.7" enable-background="new 173.7 470.4 93.8 106.7" xml:space="preserve">
<g>
	<g>
		<path fill="#02A436" d="M250.9,568.1l-5.5,5c-1,1-3,1-4,0l-22-22.5c-0.5-0.5-1-1-1-2v-0.5v-4.5c0-1.5,1.5-3,3-3h4.5c0,0,0,0,0.5,0
			c1,0,1.5,0,2,1l22,22.5C251.9,565.1,251.9,566.6,250.9,568.1z"/>
		<path fill="#00FA94" d="M178.3,504.5l5.5-5c1-1,3-1,4,0l22,22.5c0.5,0.5,1,1,1,2v0.5v4.5c0,1.5-1.5,3-3,3h-4.5c0,0,0,0-0.5,0
			c-1,0-1.5,0-2-1l-22.5-22.5C177.3,507.5,177.3,505.5,178.3,504.5z"/>
		<path fill="#52575B" d="M182.8,573.6l-5-5.5c-1-1-1-3,0-4l22.5-22c0.5-0.5,1-1,2-1h0.5h4.5c1.5,0,3,1.5,3,3v4.5c0,0,0,0,0,0.5
			c0,1,0,1.5-1,2l-22.5,22C185.8,574.6,183.8,574.6,182.8,573.6z"/>
	</g>
	<g>
		<path fill="#FF5900" d="M234.9,507c-1,1-2,2-2.5,3.5c-1,1-2,2.5-2.5,3.5c-1.5,2.5-3,4.5-4,7.5v0.5l0,0c-0.5,0.5-1,0.5-1,1l0,0
			c0,0,0.5,0,0.5-0.5c-0.5,0.5-1,1.5-1.5,2.5c-0.5,0.5-0.5,1.5-1,2l-0.5,0.5c-0.5,0.5-0.5,1.5-1,2.5l0,0l-0.5,0.5
			c-0.5,0-1.5,0.5-2,0.5l0,0c0.5,0,1,0,1.5,0l0,0c-0.5,0.5-1,0.5-1.5,1c-0.5,0-0.5,0-1,0.5l-0.5,0.5l-0.5,0.5c0,0.5-0.5,1-1,1.5
			l-0.5,0.5l-0.5,0.5l-0.5,0.5l-0.5,0.5c0,0,0,0,0,0.5l0,0l0,0l0.5-0.5c0.5-0.5,1-1,1.5-1.5c1-0.5,1.5-0.5,1.5-1
			c0.5-0.5,1-1,1.5-1.5c0.5,0,0.5,0,1-0.5c1,0,1.5-1,1.5-1.5c0.5-0.5,0.5-1,0.5-1.5l0,0c1-0.5,1-1.5,1.5-2.5c0,0,0,0,0.5,0
			c0,0.5-0.5,1-0.5,1.5l0,0c0.5-0.5,0.5-1,1-1.5c0.5,0,0.5,0,1,0c1,0,2-0.5,2.5-1c0.5,0,0.5-0.5,1-0.5l0,0l0,0l0,0l0,0V525
			c0,0,0.5,0,0.5-0.5h0.5c0.5,0,1-0.5,1-0.5l0,0c0.5,0,1-0.5,1.5-0.5c0.5-0.5,1.5-0.5,2-1s1-0.5,2-1c2-1,4.5-2.5,6.5-4
			c1-0.5,1.5-1.5,2-2.5c1-2,1.5-3.5,0.5-5.5c-0.5-1.5-2-2.5-3-3.5c-0.5-0.5-2.5-2.5-4-2.5c-1,0-2,0.5-3,1
			C236.4,505,235.4,506,234.9,507z M246.9,513.5L246.9,513.5c0,0.5-0.5,1-1,1l0,0l0.5-0.5C246.4,514,246.4,514,246.9,513.5z
			 M246.4,511.5v0.5l0,0l0,0C246.4,512,246.4,512,246.4,511.5L246.4,511.5z M241.9,514c0,0,0,0.5-0.5,1l0,0
			C241.9,514.5,241.9,514,241.9,514z M243.4,512L243.4,512C243.9,512.5,243.4,512.5,243.4,512c0,1,0,1-0.5,1.5c0,0,0,0-0.5,0
			C242.9,513,243.4,512.5,243.4,512L243.4,512z M238.4,516.5L238.4,516.5C238.9,516.5,238.9,516.5,238.4,516.5
			C238.4,517,238.4,517,238.4,516.5C237.9,517,237.9,517,238.4,516.5C237.9,517,238.4,517,238.4,516.5z M234.9,519L234.9,519
			C234.9,519.5,234.9,519.5,234.9,519C234.9,519.5,234.9,519,234.9,519z M240.4,511.5C240.9,511.5,240.9,511.5,240.4,511.5
			c0.5-0.5,0.5-0.5,0.5-0.5c0,0.5,0,0.5,0,1c0,0,0,0,0,0.5l0,0C241.4,511.5,240.9,511.5,240.4,511.5
			C240.4,512,240.4,512,240.4,511.5L240.4,511.5L240.4,511.5z M227.9,523.5L227.9,523.5C227.9,524,227.9,524,227.9,523.5
			C227.9,524,227.9,524,227.9,523.5C227.4,524,227.4,524,227.9,523.5C227.4,524,227.4,524,227.9,523.5
			C227.4,524,227.4,524,227.9,523.5C227.4,524,227.9,524,227.9,523.5z M234.9,516c0,0.5,0,0.5,0,1c0,0,0,0-0.5,0.5
			C234.9,516.5,234.9,516.5,234.9,516z M241.9,507C241.9,507,242.4,507.5,241.9,507c0,0.5,0.5,0.5,0.5,1c0,0.5,0.5,0.5,0.5,1l0,0
			l-0.5-0.5C242.4,508,242.4,507.5,241.9,507z M240.4,508.5L240.4,508.5v0.5l0,0C240.4,509,240.4,508.5,240.4,508.5z M233.4,511.5
			C233.9,511.5,233.9,511.5,233.4,511.5c0,0.5-0.5,0.5-0.5,1l0,0C232.9,512.5,233.4,512.5,233.4,511.5
			C233.4,512,233.4,512,233.4,511.5L233.4,511.5z M240.4,504.5C240.4,504.5,240.9,504.5,240.4,504.5
			C240.9,504.5,240.9,504.5,240.4,504.5c0.5,0,1,0,1.5,0.5c0,0-0.5,0.5,0,0.5l0,0l0,0l0,0c0-0.5,0-0.5-0.5-0.5
			C240.9,504.5,240.9,504.5,240.4,504.5C240.9,504.5,240.4,504.5,240.4,504.5z M237.9,505.5c0.5-0.5,0.5-0.5,1-0.5
			C238.4,505,238.4,505,237.9,505.5C238.4,505,237.9,505.5,237.9,505.5z"/>
		<path fill="#D32104" d="M222.9,528c0.5,0,0.5-1,1-1.5c0.5-0.5,0.5,0,1,0c1,0,2.5-0.5,3-1c2-2,5.5-2.5,8-4c2-1.5,4.5-2.5,6.5-4.5
			c1.5-1,3.5-2,4-4c0.5-1-1-4-2.5-5c1,1,2,2,2.5,3.5l0,0c-1-1-2.5-2.5-3.5-3.5l0,0c-0.5,0-1,0.5-1.5,1c0.5,0.5,1.5,1.5,2,2.5l0,0
			c-1-0.5-1.5-1-2.5-2c-1,1.5-1,3-2,3.5c-2,1.5-3.5,2.5-5,4c0.5,0.5,1,1,1.5,2l0,0c-0.5-0.5-1.5-1-2-1.5c-1,1-2,2-3.5,3
			c-0.5,0.5-1,1.5-1.5,2l0,0c-0.5,0.5-0.5,1-1.5,1.5c-0.5,0-1,0.5-2,0.5c0.5,0,1,0.5,1,1l0,0c-0.5,0-0.5-0.5-1-1l0,0
			C223.9,525.5,222.4,526.5,222.9,528z M238.9,515.5c0-0.5-0.5-0.5-0.5-1l0,0C238.4,514.5,238.9,515,238.9,515.5
			C239.4,515.5,239.4,515.5,238.9,515.5z M236.4,516L236.4,516c0.5,0.5,1.5,1,2,1.5l0,0C237.9,517.5,236.9,517,236.4,516z"/>
		<g>
			<path fill="#E92D25" d="M244.9,511.5l0.5,0.5c0,0,0,0,0.5,0.5C245.4,512,245.4,512,244.9,511.5z"/>
			<path fill="#E92D25" d="M244.4,516L244.4,516L244.4,516c-0.5,0-1-0.5-1-0.5c-0.5-0.5-1-1-1.5-1.5c0,0,0,0,0-0.5c1,1,2,1.5,3.5,2
				c0,0,0,0-0.5,0C244.9,516.5,244.9,516,244.4,516z"/>
			<path fill="#E92D25" d="M242.9,513.5c1,1,2,1.5,2.5,2.5l0,0C244.4,515,243.4,514.5,242.9,513.5
				C242.4,513.5,242.9,513.5,242.9,513.5z"/>
			<path fill="#E92D25" d="M242.9,512C242.9,512,243.4,512,242.9,512c0,0.5,0,1,0,1c-0.5-0.5-1-1-2-1.5c0,0,0,0,0-0.5l0,0
				c-2-1.5-3.5-3.5-5-5.5c0,0,0.5,0,0.5-0.5C238.4,508,240.9,510,242.9,512z"/>
			<path fill="#E92D25" d="M238.9,511c1,1,2,2,3,3c0,0,0,0,0,0.5l0,0C240.9,513,239.9,512,238.9,511L238.9,511z"/>
			<path fill="#E92D25" d="M230.4,520.5c-1-1-2-2-3-3c0,0,0-0.5,0.5-0.5c0,0,0,0,0,0.5C228.4,518.5,229.4,519.5,230.4,520.5z"/>
			<path fill="#E92D25" d="M233.9,523L233.9,523c-0.5-0.5-1-0.5-1-1C232.9,522.5,233.4,522.5,233.9,523z"/>
			<path fill="#E92D25" d="M234.9,516.5c0.5,0.5,1.5,1,2,1.5s1.5,1.5,2,2C237.9,519,236.4,517.5,234.9,516.5L234.9,516.5z"/>
			<path fill="#E92D25" d="M234.9,519.5c-0.5-0.5-1-0.5-1.5-1l-0.5-0.5l0,0C233.4,518.5,233.9,519,234.9,519.5L234.9,519.5z"/>
			<path fill="#E92D25" d="M234.9,519.5c0.5,0.5,1.5,1,2,1.5c0,0,0.5,0,0.5,0.5l0,0C236.4,520.5,235.4,520,234.9,519.5L234.9,519.5z
				"/>
			<path fill="#E92D25" d="M234.9,516.5c-0.5-0.5-0.5-0.5-1-1c-0.5-0.5-1-1-1.5-2C233.4,514.5,233.9,515.5,234.9,516.5L234.9,516.5z
				"/>
			<path fill="#E92D25" d="M243.4,516c0.5,0.5,0.5,0.5,1,0.5c0,0,0,0-0.5,0l0,0c-0.5-0.5-1-1-1.5-1.5C242.4,516,242.9,516,243.4,516
				z"/>
			<path fill="#E92D25" d="M232.4,523.5c-2-1.5-4-3.5-5.5-5c0,0,0,0-0.5,0l0,0l0,0C228.4,520,230.4,522,232.4,523.5L232.4,523.5z"/>
			<path fill="#E92D25" d="M233.4,511c-0.5-0.5-1-1-1-1l0,0C232.9,510,232.9,510.5,233.4,511C233.4,510.5,233.4,511,233.4,511z"/>
			<path fill="#E92D25" d="M234.9,510.5c-0.5-0.5-1.5-1.5-2-2l0,0C233.9,509,234.4,509.5,234.9,510.5L234.9,510.5z"/>
			<path fill="#E92D25" d="M235.4,522.5L235.4,522.5c-1-0.5-2-1.5-3-2C233.4,521,234.4,522,235.4,522.5z"/>
			<path fill="#E92D25" d="M234.9,522.5C234.9,522.5,234.4,522.5,234.9,522.5c-1-0.5-2-1-2.5-2C232.9,521.5,233.9,522,234.9,522.5z"
				/>
			<path fill="#E92D25" d="M232.9,516c0.5,0.5,1,1,1.5,1.5c0.5,0.5,1,1,1.5,2c-2-1.5-3.5-3-5.5-4.5C231.4,515,232.4,515.5,232.9,516
				z"/>
			<path fill="#E92D25" d="M229.9,513L229.9,513c0.5,0,0.5,0.5,1,0.5C230.4,513.5,230.4,513.5,229.9,513z"/>
			<path fill="#E92D25" d="M230.4,516L230.4,516c0,0,0.5,0,0.5,0.5l0,0C230.9,516.5,230.4,516.5,230.4,516z"/>
			<path fill="#E92D25" d="M238.4,511.5c-0.5,0-0.5-0.5-1-0.5c-1-1.5-2-2.5-3-4l0,0C235.9,508.5,236.9,510,238.4,511.5z"/>
			<path fill="#E92D25" d="M228.4,522.5c0.5,0.5,1,1,1.5,1c0.5,0.5,0.5,0.5,1,1l0,0l0,0C229.9,524,228.9,523,228.4,522.5z"/>
			<path fill="#E92D25" d="M225.9,523.5c0.5,1,1,1.5,1.5,2c0-0.5-0.5-0.5-0.5-1c-0.5-0.5-1.5-1.5-2-2l0,0
				C224.9,523,225.4,523,225.9,523.5z"/>
			<path fill="#E92D25" d="M225.4,526.5C225.4,526.5,225.4,527,225.4,526.5c-0.5,0.5-1,1.5-1,2l0,0c0,0,0,0,0-0.5c0,0,0,0,0-0.5l0,0
				c0,0,0,0,0-0.5h0.5C224.9,527,224.9,527,225.4,526.5c-0.5,0-0.5,0-0.5,0S224.9,526.5,225.4,526.5
				C224.9,526.5,224.9,526.5,225.4,526.5C224.9,526.5,224.9,526.5,225.4,526.5c-0.5,0-0.5-0.5-0.5-0.5l0,0l0,0l0,0l0,0
				c0,0,0,0,0-0.5C224.9,526,224.9,526.5,225.4,526.5z"/>
			<path fill="#E92D25" d="M222.4,528h-0.5l0,0l0.5-0.5l0,0C222.4,527.5,222.4,527.5,222.4,528z"/>
			<path fill="#E92D25" d="M238.4,515.5C238.9,516,238.9,516,238.4,515.5c1,1.5,2,2.5,3,3l0,0c-0.5-0.5-1-1-1.5-1.5
				C239.9,517,238.9,516.5,238.4,515.5z"/>
			<path fill="#E92D25" d="M242.4,518L242.4,518C242.4,518.5,242.4,518.5,242.4,518c-0.5,0-0.5,0-1-0.5
				C241.4,517.5,241.9,518,242.4,518z"/>
			<path fill="#E92D25" d="M235.4,513.5l-0.5-0.5l-0.5-0.5C234.4,513,234.9,513.5,235.4,513.5z"/>
			<path fill="#E92D25" d="M243.4,512.5c1,0.5,1.5,1.5,2.5,2v0.5l0,0l0,0c0,0,0,0,0.5,0.5l-0.5,0.5c-1-0.5-2-1.5-3-2
				C243.4,513,243.4,512.5,243.4,512.5z"/>
			<path fill="#E92D25" d="M242.4,507.5L242.4,507.5c1,1,2.5,2,3.5,2.5c0.5,0.5,1,1,2,1.5c0,0.5,0,0.5,0,1c-1-1-2-1.5-3-2.5
				C243.9,509.5,242.9,508.5,242.4,507.5z"/>
		</g>
		<g>
			<path fill="#FF972C" d="M229.4,515c0,0.5,0.5,0.5,1,1v0.5l-0.5-0.5C228.9,515.5,228.9,515.5,229.4,515
				C228.9,515,229.4,515,229.4,515z"/>
			<path fill="#F7961E" d="M230.4,522c0.5,0,0.5,0.5,1,1c0,0.5,0,0.5-0.5,0l-0.5-0.5C229.9,522.5,229.9,521.5,230.4,522z"/>
			<path fill="#FF972C" d="M241.4,515.5c0.5,0.5,1,1,1,1c0.5,0,0,0.5,0,0.5c-0.5-0.5-1-1-1.5-1.5C240.9,515.5,241.4,515,241.4,515.5
				z"/>
			<path fill="#F7961E" d="M224.9,523.5C225.4,524,225.4,524,224.9,523.5c0,0.5-0.5,0.5-0.5,0V523
				C224.4,523.5,224.9,523.5,224.9,523.5z"/>
			<path fill="#FF972C" d="M222.9,528.5L222.9,528.5c0,0.5,0,0.5,0.5,0.5l0,0l0,0c0,0.5,0,0.5-0.5,0l0,0l0,0
				C222.4,528.5,222.4,528.5,222.9,528.5C222.4,528.5,222.4,528,222.9,528.5C222.9,528,222.9,528,222.9,528.5z"/>
			<path fill="#FF972C" d="M239.9,505.5c-0.5-0.5-0.5-0.5-1-1l0,0C239.4,505,239.4,505,239.9,505.5L239.9,505.5z"/>
			<path fill="#FF972C" d="M226.4,520l0.5,0.5c0,0,0,0,0,0.5l0,0l0,0l0,0l0,0C226.4,520.5,226.4,520.5,226.4,520
				C225.9,520,225.9,520,226.4,520z"/>
			<path fill="#F7961E" d="M227.9,525.5L227.9,525.5C227.9,526,227.9,526,227.9,525.5C227.9,526,227.9,525.5,227.9,525.5
				C227.4,525.5,227.4,525.5,227.9,525.5C227.4,525.5,227.4,525.5,227.9,525.5C227.4,525.5,227.4,525.5,227.9,525.5
				C227.4,525.5,227.4,525.5,227.9,525.5C227.4,525,227.9,525,227.9,525.5z"/>
			<path fill="#FF972C" d="M235.9,512L235.9,512c0.5,0,1,0.5,0.5,0.5C236.9,513,236.4,513,235.9,512
				C236.4,512.5,235.9,512.5,235.9,512z"/>
			<path fill="#F7961E" d="M245.4,510.5c0.5,0,0.5,0.5,1,1c0.5,0.5,0.5,0.5,1,1l0,0C246.4,512,245.9,511.5,245.4,510.5L245.4,510.5z
				"/>
			<path fill="#FF972C" d="M234.9,507c0.5,0.5,0.5,1.5,1,1.5l0,0c-0.5,0-0.5-0.5-0.5-0.5s0-0.5-0.5-0.5
				C234.9,507.5,234.4,507.5,234.9,507C234.4,507,234.4,507,234.9,507z"/>
		</g>
		<path fill="#FF972C" d="M239.4,503.5L239.4,503.5c0.5,1,1,1.5,1.5,1.5l0,0c0,0,0-0.5-0.5-0.5l0,0l0.5,0.5l0,0l0,0l0,0l0,0
			c0,0,0,0,0-0.5l0,0l0,0c0,0,0,0,0-0.5l0,0c0,0-0.5,0-0.5-0.5c-0.5-0.5-0.5-0.5-1-1c0,0,0,0,0.5,0c1.5,0,3,1.5,4,2.5s2,2,3,3.5
			c0.5,0.5,0.5,1.5,0.5,2c-1-1-2-1.5-3.5-2.5C242.4,507,240.9,505.5,239.4,503.5z"/>
		<g>
			<path fill="#826729" d="M246.4,508.5c0.5,0,0-0.5,0-0.5s0-0.5-0.5-0.5c0-0.5-1-1.5-1.5-2c-0.5-0.5-1-1-2-1.5c0,0,0,0-0.5,0
				c-0.5,0-1-0.5-1,0c0,0.5,1,1.5,1.5,2.5l0,0c0.5,0.5,0.5,0.5,1,1C244.9,508,245.9,509,246.4,508.5z M245.9,508h0.5l0,0l0,0
				c0,0,0,0,0,0.5C246.4,508.5,245.9,508.5,245.9,508z"/>
			<path fill="#826729" d="M241.4,503.5C241.4,503.5,241.4,504,241.4,503.5c0,0.5,0,1,0,1c0,0.5,0.5,0.5,0.5,1l0,0
				c0-0.5-0.5-0.5-0.5-1C240.9,504,240.9,504,241.4,503.5C240.9,503.5,241.4,503.5,241.4,503.5L241.4,503.5z"/>
			<path fill="#826729" d="M247.4,509L247.4,509c0,2-3.5-2-4.5-2.5l0,0C243.4,507,246.9,510.5,247.4,509z"/>
			<path fill="#826729" d="M225.9,524.5L225.9,524.5c0,0.5,0.5,0.5,0.5,0.5l0,0C225.9,525,225.9,525,225.9,524.5
				C225.9,524.5,225.4,524.5,225.9,524.5C225.4,524.5,225.4,524.5,225.9,524.5C225.4,524.5,225.9,524.5,225.9,524.5z"/>
			<path fill="#826729" d="M220.9,531L220.9,531C220.9,531,220.9,531.5,220.9,531C220.4,531.5,220.4,531,220.9,531
				C220.4,531,220.9,531,220.9,531z"/>
			<path fill="#826729" d="M237.4,509l0.5,0.5l0,0C237.9,509.5,237.9,509,237.4,509C237.4,509,237.4,508.5,237.4,509z"/>
			<path fill="#826729" d="M234.9,520.5c0.5,0,0.5,0.5,1,0.5l0.5,0.5l0,0l-0.5-0.5C235.4,521.5,234.9,521,234.9,520.5L234.9,520.5z"
				/>
			<path fill="#826729" d="M240.9,518l0.5,0.5l0,0C240.9,518.5,240.4,518.5,240.9,518C240.4,518,240.4,518,240.9,518
				C240.4,518,240.4,518,240.9,518z"/>
			<path fill="#826729" d="M246.4,512L246.4,512h0.5l0.5,0.5c0,0,0,0.5,0,0l-0.5-0.5C246.4,512.5,246.4,512.5,246.4,512z"/>
			<path fill="#826729" d="M231.4,512l0.5,0.5l0,0C231.9,513,231.4,512.5,231.4,512c-0.5,0-0.5,0-0.5-0.5l0,0
				C230.9,512,231.4,512,231.4,512z"/>
			<path fill="#826729" d="M237.9,504.5C237.9,505,237.9,505,237.9,504.5C237.9,505,237.9,505,237.9,504.5c0.5,0.5,0.5,0.5,0.5,0.5
				l0,0l0,0l0,0C238.4,505,237.9,505,237.9,504.5C237.9,505,237.9,505,237.9,504.5C237.4,505,237.4,505,237.9,504.5
				C237.4,504.5,237.4,504.5,237.9,504.5z"/>
		</g>
		<path fill="#72923C" d="M236.9,470.4c0.5,1,1,1.5,2,2.5l-0.5-0.5c0,0,0,0,0,0.5c0.5,0.5,1,1,1,1.5l0,0c0,0-0.5,0,0,0
			c0,0.5,0.5,1,1,1.5l0,0h-0.5c0,0.5,0.5,0.5,0.5,1c0,0,0,0,0,0.5c0,0.5,0.5,0.5,0.5,0.5s0,0,0,0.5c0.5,0.5,1,1,1,1.5h0.5
			c0.5,0.5,0.5,1.5,1,2l0,0c0,0,0,0-0.5,0c0,0,0,0-0.5,0c0,0,0,0-0.5,0c0-0.5-0.5-0.5-1-1l0,0c-0.5-0.5-1-1-1.5-1.5l0,0
			c-0.5-0.5-0.5-0.5-1-1l0,0l0,0l0,0l0,0c-0.5,0-1-0.5-1-0.5v0.5c0.5,0,1,0.5,1,0.5s0.5,0,0.5,0.5l0,0v0.5c1,0,2,0,1.5,0.5v0.5
			c0.5,0,0.5,0.5,1,0.5c0,0,0,0.5,0.5,0.5c0,0,0,0,0.5,0v0.5c0,0,0,0,0.5,0c0,0,0,0,0,0.5c0,0,0,0.5,0.5,0.5c0.5,0,1,0,1-0.5v-0.5
			l0,0c0,0,0,0,0-0.5c0,0,0,0,0.5,0.5c0.5,0.5,0.5,1,1,1.5l0,0v-0.5c0.5,1,0.5,2,1,3c0,0.5,0,0.5,0.5,1l0,0c0,0-0.5-0.5-0.5-1h-0.5
			l-0.5-0.5h-0.5l0,0c-0.5-0.5-1-1-1.5-1c0,0-0.5,0,0,0l-0.5-0.5l0,0c-0.5-0.5-0.5-0.5-1-0.5v0.5l0,0l0,0c-0.5,0-1-0.5-1,0
			c0,0,0,0,0,0.5l0,0c-0.5,0-0.5,0-1,0v0.5c0.5,0,1,0.5,1.5,0.5s0.5,0,1,0s0.5,0,0.5,0.5c0,0,0,0.5,0.5,0c0,0,0,0,0.5,0
			c0,0,0,0,0,0.5c0,0,0,0.5,0.5,0.5s0.5,0,1,0l0,0c0,0,0,0,0.5,0.5l0,0c0,0,0,0.5,0.5,0.5h0.5c0,0,0,0.5,0.5,0.5c0,0,0,0,0.5,0
			c0,0,0,0,0.5,0c0,0,0.5-0.5,0.5,0l0,0l0,0c0.5,0.5,0.5,1.5,1,2c0,0.5,0,1,0.5,1c0,0.5,0,1,0.5,1.5l0,0V493l0,0l0,0v-0.5l0,0
			c0,0,0-0.5-0.5-0.5c0,0,0,0-0.5,0c0-0.5,0-0.5-0.5-1c0,0,0,0-0.5,0v-0.5c0,0-0.5-0.5-0.5,0c0,0,0,0,0,0.5c0,0,0-0.5-0.5-0.5h-0.5
			c0,0.5,0,0.5-0.5,0h-0.5c0,0,0,0,0,0.5c0,0,0,0,0.5,0.5l0,0c0,0,0,0,0,0.5c0.5,0,0.5,0,1,0.5l0,0c0,0,0,0,0,0.5c0,0,0.5,0,0.5,0.5
			l0,0l0,0l0,0c0.5,0.5,0.5,0.5,1,1c0.5,0.5,0.5,1,1,1v0.5l0,0c0,0.5,0,0.5,0,1c0,1,0.5,1.5,0.5,2.5s0,2-0.5,3.5
			c0,0.5-0.5,0.5-0.5,1c-0.5,0.5-1,1.5-2,2.5c-3.5-2-4-1.5-4.5-0.5l0.5,0.5c2-1,3-3,4-5c1-1.5,1-4,0.5-6c0-0.5,0-0.5,0-1
			c0,0,0,0,0-0.5v-0.5V493l0,0c0.5,0,0.5-0.5,1-0.5V492l0,0l0,0l0,0l0,0h0.5c0,0,0,0,0.5,0c0,0,0,0,0-0.5c0,0,0,0,0.5,0V491
			c0,0,0.5,0,0.5-0.5V490l0.5-0.5c0,0,0-0.5-0.5-0.5l0,0c0,0-0.5-0.5-0.5,0c0,0,0,0,0,0.5l0,0l0,0c0,0-0.5,0-0.5,0.5l0,0
			c0,0-0.5-0.5-0.5,0c0,0,0,0,0,0.5h-0.5c0,0,0,0.5,0,1c0,0,0,0,0,0.5l0,0c0,0,0,0.5-0.5,1c0-0.5,0-1,0-2s-0.5-2-1-3.5l0,0
			c0,0,0,0,0-0.5l0,0c0,0,0,0,0.5,0c0,0,0,0,0,0.5c0,0,0.5,0.5,0.5,0l0.5-0.5l0,0l0,0l0,0c0.5,0,0.5,0,1,0c0,0,0.5-0.5,0-0.5h0.5
			c0.5,0,0.5-0.5,0-0.5c0,0,0,0,0.5,0c0,0,0,0,0-0.5c0,0,0,0,0.5,0s0-1-0.5-1l0,0c0,0,0,0,0.5,0h0.5V484h0.5c0,0,0-0.5-0.5-0.5
			c0,0,0,0-0.5,0l0,0c0,0,0,0,0.5,0h0.5c0,0,0,0,0.5-0.5v-0.5c0,0,0,0,0-0.5c0,0,0,0,0-0.5c0-0.5,0.5-0.5,0.5-1l-0.5-0.5
			c-0.5,0.5-0.5,1.5-1,2l0,0v-0.5l-0.5-0.5l-0.5,0.5l0,0c0,0-0.5-0.5-0.5,0l-0.5,0.5c0,0,0,0-0.5,0s-0.5,0.5-0.5,1l0,0h-0.5
			c0,0.5,0,1-0.5,1c0,0,0,0-0.5,0s-0.5,1.5-0.5,1.5h-0.5c0-0.5-0.5-1-0.5-1.5c-1,1-1.5,0-2-0.5c0,0,0-0.5-0.5-0.5c0.5,0,0.5,0,1,0
			l0,0c0.5,0,0.5,0,1,0s0-0.5,0-0.5s0,0-0.5,0c0.5,0,0.5-0.5,1-0.5s0-0.5-0.5-0.5l0,0c0,0,0.5,0,0.5-0.5v-0.5l0.5-0.5
			c0,0,0-0.5-0.5-0.5c0-1,0.5-1.5-0.5-2.5c0,0-0.5-0.5-0.5,0c0,0.5,0,1,0,1.5c0,0,0,0.5,0,1l0,0v0.5h-0.5c0,0.5,0,1,0,1.5h-0.5
			c-0.5,0,0,0.5,0,1v0.5c0-0.5,0-0.5,0-1l0,0v0.5l0,0l0,0c0,0.5,0.5,1,0.5,1l0,0l0,0c0,0,0-0.5-0.5-0.5c-0.5-0.5-0.5-1.5-1-2
			l0.5-0.5c0,0,0-0.5-0.5-0.5c0-0.5,0-0.5,0-1c0,0,0-0.5-0.5-0.5c0-0.5,0-1,0-1c0-0.5-0.5-0.5-0.5-0.5l0,0c0-0.5,0-1,0-1.5
			c0-0.5-0.5-0.5-0.5-0.5v0.5l0,0c0-0.5-0.5-0.5-0.5-0.5l0,0c0-0.5,0-0.5,0-1l-0.5-0.5c0,0,0,0-0.5,0c-0.5-0.5-0.5-1-1-1.5
			C238.4,471.4,237.9,470.9,236.9,470.4C237.4,470.4,236.9,470.4,236.9,470.4z M244.9,480.9C244.9,480.9,244.4,480.9,244.9,480.9
			L244.9,480.9L244.9,480.9z M248.4,493C248.4,493,248.9,493,248.4,493C248.9,493,248.9,493,248.4,493
			C248.9,493,248.9,493,248.4,493C248.9,493,248.9,493,248.4,493C248.9,493,248.9,493,248.4,493C248.9,493,248.9,493,248.4,493z
			 M244.4,489.5L244.4,489.5L244.4,489.5L244.4,489.5z M245.4,490L245.4,490C245.4,489.5,245.4,489.5,245.4,490
			c-0.5-0.5-0.5-0.5-0.5-0.5l0,0l0,0C244.9,489.5,244.9,489.5,245.4,490C245.4,489.5,245.4,490,245.4,490
			C245.4,489.5,245.4,489.5,245.4,490L245.4,490z M245.9,490.5C245.4,490.5,245.4,490.5,245.9,490.5
			C245.4,490.5,245.4,490.5,245.9,490.5C245.4,490.5,245.4,490.5,245.9,490.5C245.4,490.5,245.9,490.5,245.9,490.5z M248.4,486.5
			L248.4,486.5L248.4,486.5L248.4,486.5z M247.9,485.5L247.9,485.5C247.9,486,247.9,486,247.9,485.5c0,0.5,0,0.5,0,1
			C247.9,486,247.9,486,247.9,485.5z M248.9,485C248.9,485.5,248.9,485.5,248.9,485C248.9,485.5,248.9,485.5,248.9,485
			c0,0.5,0,0.5,0,0.5C248.4,485.5,248.4,485,248.9,485L248.9,485z M249.4,485L249.4,485v-0.5C249.4,484.5,249.4,484.5,249.4,485z
			 M247.4,486.5L247.4,486.5C247.4,486.5,247.4,487,247.4,486.5C247.4,487,247.4,487,247.4,486.5c0,0.5,0,0.5,0,0.5s0,0,0,0.5l0,0
			C247.4,487.5,247.4,487,247.4,486.5C247.4,487,247.4,486.5,247.4,486.5z M239.4,485.5C239.4,485.5,239.9,485.5,239.4,485.5
			C239.9,485.5,239.9,485.5,239.4,485.5C239.9,485.5,239.4,485.5,239.4,485.5z M240.4,485C240.4,485,239.9,485,240.4,485
			C239.9,485,239.9,485,240.4,485C239.9,485,239.9,485,240.4,485C239.9,485,240.4,485,240.4,485z M241.9,486h-0.5l0,0c0,0,0,0,0-0.5
			C240.9,485,241.9,485.5,241.9,486L241.9,486z M242.9,486.5L242.9,486.5L242.9,486.5C242.4,486.5,242.4,486.5,242.9,486.5
			c-0.5,0-0.5-0.5-0.5-0.5h-0.5l0,0l0,0l0,0h0.5L242.9,486.5z M243.4,486L243.4,486L243.4,486L243.4,486z M243.9,487L243.9,487
			c0,0-0.5,0-0.5-0.5l0,0l0,0l0,0C243.4,486.5,243.4,486.5,243.9,487C243.9,486.5,243.9,486.5,243.9,487z M245.4,487.5L245.4,487.5
			C244.9,487.5,244.9,487.5,245.4,487.5c-0.5-0.5-1-0.5-1-0.5l0,0l0,0l0,0C244.4,487,244.9,487,245.4,487.5
			C244.9,487.5,244.9,487.5,245.4,487.5L245.4,487.5z M243.9,481.9C243.9,482.5,243.9,482.5,243.9,481.9
			C243.9,482.5,243.9,482.5,243.9,481.9L243.9,481.9z M241.9,480.9c-0.5,0-0.5,0-1-0.5c0,0,0,0,0-0.5
			C241.4,480.4,241.9,480.9,241.9,480.9L241.9,480.9L241.9,480.9z M241.9,478.4C241.9,478.9,241.9,478.9,241.9,478.4
			C241.9,478.9,241.9,478.9,241.9,478.4L241.9,478.4z M241.9,477.9L241.9,477.9L241.9,477.9c0.5,0.5,0.5,0.5,0.5,1v0.5
			C242.4,478.4,241.9,477.9,241.9,477.9z M241.4,476.9L241.4,476.9C241.4,476.4,241.4,476.4,241.4,476.9
			C241.4,476.4,241.4,476.4,241.4,476.9C241.4,476.4,241.4,476.9,241.4,476.9z M240.4,476.4C240.9,476.9,240.9,476.9,240.4,476.4
			C240.9,476.9,240.9,476.9,240.4,476.4c0.5,0.5,0.5,0.5,1,1C240.9,477.4,240.9,476.9,240.4,476.4z M240.4,475.4L240.4,475.4
			C240.4,475.4,240.9,475.4,240.4,475.4C240.9,475.4,240.9,475.4,240.4,475.4C240.9,475.4,240.4,475.4,240.4,475.4z M239.9,474.9
			C239.9,475.4,239.9,475.4,239.9,474.9c0.5,0.5,0.5,0.5,0.5,0.5S239.9,475.4,239.9,474.9z M238.9,473.4l0.5,0.5
			C239.4,473.9,238.9,473.9,238.9,473.4z"/>
		<path fill="#1E9216" d="M254.4,491.5v0.5l0,0l0,0l0,0l0,0c0,0,0,0.5,0,1h-0.5c0,0.5,0,0.5,0,1c0,0,0,0-0.5,0c0,0,0,0.5,0,1
			c0,0,0,0.5,0,1l0,0c0,0.5,0.5,0.5,0.5,1c0,0,0,0,0,0.5c0,0.5,0,1,0,1s0,0-0.5,0l0,0l0,0c-0.5,0.5-1,0.5-1.5,1c0.5-0.5,0.5-1,0.5-2
			c0,0,0-0.5,0.5-0.5l0,0c0-0.5,0-0.5,0-1c0,0,0-0.5-0.5-0.5V495c0-0.5-0.5-0.5-0.5-1c0,0,0-0.5-0.5-0.5c0-0.5-0.5-0.5-0.5-1
			c0-0.5-0.5-0.5-0.5,0v0.5l0,0c0,0,0,0.5,0,1c0,0-0.5,0,0,0l0.5,0.5l0,0c0,0.5,0.5,0.5,0.5,1l0,0c0,0,0,0.5,0.5,0.5l0,0
			c0,0.5,0,0.5,0,1l0,0l0,0l0,0l0,0c0,0,0,0,0,0.5c0,0.5,0,1.5-0.5,2c-1,1-2.5,1.5-3.5,2.5c-1,0.5-2,1-2.5,2c0.5,1-0.5,2-1,3
			l0.5,0.5c1-0.5,2-1,2.5-2c0.5-0.5,1-1,1.5-1.5c1.5-1,2.5-2,4-2.5c1-0.5,1.5-1.5,2.5-2c0,0,0.5,0,0.5,0.5c0,0.5,0.5,0.5,0.5,1
			c0.5,0.5,0.5,1.5,1,2h0.5c0,0,0,0,0-0.5c0.5,0.5,0.5,1,1,1.5h0.5v-0.5c0.5,0.5,1,1,1,0.5l0,0c0,0.5-0.5-0.5-0.5-0.5s0,0,0.5,0
			c0,0,0,0,0.5,0.5c0,0,0,0,0.5,0c0,0,0,0.5,0.5,0.5c0,0,0.5,0.5,0.5,0l0.5,0.5l0,0l0.5,0.5l0,0v0.5h0.5c0-0.5,0-0.5,0-1l0,0l0,0
			c0.5,0.5,0.5,0.5,1,1c0,0,0.5,0,0-0.5c0-0.5-0.5-0.5-0.5-0.5l0,0v-0.5l0,0l0,0V504c0,0-0.5,0-0.5-0.5V503h-0.5l0,0v-0.5H263l0,0
			V502c-0.5,0-0.5,0-0.5,0l0,0l0,0c-0.5-0.5-0.5-0.5-1-0.5c0-0.5-0.5-0.5-1-0.5s-0.5-0.5-0.5-0.5c-0.5,0-0.5,0-1.5-0.5l0,0
			c0,0-0.5,0-0.5-0.5c0,0-0.5,0-0.5-0.5l0,0l0,0l0,0c0,0,0.5,0,0.5-0.5c0.5,0,0.5,0,0.5,0l0.5-0.5c0.5,0,0.5-0.5,1-0.5
			c0.5,0,0.5,0,1,0c0,0,0,0,0,0.5c0,0,0,0.5,0.5,0.5c0.5,0,0.5,1,1,1h0.5l0,0l0.5,0.5h0.5l0.5,0.5h0.5c0,0.5,0.5,0.5,0.5,0.5
			c0.5,0,0.5,0,0.5-0.5c0,0.5,0.5,0.5,0.5,1h0.5V501c-2,0.5-2,1-1.5,1.5l0,0V502c0,0,0.5,0,0.5,0.5l0,0c0,0,0,0.5,0.5,0.5l0,0v-0.5
			h0.5l0,0l0.5,0.5l0,0c-0.5-0.5-1-0.5-1.5-1c0,0,0,0,0-0.5l-0.5-0.5l0,0c0,0,0-0.5-0.5-0.5c-0.5,0-0.5,0-1,0l0,0V500
			c-0.5,0-0.5,0-0.5,0l0,0c0,0,0-0.5-0.5-0.5h-0.5c0-0.5-0.5-0.5-1-0.5l0,0c0,0,0-0.5-0.5-0.5h-0.5l0,0c0,0,0-0.5-0.5-0.5h-0.5l0,0
			c0,0,0-0.5-0.5-0.5c-0.5,0-0.5,0-1,0l0,0c0,0,0,0-0.5,0c0.5,0,0.5-0.5,1-0.5c0,0,0,0,0.5-0.5c0.5,0,1,0.5,1,0l0,0h0.5
			c0,0,0,0,0.5,0c0,0,0,0,0-0.5l0,0c0,0,0,0,0.5,0l0,0l0,0l0,0c0.5,0,1,0.5,1,0c0,0,0,0,0-0.5l0,0c0.5,0,0.5-0.5,0-0.5l0,0
			c2.5,0,3,0,3,0c0.5,0,0-0.5,0-0.5c0.5,0,1,0,1.5-0.5v-0.5l0.5-0.5v-0.5l0,0V492c0,0,0,0-0.5,0c0,0,0,0-0.5,0c-0.5,0.5-0.5,0.5-1,1
			l0,0l-0.5-0.5h-0.5c0,0-0.5-0.5-0.5,0c-0.5,0-0.5,0.5-0.5,0.5s0,0-0.5,0c-0.5,0-0.5,0.5-1,0.5c0,0,0,0-0.5,0c-0.5,0-0.5,0.5-1,1
			l0,0v0.5l0,0c0,0,0,0,0,0.5l0,0c0-0.5-0.5-0.5-0.5,0l0,0l-0.5,0.5c-0.5,0-1,0.5-1,0.5V496v-0.5c0.5,0,0.5-0.5,0.5-0.5
			c0-0.5,0.5-0.5,0.5-1c0,0,0-0.5-0.5-0.5c0,0,0,0,0.5-0.5c0,0,0-0.5-0.5-0.5l0,0c0-0.5-0.5-0.5-0.5-0.5l0,0c0-0.5,0-1,0-2v-0.5
			c0,0,0,0,0-0.5l0,0c0-0.5,0-0.5,0-1c0-0.5,0-1-0.5-1.5c0,0-0.5-0.5-0.5,0c0,0.5,0,1.5,0.5,2l0,0c0,0.5,0,0.5,0,1
			c0,0-0.5-0.5-0.5,0c0,0.5,0,0.5,0,1l0,0c0,0.5,0,1,0.5,1.5l0,0c0,0,0,0.5,0,1l0,0c0,0.5,0,0.5,0,1c0,0.5-0.5,1-0.5,1
			c-0.5,0.5-0.5,1-0.5,1.5l-0.5,0.5c0,0,0-0.5,0-1c0.5-0.5,0.5-1,1-1.5c0,0,0-0.5-0.5-0.5l0,0c0,0,0-0.5-0.5-0.5c0,0,0-0.5,0.5-0.5
			c0,0,0-0.5-0.5-0.5V492v-0.5V491v-0.5c0,0,0,0,0-0.5c0,0,0-0.5-0.5-0.5l0,0c0-0.5-0.5-1-0.5-1.5h-0.5
			C253.9,490.5,254.4,491,254.4,491.5z M257.9,491.5L257.9,491.5C257.4,491,257.4,491,257.9,491.5
			C257.9,491,257.9,491.5,257.9,491.5z M258.4,494L258.4,494c0-0.5,0-1,0-1l0,0C258.4,493.5,258.4,493.5,258.4,494L258.4,494z
			 M266,493L266,493C266,493,266,493.5,266,493L266,493z M265.5,493.5C265.5,493.5,265,493.5,265.5,493.5
			C265,493.5,265,493.5,265.5,493.5L265.5,493.5L265.5,493.5L265.5,493.5L265.5,493.5z M263.5,495L263.5,495L263.5,495
			C263.5,495.5,263.5,495.5,263.5,495C263.5,495.5,263.5,495.5,263.5,495C263.5,495.5,263.5,495,263.5,495z M265.5,501.5
			L265.5,501.5C266,501.5,266,501.5,265.5,501.5C266,501.5,266,501.5,265.5,501.5C266,501.5,266,501.5,265.5,501.5
			C266,501.5,266,501.5,265.5,501.5L265.5,501.5z M265,500.5C265.5,500.5,265.5,500.5,265,500.5C265.5,500.5,265.5,501,265,500.5
			C265.5,501,265.5,501,265,500.5C265.5,501,265.5,500.5,265,500.5z M264,501C264,501,264.5,501,264,501
			C264.5,501.5,264.5,501.5,264,501C264.5,501.5,264,501,264,501z M263.5,500C263.5,500,264,500,263.5,500
			C264,500,264,500,263.5,500C264,500,264,500,263.5,500C264,500,264,500,263.5,500C264,500,264,500,263.5,500
			C264,500,264,500,263.5,500L263.5,500z M263,499.5L263,499.5L263,499.5L263,499.5L263,499.5L263,499.5z M262,499.5L262,499.5
			L262,499.5L262,499.5L262,499.5L262,499.5L262,499.5z M261,498.5L261,498.5C261.5,498.5,261.5,499,261,498.5
			C261,499,261,499,261,498.5C261,499,261,499,261,498.5z M259.9,498L259.9,498C260.5,498,260.5,498,259.9,498
			C260.5,498.5,260.5,498.5,259.9,498C260.5,498.5,260.5,498.5,259.9,498C259.9,498.5,259.9,498,259.9,498z M262.5,504L262.5,504
			L262.5,504L262.5,504z M260.5,502L260.5,502L260.5,502L260.5,502z M258.9,502l0.5,0.5l0,0v0.5C258.9,502.5,258.9,502,258.9,502z
			 M257.9,500.5C257.9,500.5,257.9,501,257.9,500.5C257.9,501,257.9,501,257.9,500.5L257.9,500.5z M257.4,496.5
			C257.4,496.5,257.4,497,257.4,496.5c0,0.5-0.5,0.5-0.5,0.5l0,0l0,0l-0.5,0.5l0,0V497C256.9,497,257.4,497,257.4,496.5z M258.4,495
			C257.9,495,257.9,495,258.4,495C257.9,495,257.9,495,258.4,495C257.9,495,257.9,494.5,258.4,495
			C258.4,494.5,258.4,494.5,258.4,495C258.4,494.5,258.4,494.5,258.4,495z M258.4,494.5L258.4,494.5
			C258.4,494.5,258.9,494.5,258.4,494.5L258.4,494.5z M257.4,495.5C257.9,495.5,257.9,495.5,257.4,495.5
			C257.9,495.5,257.9,495.5,257.4,495.5C257.9,495.5,257.9,495.5,257.4,495.5c0,0.5,0,0.5,0,1C257.9,496,257.9,495.5,257.4,495.5z
			 M252.9,495.5L252.9,495.5L252.9,495.5c0-0.5,0-0.5,0-0.5s0-0.5-0.5-0.5l0,0l0,0C252.9,495,252.9,495.5,252.9,495.5z M252.9,496.5
			l-0.5-0.5C252.4,496,252.4,496,252.9,496.5C252.9,496,252.9,496.5,252.9,496.5z M252.9,497C252.9,497,252.9,496.5,252.9,497
			C252.9,496.5,252.9,496.5,252.9,497C252.9,496.5,252.9,497,252.9,497z M255.4,496.5L255.4,496.5L255.4,496.5L255.4,496.5z
			 M254.9,496L254.9,496C254.9,496.5,254.9,496.5,254.9,496C254.9,496.5,254.9,496.5,254.9,496z M254.9,495L254.9,495
			c0,0.5,0,0.5,0,1l0,0C254.9,495.5,254.9,495.5,254.9,495C254.4,495,254.4,495,254.9,495C253.9,494,254.9,495,254.9,495z
			 M254.9,494c0,0.5,0,0.5,0,1C254.9,494.5,254.4,494,254.9,494C254.4,493,254.4,493.5,254.9,494z"/>
		<path fill="#84EB14" d="M248.9,485.5c0,0,0,0.5,0.5,0.5l0,0c0,0,0,0.5,0.5,0.5l0,0c0,0.5,0,1,0.5,1l0,0c0,0.5,0.5,0.5,0.5,1l0,0
			c0,0,0,0.5,0.5,1l0,0v0.5l0,0c0,0.5,0.5,0.5,0.5,1l0,0v0.5v0.5l0,0l0,0v0.5l-0.5,0.5l0,0c-1.5,2.5-1.5,3-2,4c-0.5,1-1,1.5-1.5,2.5
			c-1,1-2,2-2.5,3s-1,1.5-2,2.5c0,0,0,0,0,0.5l0,0c0,0.5,0.5,0.5,0.5,0.5l0,0l0,0c0.5-0.5,1-1,1-1.5c0-0.5,0.5-0.5,0.5-1
			c0.5-0.5,1-1.5,1.5-2c0.5-1,1.5-2,2-3s1-1.5,1.5-2.5c0.5-0.5,1-1,1-1.5c0-0.5,0-0.5,0-1l0,0c0.5,0,1,0,1.5,0c0.5,0,1,0.5,1.5,0.5
			l0,0h0.5l0,0h0.5l0,0h0.5l0,0h0.5l0,0l0,0l0,0l0,0l0,0c0.5,0,0.5,0,0.5,0s0,0,0-0.5l0,0l0,0l0,0c0.5,0,1,0,1.5,0V493h-0.5l0,0l0,0
			l0,0l0,0l0,0c-0.5,0-1,0-1,0l0,0l0,0l0,0h-0.5c0,0,0,0-0.5,0c-0.5,0-0.5,0.5-1,0.5l0,0c0,0,0-0.5-0.5,0c-0.5,0-1,0.5-1.5,0.5
			s-1,0-1.5,0v-0.5c0,0,0-0.5,0.5-0.5s1,0,1,0l0,0c0.5,0,1,0,0.5-0.5l0,0l0,0c0.5,0,0.5,0,1-0.5c0,0,0,0,0-0.5c0.5,0,0.5,0,0.5-0.5
			v-0.5c0.5,0,0.5,0,0.5-0.5v-0.5c-0.5,0-1,0-1,0c0.5-0.5,1-0.5,1.5-1c0,0,0-0.5-0.5-0.5l0,0c0.5-0.5,0.5-1,0-1s-1,0.5-1,0.5
			s-0.5-0.5-0.5,0c0,0,0,0.5-0.5,1l0,0h-0.5v0.5l0,0h-0.5v0.5l0,0c0,0,0,0-0.5,0c0,0,0,0.5-0.5,0.5l0,0c0,0,0,0,0-0.5h-0.5
			c0,0.5,0,1,0,1.5c0,0.5,0,1,0,1.5l0,0l0,0l0,0l0,0V492l0,0c0-0.5,0-0.5-0.5-0.5l0,0c0-0.5,0-1,0-1l0,0V490l0,0v-0.5c0,0,0,0-0.5,0
			V489l0,0C250.4,486.5,249.4,485.5,248.9,485.5C248.9,485,248.9,485.5,248.9,485.5z M257.4,492.5
			C257.4,492.5,257.9,492.5,257.4,492.5C257.9,492.5,257.9,492.5,257.4,492.5L257.4,492.5z M257.9,492L257.9,492
			C257.9,492,258.4,492,257.9,492C258.4,492,258.4,492,257.9,492C258.4,492,258.4,492,257.9,492L257.9,492L257.9,492z M256.4,492.5
			L256.4,492.5L256.4,492.5C256.4,492,256.4,492.5,256.4,492.5z M256.9,492.5L256.9,492.5L256.9,492.5L256.9,492.5L256.9,492.5z
			 M256.4,492.5L256.4,492.5C256.4,492.5,256.4,493,256.4,492.5C256.4,493,256.4,492.5,256.4,492.5z M255.9,493L255.9,493L255.9,493
			L255.9,493z M255.4,492.5C255.9,492.5,255.9,492.5,255.4,492.5C255.9,492.5,255.9,492.5,255.4,492.5
			C255.9,492.5,255.9,492.5,255.4,492.5z M254.4,492.5L254.4,492.5c0.5,0,0.5,0,0.5,0l0,0l0,0C254.9,492.5,254.9,492.5,254.4,492.5
			C254.9,492.5,254.9,492.5,254.4,492.5C254.9,492.5,254.4,492.5,254.4,492.5L254.4,492.5z M253.4,490c0-0.5,0-0.5,0-1v-0.5
			C253.4,489,253.4,489.5,253.4,490L253.4,490L253.4,490z M253.4,491L253.4,491C253.4,491,253.9,491,253.4,491L253.4,491L253.4,491
			L253.4,491z M253.9,490L253.9,490L253.9,490c0.5,0,0.5,0,0.5,0C253.9,490.5,253.9,490.5,253.9,490
			C253.4,490.5,253.4,490.5,253.9,490L253.9,490z M253.9,489.5L253.9,489.5L253.9,489.5L253.9,489.5z M251.9,491.5L251.9,491.5
			L251.9,491.5L251.9,491.5L251.9,491.5L251.9,491.5z M250.9,491C251.4,491,251.4,491,250.9,491v0.5
			C251.4,491.5,251.4,491,250.9,491z M250.9,490L250.9,490l0.5,0.5C250.9,490.5,250.9,490,250.9,490z M250.9,489.5L250.9,489.5
			L250.9,489.5C251.4,489.5,251.4,489.5,250.9,489.5L250.9,489.5z M250.9,488.5L250.9,488.5L250.9,488.5L250.9,488.5z M249.9,487.5
			L249.9,487.5L249.9,487.5L249.9,487.5C249.9,487.5,249.4,487,249.9,487.5z"/>
		<path fill="#84EB14" d="M243.9,506c-0.5,0.5,0.5,1,0.5,0.5c0.5-0.5,1.5,0,2,0c1,0,1.5,0,2.5,0s2.5,0,3.5,0l0.5,0.5c0,0,0,0,0,0.5
			c0.5,0,0.5,0.5,0.5,1l0,0c0,0,0,0,0,0.5h0.5l0,0c0,0.5,0,0.5,0.5,1h0.5c0-0.5,0.5,0.5,0.5,0.5l0,0l0,0c0,0.5,0,0.5,0.5,1l0,0l0,0
			l0,0l0,0l0,0l0,0l0,0l0,0c0,0,0,0,0.5,0.5l0,0c0-0.5-1-1-1.5-1.5c0-0.5,0-0.5-0.5-1c0,0,0,0,0-0.5c0,0-0.5,0-0.5-0.5l0,0
			c-0.5-0.5-1-0.5-1.5-0.5c0,0-0.5,0-0.5-0.5l0,0c0.5,0,1.5,0,2,0l0.5,0.5c0,0,0,0,0,0.5l0,0c0,0.5,0,0.5,0.5,1l0,0v0.5l0,0
			c0,0,0,0.5,0.5,0.5l0,0c0,0,0,0.5,0.5,0.5l0,0l0,0l0,0l0,0c0,0,0,0,0-0.5l0,0l0,0l0,0c-0.5,0-0.5-0.5-0.5-1l0,0l0,0
			c0,0.5,0,0.5,0.5,1l0,0c0,0.5,0.5,0.5,0.5,1l0,0c0,0,0.5,0,0,0c-0.5-0.5-0.5-1-1-1.5l0,0l0,0l0,0l0,0l0,0l0,0c0,0,0,0,0.5,0l0,0
			l-0.5-0.5c0,0-0.5-0.5,0-0.5c0,0,0,0,0-0.5l0,0c0,0,0,0,0.5,0c0,0,0,0,0-0.5c0,0-0.5,0-0.5-0.5V507h-0.5c0-0.5,0-0.5-0.5-1
			c-0.5,0-0.5,0-0.5-0.5l-0.5-0.5h0.5l0,0c0.5,0.5,1,1,1.5,1c0,0,0.5,0,0,0l0,0l0.5,0.5c0,0,0.5,0,0-0.5c0,0,0,0,0-0.5l0,0l0,0
			c0,0,0,0,0,0.5c0,0.5,0.5,0.5,0.5,0.5l0,0V506l0.5,0.5l0,0l0,0c0,0.5,0.5,0.5,1,0.5l0,0l0,0l0,0h0.5l0,0c0-0.5-0.5-0.5-1-1
			c0,0,0,0-0.5-0.5c0,0,0.5,0,0.5,0.5l0,0l0,0l0,0l0,0l0,0l0,0l0,0l0,0l0,0l0,0l0,0l0,0c0,0,0.5,0,0.5,0.5V506l0,0l0,0l0,0v-0.5
			c0,0,0,0-0.5,0c0,0,0-0.5-0.5-0.5h-0.5l0,0c0,0,0-0.5-0.5-0.5c0,0,0,0-0.5,0l0,0l0,0V504c0,0,0,0-0.5,0l0,0l0,0c0,0,0-0.5-0.5,0
			l0,0l0,0l0,0c0,0,0,0,0-0.5c0,0,0,0,0-0.5h-0.5l0,0c0,0,0-0.5-0.5-0.5s-1,0-1,0l0,0c-0.5,0-0.5,0.5-1,0.5c0,0,0,0,0,0.5l0,0l0,0
			c-0.5,0-0.5,0-1,0c0,0,0,0,0-0.5l0,0c0.5-0.5,0.5-1,0.5-1.5l0,0c0,0,0,0,0-0.5l0,0l0,0c0-0.5,0-0.5,0-1c0,0,0-0.5-0.5,0l0,0
			c0-0.5,0-0.5-0.5-1c0-0.5-0.5-0.5-0.5-1c0,0-0.5-0.5-0.5,0v0.5l0,0c0,0.5,0,0.5,0,1l0,0c0,0.5,0,0.5,0.5,1l0,0c0,0,0,0.5,0,1l0,0
			c5.5,3.5,6,3.5,6,4l0,0c0,0.5,0,0.5-0.5,0.5l0,0l0,0l0,0c-0.5,0-1,0-2,0h-0.5c0,0,0,0,0-0.5l0,0l0,0l0,0c0.5,0,1-0.5,1-1
			c0,0,0,0,0-0.5l0,0v-0.5c0-1,0-2-0.5-2.5h-0.5c0,0.5,0,1,0,1l0,0v0.5l0,0v0.5l0,0v0.5c0,0.5,0,1,0,1.5l0,0c-1,0-2.5,0-3.5,0
			c-1,0-2.5-0.5-3.5-0.5C244.4,505.5,244.4,505.5,243.9,506z M252.9,505.5V505h0.5v-0.5l0,0V504l0,0c0,0.5,0,1,0,1
			C252.9,505,252.9,505,252.9,505.5z M255.4,504C255.4,504,255.4,503.5,255.4,504c0-0.5,0-0.5,0-0.5s0-0.5-0.5-0.5c0,0,0,0,0,0.5
			l0,0C255.4,503.5,255.4,503.5,255.4,504z M255.9,504v-0.5C255.9,503.5,255.9,503.5,255.9,504C255.9,503.5,255.9,504,255.9,504z
			 M255.9,504.5L255.9,504.5L255.9,504.5C255.9,504.5,255.9,504,255.9,504.5C255.9,504,255.9,504,255.9,504.5z M257.9,510L257.9,510
			L257.9,510L257.9,510c0.5,0.5,0.5,0.5,1,1c0,0,0.5,0,0.5,0.5c0,0,0,0-0.5,0C258.4,511,258.4,510.5,257.9,510
			C257.9,510.5,257.9,510,257.9,510z M257.4,509L257.4,509L257.4,509L257.4,509L257.4,509z M256.9,509c0,0,0,0.5,0.5,0.5v0.5l0,0
			l0,0c0,0,0,0,0-0.5C257.4,509.5,256.9,509.5,256.9,509C256.9,509.5,256.9,509,256.9,509z M256.9,508
			C256.9,508.5,256.9,508.5,256.9,508C256.9,508.5,256.9,508.5,256.9,508z M257.4,506.5C257.4,506.5,256.9,506.5,257.4,506.5
			c-0.5,0-0.5,0-0.5,0S256.9,506.5,257.4,506.5C256.9,506.5,256.9,506.5,257.4,506.5C256.9,506.5,257.4,506.5,257.4,506.5
			L257.4,506.5L257.4,506.5z M258.4,507L258.4,507C257.9,507,257.9,507,258.4,507C257.9,507,257.9,507,258.4,507L258.4,507
			L258.4,507L258.4,507z M257.9,506.5L257.9,506.5L257.9,506.5L257.9,506.5z M258.4,506.5C258.4,506.5,257.9,506.5,258.4,506.5
			L258.4,506.5C258.4,506,258.9,506,258.4,506.5C258.9,506.5,258.9,506.5,258.4,506.5z M259.4,507L259.4,507L259.4,507L259.4,507z
			 M261,508.5L261,508.5C260.5,508.5,260.5,508.5,261,508.5C260.5,508,260.5,508,261,508.5C260.5,508,260.5,508,261,508.5
			C260.5,508,260.5,508,261,508.5C260.5,508,260.5,508,261,508.5C260.5,508,260.5,508,261,508.5C261,508,261,508.5,261,508.5z
			 M259.9,508C259.9,508,260.5,508.5,259.9,508C260.5,508.5,260.5,508.5,259.9,508C260.5,508.5,259.9,508.5,259.9,508z M259.4,508
			L259.4,508c0.5,0.5,0.5,0.5,0.5,1C259.4,508.5,259.4,508,259.4,508L259.4,508z M259.4,507.5L259.4,507.5L259.4,507.5L259.4,507.5z
			 M257.9,507.5C257.9,507.5,257.9,507,257.9,507.5C257.9,507,257.9,507,257.9,507.5C257.9,507,257.9,507.5,257.9,507.5
			C258.4,507.5,258.9,508.5,257.9,507.5L257.9,507.5z M257.4,507C257.4,507.5,257.4,507.5,257.4,507
			C257.9,507.5,257.9,507.5,257.4,507C257.4,507.5,257.4,507.5,257.4,507C257.4,507.5,257.4,507.5,257.4,507z M253.9,508
			C254.4,508,254.4,508,253.9,508C254.4,508,254.4,508,253.9,508C254.4,508,254.4,508,253.9,508z"/>
	</g>
</g>
</svg>
