<?xml version="1.0" encoding="utf-8"?>
<!-- Generator: Adobe Illustrator 18.0.0, SVG Export Plug-In . SVG Version: 6.00 Build 0)  -->
<!DOCTYPE svg PUBLIC "-//W3C//DTD SVG 1.1//EN" "http://www.w3.org/Graphics/SVG/1.1/DTD/svg11.dtd">
<svg version="1.1" id="Layer_1" xmlns="http://www.w3.org/2000/svg" xmlns:xlink="http://www.w3.org/1999/xlink" x="0px" y="0px"
	 viewBox="0 0 77.4 68.5" enable-background="new 0 0 77.4 68.5" xml:space="preserve">
<circle fill="#37505F" cx="38.7" cy="34.2" r="32"/>
<g>
	<g>
		<path fill="#FFFFFF" d="M63.9,44.5l-36.7,0c-1.8,0-3.4-0.8-4.7-2.4c-1.3-1.6-2.3-4.6-0.5-7.6c1.6-2.7,3.5-3,5.2-3
			c9.1,0,36.4,0,36.7,0l0,2.4c-0.3,0-27.6,0-36.7,0c-0.9,0-2,0-3.1,1.9c-1.1,1.9-0.6,3.8,0.3,4.8c0.8,1,1.8,1.5,2.9,1.5h36.7V44.5z"
			/>
	</g>
	<path fill="#FFFFFF" d="M58.4,55H18.1v-9.3h40.3V55z M54.3,47.7h-1.7V53h1.7V47.7z M22.9,47.7h-1.7V53h1.7V47.7z M39.1,47.8
		l-2.5,2.6l2.5,2.6l2.5-2.6L39.1,47.8z"/>
	<path fill="#FFFFFF" d="M33.3,14.3c0.5,0.2,1,0.4,2.3,0.2c1.3-0.2,2.2-0.8,3.8-0.5c2,0.4,4.3,2,4.4,6.2c0.1,4.6-1.1,8.4-3.9,9.8
		c-2.8,1.4-6.3,1.7-9.1,0.5c-2.7-1.1-5-3.6-4.9-8.9c0.1-4.7,2.8-6.8,4.5-7.4C31.4,13.8,32.3,14.1,33.3,14.3z M32,17.6
		c-1.1,0.2-1.9,1.4-1.8,3.8c0.1,2.3,1.2,3.4,2.1,3.2c1-0.2,1-1.2,1-2.3c-0.1-1.1,0-2.9,0-2.9C33.4,18.2,33.1,17.4,32,17.6z"/>
	<path fill="#FFFFFF" d="M35.4,8.4c0,0-0.7,2.2-0.9,3.2c-0.2,1,0.1,1.7,0.7,1.8c0.7,0.1,1.3-0.2,1.4-2.8c0.2-2.5,0-3-0.4-3.1
		C35.9,7.5,35.6,7.8,35.4,8.4z"/>
	<path fill="#FFFFFF" d="M44.4,6.2c0,0-0.4,2.6-2.3,3.9c-1.8,1.3-3.1,1.1-3.9,0.5c-0.7-0.5-1.1-1.7-0.1-2.8c1-1.1,2.9-1.4,4.1-1.3
		C43.4,6.5,44.4,6.2,44.4,6.2z"/>
	<path fill="#FFFFFF" d="M62.2,33.6c0,0-0.9,1.6-0.8,4.1c0.1,2.7,1.1,4.6,1.1,4.6h-2.1c0,0-1-1.4-1.1-4.3c-0.1-2.9,0.6-4.4,0.6-4.4
		H62.2z"/>
</g>
</svg>
