<?xml version="1.0" encoding="utf-8"?>
<!-- Generator: Adobe Illustrator 18.0.0, SVG Export Plug-In . SVG Version: 6.00 Build 0)  -->
<!DOCTYPE svg PUBLIC "-//W3C//DTD SVG 1.1//EN" "http://www.w3.org/Graphics/SVG/1.1/DTD/svg11.dtd">
<svg version="1.1" id="Layer_1" xmlns="http://www.w3.org/2000/svg" xmlns:xlink="http://www.w3.org/1999/xlink" x="0px" y="0px"
	 viewBox="0 0 68.1 68.5" enable-background="new 0 0 68.1 68.5" xml:space="preserve">
<circle fill="#F89F6B" cx="34.1" cy="34.2" r="32"/>
<g>
	<path fill-rule="evenodd" clip-rule="evenodd" fill="#FFFFFF" d="M48,37.8c-1-0.1-1.2,0-1.3-2.2c0-1.3,1.8-1.3,3.2-0.5
		c0.9,0.5,1.3-0.4,1.2-0.8C50.3,31,51.3,27,51.3,27s0.4-3.3,0.3-3.9c-0.4-4.5-3.3-7.4-7.7-7.4c-1.7,0-3.2,0.4-4.5,1.4
		c-0.4,0.4-0.9,1.3-0.7,2.1c0.2,1.1,0.3,2.2,0.3,3.4c0,1.9,0,4.3-0.8,6.2c-0.5,1.3-1.1,1.9-1.1,3.5c-0.1,1.2-0.3,1.4-0.4,2.2
		c-0.1,0.8,0.7,0.9,1.4,0.5c1.4-0.8,2.9-0.5,2.8,0.5c0,0.3,0,0.5,0,0.7c-0.1,0.7,0.2,1.2,0.8,1.6c1.4,1,3,1.9,2.9,6.6
		c0,0.7-0.1,1.3-0.1,1.9c-0.1,0.8,0.4,1.4,1,1.4c1.1,0,2.5,0,3.8,0c2.5-0.1,2.8-0.1,3.1-4.5C52.8,37.7,50.9,38.2,48,37.8z
		 M37.8,38.7c0,0-3.5-0.7-4.8-2.6c-1.3-1.9,0.9-4.1,0.9-4.1l0,0c0.8-1,1.3-2.3,1.7-3.7c0.3-1.4,0.9-2.9,1-4.5c0.1-5.6-2.5-8-5.8-9.1
		c-0.6-0.2-1.2-0.4-1.9-0.4c-0.5,0-1,0.1-1.5,0.2c-3.7,0.8-6.3,2.9-6.4,9.3c0,1.9,0.7,3.5,1.3,5.2c0.5,1.5,1.2,2.7,2.1,3.7
		c0.6,0.8,1.2,2.2,0.4,3.4c-1.3,1.9-4.8,2.6-4.8,2.6s-3.6,0.9-4,4.3c-0.4,3.5,0.1,6.5,3.8,6.5h8.2c1.2,0,1.9,0,1.9,0H38
		c3.6,0,4.1-3,3.8-6.5C41.4,39.6,37.8,38.7,37.8,38.7z"/>
</g>
</svg>
