<?xml version="1.0" encoding="utf-8"?>
<!-- Generator: Adobe Illustrator 18.0.0, SVG Export Plug-In . SVG Version: 6.00 Build 0)  -->
<!DOCTYPE svg PUBLIC "-//W3C//DTD SVG 1.1//EN" "http://www.w3.org/Graphics/SVG/1.1/DTD/svg11.dtd">
<svg version="1.1" id="Layer_1" xmlns="http://www.w3.org/2000/svg" xmlns:xlink="http://www.w3.org/1999/xlink" x="0px" y="0px"
	 viewBox="0 0 80.9 74.3" enable-background="new 0 0 80.9 74.3" xml:space="preserve">
<circle fill="#D4DFE0" cx="40.4" cy="37.2" r="32"/>
<g>
	<path fill-rule="evenodd" clip-rule="evenodd" fill="#53585C" d="M59.4,44.9L53,38.5c0.8-1.9,1.3-4,1.3-6.2
		c0-8.9-7.2-16.1-16.1-16.1c-1.1,0-2.2,0.1-3.2,0.3c-2.8,0.7-1.4,2.5-0.9,3c0.4,0.5,5.7,5.7,5.7,5.7c2.4,2.4,3.9,4.7,0,8.6
		c-3.8,3.8-6.2,2.4-8.6,0c0,0-5.6-5.6-5.7-5.7c-0.2-0.2-2.5-1.8-2.9,0.2c-0.3,1.3-0.5,2.6-0.5,4c0,8.9,7.2,16.1,16.1,16.1
		c2.2,0,4.4-0.5,6.3-1.3l6.3,6.3c2.4,2.4,6.2,2.4,8.6,0C61.7,51,61.7,47.2,59.4,44.9z"/>
</g>
</svg>
