<?xml version="1.0" encoding="utf-8"?>
<!-- Generator: Adobe Illustrator 18.0.0, SVG Export Plug-In . SVG Version: 6.00 Build 0)  -->
<!DOCTYPE svg PUBLIC "-//W3C//DTD SVG 1.1//EN" "http://www.w3.org/Graphics/SVG/1.1/DTD/svg11.dtd">
<svg version="1.1" id="Layer_1" xmlns="http://www.w3.org/2000/svg" xmlns:xlink="http://www.w3.org/1999/xlink" x="0px" y="0px"
	 viewBox="0 0 841.9 514" enable-background="new 0 0 841.9 514" xml:space="preserve">
<rect x="0.5" y="0" fill="#A3FAFB" width="841.9" height="514"/>
<g>
	<path fill="#FFFFFF" d="M180.5,209.4c-0.5-3.7-3.7-6.6-7.9-6.6c-4.1,0-7.3,2.9-7.9,6.4c-3,0.2-5.5,2.5-5.5,5.4v0.2
		c0,3,2.7,5.4,5.7,5.4h14.5c3.2,0,5.7-2.5,5.7-5.4v-0.2C185.5,212.1,183.4,210,180.5,209.4z"/>
	<path fill="#FFFFFF" d="M120.4,226.9c-0.4-2.3-2.5-4.3-5.2-4.3c-2.7,0-4.8,1.8-5.2,4.3c-2,0.2-3.6,1.6-3.6,3.6l0,0
		c0,2,1.8,3.6,3.7,3.6h9.5c2.1,0,3.7-1.6,3.7-3.6l0,0C123.6,228.7,122.2,227.1,120.4,226.9z"/>
	<path fill="#FFFFFF" d="M337.2,174.4c-1-6.4-6.7-11.8-14.1-11.8c-7.1,0-13.1,5-13.8,11.4c-5.4,0.3-9.7,4.4-9.7,9.7v0.3
		c0,5.4,4.7,9.7,10.4,9.7h25.9c5.7,0,10.4-4.4,10.4-9.7v-0.3C346.3,179.1,342.2,175.1,337.2,174.4z"/>
	<path fill="#FFFFFF" d="M418.2,227.3c-0.4-2.9-2.7-5-5.7-5c-2.9,0-5.4,2.1-5.7,5c-2.1,0.2-3.9,2-3.9,4.1l0,0c0,2.3,1.8,4.1,4.1,4.1
		h10.3c2.3,0,4.1-1.8,4.1-4.1l0,0C421.7,229.2,420.3,227.6,418.2,227.3z"/>
</g>
<g>
	<path fill="#FFFFFF" d="M712.7,345c-0.8-5.5-6.1-9.8-12.6-9.8c-6.5,0-11.8,4.2-12.6,9.7c-4.9,0.2-8.9,3.8-8.9,8.1v0.2
		c0,4.5,4.2,8.2,9.3,8.2h23.4c5.2,0,9.3-3.7,9.3-8.2v-0.2C720.7,349,717.2,345.6,712.7,345z"/>
	<path fill="#FFFFFF" d="M457.8,363.9c-0.4-2.8-3.1-4.9-6.3-4.9c-3.3,0-5.9,2.1-6.3,4.9c-2.5,0.1-4.4,1.9-4.4,4.1v0.1
		c0,2.3,2.1,4.1,4.7,4.1h11.7c2.6,0,4.7-1.8,4.7-4.1V368C461.7,365.9,460,364.2,457.8,363.9z"/>
	<path fill="#FFFFFF" d="M573.5,267.3c-1.1-8.1-9-14.3-18.5-14.3c-9.5,0-17.3,6.2-18.5,14.2c-7.2,0.3-13,5.5-13,11.9v0.2
		c0,6.6,6.1,11.9,13.7,11.9h34.2c7.5,0,13.7-5.3,13.7-11.9v-0.2C585.1,273.1,580,268.2,573.5,267.3z"/>
	<g>
		<ellipse fill="#FF8D00" cx="586.8" cy="347.7" rx="18.7" ry="18.6"/>
		<ellipse fill="#FFDD00" cx="586.8" cy="347.8" rx="15.6" ry="15.5"/>
		<path fill="#FFDD00" d="M586.2,319.5l-1.2,7c-0.1,0.4,0.3,0.8,0.7,0.8h2.4c0.4,0,0.8-0.4,0.7-0.8l-1.2-7
			C587.4,318.8,586.3,318.7,586.2,319.5z"/>
		<path fill="#FFDD00" d="M606.5,327.3l-5.9,4.1c-0.4,0.2-0.4,0.8-0.1,1.1l1.7,1.7c0.3,0.3,0.8,0.3,1.1-0.1l4.2-5.8
			C607.9,327.6,607.1,326.8,606.5,327.3z"/>
		<path fill="#FFDD00" d="M615.3,347.1l-7.1-1.2c-0.4-0.1-0.8,0.3-0.8,0.7v2.4c0,0.4,0.4,0.8,0.8,0.7l7.1-1.2
			C616.1,348.3,616.1,347.2,615.3,347.1z"/>
		<path fill="#FFDD00" d="M603.3,361.4c-0.2-0.4-0.8-0.4-1.1-0.1l-1.7,1.7c-0.3,0.3-0.3,0.8,0.1,1.1l5.8,4.2c0.6,0.5,1.4-0.3,1-1
			L603.3,361.4z"/>
		<path fill="#FFDD00" d="M588.1,368.2h-2.4c-0.4,0-0.8,0.4-0.7,0.8l1.2,7c0.1,0.8,1.2,0.8,1.4,0l1.2-7
			C588.9,368.6,588.5,368.2,588.1,368.2z"/>
		<path fill="#FFDD00" d="M571.5,361.4c-0.3-0.3-0.8-0.3-1.1,0.1l-4.2,5.8c-0.5,0.6,0.3,1.4,1,1l5.9-4.1c0.4-0.2,0.4-0.8,0.1-1.1
			L571.5,361.4z"/>
		<path fill="#FFDD00" d="M565.5,346l-7.1,1.2c-0.8,0.1-0.8,1.2,0,1.4l7.1,1.2c0.4,0.1,0.8-0.3,0.8-0.7l0-2.4
			C566.3,346.2,566,345.9,565.5,346z"/>
		<path fill="#FFDD00" d="M567.3,327.3c-0.6-0.5-1.4,0.3-1,1l4.1,5.8c0.2,0.4,0.8,0.4,1.1,0.1l1.7-1.7c0.3-0.3,0.3-0.8-0.1-1.1
			L567.3,327.3z"/>
	</g>
</g>
<g>
	<path fill="#FFFFFF" d="M541.3,150.1c-0.5-4.1-3.3-7.1-7-7.1c-3.7,0-6.5,3.1-7,7c-2.7,0.2-4.9,2.7-4.9,5.8v0.2
		c0,3.3,2.4,5.8,5.1,5.8h12.9c2.9,0,5.1-2.7,5.1-5.8v-0.2C545.8,153,543.9,150.7,541.3,150.1z"/>
	<path fill="#FFFFFF" d="M487.6,169c-0.3-2.5-2.2-4.6-4.6-4.6s-4.3,1.9-4.6,4.6c-1.8,0.2-3.2,1.7-3.2,3.9l0,0c0,2.1,1.6,3.9,3.3,3.9
		h8.4c1.9,0,3.3-1.7,3.3-3.9l0,0C490.5,171,489.2,169.2,487.6,169z"/>
	<path fill="#FFFFFF" d="M264.7,260.2c-0.9-6.9-6-12.7-12.6-12.7c-6.3,0-11.7,5.5-12.3,12.4c-4.8,0.4-8.7,4.7-8.7,10.5v0.4
		c0,5.8,4.2,10.5,9.3,10.5h23.1c5.1,0,9.3-4.7,9.3-10.5v-0.4C272.8,265.3,269.2,261,264.7,260.2z"/>
	<path fill="#FFFFFF" d="M753.6,169.4c-0.3-3.1-2.4-5.4-5.1-5.4c-2.6,0-4.8,2.3-5.1,5.4c-1.9,0.2-3.5,2.1-3.5,4.4l0,0
		c0,2.5,1.6,4.4,3.7,4.4h9.2c2.1,0,3.7-1.9,3.7-4.4l0,0C756.8,171.5,755.5,169.8,753.6,169.4z"/>
</g>
</svg>
