<?xml version="1.0" encoding="utf-8"?>
<!-- Generator: Adobe Illustrator 18.0.0, SVG Export Plug-In . SVG Version: 6.00 Build 0)  -->
<!DOCTYPE svg PUBLIC "-//W3C//DTD SVG 1.1//EN" "http://www.w3.org/Graphics/SVG/1.1/DTD/svg11.dtd">
<svg version="1.1" id="Layer_1" xmlns="http://www.w3.org/2000/svg" xmlns:xlink="http://www.w3.org/1999/xlink" x="0px" y="0px"
	 viewBox="0 0 77.4 68.5" enable-background="new 0 0 77.4 68.5" xml:space="preserve">
<circle fill="#F48272" cx="38.7" cy="34.2" r="32"/>
<g>
	<g>
		<path fill="#FFFFFF" d="M51.8,12H25.6c-4.3,0-7.7,3.5-7.7,7.9V23h41.6v-3.2C59.5,15.5,56.1,12,51.8,12z M52.6,13.8H26.4
			c-3.7,0-6.7,3.1-6.7,6.9c0,0,0,0.6,0,1.4h-0.8c0-0.9,0-2.1,0-2.1c0-3.8,3-6.9,6.7-6.9h26.2c2,0,3.9,0.9,5.1,2.4
			C55.7,14.4,54.2,13.8,52.6,13.8z"/>
	</g>
	<g>
		<path fill="#FFFFFF" d="M45.3,38.9v-7l-4,7H45.3z M32.5,49.5c-0.2,0-0.4,0-1.1,0v1.1c0.7,0,0.8,0,1,0c0.4-0.1,0.4-0.3,0.4-0.5
			C32.8,49.7,32.7,49.6,32.5,49.5z M17.9,25v23.6c0,4.4,3.5,7.9,7.7,7.9h26.2c4.3,0,7.7-3.5,7.7-7.9V25H17.9z M39.2,38.2l5-8.9h4.3
			v9.6h1.4v2.7h-1.4v4.1h-3.2v-4.1h-6.1V38.2z M32.3,29.1c3.4,0,5.2,2.3,5.2,4.8c0,2.6-1.6,4.1-3.5,5.7c-0.5,0.4-1.6,1.3-2.1,1.8
			c-0.7,0.6-0.8,0.8-1,1.4h6.6v3H27.1c0.3-3.2,0.8-4.4,4-7.4c2.2-2,3.1-2.9,3.1-4.4c0-1.2-0.6-2.2-2-2.2c-2,0-2.4,2.1-2.6,3L26.9,33
			C27.9,31.1,29,29.1,32.3,29.1z M29.1,49.6h-2.6v0.8h1.7v0.7h-1.7v1.6h-1.3v-3.8h3.8V49.6z M32.9,52.7l-1.1-1.6h-0.4v1.6h-1.2v-3.8
			H32c0.9,0,2.1,0.1,2.1,1.1c0,0.5-0.3,0.9-1.1,1l1.3,1.7H32.9z M37.6,49.2h-0.7v3.1h0.7v0.3h-2.6v-0.3h0.7v-3.1h-0.7v-0.3h2.6V49.2
			z M42.4,51.4c0,0.4-0.2,0.9-0.8,1.1c-0.4,0.1-0.8,0.2-1.2,0.2c-0.2,0-1,0-1.9,0v-3.8h1.4c1.4,0,1.9,0.2,2.2,0.5
			c0.3,0.2,0.3,0.5,0.3,1.4L42.4,51.4z M46.5,52.7l-0.3-0.8h-1.8l-0.3,0.8H43l1.6-3.8h1.5l1.7,3.8H46.5z M50.8,51.1v1.5h-1.3v-1.5
			l-1.8-2.3h1.4l0.7,1c0.1,0.1,0.3,0.4,0.3,0.5h0c0.1-0.2,0.1-0.2,0.3-0.5l0.7-1h1.3L50.8,51.1z M39.7,49.5V52H40c0.5,0,1-0.1,1-0.8
			c0-0.1,0-0.3,0-0.5c0-0.5,0-0.8-0.2-1C40.6,49.5,40.4,49.5,39.7,49.5z M45.3,49.5l-0.6,1.7H46L45.3,49.5L45.3,49.5z"/>
	</g>
</g>
</svg>
