<?xml version="1.0" encoding="utf-8"?>
<!-- Generator: Adobe Illustrator 18.0.0, SVG Export Plug-In . SVG Version: 6.00 Build 0)  -->
<!DOCTYPE svg PUBLIC "-//W3C//DTD SVG 1.1//EN" "http://www.w3.org/Graphics/SVG/1.1/DTD/svg11.dtd">
<svg version="1.1" id="Layer_1" xmlns="http://www.w3.org/2000/svg" xmlns:xlink="http://www.w3.org/1999/xlink" x="0px" y="0px"
	 viewBox="0 0 178.5 437.1" enable-background="new 0 0 178.5 437.1" xml:space="preserve">
<path fill-rule="evenodd" clip-rule="evenodd" fill="#F9ED32" d="M109.2,244.5c-2.3-14.4-16.3-24.2-31.2-21.8
	c-4,0.6-7.6,2.1-10.8,4.1C84.8,229,96,247,95.3,264.6c-0.3,2.5,0.2,4.9-0.3,7.5C105,266.8,111,255.9,109.2,244.5z"/>
<polygon fill="#FFFFFF" points="95.2,85.5 88.2,81 81,85.1 82.5,75.9 76.9,69.2 84.9,68.1 88.6,59.8 92,68.3 99.9,69.9 94,76.2 "/>
<polygon fill="#FFFFFF" points="12.2,225.6 7.5,222.9 2.7,225.4 3.7,219.9 0,215.9 5.3,215.3 7.7,210.4 10,215.4 15.3,216.4 
	11.4,220.1 "/>
<polygon fill="#FFFFFF" points="130.8,371.3 126.2,368.2 121.4,371 122.4,364.9 118.7,360.4 124,359.7 126.5,354.2 128.7,359.8 
	134,360.9 130.1,365.1 "/>
<polygon fill="#FFFFFF" points="153.2,297.7 146.2,293.2 139,297.3 140.6,288.2 135,281.5 142.9,280.4 146.6,272.1 150,280.6 
	157.9,282.1 152,288.5 "/>
<polygon fill="#FFFFFF" points="88.5,151.6 83.8,148.9 79.1,151.4 80.1,145.9 76.3,142 81.6,141.3 84.1,136.4 86.3,141.4 
	91.6,142.4 87.7,146.1 "/>
<polygon fill="#FFFFFF" points="69.5,328.9 64.9,326.2 60.1,328.7 61.1,323.2 57.4,319.3 62.7,318.6 65.1,313.7 67.4,318.7 
	72.6,319.7 68.7,323.4 "/>
<polygon fill="#FFFFFF" points="144.9,133.4 140.3,130.7 135.5,133.1 136.5,127.7 132.8,123.7 138.1,123 140.5,118.1 142.8,123.2 
	148,124.1 144.1,127.9 "/>
</svg>
