<?xml version="1.0" encoding="utf-8"?>
<!-- Generator: Adobe Illustrator 18.0.0, SVG Export Plug-In . SVG Version: 6.00 Build 0)  -->
<!DOCTYPE svg PUBLIC "-//W3C//DTD SVG 1.1//EN" "http://www.w3.org/Graphics/SVG/1.1/DTD/svg11.dtd">
<svg version="1.1" id="Layer_1" xmlns="http://www.w3.org/2000/svg" xmlns:xlink="http://www.w3.org/1999/xlink" x="0px" y="0px"
	 viewBox="0 0 178.5 437.1" enable-background="new 0 0 178.5 437.1" xml:space="preserve">
<polygon fill="#FFFFFF" points="92.3,110.3 99.1,106.6 105.7,110.6 104.7,102.5 110.2,96.9 102.8,95.6 99.6,88.3 96.1,95.5 
	88.5,96.5 93.8,102.3 "/>
<polygon fill="#FFFFFF" points="32.3,420.5 39.2,416.8 46.3,420.2 44.7,412.8 50.3,407.3 42.4,406.4 38.8,399.7 35.4,406.6 
	27.6,407.8 33.4,413 "/>
<polygon fill="#FFFFFF" points="95.8,167.9 100.3,165.8 104.7,168.1 104,163.4 107.7,160.1 102.8,159.3 100.6,154.9 98.3,159.2 
	93.3,159.8 96.8,163.2 "/>
<polygon fill="#FFFFFF" points="123.4,368.9 130.4,365.6 137.5,368.6 136,361.9 141.5,357.1 133.7,356.3 130,350.3 126.7,356.4 
	118.8,357.6 124.6,362.2 "/>
<polygon fill="#FFFFFF" points="43.3,149.7 47.9,147.6 52.2,149.9 51.5,145.1 55.2,141.8 50.3,141 48.2,136.7 45.8,140.9 
	40.8,141.5 44.3,145 "/>
<polygon fill="#FFFFFF" points="125.5,212.7 132.3,209.1 138.9,213 137.8,204.9 143.4,199.4 136,198 132.8,190.7 129.2,197.9 
	121.7,198.9 127,204.7 "/>
<polygon fill="#FFFFFF" points="129,270.4 133.5,268.2 137.9,270.6 137.2,265.8 140.9,262.5 135.9,261.7 133.8,257.3 131.5,261.6 
	126.5,262.2 130,265.6 "/>
<polygon fill="#FFFFFF" points="76.5,252.1 81,250 85.4,252.3 84.7,247.6 88.4,244.3 83.5,243.5 81.3,239.1 79,243.4 74,244 
	77.5,247.4 "/>
</svg>
