<?xml version="1.0" encoding="utf-8"?>
<!-- Generator: Adobe Illustrator 18.0.0, SVG Export Plug-In . SVG Version: 6.00 Build 0)  -->
<!DOCTYPE svg PUBLIC "-//W3C//DTD SVG 1.1//EN" "http://www.w3.org/Graphics/SVG/1.1/DTD/svg11.dtd">
<svg version="1.1" id="Layer_1" xmlns="http://www.w3.org/2000/svg" xmlns:xlink="http://www.w3.org/1999/xlink" x="0px" y="0px"
	 viewBox="0 0 80.9 74.3" enable-background="new 0 0 80.9 74.3" xml:space="preserve">
<circle fill="#37B199" cx="34.1" cy="39.5" r="32"/>
<path fill-rule="evenodd" clip-rule="evenodd" fill="#FFFFFF" d="M42.5,33.4H26.3c-0.8,0-1.5,0.7-1.5,1.5c0,0.8,0.7,1.5,1.5,1.5
	h16.2c0.8,0,1.5-0.7,1.5-1.5C44,34.1,43.3,33.4,42.5,33.4z M55.1,47.2c0,0-0.6-2-1.6-4.4c-1.3-3.3-0.1-3.2,0.2-4.7
	c0.4-1.9,0.1-1.3,0-3.6c-0.1-1.2-0.6-2.9-1-4c-2-6.4-7.8-11.7-15.3-13.2c-10.5-2-20.3,4.1-22,13.6c-1,5.5,0.9,10.9,4.7,14.9l0,0
	c0,0,1.1,1.3,3.1,4c2,2.7,2,6.5,2,6.5s-0.1,3.7-0.3,5.3c-0.2,1.6,2.5,1.4,2.5,1.4s8.1,0,9.7,0c1.5,0,1.7-0.8,1.7-0.8
	s0.7-2.2,1.1-3.1c0.5-0.9,1.8-0.8,1.8-0.8s1.2,0.2,3,0.7c1.7,0.5,3.2-0.2,3.6-1.2c0.4-1,0.4-1.7,0.5-2.6c0.2-1.2,0.3-1.7,0.6-2.8
	c0.4-1.6,2.3-1.5,2.3-1.5s0.6,0,3,0C56.8,51,55.1,47.2,55.1,47.2z M48.8,36.2c-0.8,7.6-11.6,4-13.1,3.8c-2.1-0.2-4.7,1.4-4.8,4.6
	c0,1.5-0.1,2.2,0,2.7c-7.3-1.9-11.6-8.3-10.4-15.1c1.3-7.1,8.6-11.6,16.4-10.1C44.1,23.5,49.2,29.6,48.8,36.2z M28.5,30.2h11.3
	c0.8,0,1.5-0.7,1.5-1.5c0-0.8-0.7-1.5-1.5-1.5H28.5c-0.8,0-1.5,0.7-1.5,1.5C27.1,29.5,27.7,30.2,28.5,30.2z"/>
<g>
	<path fill-rule="evenodd" clip-rule="evenodd" fill="#53585C" d="M77.7,16.5h-2.5v-5.3C75.2,6.1,71.1,2,66,2
		c-5.1,0-9.2,4.1-9.2,9.2v5.3h-2.4c-0.6,0-1.1,0.5-1.1,1.1v16.8c0,0.6,0.5,1.1,1.1,1.1h23.2c0.6,0,1.1-0.5,1.1-1.1V17.6
		C78.8,17,78.3,16.5,77.7,16.5z M68,27.1v2.2c0,0.8-0.6,1.4-1.4,1.4h-0.8c-0.8,0-1.4-0.6-1.4-1.4v-2.2c-0.7-0.5-1.2-1.4-1.2-2.4
		c0-1.7,1.3-3,3-3c1.7,0,3,1.3,3,3C69.2,25.7,68.7,26.6,68,27.1z M71.1,16.5H61v-5.4c0-3,2.1-5,5-5c3,0,5,2.1,5,5V16.5z"/>
</g>
</svg>
