<?xml version="1.0" encoding="utf-8"?>
<!-- Generator: Adobe Illustrator 18.0.0, SVG Export Plug-In . SVG Version: 6.00 Build 0)  -->
<!DOCTYPE svg PUBLIC "-//W3C//DTD SVG 1.1//EN" "http://www.w3.org/Graphics/SVG/1.1/DTD/svg11.dtd">
<svg version="1.1" id="Layer_1" xmlns="http://www.w3.org/2000/svg" xmlns:xlink="http://www.w3.org/1999/xlink" x="0px" y="0px"
	 viewBox="0 0 77.4 68.5" enable-background="new 0 0 77.4 68.5" xml:space="preserve">
<path fill="#9ED6CC" d="M38.7,2.3c-17.7,0-32,14.3-32,32c0,4.8,1.1,9.4,3,13.6c5.1,10.9,16.2,18.4,29,18.4c12.8,0,23.9-7.5,29-18.4
	c1.9-4.1,3-8.7,3-13.6C70.7,16.6,56.4,2.3,38.7,2.3z"/>
<path fill="#F15C6A" d="M38,24.8c2.5-4.2,5-6.3,10-6.3c5.5,0,10,3.7,10,8.3c0,8.1-8.5,17.2-18.9,24.5c-1.1,0.8-0.9,0.9-2,0
	c-10.8-8.4-19-16.5-19-24.6c0-4.6,4.5-8.3,10-8.3C33,18.6,35.5,20.7,38,24.8z"/>
</svg>
