<?xml version="1.0" encoding="utf-8"?>
<!-- Generator: Adobe Illustrator 18.0.0, SVG Export Plug-In . SVG Version: 6.00 Build 0)  -->
<!DOCTYPE svg PUBLIC "-//W3C//DTD SVG 1.1//EN" "http://www.w3.org/Graphics/SVG/1.1/DTD/svg11.dtd">
<svg version="1.1" id="Layer_1" xmlns="http://www.w3.org/2000/svg" xmlns:xlink="http://www.w3.org/1999/xlink" x="0px" y="0px"
	 viewBox="0 0 80.9 74.3" enable-background="new 0 0 80.9 74.3" xml:space="preserve">
<circle fill="#F3756F" cx="32.8" cy="37.9" r="32"/>
<path fill="#80314D" d="M28,48.9c0,0.7-0.5,1.3-1.1,1.3h-4c-0.6,0-1.1-0.6-1.1-1.3V28.5c0-0.7,0.5-1.3,1.1-1.3h4
	c0.6,0,1.1,0.6,1.1,1.3V48.9z M39,33.7c0-0.7-0.5-1.3-1.1-1.3h-4c-0.6,0-1.1,0.6-1.1,1.3v15.1c0,0.7,0.5,1.3,1.1,1.3h4
	c0.6,0,1.1-0.6,1.1-1.3V33.7z M50.1,19.2c0-0.7-0.5-1.3-1.1-1.3h-4c-0.6,0-1.1,0.6-1.1,1.3v29.7c0,0.7,0.5,1.3,1.1,1.3h4
	c0.6,0,1.1-0.6,1.1-1.3V19.2z M54.7,56.9c0-0.7-0.5-1.3-1.1-1.3H18c-0.6,0-1.1-0.6-1.1-1.3V15.7c0-0.7-0.5-1.3-1.1-1.3h-0.3
	c-0.6,0-1.1,0.6-1.1,1.3v41.5c0,0.7,0.5,1.3,1.1,1.3h38c0.6,0,1.1-0.6,1.1-1.3V56.9z"/>
<g>
	<path fill-rule="evenodd" clip-rule="evenodd" fill="#53585C" d="M79,18.9h-2.5v-5.3c0-5.1-4.1-9.2-9.2-9.2c-5.1,0-9.2,4.1-9.2,9.2
		v5.3h-2.4c-0.6,0-1.1,0.5-1.1,1.1v16.8c0,0.6,0.5,1.1,1.1,1.1H79c0.6,0,1.1-0.5,1.1-1.1V20C80.1,19.4,79.6,18.9,79,18.9z
		 M69.2,29.5v2.2c0,0.8-0.6,1.4-1.4,1.4H67c-0.8,0-1.4-0.6-1.4-1.4v-2.2c-0.7-0.5-1.2-1.4-1.2-2.4c0-1.7,1.3-3,3-3c1.7,0,3,1.3,3,3
		C70.5,28.1,70,29,69.2,29.5z M72.3,18.9H62.2v-5.4c0-3,2.1-5,5-5c3,0,5,2.1,5,5V18.9z"/>
</g>
</svg>
