<?xml version="1.0" encoding="utf-8"?>
<!-- Generator: Adobe Illustrator 18.0.0, SVG Export Plug-In . SVG Version: 6.00 Build 0)  -->
<!DOCTYPE svg PUBLIC "-//W3C//DTD SVG 1.1//EN" "http://www.w3.org/Graphics/SVG/1.1/DTD/svg11.dtd">
<svg version="1.1" id="Layer_1" xmlns="http://www.w3.org/2000/svg" xmlns:xlink="http://www.w3.org/1999/xlink" x="0px" y="0px"
	 viewBox="0 0 68.1 68.5" enable-background="new 0 0 68.1 68.5" xml:space="preserve">
<circle fill="#FFD479" cx="34.6" cy="34" r="31.7"/>
<g>
	<polygon fill="#F4783F" points="51,42.9 53.7,49.1 41.6,42.5 	"/>
	<path fill="#F4783F" d="M54.5,39c0,2.1-1.8,3.9-3.9,3.9H27.2c-2.1,0-3.9-1.8-3.9-3.9V19.8c0-2.1,1.8-3.9,3.9-3.9h23.4
		c2.1,0,3.9,1.8,3.9,3.9V39z"/>
	<path opacity="0.6" fill="#7B7B7B" d="M54.5,39v-8.2l-8.6-7.4l-22.6,4.2V39c0,2.1,1.8,3.9,3.9,3.9h15.1l11.4,6.2L51,42.9l-0.2,0
		C52.8,42.8,54.5,41,54.5,39z"/>
	<path fill="#5DBACA" d="M17,43.2c0,2.1,1.8,3.9,3.9,3.9h21.9c2.1,0,3.9-1.8,3.9-3.9V26.1c0-2.1-1.8-3.9-3.9-3.9H20.9
		c-2.1,0-3.9,1.8-3.9,3.9V43.2z"/>
	<polygon fill="#5DBACA" points="21.3,47.1 18.6,53.4 30.7,46.8 	"/>
</g>
</svg>
