<?xml version="1.0" encoding="utf-8"?>
<!-- Generator: Adobe Illustrator 18.0.0, SVG Export Plug-In . SVG Version: 6.00 Build 0)  -->
<!DOCTYPE svg PUBLIC "-//W3C//DTD SVG 1.1//EN" "http://www.w3.org/Graphics/SVG/1.1/DTD/svg11.dtd">
<svg version="1.1" id="Layer_1" xmlns="http://www.w3.org/2000/svg" xmlns:xlink="http://www.w3.org/1999/xlink" x="0px" y="0px"
	 viewBox="0 0 77.4 68.5" enable-background="new 0 0 77.4 68.5" xml:space="preserve">
<circle fill="#86CDB1" cx="34.2" cy="33.9" r="32"/>
<g>
	<g>
		<g>
			<path fill="#F0EFEF" d="M15.9,48.9c-0.2,0-0.3-0.1-0.4-0.1c-0.1-0.1-0.1-0.2-0.1-0.4l4.3-23.5c0.1-0.6,0.8-1.3,1.5-1.3h29.5
				c0.7,0,1.4,0.6,1.5,1.3l4.3,23.5c0,0.2,0,0.3-0.1,0.4c-0.1,0.1-0.2,0.1-0.4,0.1H15.9z"/>
			<path fill="#FFFFFF" d="M50.3,25.5l4,21.5H17.6l3.9-21.5h28.3H50.3z M50.7,21.6H21.2c-1.6,0-3.1,1.3-3.4,2.8L13.5,48
				c-0.3,1.6,0.8,2.8,2.4,2.8H56c1.6,0,2.6-1.3,2.4-2.8L54,24.5C53.8,22.9,52.2,21.6,50.7,21.6L50.7,21.6z"/>
			<path fill="#838B8A" d="M50.7,23.6c0.7,0,1.4,0.6,1.5,1.3l4.3,23.5c0,0.2,0,0.3-0.1,0.4c-0.1,0.1-0.2,0.1-0.4,0.1H15.9
				c-0.2,0-0.3-0.1-0.4-0.1c-0.1-0.1-0.1-0.2-0.1-0.4l4.3-23.5c0.1-0.6,0.8-1.3,1.5-1.3H50.7L50.7,23.6z M50.7,21.6H21.2
				c-1.6,0-3.1,1.3-3.4,2.8L13.5,48c-0.3,1.6,0.8,2.8,2.4,2.8H56c1.6,0,2.6-1.3,2.4-2.8L54,24.5C53.8,22.9,52.2,21.6,50.7,21.6
				L50.7,21.6z"/>
		</g>
		<g>
			<defs>
				<path id="SVGID_1_" d="M50.2,25.5H21.6c0,0-0.1,0-0.1,0l-4,21.5h36.7L50.2,25.5C50.3,25.4,50.3,25.5,50.2,25.5z"/>
			</defs>
			<clipPath id="SVGID_2_">
				<use xlink:href="#SVGID_1_"  overflow="visible"/>
			</clipPath>
			<path clip-path="url(#SVGID_2_)" fill="#39BB9A" d="M18.3,34.9c0,0,1.2,2.5,2.1,2.8c0.9,0.2,1.8,0.2,1.4,1.2
				c-0.4,1-2.6,2.1-3.3,2.4c-0.7,0.3-2.9,1.3-2.9,1.3L18.3,34.9z"/>
			<path clip-path="url(#SVGID_2_)" fill="#5DBACA" d="M57.1,45.6c0,0-3.7-2.7-4.2-2.7c-0.6,0-1.4-0.2-2-0.4
				c-0.5-0.2-3.3-2.4-3.3-2.4s-5.3,0.3-5.8,1c-0.2,0.3-0.5,0.6-0.8,0.9l2.1,3c0.2,0.3,0.2,0.7,0,0.8l-0.8,0.4
				c-0.2,0.1-0.6-0.1-0.8-0.4l-1.9-2.8c-0.1,0-0.2,0.1-0.3,0.1c-0.9,0.1-2.7,1.4-2.9,1.3c-0.3-0.1-1.7-1.2-2.7-0.9
				c-1,0.3-8.3,3.5-8.3,3.5L35.8,52l13.6-4.2l9.5,3.4L57.1,45.6z"/>
			<path clip-path="url(#SVGID_2_)" fill="#39BB9A" d="M44.7,26.3c0,0-0.2,4.6-0.2,4.8c0.1,0.3,0.4,0.3,0.7,0.7
				c0.3,0.4,1.2,1.5,1.2,1.5s1.3,0.5,2.1,0.7c0.9,0.2,2.4,0.1,2.4-0.7c0-0.8-1.1-1.7-1.5-2.9c-0.4-1.1-0.3-1.3-0.3-1.8
				c0-0.6,0.3-1.9-0.5-2.4C47.9,25.7,44.9,24.6,44.7,26.3z"/>
			<path clip-path="url(#SVGID_2_)" fill="#FFFFFF" d="M53.6,41.9c-0.5-0.2-1.2-0.3-1.7-0.4c-0.2,0-0.4,0-0.5-0.1
				c-0.4-0.1-2-1.3-2.7-1.9c-0.6-0.6-1.3-0.6-1.6-0.5c-0.6,0-4.6,0.4-5.4,0.6c-0.6,0.2-1.1,0.6-1.4,1c-0.3-0.5-0.5-0.8-0.6-0.8
				c-0.2-0.3-1.2-1.4-2.1-2.5l2.6-1.1l6.3-1.5l8.2,2.3l0.1-0.7l-8.3-2.3c-0.1,0-0.2,0-0.3,0l-0.1,0l-2.6-2.6l0.7-7.9l-0.8-0.1
				l-0.8,6.8L39,30.1c-0.1,0-0.2,0-0.2,0c-2.1,0.8-4.5,1.7-4.8,1.8c-0.5,0.1-1.6,0.6-2.4,1.1c-0.3-0.2-0.6-0.4-0.7-0.6
				c0-1.2,0-6.8,0-6.8l-2.2,0.1c0,0,0,1.2-0.1,2.5c-1.1-0.1-2.4-0.2-2.9-0.2c-0.3-0.6-0.8-1.7-0.8-2c0-0.5-0.7-1.8-0.8-2l-0.8,0.2
				c0.3,0.5,0.8,1.5,0.8,1.8c0,0.4,0.5,1.5,0.7,2c-1.4,0.2-4.3,0.6-4.9,0.7l0,0.6c2.5-0.4,5.3-0.8,5.6-0.8c0.3,0,1.8,0.1,3.2,0.2
				c-0.1,1.6-0.1,3.4-0.2,3.8c0,0.1,0,0.3,0.1,0.5c-0.9,0.2-2.2,0.5-3.2,0.7l-5.1,0.3c-0.4-0.7-0.8-1.4-1.1-2l-0.9,0.4
				c0.3,0.6,1.9,3.5,2.3,3.9c0.3,0.3,1,0.4,1.6,0.6c0.2,0,0.5,0.1,0.6,0.2c0.1,0.3,0.3,1.8,0.3,3.1l-8.7,4.2l0.3,0.9l9.5-4.7l10-2.6
				l0.9-0.1c1,1.2,2.1,2.6,2.2,2.8c0.1,0.1,0.4,0.6,0.8,1.3c-0.7,0.3-1.4,0.6-1.6,0.7l-0.1,0.1c0,0,0,0,0,0c-0.1,0-0.1-0.1-0.3-0.2
				c-1.1-0.8-2.5-0.6-3.1-0.3C32.7,42.4,21.9,47,21.9,47l0.6,0.9c0,0,10.7-4.6,11-4.7c0,0,1.1-0.4,1.9,0.2c0.6,0.5,0.9,0.6,1.5,0.4
				l0.1,0c0,0,0.8-0.3,1.7-0.8c1.5,2.4,3.8,6,4,6.3l2.7-1.4c-1.4-2.1-3.2-4.7-4.3-6.3c0.4-0.5,0.8-0.9,1.2-1
				c0.6-0.2,3.5-0.4,5.3-0.6c0,0,0,0,0.1,0c0,0,0.3,0,0.5,0.2c0,0,2.5,2.1,3.3,2.3c0.2,0,0.4,0.1,0.6,0.1c0.4,0,1,0.1,1.3,0.2
				c0.3,0.2,2.6,1.6,3.9,2.6l0.5-0.7C57.1,44.1,54.2,42.1,53.6,41.9z M34.1,32.6c0.6-0.1,3.9-1.4,5-1.9l3.7,0.1l-0.1,0.5
				c0,0.1,0,0.2,0.1,0.2l2.5,2.6l-5.5,1.3c0,0,0,0,0,0l-2.7,1.1c0,0,0,0,0,0c0-0.1-0.2-0.2-0.4-0.3c-1.7-0.9-3.4-1.9-4.6-2.7
				C33,33.1,33.8,32.6,34.1,32.6z M34,37.4l-9.8,2.6c-0.2-2.9-0.5-3.1-0.6-3.2c-0.2-0.1-0.5-0.2-1-0.3c-0.4-0.1-1-0.2-1.2-0.4
				c-0.1-0.1-0.4-0.5-0.7-1.1l4.6-0.3c0,0,0.1,0,0.1,0c0.5-0.1,2.4-0.5,3.6-0.8C29.7,34.6,31.1,35.6,34,37.4L34,37.4
				C34,37.4,34,37.4,34,37.4z"/>
			<path clip-path="url(#SVGID_2_)" fill="#39BB9A" d="M24.2,24.3c0,0,0.5,0.6,0.8,1.6c0.3,1.1,0.7,1.7,1.3,1.8c0.5,0.1,1.8,0,2-0.1
				c0.2-0.2,0.3-1.3,0.4-1.7c0.1-0.4,0.7-2.1,0.7-2.1l-1.6-0.7L24.2,24.3z"/>
		</g>
	</g>
</g>
<g>
	<g>
		<path fill-rule="evenodd" clip-rule="evenodd" fill="#595A5C" d="M39.2,61.6h-4.1c-0.8,0-1.5-0.7-1.5-1.5V42.5
			c0-0.4,0.2-0.8,0.4-1c0.1-0.1,0.1-0.2,0.2-0.3l1.8-1.8c0.6-0.6,1.6-0.6,2.2,0l1.8,1.8c0,0,0.1,0.1,0.1,0.1
			c0.3,0.3,0.5,0.7,0.5,1.1v17.5C40.7,60.9,40,61.6,39.2,61.6z"/>
		<path fill-rule="evenodd" clip-rule="evenodd" fill="#595A5C" d="M35.1,8.5h4.1c0.8,0,1.5,0.7,1.5,1.5v17.5c0,0.4-0.2,0.8-0.4,1
			c-0.1,0.1-0.1,0.2-0.2,0.3l-1.8,1.8c-0.6,0.6-1.6,0.6-2.2,0l-1.8-1.8c0,0-0.1-0.1-0.1-0.1c-0.3-0.3-0.5-0.7-0.5-1.1V10
			C33.6,9.2,34.3,8.5,35.1,8.5z"/>
		<path fill-rule="evenodd" clip-rule="evenodd" fill="#595A5C" d="M10.2,37.5v-4.1c0-0.8,0.7-1.5,1.5-1.5h17.5c0.4,0,0.8,0.2,1,0.4
			c0.1,0.1,0.2,0.1,0.3,0.2l1.8,1.8c0.6,0.6,0.6,1.6,0,2.2l-1.8,1.8c0,0-0.1,0.1-0.1,0.1c-0.3,0.3-0.7,0.5-1.1,0.5H11.7
			C10.9,39,10.2,38.3,10.2,37.5z"/>
	</g>
	<g>
		<path fill="#595A5C" d="M56.6,31.2c-0.8,0-1.6,0.2-2.4,0.3c-0.8,0.1-1.6,0.3-2.4,0.4c-1.5,0.3-3,0.6-4.4,1.4
			c-0.1,0-0.2,0.1-0.3,0.2c-0.1,0-0.1,0-0.2,0c-0.3-0.1-0.5-0.1-0.8,0c0,0,0,0.1,0,0.1c0.1,0,0.3,0.1,0.4,0.1
			c-0.5,0.1-1,0.2-1.5,0.4c-0.4,0.1-0.8,0.3-1.2,0.5c-0.1,0-0.3,0-0.4,0c-0.4,0.1-0.8,0.4-1.2,0.6c0,0,0,0-0.1,0
			c-0.2,0-0.3,0-0.5,0.1c-0.4-0.2-0.7-0.3-1.1-0.5c0,0,0,0,0,0c0.2,0.3,0.5,0.5,0.8,0.6c0,0,0,0,0,0c-0.3,0-0.6-0.1-1-0.2
			c-0.2-0.1-0.3-0.2-0.5-0.1c-0.1,0-0.2,0-0.3,0c-0.1,0-0.2,0-0.3,0.1c-0.3,0.1-0.5,0.2-0.8,0.2c-0.1,0-0.3,0-0.4,0
			c-0.1,0-0.3,0-0.4,0c-0.1,0-0.3,0-0.4,0c-0.1,0-0.3,0-0.4,0c-0.1,0-0.1,0-0.2,0c0,0-0.1,0-0.1,0.1c0,0,0.1,0,0.1,0
			c0.2,0,0.3,0,0.5,0c0.4,0,0.7,0,1.1,0.1c0.3,0,0.6,0.1,0.9,0c0.3-0.1,0.8-0.2,1.1,0c0.2,0.1,0.4,0.2,0.5,0.2
			c0.3,0.3,0.9,0.1,1.2,0.1c0.3-0.1,0.5-0.1,0.8-0.3c0.1,0,0.1,0,0.2,0c0.5,0.1,1.1-0.1,1.6-0.3c0.1,0,0.1,0.1,0.2,0.1
			c-0.2,0.1-0.5,0.3-0.7,0.5c0,0,0,0,0,0c0.3-0.1,0.7-0.2,1-0.4c0.2,0.1,0.4,0.2,0.5,0.3c0.4,0.4,0.9,0.5,1.4,0.6
			c0.2,0,0.5,0.1,0.7,0.2c0,0,0,0,0,0c0,0,0,0,0,0l0,0.1c0,0,0,0.1,0,0c0.1,0,0.2-0.1,0.3-0.1c0.1,0,0.3,0.1,0.4,0.1
			c0.1,0,0.2,0.1,0.3,0.1c0.2,0.1,0.5,0.2,0.7,0.2c0,0,0,0,0,0c0.3,0.1,0.6,0.2,0.9,0.4c0.4,0.2,0.8,0.3,1.2,0.4
			c0.3,0.1,0.7,0.2,1.1,0.3c1.3,0.4,2.7,0.7,4.1,0.8c0.6,0.1,1.2,0.1,1.8-0.1c1.2-0.3,2-0.8,2.4-1.9c0.2-0.8,0.2-1.6,0.2-2.4
			c0-0.6,0-2-0.6-2.4c-0.5-0.4-1-0.5-1.7-0.7C58,31.3,57.3,31.2,56.6,31.2z M58.7,38.6C58.7,38.6,58.7,38.6,58.7,38.6
			c-0.3,0.1-0.5,0.1-0.7,0.1c0,0-0.1,0-0.1,0c0.1,0,0.2-0.1,0.4-0.1C58.4,38.6,58.6,38.6,58.7,38.6z M59.4,37.5
			c0,0.1-0.1,0.2-0.2,0.3c0,0,0,0,0,0c0,0,0,0,0,0c0-0.1,0-0.1,0.1-0.2C59.3,37.6,59.3,37.6,59.4,37.5z M56.7,36.8
			c-0.1,0.1-0.3,0.1-0.4,0.2c0,0-0.1,0-0.1,0C56.4,36.9,56.6,36.9,56.7,36.8z M58,36.6c0,0.1,0,0.2,0,0.2c0,0,0,0,0,0
			c-0.2,0.1-0.5,0.2-0.7,0.2c-0.1,0-0.1,0-0.2,0C57.4,37,57.7,36.9,58,36.6C58,36.7,58,36.6,58,36.6z M54.2,36.5
			c0.1,0.1,0.1,0.1,0.2,0.2c0,0,0,0,0,0c-0.1,0-0.2,0-0.3-0.1c0,0-0.1,0-0.1-0.1C54,36.5,54.1,36.5,54.2,36.5z M51.9,36.2
			C51.9,36.2,51.9,36.2,51.9,36.2c-0.1,0-0.2,0-0.2,0C51.7,36.2,51.8,36.2,51.9,36.2z M57,35.4c0.1,0,0.2,0,0.3,0c0.1,0,0.1,0,0.2,0
			c-0.1,0.1-0.2,0.3-0.3,0.4c-0.1,0-0.1,0-0.2,0c0,0,0.1,0,0.1,0C57.3,35.8,57.2,35.5,57,35.4c-0.1,0-0.1,0-0.1,0l0,0
			C57,35.4,57,35.4,57,35.4z M47.3,35.2C47.3,35.2,47.3,35.3,47.3,35.2C47.3,35.3,47.2,35.3,47.3,35.2c-0.1,0.1-0.2,0.1-0.2,0.1
			c0,0-0.1,0-0.1,0c0,0,0,0,0,0c0,0,0,0,0,0C47.1,35.2,47.2,35.2,47.3,35.2z M53.2,35c-0.1,0.1-0.2,0.2-0.4,0.2c-0.1,0-0.2,0-0.2,0
			C52.8,35.2,53,35.1,53.2,35z M59.4,34.3C59.4,34.3,59.4,34.3,59.4,34.3c0,0.2-0.1,0.4-0.1,0.5c0,0.2-0.1,0.4-0.2,0.7c0,0,0,0,0,0
			c0-0.1,0.1-0.3,0.1-0.4C59.2,34.8,59.3,34.5,59.4,34.3z M58.2,34.1C58.2,34.1,58.3,34.1,58.2,34.1c0,0.1-0.1,0.2-0.2,0.3
			c-0.1,0-0.1,0-0.2,0C58,34.3,58.1,34.2,58.2,34.1z M54.3,32.7c0,0.1,0,0.1,0.1,0.1c-0.2,0-0.4,0-0.6,0c0,0,0,0-0.1,0
			c0.1,0,0.2-0.1,0.3-0.1C54.1,32.8,54.2,32.7,54.3,32.7L54.3,32.7z M59.9,32.6C59.9,32.6,59.9,32.6,59.9,32.6
			c0.1,0,0.1,0.1,0.1,0.1c0.1,0.1,0.2,0.3,0.2,0.6c-0.1,0-0.3,0-0.3,0.2c0,0-0.1,0-0.1,0c0,0,0-0.1,0-0.1c0,0,0.1,0,0.1-0.1
			c0.1-0.1,0.2-0.3,0.1-0.4C60,32.7,60,32.7,59.9,32.6C59.9,32.6,59.9,32.6,59.9,32.6z M58.5,31.9c0.2,0,0.3,0.1,0.5,0.1
			c-0.1,0-0.2,0-0.3,0C58.6,32,58.5,31.9,58.5,31.9z"/>
		<path fill="#595A5C" d="M43.8,35c0.3,0.2,0.6-0.2,0.9-0.1c0.3,0,0.3,0.2,0.5,0.4c0.5,0.5,1,0.8,1.6,0.8c1.6,0,3.1,1.3,4.7,1.6
			c1.4,0.3,2.8,0.6,4.2,0.7c1,0.1,2.3,0.5,3.3,0c0.7-0.3,1.1-1.9,0.9-3c0,0.7,0,1.4-0.2,2.1c0,0.1-0.1,0-0.1,0c0-0.9,0-1.9,0-2.8
			c0,0,0,0,0-0.1c-0.3-0.3-0.6-0.4-0.9-0.3c0,0.6,0,1.1-0.1,1.7c0,0.1-0.1,0.1-0.1,0c-0.1-0.5-0.2-1.1-0.2-1.6
			c-0.8,0.2-1.7,0.7-2.3,0.6c-1.2-0.2-2.3-0.3-3.6-0.2c0,0.4,0,0.9-0.1,1.3c0,0,0,0.1-0.1,0c-0.1-0.4-0.2-0.9-0.3-1.3
			c-0.9,0-1.7,0-2.6-0.1c-0.5-0.1-0.9,0.2-1.3,0.3c0,0-0.1,0-0.1,0c-0.4,0.1-0.8,0.2-1.2,0c-0.3-0.1-0.6-0.3-0.9-0.5
			c0.1,0.2,0.1,0.5,0,0.7c0,0-0.1,0-0.1,0c-0.2-0.2-0.1-0.5,0-0.7c0,0,0,0-0.1,0C45,34.5,44.1,34.4,43.8,35z M55,36.3
			c0-0.2,0-0.4,0-0.7c0,0,0.1,0,0.1,0c0,0.2,0.1,0.4,0,0.7C55.1,36.4,55,36.4,55,36.3z M53.7,35.6C53.7,35.5,53.8,35.5,53.7,35.6
			c0.1,0.5,0.1,1,0.1,1.4c0,0,0,0,0,0C53.7,36.5,53.6,36.1,53.7,35.6z"/>
		<g>
			<path fill="#595A5C" d="M58.8,37.1c0,0.1,0,0.3,0.1,0.4c0,0.1,0,0.2,0,0.2C58.8,37.5,58.8,37.3,58.8,37.1z"/>
			<path fill="#595A5C" d="M56.8,38.7C56.8,38.7,56.8,38.7,56.8,38.7c0-0.1,0-0.1,0-0.1c-0.1-0.2-0.1-0.3-0.1-0.5
				c0-0.4-0.1-0.8-0.1-1.1c0.1,0,0.1-0.1,0.2-0.1c0.1,0.8,0.2,1.5,0.5,2.2c-0.1,0-0.1,0-0.2,0C56.9,38.9,56.9,38.8,56.8,38.7z"/>
			<path fill="#595A5C" d="M57.1,37.1c0.1,0.7,0.2,1.3,0.3,1.9c0,0,0,0-0.1,0c-0.1-0.7-0.2-1.3-0.3-2C57.1,37,57.1,37.1,57.1,37.1z"
				/>
			<path fill="#595A5C" d="M57.9,36.5c0,0.1,0,0.2,0,0.2c-0.1,0.1-0.3,0.2-0.5,0.2c0-0.4-0.1-0.9-0.1-1.3c0-0.1,0.1-0.1,0.1-0.2
				c0,0-0.1,0-0.1,0c0-1.4,0-2.8,0.2-4.2c0.1,0,0.2,0,0.3,0C57.6,33,57.7,34.9,57.9,36.5z"/>
			<path fill="#595A5C" d="M56.6,34.4c0,0.8,0,1.6,0.1,2.4c-0.1,0-0.1,0-0.2,0.1c0,0,0,0,0,0c0-0.8,0-1.6,0.1-2.5
				C56.6,34.4,56.6,34.4,56.6,34.4z"/>
			<path fill="#595A5C" d="M49.5,34.9c-0.1-0.8-0.1-1.6-0.1-2.4c0.1,0,0.2-0.1,0.3-0.1c0,0.1,0,0.1,0,0.2
				C49.5,33.4,49.5,34.1,49.5,34.9z"/>
			<path fill="#595A5C" d="M50,37.3C50,37.3,49.9,37.3,50,37.3c-0.1-0.3-0.1-0.6-0.1-0.9C49.9,36.7,50,37,50,37.3z"/>
			<path fill="#595A5C" d="M53,35.1c0,0.5,0.1,0.9,0.1,1.4c0,0.6,0,1.1,0,1.7c-0.1-1-0.1-2-0.2-3C52.9,35.2,53,35.2,53,35.1z"/>
			<path fill="#595A5C" d="M51.7,36.2c0-0.3-0.1-0.6-0.1-0.9c0-0.1,0-0.3,0-0.4c0,0,0,0,0,0.1C51.7,35.3,51.7,35.7,51.7,36.2
				C51.8,36.2,51.8,36.2,51.7,36.2z"/>
			<path fill="#595A5C" d="M51.8,36.2c0.1,0.5,0.1,1,0.2,1.5c0,0.1,0,0.2,0,0.3c0,0,0,0,0,0C51.9,37.4,51.8,36.8,51.8,36.2
				C51.8,36.2,51.8,36.2,51.8,36.2z"/>
			<path fill="#595A5C" d="M52.9,35.1c0-0.2-0.1-0.5-0.1-0.7c0-0.4,0.1-0.9,0.1-1.3c0,0.6,0.1,1.3,0.1,1.9
				C53,35.1,52.9,35.1,52.9,35.1z"/>
			<path fill="#595A5C" d="M56.3,38.3c0,0.2,0.1,0.5,0.2,0.7c-0.1,0-0.1,0-0.2,0c0,0,0,0,0-0.1c0-0.4-0.1-0.7-0.1-1.1
				C56.2,37.9,56.2,38.1,56.3,38.3z"/>
			<path fill="#595A5C" d="M49.1,37c-0.3-1.3-0.2-2.8-0.3-4.1c0-0.1,0-0.1-0.1-0.2c0,0,0,0,0-0.1c0,0,0.1,0,0.1,0
				c0,1.5,0.2,3,0.4,4.4C49.3,37,49.2,37,49.1,37z"/>
			<path fill="#595A5C" d="M54.6,32.4c0-0.3,0-0.6,0-0.9c0,0,0,0,0.1,0c0,0.2,0,0.5,0,0.7C54.6,32.3,54.6,32.3,54.6,32.4z"/>
			<path fill="#595A5C" d="M55.3,32.9c0-0.5,0-1,0.1-1.6c0,0,0.1,0,0.1,0c0,0.4-0.1,0.9-0.1,1.3C55.3,32.8,55.3,32.9,55.3,32.9z"/>
			<path fill="#595A5C" d="M50.8,37.7C50.8,37.6,50.8,37.6,50.8,37.7c-0.2-0.7-0.3-1.4-0.4-2C50.5,36.3,50.6,37,50.8,37.7z"/>
			<path fill="#595A5C" d="M50.5,37.5c-0.1,0-0.2-0.1-0.2-0.1c-0.1-0.6-0.1-1.1-0.1-1.7C50.3,36.3,50.4,36.9,50.5,37.5z"/>
			<path fill="#595A5C" d="M52.3,34.1c0,0.4,0,0.8,0,1.1c0,0.5,0,0.9,0,1.4c-0.2-1.3-0.3-2.6-0.3-3.9C52.2,33.2,52.3,33.7,52.3,34.1
				z"/>
			<path fill="#595A5C" d="M52.2,31.9c0.1,0,0.2,0,0.2,0c0,0.2,0,0.4-0.1,0.6C52.3,32.3,52.3,32.1,52.2,31.9z"/>
			<path fill="#595A5C" d="M51.2,33.2C51.2,33.2,51.2,33.2,51.2,33.2c0,0.1,0.1,0.3,0.1,0.4c0,0.1,0,0.1,0,0.2
				C51.3,33.6,51.3,33.4,51.2,33.2z"/>
			<path fill="#595A5C" d="M56.2,34.7c0-0.2,0-0.4,0-0.6c0.1-1,0.2-1.9,0.3-2.8c0,0,0,0,0.1,0C56.4,32.3,56.2,33.5,56.2,34.7z"/>
			<path fill="#595A5C" d="M48,34.9c0,0.3,0,0.6,0,1c0,0.2,0,0.5,0,0.7c0,0,0,0,0,0c0,0-0.1,0-0.1,0C47.9,36.1,47.9,35.5,48,34.9z"
				/>
			<path fill="#595A5C" d="M46.5,34.3c-0.1,0.5-0.1,1-0.2,1.6c0-0.2,0-0.4,0-0.6c0-0.5,0-1.1,0.1-1.7c0,0,0.1,0,0.1,0
				C46.5,33.8,46.5,34.1,46.5,34.3z"/>
			<path fill="#595A5C" d="M45.2,35.5c0,0-0.1,0-0.1-0.1c-0.3,0.1-0.7,0.3-1,0.4c0,0,0,0,0,0c0,0,0.1-0.1,0.1-0.1
				c0.1,0,0.2,0,0.2-0.1c0,0,0,0,0-0.1c0,0,0.1-0.1,0.1-0.1c0.1,0.1,0.1,0.1,0.2,0c0.1,0,0.1,0,0.2-0.1c0,0,0-0.1,0.1-0.1
				c0,0,0,0,0.1,0c0,0,0,0,0,0c0,0,0,0,0,0c0,0,0,0,0,0l0,0c0,0,0,0,0,0c0,0,0,0,0-0.1c0,0,0-0.1,0-0.1c0-0.1,0-0.2,0-0.2
				C45.1,35,45.1,35.2,45.2,35.5z"/>
			<path fill="#595A5C" d="M43.6,34.8c-0.1-0.1-0.2-0.2-0.3-0.3c0,0,0.1,0,0.1,0c0.1,0,0.3,0,0.4,0c0,0,0,0,0.1,0
				C43.8,34.6,43.7,34.7,43.6,34.8z"/>
			<path fill="#595A5C" d="M54.7,36.2c0,0.1,0,0.2,0,0.3c-0.1,0.7-0.1,1.5,0,2.1c0,0-0.1,0-0.1,0c0-0.3,0-0.7,0-1
				C54.6,37.2,54.6,36.7,54.7,36.2z"/>
			<path fill="#595A5C" d="M55.2,38.6c0,0.1,0,0.1,0,0.2c-0.1,0-0.1,0-0.2,0C55,38.5,55,38.3,55,38C55,38.2,55.1,38.4,55.2,38.6z"/>
			<path fill="#595A5C" d="M54.2,34.2c0-0.2,0-0.3-0.1-0.5c0-0.2,0-0.3,0-0.5C54.2,33.6,54.2,33.9,54.2,34.2z"/>
			<path fill="#595A5C" d="M57.9,36.9c0.1,0.6,0.1,1.2,0.2,1.8c-0.1,0-0.2,0-0.2,0.1c0,0,0.1,0,0.1,0c0,0,0.1,0,0.1,0
				c0,0.1,0,0.2,0,0.3c-0.1,0-0.3,0-0.4,0c-0.1-0.6-0.2-1.3-0.3-1.9C57.6,37,57.8,37,57.9,36.9z"/>
			<path fill="#595A5C" d="M59.3,34.6C59.3,34.6,59.3,34.5,59.3,34.6c0.1,0.7,0.3,1.6,0.4,2.4c0.1,0.4,0.1,0.8,0.2,1.2
				c-0.1,0.1-0.3,0.2-0.4,0.3c-0.1-0.7-0.2-1.4-0.3-2.1C59.2,35.7,59.3,35.2,59.3,34.6z"/>
		</g>
		<g>
			<path fill="#595A5C" d="M51.2,32.4c-0.1,0.2,0,0.5,0,0.7c0,0.1-0.2,0.2-0.2,0c0-0.1,0-0.4,0-0.5c0-0.1,0.1-0.3,0.2-0.4
				C51.2,32.2,51.2,32.3,51.2,32.4z"/>
			<path fill="#595A5C" d="M49,35.5c0.1,0.3,0.1,0.5,0.1,0.8c0,0.2-0.2,0.2-0.2,0c0-0.2,0-0.4,0-0.5C48.8,35.6,49,35.3,49,35.5z"/>
			<path fill="#595A5C" d="M55.9,37.4c-0.1,0.3,0,0.7,0,1c0,0.2-0.2,0.3-0.2,0.1c-0.1-0.4-0.2-0.8-0.1-1.2
				C55.7,37,56,37.1,55.9,37.4z"/>
			<path fill="#595A5C" d="M46.2,34.1c0.1,0.1,0,0.3-0.1,0.2c-0.1-0.1-0.1-0.2-0.2-0.3c0-0.1,0.1-0.2,0.1-0.1
				C46,33.9,46.1,34,46.2,34.1z"/>
			<path fill="#595A5C" d="M43.5,35.1c0,0,0,0.1,0,0.2c0,0.1,0,0.1-0.1,0.2c0,0,0,0,0,0c0,0,0,0,0,0c0,0.2-0.2,0.2-0.3-0.1
				c0,0.1,0,0,0,0c0,0,0-0.1,0-0.1c0-0.1,0.1-0.1,0.1-0.2C43.4,35,43.4,34.9,43.5,35.1C43.5,35,43.5,35.1,43.5,35.1z"/>
			<path fill="#595A5C" d="M59.1,32.7c0-0.2-0.1-0.5,0-0.7c0,0,0.1,0,0.1,0C59.1,32.2,59.1,32.5,59.1,32.7
				C59.1,32.7,59.1,32.8,59.1,32.7z"/>
			<path fill="#595A5C" d="M48.1,33.2c0,0.2,0,0.3,0.1,0.5c0,0.1,0,0.1-0.1,0.1l0,0c0,0,0,0-0.1,0c0,0,0,0,0,0c0,0,0-0.1,0-0.1
				c0-0.2-0.1-0.3-0.1-0.5C47.9,33,48.1,33,48.1,33.2z"/>
			<path fill="#595A5C" d="M46.7,35.9c0,0.1,0,0.1,0,0.2c0,0-0.1,0.1-0.1,0c0-0.1,0-0.2,0-0.2c0,0,0,0,0,0c0,0,0-0.1,0-0.1
				c0,0,0,0,0,0c0,0,0,0,0,0C46.6,35.7,46.7,35.8,46.7,35.9z"/>
			<path fill="#595A5C" d="M55,33.9c0-0.1,0.1-0.1,0.1,0c0,0.1,0.1,0.4,0,0.5c-0.1,0-0.1-0.1-0.1-0.2C55,34.1,55,34,55,33.9z"/>
			<path fill="#595A5C" d="M59.3,37c0,0.2,0,0.4,0,0.6c0,0.2,0,0.5,0,0.7c0,0,0,0.1,0,0C59.1,37.9,59.2,37.4,59.3,37
				C59.3,36.9,59.3,36.9,59.3,37z"/>
			<path fill="#595A5C" d="M56.4,31.3c0.1,0.4-0.2,0.7-0.2,1.1c0,0,0,0,0,0c-0.1-0.1-0.1-0.3-0.1-0.5c0-0.1,0-0.2,0.1-0.3
				c0-0.1,0-0.2,0-0.4C56.3,31.2,56.4,31.2,56.4,31.3z"/>
		</g>
		<path fill="#595A5C" d="M59.6,31.8C59.7,31.8,59.7,31.8,59.6,31.8c0,0.4,0,0.9,0.1,1.3c0,0.1,0.1,0.1,0.1,0c0-0.1,0.1-0.3,0.1-0.4
			c0,0,0,0,0.1,0.1c0,0.1,0,0.3,0,0.4c0,0,0,0-0.1,0.1c0,0-0.1,0-0.1,0.1c0,0,0,0.1,0,0.1c0,0,0.1,0,0.1,0c0-0.1,0-0.1,0.1-0.1
			c0,0.1,0,0.1,0,0.2c0,0.1,0.1,0.1,0.1,0c0-0.1,0-0.1,0-0.2c0,0,0.1,0,0.1,0c0-0.1,0-0.2-0.1-0.3c0-0.3,0-0.6,0-0.8
			c0,0,0.1,0.1,0.1,0.1c0.6,0.4,0.6,1.8,0.6,2.4c0,0.8,0.1,1.6-0.2,2.4c-0.1,0.4-0.3,0.7-0.6,1c-0.1-0.8-0.2-1.5-0.3-2.3
			C59.7,34.3,59.6,33.1,59.6,31.8z"/>
		<g>
			<path fill="#595A5C" d="M60.6,36.6c0.2,0.1,0.3-0.1,0.3-0.3c0-0.1,0.1-0.2,0.1-0.4c0.2-0.4,0.2-1,0.1-1.4c0-0.4,0-0.9-0.2-1.2
				c0-0.1-0.1-0.1-0.1-0.2c-0.1-0.3-0.2-0.5-0.4-0.3c-0.3,0.3-0.3,1.1-0.3,1.5c0,0,0,0,0,0c0,0.3,0,0.6,0,0.8
				C60.2,35.7,60.2,36.5,60.6,36.6z M60.4,36c0.1,0.1,0.1,0.2,0.2,0.2c0,0,0.1,0,0.1,0c0,0,0.1,0,0.1,0c0,0.1,0,0.1,0,0.2
				C60.6,36.5,60.5,36.3,60.4,36z"/>
			<path fill="#595A5C" d="M60.6,32.6c-0.1,0-0.2,0-0.2,0.1c-0.1,0.1-0.1,0.2-0.1,0.3c-0.1,0.2-0.1,0.4-0.1,0.6c0,0-0.1,0-0.1,0
				c0-0.3,0-0.6,0.1-0.8c0-0.1,0.1-0.2,0.2-0.2C60.4,32.5,60.5,32.5,60.6,32.6C60.6,32.6,60.6,32.6,60.6,32.6z"/>
			<path fill="#595A5C" d="M60.7,36.9C60.7,36.9,60.7,36.9,60.7,36.9C60,37.6,60,34.7,60,34.2c0,0,0,0,0,0
				C60,34.6,60.1,37.4,60.7,36.9z"/>
			<path fill="#595A5C" d="M46.2,34.8c0,0,0,0.1,0,0.1c0,0.1,0,0.1-0.1,0.2c0,0,0,0-0.1,0c0-0.1,0-0.1,0-0.2c0-0.1,0-0.1,0-0.2
				c0,0,0-0.1,0-0.1C46.2,34.6,46.2,34.7,46.2,34.8z"/>
			<path fill="#595A5C" d="M41.6,35.3C41.7,35.3,41.7,35.3,41.6,35.3c0,0.1-0.2,0.2-0.2,0.1c0,0,0-0.1,0-0.1
				C41.5,35.4,41.6,35.4,41.6,35.3z"/>
			<path fill="#595A5C" d="M57,33.1c0,0.2-0.1,0.3-0.1,0.5c0,0,0,0,0,0C56.9,33.4,56.9,33.3,57,33.1C56.9,33.1,57,33.1,57,33.1z"/>
			<path fill="#595A5C" d="M51.2,36.8c0,0.2,0.1,0.4,0.1,0.6c0,0.1,0.1,0.3,0,0.5c0,0,0,0-0.1,0c-0.1-0.1,0-0.3-0.1-0.5
				C51.2,37.2,51.2,37,51.2,36.8C51.2,36.7,51.2,36.7,51.2,36.8z"/>
			<path fill="#595A5C" d="M54.6,38.1c0,0.1,0,0.3-0.1,0.4c0,0-0.1,0.1-0.1,0c0-0.2-0.1-0.4,0-0.6c0,0,0-0.1,0.1-0.1
				C54.6,37.9,54.6,38,54.6,38.1z"/>
			<path fill="#595A5C" d="M59.1,37.9C59.1,37.8,59.1,37.8,59.1,37.9c0.1,0.1,0.1,0.2,0.1,0.3c0,0.1,0,0.3,0,0.4
				c0,0.2-0.2,0.2-0.2,0c0-0.1,0-0.2,0-0.3C59,38.1,59.1,38,59.1,37.9z"/>
			<path fill="#595A5C" d="M53.2,32.1c0,0.2,0,0.3,0,0.5c0,0.1-0.1,0.1-0.1,0c0-0.2,0-0.3,0-0.4c0-0.1,0-0.3,0-0.4c0,0,0,0,0.1,0
				C53.2,31.8,53.2,31.9,53.2,32.1z"/>
			<path fill="#595A5C" d="M58.6,31.6c0,0,0,0.1,0,0.1c0,0,0,0.1,0,0.1c0,0.1,0,0.1,0,0.2c0,0,0,0.1-0.1,0.1c0,0,0,0,0,0
				c0,0,0,0,0-0.1c-0.1-0.1,0-0.2,0-0.3c0,0,0-0.1,0-0.1C58.5,31.6,58.5,31.6,58.6,31.6C58.5,31.5,58.6,31.5,58.6,31.6z"/>
		</g>
		<path fill="#595A5C" d="M71.6,17.9c-0.2,0.5-0.2,1.2-0.3,1.8c0-0.2-0.1-0.3-0.1-0.4c0-0.1-0.1,0-0.1,0.1c0,0.3,0,0.7,0,1
			c0,0,0-0.1,0-0.1c0-0.1-0.1-0.1-0.2,0c-0.1,0.4-0.1,0.7-0.1,1.1c0,0,0,0,0-0.1c0-0.1-0.1-0.2-0.2-0.1c-0.1,0.2-0.1,0.4-0.2,0.7
			c0,0-0.1,0-0.1,0.1c-0.1,0.2-0.1,0.3-0.1,0.5c0,0-0.1,0.1-0.1,0.1c0,0.3,0,0.6,0,1c0,0.1,0,0.2,0.1,0.2c-0.1,0.4-0.3,0.7-0.4,1.1
			c0,0,0,0,0-0.1c0,0,0-0.1-0.1-0.1c0-0.1,0-0.1,0-0.2c0-0.1,0-0.1,0-0.2c0-0.2,0-0.4,0-0.7c0,0,0-0.1,0-0.1c0-0.3,0.1-0.7,0-1
			c0,0-0.1-0.1-0.1-0.1c0-0.3,0-0.5-0.2-0.8l0,0l0,0c0,0,0,0,0,0c0,0,0,0,0,0c-0.1-0.2-0.2-0.5-0.3-0.6c-0.1-0.1-0.2,0.1-0.2,0.2
			c0.1,0.2,0.1,0.5,0.2,0.7c0,0.1,0.1,0.2,0.2,0.4c0.1,0,0.1,0-0.1,0c-0.1,0-0.1,0.2-0.1,0.3c0.1,0.2,0.4,0.7,0.1,0.6
			c-0.1,0-0.1,0.1-0.1,0.2c0,0.2,0.1,0.4,0.2,0.6c-0.1,0.1-0.1,0.2,0,0.3c0,0,0.1,0.1,0.1,0.1c-0.1,0-0.2,0.2-0.1,0.3
			c0,0.1,0.1,0.1,0.1,0.2c-0.1,0-0.1,0-0.2,0c-0.1,0-0.1,0.2,0,0.3c0.2,0.2,0.4,0.3,0.6,0.3c0.1,0,0.1-0.2,0.1-0.2c0,0,0,0,0,0
			c0,0,0.1-0.1,0.1-0.2c0,0.1,0,0.2,0,0.2c-0.1,0.3-0.2,0.6-0.3,0.9c0,0,0,0,0,0c0-0.1,0.1-0.1,0.1-0.2c-0.2,0.6-0.5,1-0.7,1.6
			c-0.1,0.1-0.1,0.3-0.2,0.4c0,0,0,0,0,0c-0.1-0.1,0-0.5,0-0.6c0-0.1-0.1-0.2-0.1-0.2c0-0.1,0-0.3,0-0.4c0-0.1-0.1-0.2-0.1-0.2
			c0,0-0.1,0-0.1,0.1c0-0.3,0-0.7-0.1-1c0-0.1-0.1-0.1-0.2,0c0-0.1,0-0.3-0.1-0.4c0,0,0-0.1-0.1-0.1c0-0.2-0.1-0.4-0.2-0.5
			c-0.1,0-0.2,0-0.2,0.2c0,0,0-0.1,0-0.1c0,0,0-0.1,0-0.1c-0.1-0.3-0.2-0.4-0.4-0.4c0,0-0.1,0-0.1,0.1c0,0,0,0.1,0,0.1
			c-0.1-0.1-0.2-0.2-0.4-0.3c-0.1,0-0.1,0.1-0.1,0.2c0.1,0.3,0.3,0.5,0.4,0.7c0.1,0.1,0.2,0.2,0.3,0.3c0.2,0.2,0.1,0.1,0,0.3
			c0,0.1,0,0.2,0.1,0.2c0,0,0.1,0.1,0.1,0.1c0,0-0.1,0.1-0.1,0.1c-0.1,0,0,0.2,0,0.2c0.1,0.2,0.3,0.2,0.4,0.4c0,0,0,0,0,0.1
			c0,0.1,0,0.2,0,0.2c0,0,0,0,0,0c-0.1,0-0.1,0.2,0,0.3c0.1,0,0.2,0.1,0.2,0.2c-0.1,0.1-0.1,0.2,0,0.3c0,0,0.1,0.1,0.1,0.1
			c0,0.1,0,0.2,0.1,0.2c0.1,0,0.2,0,0.3,0.2c0,0,0.1,0,0.1,0c0,0,0,0,0,0.1c-0.2,0.4-0.3,0.8-0.5,1.2c-0.1,0.2-0.2,0.4-0.3,0.6
			c-0.2,0.2-0.3,0.5-0.5,0.7c0,0,0-0.1,0-0.1c0-0.1,0.1-0.2,0.1-0.2c0,0,0,0,0-0.1c0,0,0,0,0-0.1c0-0.1,0.1-0.2,0.1-0.2
			c0-0.1,0-0.1,0-0.2c0-0.1,0.1-0.2,0.1-0.3c0-0.1,0-0.2-0.1-0.2c0.1-0.1,0.2-0.3,0.2-0.4c0-0.1,0-0.2,0-0.2
			c0.1-0.1,0.1-0.2,0.2-0.4c0.1-0.1,0-0.3-0.1-0.2c0,0-0.1,0.1-0.1,0.1c0-0.1,0-0.2,0.1-0.3c0-0.1-0.1-0.2-0.1-0.1
			c-0.2,0.3-0.1,0.3-0.2,0c0-0.2-0.1-0.3-0.2-0.3c0,0-0.1,0-0.1,0.1c0,0.1,0,0.2,0,0.3c0,0,0,0,0,0c0,0-0.1,0.1-0.1,0.2
			c0.1,0.2,0.2,0.4,0.2,0.6c0,0-0.1,0-0.2,0c-0.1,0-0.1,0.1-0.1,0.2c0,0.1,0.1,0.3,0.1,0.4c0,0-0.1,0.1-0.1,0.1c0,0,0,0,0-0.1
			c0-0.1-0.1-0.1-0.2,0c-0.1,0.3,0,0.6,0.1,0.8c0,0.3-0.1,0.6,0,0.9c0,0.1-0.1,0.2-0.1,0.3c0,0,0,0,0,0c-0.1,0.1-0.2,0.2-0.3,0.4
			c-0.3,0.4-0.5,0.8-0.8,1.2c-0.4,0.5-0.9,0.8-1.4,1.1c-0.2,0.1-0.4,0.1-0.6,0.1c-0.5,0-1.1,0.1-1.6,0.2c-0.5,0.1-1.1,0-1.6,0.2
			c-0.1,0-0.1,0.3,0,0.4c1.1,0.3,2.4-0.1,3.5-0.4c1-0.2,1.8-1.2,2.5-2.3c0.1-0.1,0.2-0.2,0.3-0.4c0,0,0.1-0.1,0.1-0.1
			c0-0.1,0.1-0.1,0.1-0.2c0.1,0,0.2,0,0.2-0.1c0,0,0,0.1,0,0.1c0.2,0,0.4,0.1,0.6,0.3c0.1,0.1,0.2-0.1,0.1-0.2c0,0,0,0,0,0l0,0l0,0
			c0,0,0-0.1-0.1-0.1c0.1,0.1,0.2,0.1,0.2,0.2c0,0.1,0,0.1,0.1,0.1c0.1,0.1,0.1,0,0.1-0.1c0.1,0,0.1,0,0.2,0c0.1,0,0.1-0.1,0.1-0.2
			c0.1,0,0.2,0,0.3,0.1c0.1,0,0.1-0.1,0.1-0.2c0.1,0,0.2,0,0.3,0c0.1,0,0.1-0.2,0-0.3c0,0,0,0,0,0c0.1-0.1,0-0.3-0.1-0.3
			c-0.1,0-0.1,0-0.2,0c0,0-0.1-0.1-0.1,0l0,0c-0.1,0-0.2-0.1-0.3-0.1c-0.1,0-0.1,0-0.2,0c0-0.1,0-0.3-0.1-0.2
			c-0.1,0-0.1,0.1-0.2,0.1c0-0.1-0.1-0.1-0.1-0.1c-0.1,0.1-0.2,0.2-0.3,0.3c-0.1,0-0.1,0.1-0.1,0.1c0,0-0.1,0-0.1,0
			c-0.1,0-0.3,0.2-0.5,0.2c0.2-0.3,0.4-0.5,0.6-0.8c0.3-0.5,0.6-1.1,0.8-1.7c0,0,0,0,0.1-0.1c0,0,0-0.1,0.1-0.1c0,0,0,0,0,0
			c0,0,0.1,0.1,0.1,0.1c0,0-0.1,0-0.1,0.1c-0.1,0.1,0,0.3,0.1,0.2c0.1-0.1,0.2,0,0.3,0c0,0,0,0,0.1,0c0,0,0,0,0,0c0,0,0,0,0,0.1
			c0.1,0.2,0.2,0.4,0.3,0.5c0.1,0.1,0.2,0,0.2-0.2c0.1,0.1,0.1,0.1,0.2,0.2c0.1,0.1,0.2,0,0.2-0.1c0,0,0.1,0.1,0.1,0.1
			c0.1,0,0.1,0,0.2,0c0.1,0,0.1,0,0.2,0.1c0.2,0.1,0.3-0.3,0.1-0.5c0,0,0,0,0,0c0.1,0,0.1,0.1,0.2,0.1c0.1,0,0.2,0.1,0.2,0.1
			c0.1,0.1,0.2-0.1,0.2-0.2c0.1,0.1,0.2,0.1,0.3,0.2c0.1,0.1,0.2-0.2,0.1-0.3c0,0-0.1-0.1-0.1-0.1c0,0,0.1,0,0.1,0
			c0.1,0,0.1,0.1,0.2,0.1c0,0.1,0,0.2,0.1,0.2c0.1,0,0.1,0,0.2,0c0.1,0,0.1-0.1,0.1-0.2c0.1,0,0.1,0,0.2-0.1c0,0,0.1-0.1,0.1-0.1
			c0.2-0.1,0.3-0.1,0.5-0.3c0.1-0.1,0-0.3-0.1-0.3c-0.4,0-0.8,0.3-1.2,0.3c0,0,0,0,0,0c0.1-0.1,0.1-0.1,0.2-0.2
			c0.1-0.1,0.1-0.3,0-0.3c-0.1,0-0.2,0-0.4,0.1c0,0,0,0,0,0c0-0.1,0-0.2-0.1-0.2c-0.1,0-0.3,0-0.4,0.1c0-0.1,0-0.2-0.1-0.2
			c-0.2-0.1-0.4,0-0.5,0.2c0,0,0,0,0,0c0-0.1,0-0.2-0.1-0.2c-0.2,0.1-0.4,0.2-0.6,0.4c0-0.1,0-0.1-0.1-0.1c-0.2-0.2-0.6,0.4-0.6,0.3
			c-0.1-0.1-0.1-0.1-0.2,0c0.1-0.3,0.2-0.5,0.3-0.7c0.2-0.5,0.4-0.9,0.6-1.4c0-0.1,0.1-0.2,0.1-0.3c0.2,0.1,0.3,0.3,0.5,0.3
			c0,0,0.1,0,0.1,0c0.1,0.1,0.2,0.2,0.3,0.3c0.2,0.2,0.3-0.2,0.2-0.4c0-0.1-0.1-0.1-0.1-0.2c0.2,0,0.4,0.1,0.6,0.2
			c0.2,0.1,0.2-0.3,0.1-0.4c0,0,0,0,0,0c0.1,0,0.2,0,0.3,0c0.1,0,0.1-0.1,0.1-0.2c0.1,0,0.2,0,0.3,0c0.1,0,0.2-0.3,0.1-0.4
			c0.4-0.3,0.8-0.5,0.9-1.2c0-0.1-0.1-0.3-0.1-0.2c-0.2,0.1-0.3,0.4-0.5,0.5c-0.1,0.1-0.2,0.2-0.3,0.3c0,0,0,0-0.1,0
			c-0.2,0-0.3,0.1-0.4,0.2c0-0.1-0.1-0.1-0.1-0.1c-0.2,0.1-0.4,0.4-0.6,0.5c-0.1,0.1-0.1-0.2-0.2-0.2c-0.2-0.1-0.3,0.2-0.4,0.3
			c-0.1,0.1-0.1,0.1-0.2,0.2c0.1-0.1,0.2-0.3,0.3-0.4c0-0.1,0-0.1-0.1-0.1c0,0.1-0.1,0.1-0.1,0.2c0,0,0,0,0-0.1c0,0,0-0.1,0,0
			c-0.1,0.2-0.2,0.4-0.3,0.6c0,0,0,0,0,0c0,0,0,0,0,0c0-0.1,0.1-0.2,0.1-0.3c0.2-0.4,0.3-0.8,0.4-1.2c0.1,0,0.2,0,0.4,0
			c0.1,0,0.1-0.2,0-0.3c0.1-0.1,0.2-0.2,0.3-0.4c0.1-0.1,0.1-0.2,0-0.3c0.2-0.2,0.3-0.3,0.5-0.5c0.1-0.1,0-0.4-0.1-0.3
			c0,0-0.1,0-0.1,0c0.2-0.2,0.4-0.3,0.6-0.5c0.1-0.1,0.1-0.4-0.1-0.4c-0.1,0-0.2,0.1-0.3,0.1c0,0,0,0,0,0c0.1-0.1,0-0.4-0.1-0.3
			c0,0,0,0,0,0c0.1-0.1,0.2-0.2,0.3-0.3c0.1-0.1,0-0.3-0.1-0.3c-0.1,0-0.1-0.1-0.2-0.1c0-0.3,0.2-0.6,0.2-0.9c0.1-0.3,0-0.8,0-1.1
			C71.8,17.8,71.6,17.7,71.6,17.9z M70.5,25c0.1-0.1,0.1-0.2,0.1-0.1c0,0,0,0,0,0.1C70.6,24.9,70.6,25,70.5,25z M67.4,31.2
			c0,0,0.1,0,0.1,0c0.1,0,0.1,0,0.2,0c0,0,0,0,0,0c0,0,0,0,0,0c0,0,0,0,0,0.1C67.6,31.3,67.5,31.2,67.4,31.2z M67.3,28.2
			c0,0,0-0.1-0.1-0.1c0,0,0,0,0,0C67.3,28.1,67.3,28.1,67.3,28.2z M67.4,28.8c0-0.1,0-0.1,0-0.2c0,0,0-0.1,0-0.1
			c0-0.1,0-0.1-0.1-0.2l0,0c0,0,0.1,0,0.1,0c0,0.1,0,0.1,0,0.2c0,0.1,0,0.1,0.1,0.1c0,0,0,0,0,0C67.5,28.7,67.5,28.8,67.4,28.8z
			 M67.3,29.1c0-0.1-0.1-0.2-0.1-0.3c0,0,0.1,0,0.1,0c0,0,0,0,0,0C67.3,29,67.3,29,67.3,29.1z M70,28.4C70,28.5,70,28.5,70,28.4
			c0,0-0.1,0-0.1,0C69.9,28.4,69.9,28.4,70,28.4z M70.1,28c0,0,0,0.1-0.1,0.1c0,0.1,0,0.1,0,0.2c-0.1,0-0.2,0-0.3,0
			C69.8,28.2,69.9,28.1,70.1,28z M70.5,28.1c0,0,0,0.1,0,0.1c-0.1,0-0.1,0-0.2,0c0,0-0.1,0-0.1,0c0.1-0.1,0.2-0.2,0.4-0.3
			C70.6,28,70.6,28.1,70.5,28.1z M71,28.3c-0.1,0-0.1,0-0.2,0c0.1-0.1,0.2-0.2,0.3-0.2C71.1,28.1,71,28.2,71,28.3z M69.5,28.1
			c0,0.1,0,0.1,0,0.2c0,0,0,0,0,0c0,0-0.1,0-0.1,0c0,0,0,0-0.1,0c-0.1,0-0.1,0-0.2,0.1c0,0,0,0,0,0c0.1,0,0.1-0.1,0.2-0.2
			C69.3,28.2,69.5,28,69.5,28.1z M66.8,24.6c0.1,0.1,0.1,0.1,0.2,0.2c0,0,0,0,0,0C66.9,24.7,66.9,24.6,66.8,24.6z M67.2,24.9
			c0-0.1-0.1-0.1-0.1-0.2c0,0,0,0,0-0.1c0,0,0,0,0.1,0.1C67.2,24.7,67.2,24.8,67.2,24.9z M67.6,25.8c-0.1-0.1-0.1-0.2-0.2-0.2
			c0,0,0,0,0-0.1c0,0,0.1,0,0.1-0.1C67.6,24.9,67.6,25.6,67.6,25.8C67.6,25.7,67.6,25.8,67.6,25.8z M67.8,26.4
			C67.8,26.4,67.8,26.5,67.8,26.4c-0.1,0-0.2-0.1-0.3-0.1c0,0,0.1-0.1,0.1-0.1c0,0,0-0.1,0-0.2c-0.1-0.1-0.1-0.2-0.2-0.3
			c0,0,0,0,0,0c0,0,0-0.1,0-0.1c0,0,0.1,0.1,0.1,0.1c0.1,0.1,0.1,0.2,0.2,0.3C67.7,26.1,67.7,26.3,67.8,26.4z M68,26.4
			C68,26.4,68,26.4,68,26.4c0-0.1,0-0.1,0-0.2C68,26.3,68,26.4,68,26.4z M68,26.9c0,0-0.1,0-0.1-0.1c0-0.1,0-0.2,0-0.2
			c0,0-0.1-0.1-0.1-0.1c0,0,0.1,0,0.1,0c0,0,0,0,0,0c0,0.1,0.1,0.2,0.1,0.2C68,26.8,68,26.8,68,26.9z M68.3,27.8
			c0,0-0.1-0.1-0.1-0.1c0,0,0-0.1,0-0.1c0-0.2-0.1-0.3-0.1-0.4c0,0,0,0,0,0c0,0,0.1,0,0.1-0.1c0,0,0,0,0,0c0,0.1,0.1,0.2,0.1,0.3
			c0,0.1,0,0.1,0,0.2C68.2,27.7,68.3,27.7,68.3,27.8z M69.8,25c0,0.1,0,0.1-0.1,0.2C69.7,25.1,69.7,25.1,69.8,25
			C69.7,25,69.7,25,69.8,25z M69.5,24c-0.1-0.2-0.2-0.3-0.2-0.5c0.1,0,0.1,0,0.2-0.1C69.4,23.5,69.4,23.7,69.5,24
			C69.5,23.9,69.5,23.9,69.5,24C69.5,23.9,69.5,23.9,69.5,24z M70.4,22.9c0,0.1-0.1,0.2-0.1,0.3C70.3,23.1,70.3,23,70.4,22.9
			C70.4,22.9,70.4,22.9,70.4,22.9z M70.7,22.5C70.7,22.5,70.7,22.6,70.7,22.5c0,0.1,0,0.2-0.1,0.3c0,0.1,0,0.2,0,0.3
			c0,0.1-0.1,0.1-0.1,0.2C70.6,23,70.6,22.7,70.7,22.5z M70.9,21.9C70.9,21.9,70.9,21.9,70.9,21.9c0-0.1,0-0.1,0-0.2
			C70.9,21.8,70.9,21.8,70.9,21.9C70.9,21.9,70.9,21.9,70.9,21.9z M70.6,21.6c0,0.1,0.1,0.1,0.1,0.2c0,0,0,0,0,0
			c0,0.2-0.1,0.3-0.1,0.5C70.6,22.1,70.6,21.8,70.6,21.6z M71.1,21.1C71.1,21.1,71.1,21.1,71.1,21.1C71.1,21.1,71.1,21.1,71.1,21.1
			c0,0.1,0,0.2-0.1,0.2C71.1,21.2,71.1,21.1,71.1,21.1z M70.9,20.7c0,0.1,0,0.1,0.1,0.2c0,0.1,0,0.1-0.1,0.2
			C70.9,21,70.9,20.9,70.9,20.7z M71.2,19.7c0,0.2,0,0.3,0,0.5C71.2,20,71.2,19.9,71.2,19.7z"/>
		<path fill="#595A5C" d="M70.4,32.7c0,0.1-0.1,0.2-0.1,0.3c0,0,0,0,0,0c0,0,0-0.1,0,0c0,0,0,0.1-0.1,0.1c0,0,0-0.1,0-0.1
			c-0.2,0-0.3,0.3-0.4,0.5c0-0.1,0-0.2-0.1-0.2c-0.1,0.1-0.3,0.3-0.3,0.5c0-0.1-0.1-0.1-0.1-0.1c-0.1,0-0.2,0.2-0.3,0.4
			c-0.2,0-0.2,0.2-0.3,0.5c0,0,0,0-0.1,0.1c-0.1,0.2-0.2,0.4-0.2,0.6c0,0-0.1,0.1,0,0.2c-0.2,0.2-0.3,0.3-0.5,0.4
			c-0.1,0-0.2,0-0.2,0c0,0,0,0,0,0c0,0-0.1,0-0.1,0c-0.3-0.1-0.6-0.1-1-0.2c0.3-0.1,0.6-0.3,0.9-0.6c0.1,0.1,0.3-0.1,0.4-0.2
			c0,0,0-0.1,0-0.1c0.1-0.1,0.2-0.2,0.3-0.3c0.1-0.1,0.1-0.2,0-0.3c0.1-0.1,0.2-0.1,0.2-0.2c0.1-0.2,0.2-0.4,0.3-0.6
			c0.1-0.1,0.1-0.2,0.1-0.3c0.1-0.2,0.1-0.4,0.2-0.6c0.1-0.2-0.1-0.3-0.2-0.2c0,0.1-0.1,0.2-0.2,0.3c0,0-0.1,0-0.1,0
			c-0.1,0.1-0.2,0.2-0.2,0.4c0-0.1-0.1-0.1-0.2,0c0,0.1-0.1,0.3-0.1,0.4c0-0.1-0.1-0.1-0.1,0c-0.1,0.1-0.1,0.3-0.2,0.5
			c0-0.1-0.1-0.1-0.2,0c0,0.1,0,0.2-0.1,0.3c0,0,0,0-0.1,0c-0.1,0.1-0.2,0.2-0.2,0.4c0,0,0,0.1,0,0.1c0,0,0,0,0,0c0,0,0,0,0,0
			c0,0,0,0,0,0c0,0-0.1,0.1-0.1,0.1c-0.3,0.3-0.6,0.4-0.9,0.5c-0.7-0.1-1.5-0.3-2.2-0.4c-0.6-0.1-1.2-0.3-1.8-0.3
			c-0.6,0-1.2-0.1-1.7,0.2c-0.1,0.1-0.1,0.3,0,0.4c0.5,0.3,1.2,0.2,1.7,0.2c0.4,0,0.8,0,1.2,0c0.9,0.1,1.7,0.3,2.6,0.4
			c0.6,0.1,1.3,0.1,1.9,0.3c0,0.1,0.1,0.2,0.1,0.3c-0.1,0.2-0.1,0.5-0.1,0.6c0,0.4-0.3,0.8-0.3,1.2c0,0.1,0.1,0.2,0.2,0.2
			c0,0,0.1-0.1,0.2-0.1c-0.1,0.3-0.2,0.6-0.2,1c0,0.1,0.1,0.1,0.1,0.1c0.1,0,0.1-0.1,0.2-0.2c0,0.3-0.1,0.7,0.2,0.5c0,0,0,0,0,0
			c-0.1,0.1,0-0.3,0-0.5c0,0.1,0.1,0.1,0.1,0.1c0,0.1,0,0.2,0,0.2c0,0.1,0,0.1,0,0.2c0,0.1-0.1,0.2-0.1,0.4c0,0.1,0,0.3,0.1,0.2
			c0,0.1,0,0.3,0,0.4c0,0,0,0.1,0,0.1c0,0.1-0.1,0.3-0.1,0.5c0,0.1,0,0.1,0.1,0.1c0,0.1-0.1,0.2-0.1,0.3c0,0.1,0.1,0.2,0.1,0.1
			c0.1-0.1,0.2-0.2,0.2-0.4c0,0,0,0,0,0c0,0,0,0.1,0,0.1c0,0.3,0,0.5,0.1,0.8c0,0.1,0.2,0,0.2-0.1c0-0.2,0-0.3,0-0.5
			c0,0,0,0,0.1,0.1c0.1,0.1,0.2-0.1,0.1-0.2c0,0,0-0.1,0-0.1c0,0,0,0,0,0c0.1,0,0.1-0.1,0.1-0.2c0-0.1-0.1-0.2-0.1-0.3
			c0.1,0,0.1-0.2,0.1-0.3c-0.1-0.1-0.1-0.2-0.2-0.3c0,0,0,0,0.1,0c0.1,0,0.1-0.2,0.1-0.3c0-0.1-0.1-0.2-0.2-0.3c0,0,0,0,0,0
			c0.1,0,0.2-0.1,0.1-0.2c0-0.2-0.1-0.2-0.2-0.3c0,0,0,0,0,0c0,0,0-0.1,0-0.1c0.1-0.3-0.1-0.4-0.2-0.6c0.1-0.2,0.1-0.3,0-0.6
			c-0.1-0.1,0-0.2-0.1-0.4c-0.1-0.3-0.3-0.3-0.3-0.7c0-0.1,0-0.1-0.1-0.1c0-0.1-0.1-0.3-0.1-0.4c0-0.1,0-0.2-0.1-0.3c0,0,0,0-0.1,0
			c0,0,0,0,0,0c0,0,0,0,0,0c0.1,0,0.2,0,0.3,0.1c0.1,0.1,0.3,0.2,0.3,0.2c0.2,0,0.3,0,0.5,0c0.2,0,0.3,0.1,0.5,0.1
			c0.1,0.1,0.3,0.2,0.4,0.4c0,0-0.1,0-0.1,0.1c0,0.1,0,0.2,0,0.2c0,0.2-0.1,0.6-0.1,0.8c0,0.1,0.1,0.2,0.2,0.2c0,0,0,0,0,0
			c0,0.2-0.1,0.3-0.1,0.5c0,0.1,0.1,0.2,0.1,0.2c0,0.1,0,0.3,0,0.4c0,0.1,0.1,0.2,0.1,0.2c-0.1,0.2-0.1,0.4,0,0.6
			c0.1,0.2,0.2,0.1,0.3,0c-0.1,0.2-0.1,0.4-0.1,0.6c0,0.1,0,0.2,0.1,0.1c0.1,0,0.2-0.2,0.3-0.3c0,0.2-0.1,0.5-0.1,0.7
			c0,0,0,0.1,0.1,0.1c0.1,0,0.1-0.1,0.2-0.2c0,0.1,0,0.2,0,0.3c0,0.1,0.1,0.1,0.1,0.1c0,0.1,0,0.2,0,0.3c0,0.1,0.1,0.1,0.1,0.1
			c0.1,0,0.1-0.1,0.1-0.2c0,0.1,0.1,0.2,0.1,0.3c0,0,0,0,0.1,0c0,0.1,0.1,0.3,0.1,0.4c0,0.1,0.1,0,0.1-0.1c0-0.3-0.1-0.6-0.2-0.9
			c0,0,0.1-0.1,0.1-0.2c0-0.2-0.1-0.3-0.1-0.5c0,0,0,0,0.1,0c0.1,0,0.1-0.2,0.1-0.3c-0.1-0.2-0.2-0.3-0.3-0.5c0,0,0,0,0,0
			c0.1,0,0.1-0.2,0.1-0.3c-0.1-0.1-0.1-0.2-0.2-0.4c0,0,0,0,0,0c0.1-0.1,0.1-0.2,0-0.3c0-0.1-0.1-0.1-0.2-0.2c0.2-0.1,0-0.4-0.2-0.6
			c0,0,0,0,0,0c0.1-0.1,0.1-0.2,0-0.3c0-0.1-0.1-0.1-0.1-0.2c0,0,0,0,0,0c0.1-0.1,0-0.2,0-0.3c-0.1-0.1-0.1-0.1-0.2-0.1c0,0,0,0,0,0
			c0-0.1,0.1-0.2,0-0.3c-0.1-0.1-0.2-0.2-0.4-0.4c-0.1-0.1-0.1,0-0.1,0c0-0.1-0.1-0.1-0.1-0.1c0.2,0.1,0.5,0.1,0.7,0.1
			c0.1,0,0.2,0,0.2,0c0.1,0.2,0.2,0.4,0.4,0.5c0,0,0.1,0,0.1,0c0.1,0.1,0.2,0.2,0.3,0.3c0,0,0.1,0.1,0.1,0.1c0.1,0.1,0.1,0,0.2,0
			c0,0,0,0,0,0c0,0,0.1,0.1,0.1,0.1c0,0,0.1,0,0.1,0c0,0,0,0,0,0c0,0,0,0.1,0,0.1c0.1,0.3,0.2,0.4,0.4,0.5c0.1,0,0.1,0,0.1-0.1
			c0,0,0,0,0,0c0.1,0.1,0.3-0.1,0.2-0.3c0,0,0-0.1,0-0.1c0.2,0.1,0.5,0.2,0.6,0.3c0.1,0.1,0.2-0.1,0.2-0.3c0.2,0.1,0.5,0.3,0.7,0.3
			c0.1,0,0.1-0.1,0.1-0.2c0-0.1,0.5,0,0.5,0c0.1,0,0.2-0.2,0.1-0.3c0,0,0,0,0,0c0.1,0,0.1-0.1,0.1-0.2c0-0.1,0-0.2-0.1-0.2
			c0-0.1-0.1-0.1-0.1-0.1c-0.2,0-0.4,0-0.7,0c0,0,0,0,0,0c0.1-0.1,0-0.2,0-0.3C74.4,37,74.3,37,74.2,37c0-0.1,0-0.2-0.1-0.3
			c-0.2-0.1-0.4-0.1-0.5,0c0-0.1,0-0.1-0.1-0.2c-0.2-0.2-0.4-0.1-0.6-0.1c0-0.1,0-0.2-0.1-0.2c-0.2-0.1-0.4,0-0.6,0.1
			c0-0.1-0.1-0.1-0.1-0.1c-0.1,0-0.2,0.1-0.2,0.1c0,0,0,0,0,0c-0.1,0-0.1,0-0.2,0c0,0,0,0-0.1,0c-0.2-0.1-0.5-0.1-0.7,0c0,0,0,0,0,0
			c-0.1,0-0.2,0-0.4-0.1c-0.2-0.1-0.5-0.1-0.7-0.2c0.1,0,0.1-0.1,0.2-0.1c0.1-0.1,0.2-0.1,0.4-0.2c0.2,0.1,0.3,0,0.5,0
			c0.2-0.1,0.4,0,0.6-0.2c0.1-0.1,0.1-0.2,0-0.3c0.1,0,0.2,0,0.2,0c0.1,0,0.1-0.2,0.1-0.3c0,0,0,0,0,0c0.1-0.1,0.1-0.3,0-0.4
			c0,0,0,0,0,0c0.2-0.2,0.5-0.4,0.7-0.7c0.1-0.1,0.1-0.2,0-0.2c0,0,0.1-0.1,0.1-0.1c0,0,0-0.1,0-0.1c0.1-0.1,0.2-0.3,0.2-0.4
			c0.1-0.2,0.3-0.4,0.4-0.6c0-0.1,0-0.3-0.1-0.2c-0.3,0.2-0.4,0.6-0.6,0.9c0-0.1-0.1-0.1-0.1-0.1c-0.2,0.1-0.2,0.3-0.3,0.5
			c0-0.2,0-0.3-0.1-0.3c-0.2,0.1-0.3,0.3-0.4,0.5c0,0-0.1,0-0.1,0c-0.3,0.1-0.4,0.5-0.5,0.8c0,0,0-0.1-0.1-0.1
			c-0.2,0-0.3,0.1-0.4,0.3c0,0,0,0,0,0c-0.2,0.1-0.3,0.2-0.4,0.4c-0.2,0.3-0.5,0.2-0.7,0.2c-0.3,0-0.5,0.1-0.8,0.2
			c-0.1,0-0.3-0.1-0.4-0.1c0.1-0.1,0.2-0.2,0.4-0.3c0.3,0,0.6,0,0.9-0.1c0.1,0,0.1-0.2,0.1-0.3c0,0,0,0,0,0c0.1-0.1,0.1-0.2,0-0.2
			c0.1,0,0.3-0.1,0.4-0.2c0.1-0.1,0-0.2,0-0.3c0.1-0.1,0.1-0.1,0.2-0.2c0-0.1,0.1-0.1,0-0.2c0.1,0,0.2-0.1,0.3-0.1
			c0.1,0,0.1-0.2,0.1-0.2c0.1,0,0.1-0.1,0.2-0.1c0.1-0.1,0.1-0.2,0-0.3c0,0-0.1,0-0.1-0.1c0.1-0.3,0.3-0.6,0.4-0.9
			c0-0.1,0-0.2-0.1-0.2C70.5,32.3,70.5,32.5,70.4,32.7z M71.7,34.1C71.7,34.1,71.7,34.1,71.7,34.1c0.2-0.3,0.2-0.3,0.2-0.1
			C71.8,34,71.7,34.1,71.7,34.1z M70.9,35.3C70.9,35.3,70.9,35.3,70.9,35.3c0.2-0.2,0.3-0.3,0.4-0.4c0,0,0,0,0,0
			C71.1,35.1,71,35.2,70.9,35.3C70.9,35.3,70.9,35.3,70.9,35.3z M74.3,38C74.3,38,74.3,38,74.3,38C74.3,38,74.2,38,74.2,38
			C74.3,38,74.3,38,74.3,38z M73.8,37.8C73.8,37.8,73.8,37.8,73.8,37.8C73.8,37.7,73.9,37.7,73.8,37.8
			C73.9,37.8,73.9,37.8,73.8,37.8C73.9,37.8,73.9,37.8,73.8,37.8c0.1,0,0.1,0.1,0.1,0.1C73.9,37.9,73.9,37.9,73.8,37.8z M72.4,37.7
			c0,0,0.1,0,0.1,0c0,0-0.1,0-0.1,0.1C72.4,37.8,72.4,37.8,72.4,37.7C72.4,37.8,72.4,37.8,72.4,37.7C72.4,37.8,72.4,37.8,72.4,37.7z
			 M70.9,41C70.9,41,71,41.1,70.9,41c0,0.1,0,0.1,0,0.1c0,0,0,0,0,0c0,0,0,0.1,0,0.1C70.9,41.2,70.9,41.1,70.9,41
			C70.9,41.1,70.9,41,70.9,41z M71,40.6c0,0.1,0.1,0.1,0.1,0.2c0,0,0,0,0,0c0,0,0,0,0,0C71.1,40.8,71,40.7,71,40.6z M70.4,40.4
			c0,0,0,0.1,0,0.1c0,0-0.1,0.1-0.1,0.1C70.4,40.5,70.4,40.5,70.4,40.4z M70.7,39.7c0,0,0,0.1,0,0.1c0,0,0,0.1,0,0.1c0,0,0,0,0,0
			c0,0,0,0,0,0c0,0,0,0,0,0c0-0.1,0-0.1,0-0.2C70.7,39.8,70.7,39.7,70.7,39.7z M70.6,39.2c0,0.1,0,0.1,0.1,0.1c0,0,0,0,0,0
			c0,0-0.1,0-0.1,0c0,0,0,0,0,0C70.6,39.3,70.6,39.2,70.6,39.2z M70.2,38.8c0,0,0,0.1,0,0.1c0,0,0,0,0,0c0,0,0,0,0,0c0,0,0,0,0-0.1
			c0,0,0,0,0,0C70.1,38.9,70.2,38.9,70.2,38.8z M70.1,38.2c0,0,0.1,0.1,0.1,0.1c0,0,0,0,0,0c0,0-0.1-0.1-0.1,0
			C70.1,38.3,70.1,38.2,70.1,38.2z M70,37.6C70,37.6,70,37.6,70,37.6c0,0.1,0,0.1,0,0.2c0,0,0,0,0,0c0,0,0,0-0.1,0
			C70,37.8,70,37.7,70,37.6z M68.6,40.8C68.6,40.9,68.6,40.9,68.6,40.8c0,0.1,0,0.2-0.1,0.2C68.6,41,68.6,40.9,68.6,40.8z
			 M68.6,39.1c0.1,0.1,0.1,0.1,0.1,0.2c0,0,0,0,0,0C68.7,39.3,68.6,39.2,68.6,39.1z M68,38.7c0,0.2,0,0.3,0.1,0.4c0,0,0,0,0,0
			c-0.1,0-0.1,0.1-0.2,0.1C67.9,39,67.9,38.8,68,38.7z M68.1,37.7c0,0.1,0,0.2,0.1,0.3C68.1,38,68.1,37.9,68.1,37.7
			C68.1,37.8,68.1,37.7,68.1,37.7z M69.6,36.1c-0.1,0-0.2,0.1-0.2,0.1c0,0-0.1,0-0.1,0c0,0,0,0,0,0c0,0,0,0,0,0
			c-0.1,0-0.3-0.1-0.4-0.1c0,0,0,0,0,0c0.1,0,0.2,0,0.2-0.1C69.3,36,69.5,36.1,69.6,36.1z M70.5,35.6c-0.1,0-0.1,0-0.2,0
			c0,0,0,0,0-0.1c0.1,0,0.2-0.1,0.3-0.1c0,0,0,0,0,0C70.6,35.5,70.6,35.6,70.5,35.6z M70.7,35.7c0,0,0.1-0.1,0.1-0.1c0,0,0,0,0,0
			C70.8,35.7,70.8,35.7,70.7,35.7z M70.1,35.6C70.1,35.6,70.2,35.6,70.1,35.6c0,0.1,0,0.1-0.1,0.1c0,0,0,0.1,0,0.1
			c-0.1,0-0.1,0.1-0.2,0.1C70,35.8,70.1,35.7,70.1,35.6z M68.1,33.9C68.1,33.9,68.1,33.8,68.1,33.9c0-0.1,0.1-0.2,0.1-0.2
			c0,0,0.1,0,0.1,0c0-0.1,0.1-0.2,0.1-0.3c0,0,0,0,0,0c0,0,0,0,0,0.1C68.3,33.6,68.2,33.8,68.1,33.9z M67.8,34.1
			c0-0.1,0-0.3,0.1-0.4c0,0.1,0,0.1,0,0.2C67.9,34,67.8,34.1,67.8,34.1z M67.7,34.4c0-0.1,0.1-0.1,0.1-0.2
			C67.8,34.3,67.8,34.3,67.7,34.4C67.8,34.4,67.8,34.4,67.7,34.4z M68.8,35.2C68.8,35.2,68.8,35.2,68.8,35.2c0,0.1-0.1,0.1-0.1,0.1
			C68.7,35.3,68.8,35.2,68.8,35.2z M68.7,34.9C68.7,34.9,68.8,34.9,68.7,34.9c0,0.1,0,0.1,0,0.1C68.7,35,68.7,34.9,68.7,34.9z
			 M69.1,34.4c0,0.1,0,0.1,0,0.1c-0.1,0.1-0.2,0.2-0.3,0.3c0,0,0,0,0,0c0-0.1,0.1-0.3,0.1-0.4c0-0.1,0-0.2,0.1-0.3
			C69.2,33.8,69.1,34.3,69.1,34.4z M69.6,33.9c-0.1,0.2-0.2,0.3-0.3,0.4c0-0.2,0.1-0.4,0.2-0.6C69.7,33.4,69.6,33.7,69.6,33.9z"/>
		<path fill="#595A5C" d="M70.5,28.3c0,0.1-0.1,0.2-0.1,0.4c0,0,0,0,0,0c-0.1,0.1-0.1,0.3-0.1,0.4c0,0,0-0.1-0.1,0
			c-0.2,0.1-0.2,0.4-0.3,0.7c0,0-0.1,0-0.1,0.1c-0.1,0.2-0.1,0.3-0.2,0.5c0,0,0,0,0,0c-0.1,0.1-0.2,0.3-0.2,0.5c0,0,0,0-0.1,0
			c-0.1,0.1-0.1,0.2-0.2,0.3c0,0-0.1,0-0.1,0c-0.1,0.2-0.2,0.4-0.2,0.6c0,0,0,0,0,0c0,0.1,0,0.2-0.1,0.3c-0.1,0.1-0.2,0.2-0.3,0.2
			c0,0,0,0,0,0c0,0-0.1,0-0.1,0.1c-0.1,0.1-0.2,0.1-0.3,0.2c-0.2,0-0.3,0.1-0.5,0.1c0,0-0.1,0-0.1,0c-0.4,0.1-0.7,0.2-1.1,0.3
			c-0.5,0.2-1.1,0.3-1.6,0.4c-0.8,0-1.5,0.1-2.3,0.2c-0.6,0.1-1.1,0.2-1.7,0.3c-0.1,0-0.1,0-0.2,0.1c0,0,0,0,0,0.1
			c-0.1,0.1,0,0.3,0.1,0.4c0,0,0,0,0,0c0,0,0,0,0,0c0.4-0.1,0.8-0.1,1.2-0.2c0.2,0,0.3-0.1,0.5-0.1c0.5-0.1,1-0.2,1.5-0.3
			c0.6-0.1,1.3-0.3,1.9-0.4c0.5-0.1,1.1-0.2,1.6-0.3c0.3-0.1,0.7-0.1,1-0.2c0.2-0.1,0.3-0.2,0.5-0.3c0,0,0,0,0,0
			c0.2,0.2,0.4,0.3,0.6,0.5c0.1,0.2,0.2,0.6,0.4,0.7c0,0,0,0,0.1,0c0,0.1,0.1,0.1,0.1,0.2c0,0,0.1,0,0.1,0c0,0.1,0.1,0.2,0.1,0.3
			c0,0,0.1,0.1,0.1,0c0,0.1,0.1,0.2,0.2,0.2c0,0,0,0,0,0c0,0.1,0.1,0.2,0.1,0.2c0,0,0,0,0,0c0,0,0,0.1,0,0.1c0,0,0.1,0,0.1,0
			c0,0,0,0,0,0c0,0,0,0,0.1,0c0.1,0.1,0.2,0.2,0.3,0.2c0,0,0.1-0.1,0.1-0.2c0,0,0-0.1,0-0.1c0.1,0,0.1,0,0.2,0c0,0,0,0,0,0
			c0.2,0.2,0.4,0.5,0.6,0.5c0.1,0,0.1-0.1,0.1-0.2c0-0.1-0.1-0.2-0.1-0.2c0,0,0,0,0,0c0,0,0,0,0-0.1c0,0,0,0,0.1,0c0,0,0-0.1,0-0.1
			c0,0,0,0,0,0c-0.1-0.3-0.3-0.4-0.5-0.5c0,0,0-0.1,0-0.1c0,0-0.1-0.1-0.1-0.1c0,0,0-0.1-0.1-0.1c-0.1,0-0.1-0.1-0.2-0.1
			c0-0.1,0-0.1-0.1-0.2c-0.2-0.1-0.3-0.1-0.5-0.1c0,0,0-0.1,0-0.1c0,0,0.1-0.2,0-0.2c-0.3-0.1-0.5-0.1-0.8-0.2
			c-0.2-0.2-0.4-0.4-0.7-0.5c0.1,0,0.2,0,0.2-0.1c0.1,0,0.2-0.1,0.3-0.1c0.2,0.2,0.4,0.3,0.6,0.4c0,0,0,0,0,0c0.2,0.1,0.4,0.2,0.5,0
			c0,0,0-0.1,0-0.2c0,0,0,0,0,0c0.2,0.1,0.4,0.2,0.5,0.2c0.1,0,0.1-0.1,0.1-0.2c0.1,0.1,0.3,0.1,0.4,0.1c0.1,0,0.1-0.1,0.1-0.2
			c0.2,0.1,0.3,0.2,0.5,0.1c0.1,0,0.1-0.2,0.1-0.2c-0.1-0.2-0.3-0.3-0.4-0.4c0.3,0,0.6,0.1,1,0.1c0.1,0,0.1-0.2,0-0.3c0,0,0,0,0,0
			c0.3,0,0.5-0.1,0.4-0.4c-0.1-0.2-0.4-0.2-0.7-0.1c0-0.1,0-0.3-0.1-0.2c-0.2,0-0.3,0.1-0.4,0.2c0,0,0-0.1,0-0.2
			c0-0.1-0.1-0.2-0.1-0.2c-0.1,0.1-0.2,0.1-0.3,0.2c0,0,0,0,0-0.1c0-0.1-0.1-0.2-0.1-0.2c-0.1,0-0.1,0.1-0.2,0.2c0,0,0,0,0,0
			c0-0.1-0.1-0.1-0.1-0.1c-0.1,0-0.2,0-0.3,0.1c0,0,0-0.1,0-0.1c0-0.1,0-0.1,0-0.2c0-0.2-0.1-0.3-0.2-0.2c-0.2,0.1-0.3,0.4-0.5,0.7
			c-0.2,0.3-0.4,0.5-0.6,0.8c0,0,0,0,0,0c0,0,0,0,0,0c0,0,0,0,0,0c0,0,0,0,0,0c0-0.1,0.1-0.1,0.1-0.2c0,0,0-0.1,0-0.1
			c0.1-0.1,0.2-0.2,0.1-0.4c0,0,0-0.1,0-0.1c0.2-0.2,0.4-0.2,0.4-0.5c0,0,0-0.1,0-0.1c0.1-0.1,0.1-0.2,0.2-0.3c0,0,0-0.1,0-0.1
			c0.1-0.1,0.1-0.2,0.2-0.3c0-0.1,0-0.2,0-0.2c0.1-0.1,0.1-0.2,0.1-0.3c0-0.1,0-0.1-0.1-0.1c0.2,0,0.2-0.7,0.1-0.9
			C70.6,28.2,70.5,28.2,70.5,28.3z M71.2,34.5C71.2,34.5,71.2,34.6,71.2,34.5C71.2,34.6,71.2,34.6,71.2,34.5
			C71.2,34.5,71.2,34.5,71.2,34.5z M71.5,34.5L71.5,34.5c0,0,0.1,0.1,0.2,0.1c0,0,0,0-0.1,0C71.6,34.6,71.6,34.5,71.5,34.5
			C71.6,34.5,71.6,34.5,71.5,34.5C71.5,34.5,71.5,34.5,71.5,34.5z M70.9,34c-0.1-0.1-0.1-0.1-0.2-0.1C70.8,33.9,70.9,33.9,70.9,34
			C70.9,34,70.9,34,70.9,34z M70.8,34.1C70.8,34.1,70.9,34.1,70.8,34.1C70.9,34.1,70.9,34.1,70.8,34.1c0.1,0.1,0.1,0.2,0.1,0.2
			C70.9,34.3,70.9,34.2,70.8,34.1z M70.6,34C70.6,34,70.7,34,70.6,34c0,0,0,0.1,0,0.1C70.6,34.1,70.6,34.1,70.6,34z M70.3,33.9
			C70.4,33.9,70.4,33.9,70.3,33.9c0.1,0.1,0.1,0.1,0.1,0.1C70.4,33.9,70.4,33.9,70.3,33.9z M70.4,33.7c0,0,0.1,0,0.1,0
			c0,0,0,0,0,0.1C70.5,33.8,70.5,33.7,70.4,33.7z M69.9,33.3c0.1,0,0.1,0,0.2,0c0,0.1,0,0.2,0.1,0.2c0,0,0.1,0,0.1,0c0,0,0,0,0,0
			c-0.1,0-0.1-0.1-0.2-0.1c0,0,0,0,0,0C70,33.3,70,33.3,69.9,33.3C70,33.3,69.9,33.3,69.9,33.3z M70.4,31.9c0.1-0.1,0.2-0.3,0.3-0.4
			c0.1-0.1,0.2-0.1,0.2-0.2c-0.1,0.2-0.3,0.3-0.3,0.4c0,0,0,0.1,0,0.1C70.5,31.8,70.5,31.8,70.4,31.9z M70.2,32.1
			C70.2,32.2,70.2,32.2,70.2,32.1c0,0.1,0,0.2,0.1,0.2c-0.1,0-0.2-0.1-0.2-0.1c0,0,0,0,0,0C70.1,32.2,70.2,32.2,70.2,32.1z M70.6,32
			C70.6,32,70.6,32,70.6,32c0,0.1,0.1,0.2,0.2,0.2c0,0,0,0,0,0.1c-0.1-0.1-0.2-0.1-0.3-0.2C70.5,32.1,70.5,32.1,70.6,32
			C70.5,32,70.6,32,70.6,32z M71,31.9C71,31.9,71,31.9,71,31.9c-0.1,0.1-0.1,0.1-0.2,0.1C70.8,31.9,70.9,31.9,71,31.9z M69.3,31.8
			C69.3,31.8,69.3,31.8,69.3,31.8C69.3,31.8,69.3,31.8,69.3,31.8C69.2,31.9,69.2,31.9,69.3,31.8C69.2,31.9,69.2,31.9,69.3,31.8
			C69.2,31.8,69.2,31.8,69.3,31.8z M69.2,31.4C69.3,31.4,69.3,31.4,69.2,31.4c0,0.2-0.1,0.2-0.1,0.3C69.2,31.6,69.2,31.5,69.2,31.4z
			 M69.6,30.8C69.6,30.8,69.6,30.8,69.6,30.8c0,0.2,0,0.3-0.1,0.4C69.5,31.1,69.5,30.9,69.6,30.8z M69.8,30.7
			C69.8,30.7,69.8,30.7,69.8,30.7c0.1,0,0.1,0,0.1,0c-0.1,0.1-0.1,0.1-0.2,0.2C69.7,30.8,69.8,30.7,69.8,30.7z M70,30.2
			C70,30.2,70,30.2,70,30.2c0,0.1,0,0.1-0.1,0.1C70,30.3,70,30.2,70,30.2z M70.1,29.4C70.1,29.5,70.2,29.5,70.1,29.4
			c0,0.1,0,0.2-0.1,0.3C70.1,29.6,70.1,29.6,70.1,29.4C70.1,29.4,70.1,29.3,70.1,29.4z"/>
		<path fill="#595A5C" d="M60.6,34.5c-0.2,0-0.2,0.6,0,0.6c0.3,0,0.6,0.5,0.9,0.7c0.3,0.3,0.6,0.6,0.9,1c0.4,0.5,0.9,0.9,1.3,1.4
			c0,0.1,0,0.3,0.1,0.5c0,0-0.1,0.1-0.1,0.2c0,0.2-0.1,0.4-0.1,0.7c0,0.1,0,0.1,0.1,0.1c0,0.1,0,0.1,0,0.2c0,0.1,0,0.2,0.1,0.2
			c0,0,0,0,0.1,0c-0.1,0.2-0.2,0.3-0.2,0.5c0,0.1,0.1,0.2,0.1,0.1c0.1-0.1,0,0.3,0,0.3c0,0,0,0.1,0,0.1c0,0,0,0.1,0,0.1
			c0,0.1-0.1,0.3-0.2,0.4c0,0.1,0,0.1,0.1,0.1c0,0,0.1-0.1,0.1-0.1c0,0,0,0,0,0c0,0,0,0,0,0c0,0,0,0.1,0,0c0,0,0-0.1,0-0.1
			c0,0,0,0,0,0c0,0,0-0.1,0-0.1c0,0.1,0,0.2,0,0.3c0,0.1,0,0.1,0.1,0.1c0.3-0.1,0.1-0.8,0.1-1.1c0.2-0.1,0.2-0.3,0.2-0.5
			c0,0,0.1-0.1,0.1-0.2c0-0.1,0-0.2-0.1-0.3c0,0,0-0.1,0-0.1c-0.1-0.3-0.1-0.6-0.3-0.7c0-0.1,0-0.2,0-0.3c0,0,0,0,0,0
			c0.3,0.3,0.6,0.6,0.8,0.9c0,0.2,0,0.3-0.1,0.5c0,0.1-0.1,0.1-0.1,0.2c0,0,0,0,0,0.1c-0.1,0.2-0.2,0.3-0.2,0.6c0,0,0,0.1,0,0.1
			c-0.1,0.1-0.1,0.2-0.2,0.4c0,0,0,0.1,0,0.1c-0.1,0.1-0.1,0.2-0.2,0.4c0,0.1,0,0.1,0,0.2c-0.1,0.1-0.1,0.2-0.1,0.4
			c0,0.1,0,0.1,0.1,0.1c0,0,0,0,0,0c0,0,0,0,0,0.1c0,0,0,0.1,0.1,0.1c0.1-0.1,0.1,0,0.1-0.2c0,0,0-0.1,0-0.1c0,0,0,0,0,0
			c0,0,0,0,0,0c-0.1-0.1,0.1-0.3,0.2-0.5c0,0,0,0,0,0c0,0,0,0,0,0c-0.1,0.1-0.1,0.3-0.1,0.5c0,0,0,0,0,0.1c-0.1,0.2-0.1,0.5-0.1,0.7
			l0,0c0,0.1,0.1,0.1,0.1,0c0-0.3,0.1-0.6,0.2-0.9c0,0,0,0.1,0,0.1c0,0,0,0.1,0,0.1c0,0,0,0,0,0c0,0,0,0,0,0.1l0,0.1
			c0,0.1,0.1,0.1,0.1,0c0,0.1,0.1,0.1,0.1,0.2c0,0,0.1,0,0.1,0c0-0.1,0-0.3,0-0.4c0-0.1-0.1-0.4,0.1-0.2c0,0.1,0.1,0,0.1-0.1
			c0,0,0-0.1,0-0.1c0,0,0.1,0.1,0.2,0.1c0.1,0,0.1-0.1,0.1-0.2c0-0.1-0.1-0.2-0.1-0.3c0.1,0,0.1-0.1,0.1-0.2c0-0.1-0.1-0.2-0.1-0.3
			c0.1-0.1,0.3-0.2,0.1-0.5c-0.1-0.2,0-0.2,0-0.5c0-0.1,0-0.3-0.1-0.4c0.1,0.1,0.2,0.2,0.2,0.3c0,0,0,0.1,0,0.1c0.1,0.3,0,0.6,0,1
			c0,0.1,0.1,0.1,0.1,0c0,0,0,0,0,0c0,0.2,0,0.3,0.1,0.4c0.1,0.1,0.2,0,0.2-0.1c0,0,0-0.1,0-0.2c0,0.1,0,0.1,0,0.2c0,0,0,0,0,0.1
			c0,0.1,0,0.1,0,0.2c0,0.2-0.1,0.4,0,0.6c0,0.1,0.1,0.1,0.1,0c0.1-0.1,0.1-0.2,0.2-0.4c0,0.2,0,0.3,0,0.5c0,0,0,0.1,0.1,0.1
			c0,0,0.1,0,0.1-0.1c0,0.2,0,0.4,0,0.6c0,0,0,0,0,0c0,0,0,0,0,0c0,0.1,0.1,0.1,0.1,0.1c0,0.1,0,0.2,0.1,0.2c0,0,0.1,0,0.1,0
			c0-0.2,0-0.5,0-0.7c0-0.1,0-0.2,0-0.2c0,0.1,0.1,0.2,0.1,0.3c0,0,0,0,0,0c0,0,0,0.1,0,0.1c0,0.1,0,0.1,0,0.2c0,0,0,0,0,0
			c0,0,0,0,0,0c0,0,0,0,0,0c0,0,0,0,0,0c0,0,0,0,0,0c0,0,0,0,0,0c0,0,0,0,0,0c0,0,0,0,0,0c0,0,0,0,0,0c0,0.1,0.1,0.2,0.1,0.3
			c0.1,0.1,0.2,0,0.1-0.2c0,0,0-0.1,0-0.1c0,0,0,0,0,0c0-0.1,0-0.1,0-0.2c0.1,0,0.1-0.1,0.1-0.2c0-0.1,0-0.1-0.1-0.2
			c0.1,0,0.1-0.2,0-0.3c-0.1,0-0.1-0.1-0.1-0.2c0,0,0,0,0,0c0.1,0,0.1-0.2,0-0.2c-0.1,0-0.1-0.1-0.1-0.1c0,0,0,0-0.1,0
			c0,0,0.1,0,0.1,0c0.1,0,0.1-0.2,0-0.2c0,0-0.1,0-0.1-0.1c0,0,0,0,0-0.1c0,0,0-0.1,0-0.1c0.1,0,0.1-0.2,0-0.2c0,0-0.1,0-0.1,0
			c0,0,0,0-0.1-0.1c0,0,0-0.1,0-0.1c0,0,0.1,0,0.1-0.1c0,0,0.1-0.1,0-0.2c0-0.1-0.1-0.2-0.2-0.3c0,0,0,0,0,0c0.1-0.1,0.1-0.2,0-0.2
			c-0.1-0.2-0.3-0.3-0.5-0.4c0,0,0,0,0,0c-0.2-0.2-0.4-0.2-0.6-0.2c-0.1,0-0.1,0.1-0.1,0.2c0,0,0,0,0,0c0,0-0.1,0-0.1,0.1
			c-0.1-0.1-0.2-0.2-0.3-0.4c0.1,0,0.2,0,0.2,0c0,0,0,0,0,0c0.3-0.1,0.6-0.3,0.9-0.4c0,0,0.1,0,0.1,0c0.1,0,0.1-0.1,0.1-0.2
			c0,0,0-0.1,0-0.1c0,0,0,0,0,0c0.1-0.1,0.3-0.2,0.4-0.4c0-0.1,0-0.2,0-0.2c0,0,0,0,0,0c0.1-0.1,0.2-0.3,0.2-0.4
			c0-0.2,0-0.4,0.1-0.5c0.1-0.1-0.1-0.3-0.1-0.2c-0.1,0.1-0.1,0.2-0.1,0.2c0-0.1-0.1-0.1-0.1,0c-0.1,0.1-0.2,0.2-0.3,0.4
			c0,0-0.1,0-0.1,0c-0.1,0.1-0.1,0.3-0.2,0.4c0,0,0,0-0.1,0c-0.1,0.1-0.2,0.2-0.2,0.4c0,0,0,0-0.1,0.1c-0.1,0.2-0.1,0.3-0.2,0.5
			c0,0,0,0.1,0,0.1c-0.1,0.1-0.3,0.1-0.4,0.1c0,0,0,0,0,0c0,0,0,0,0,0c0,0,0,0,0,0c-0.2-0.2-0.5-0.5-0.7-0.7
			c-0.1-0.1-0.2-0.2-0.2-0.3c0.1,0,0.1-0.1,0.2-0.1c0.1,0,0.1,0,0.2,0c0,0,0,0,0,0c0,0,0,0,0,0c0.2,0.1,0.5,0.2,0.7,0.1
			c0.1,0,0.1-0.1,0-0.2c0,0,0,0,0.1,0c0.1,0,0.1-0.1,0.1-0.2c0.3-0.3,0.7-0.7,0.7-1.3c0-0.1-0.1-0.2-0.1-0.1
			c-0.1,0.2-0.2,0.4-0.4,0.5c0,0,0-0.1-0.1-0.1c-0.1,0-0.2,0.1-0.2,0.2c0,0,0,0,0,0c-0.1,0-0.2,0.1-0.3,0.2c0,0,0-0.1-0.1,0
			c-0.1,0-0.2,0.1-0.3,0.2c-0.2,0.2-0.4,0.4-0.6,0.5c0,0,0,0,0,0c-0.4-0.5-0.9-0.9-1.3-1.4c-0.4-0.5-0.8-1-1.2-1.5
			C61,34.6,60.8,34.4,60.6,34.5z M64.3,37.6c0.1-0.1,0.1-0.2,0.2-0.2c0,0.1,0.1,0.2,0.1,0.1c0.1-0.1,0.1-0.2,0.2-0.3
			c0,0.1,0.1,0.1,0.1,0c0-0.1,0.1-0.2,0.1-0.2c0,0,0,0,0,0c-0.1,0.2-0.3,0.3-0.5,0.4C64.5,37.5,64.4,37.6,64.3,37.6z M65.9,38.2
			c0-0.1,0.1-0.2,0.1-0.3c0,0,0.1,0,0.1-0.1c0-0.1,0.1-0.2,0.1-0.3c0,0.1,0,0.1,0,0.2c0,0,0,0.1,0,0.1C66.1,37.9,66,38.1,65.9,38.2z
			 M66,38.3c0.1-0.1,0.1-0.1,0.2-0.2c0,0,0,0,0,0C66.2,38.2,66.1,38.2,66,38.3z M65.9,38.4C65.9,38.4,65.9,38.4,65.9,38.4
			c-0.1,0-0.1,0-0.1,0c0,0,0.1-0.1,0.1-0.1C65.9,38.4,65.9,38.4,65.9,38.4z M64.5,41.4C64.5,41.5,64.5,41.5,64.5,41.4
			c0,0.1,0,0.1,0,0.1c0,0,0,0-0.1,0.1c0,0.1,0,0.3,0,0.5c0,0.1,0,0.2,0,0.3c0-0.1,0-0.1-0.1-0.2c0-0.2,0-0.3,0-0.5
			C64.4,41.6,64.5,41.5,64.5,41.4z M64.6,41c0,0,0-0.1,0-0.1C64.7,40.9,64.7,40.9,64.6,41C64.7,41,64.7,41,64.6,41
			C64.6,41,64.6,41,64.6,41z M64.5,40.7c0,0.1,0,0.2-0.1,0.3c0,0.1,0,0.2-0.1,0.2c0,0,0-0.1-0.1,0c0,0,0,0,0,0c0,0,0.1-0.1,0.1-0.1
			c0,0,0-0.1,0-0.2C64.4,40.8,64.5,40.8,64.5,40.7z M64.7,40.3c0.1,0.1,0.1,0.1,0,0.2C64.7,40.4,64.7,40.4,64.7,40.3z M65.6,39.9
			c0-0.1-0.1-0.1-0.1-0.2c0,0,0-0.1,0-0.1c0.1,0,0.1,0.1,0.2,0.1c0,0,0,0.1,0,0.1c0,0,0,0,0,0C65.7,39.8,65.7,39.9,65.6,39.9
			C65.6,39.9,65.6,39.9,65.6,39.9z M65.9,40.5c0-0.1-0.1-0.1-0.1-0.2c0,0,0,0,0-0.1c0,0,0,0,0,0.1C65.9,40.4,65.9,40.4,65.9,40.5
			C66,40.5,66,40.5,65.9,40.5C66,40.5,65.9,40.5,65.9,40.5z M65.9,40.2C65.9,40.2,65.8,40.2,65.9,40.2
			C65.8,40.2,65.8,40.2,65.9,40.2C65.8,40.2,65.9,40.2,65.9,40.2z M66.2,40.4C66,40.3,66,40.2,66,40.2c0.1,0,0.2,0,0.3,0
			c0.1,0,0.1,0.1,0.2,0.2C66.4,40.4,66.3,40.4,66.2,40.4z M66.4,41C66.3,41,66.3,41,66.4,41C66.3,41,66.3,41,66.4,41
			C66.4,41,66.4,41,66.4,41z M66.3,41.9C66.3,41.9,66.3,41.9,66.3,41.9C66.3,41.9,66.3,41.9,66.3,41.9c0-0.1,0-0.1,0-0.1
			c0,0,0-0.1,0-0.1c0,0,0,0,0-0.1C66.3,41.7,66.3,41.8,66.3,41.9C66.3,41.8,66.3,41.8,66.3,41.9C66.3,41.9,66.3,41.9,66.3,41.9z
			 M66.1,41.6c0,0.1,0,0.1,0.1,0.2c0,0.1-0.1,0.1-0.1,0.1C66,41.8,66,41.7,66.1,41.6z M65.9,41.2c0,0.1,0,0.2,0,0.3
			c0,0.1-0.1,0.2-0.1,0.2C65.8,41.5,65.8,41.3,65.9,41.2C65.9,41.2,65.9,41.2,65.9,41.2z M66,41.1C66,41.1,66,41.1,66,41.1
			C66,41.1,66,41.1,66,41.1C66,41.1,66,41.1,66,41.1z M65.7,40.5C65.7,40.5,65.7,40.5,65.7,40.5C65.7,40.5,65.7,40.5,65.7,40.5
			C65.7,40.5,65.7,40.5,65.7,40.5c-0.1,0.2-0.2,0.8-0.1,0.1C65.6,40.6,65.6,40.6,65.7,40.5z M65.4,40.1c0,0.1,0,0.2,0.1,0.3
			c0,0,0,0,0,0c0,0,0,0-0.1,0C65.4,40.3,65.4,40.2,65.4,40.1z M63.9,39.2c0,0.1,0,0.2,0.1,0.2c0,0,0,0-0.1,0
			C63.9,39.3,63.9,39.3,63.9,39.2z"/>
	</g>
</g>
</svg>
