<?xml version="1.0" encoding="utf-8"?>
<!-- Generator: Adobe Illustrator 18.0.0, SVG Export Plug-In . SVG Version: 6.00 Build 0)  -->
<!DOCTYPE svg PUBLIC "-//W3C//DTD SVG 1.1//EN" "http://www.w3.org/Graphics/SVG/1.1/DTD/svg11.dtd">
<svg version="1.1" id="Layer_1" xmlns="http://www.w3.org/2000/svg" xmlns:xlink="http://www.w3.org/1999/xlink" x="0px" y="0px"
	 viewBox="0 0 77.4 68.5" enable-background="new 0 0 77.4 68.5" xml:space="preserve">
<circle fill="#D4DFE0" cx="38.7" cy="34.2" r="32"/>
<g>
	<path fill="#F4783F" d="M59.4,53.2c0,1.4-1.2,2.6-2.6,2.6H20.7c-1.4,0-2.6-1.2-2.6-2.6V21.4c0-1.4,1.2-2.6,2.6-2.6h36.1
		c1.4,0,2.6,1.2,2.6,2.6V53.2z"/>
	<rect x="20.7" y="21.4" fill="#B6592E" width="36.1" height="32.2"/>
	<linearGradient id="SVGID_1_" gradientUnits="userSpaceOnUse" x1="21.1984" y1="35.8136" x2="38.9238" y2="35.8136">
		<stop  offset="0" style="stop-color:#F3F3F3"/>
		<stop  offset="1" style="stop-color:#EBEBEB"/>
	</linearGradient>
	<rect x="20.7" y="19.7" fill="url(#SVGID_1_)" width="18.1" height="32.2"/>
	<rect x="38.7" y="19.7" fill="#C8D2D1" width="18.1" height="32.2"/>
	<g>
		<rect x="42.2" y="36" fill="#AFB8B7" width="11.2" height="1.3"/>
		<rect x="42.2" y="39" fill="#AFB8B7" width="11.2" height="1.3"/>
		<rect x="42.2" y="42" fill="#AFB8B7" width="11.2" height="1.3"/>
		<rect x="49.5" y="30" fill="#AFB8B7" width="3.9" height="1.3"/>
		<rect x="42.2" y="33" fill="#AFB8B7" width="11.2" height="1.3"/>
		<rect x="49.5" y="24" fill="#AFB8B7" width="1.3" height="1.3"/>
		<rect x="49.5" y="27" fill="#AFB8B7" width="3.9" height="1.3"/>
		<rect x="42.2" y="45.1" fill="#AFB8B7" width="5.6" height="1.3"/>
	</g>
	<path opacity="0.6" fill="#7B7B7B" d="M51.2,22.3l5.6,3.4v0.9l2.6,1.7v25.4c0,0-0.4,2.1-2.1,2.1s-5.2,0-5.2,0l-13.3-3.9L51.2,22.3z
		"/>
	<polygon fill="#FFFFFF" points="38.7,19.7 38.7,51.9 51.2,47.1 51.2,14.9 	"/>
	<g>
		<rect x="24.1" y="36" fill="#AFB8B7" width="11.2" height="1.3"/>
		<rect x="24.1" y="39" fill="#AFB8B7" width="11.2" height="1.3"/>
		<rect x="24.1" y="42" fill="#AFB8B7" width="11.2" height="1.3"/>
		<rect x="31.4" y="30" fill="#AFB8B7" width="3.9" height="1.3"/>
		<rect x="24.1" y="33" fill="#AFB8B7" width="11.2" height="1.3"/>
		<rect x="31.4" y="24" fill="#AFB8B7" width="3.9" height="1.3"/>
		<rect x="31.4" y="27" fill="#AFB8B7" width="3.9" height="1.3"/>
		<rect x="24.1" y="45.1" fill="#AFB8B7" width="5.6" height="1.3"/>
	</g>
	<path fill="#3C566D" d="M28.5,31.3h1.6l-2-7.3h-2l-2,7.3h1.6l0.4-1.7h2L28.5,31.3z M26.4,28.3l0.5-2.1h0.4l0.5,2.1H26.4z"/>
	<polygon fill="#E4504D" points="36.2,19.3 36.2,26.6 37.5,25.8 38.7,26.6 38.7,19.3 	"/>
</g>
<g>
	<g>
		<path fill="#37505F" d="M23,31.4l0.6,0.1c2.4,0.2,4.6,1.1,6.3,2.7l0,0l0.3,0.1l3.4-3.4l-0.2-0.2c-1.6-1.8-2.5-4-2.8-6.4l-0.1-0.6
			L23,31.4z M33.2,30.9L33.2,30.9l-3,3l-0.1,0c-1.9-1.6-4.2-2.6-6.5-2.8l6.8-6.8C30.6,26.7,31.5,29,33.2,30.9z"/>
	</g>
	<path fill="#37505F" d="M24.4,30.9c2.1,0.3,4.1,1.2,5.7,2.6c0.4-0.4,2.2-2.2,2.6-2.6c-1.4-1.6-2.3-3.6-2.6-5.7
		C29.3,26,25.2,30,24.4,30.9z"/>
	<path fill="#37505F" d="M32.6,35.4c0.2,0.2,0.5,0.2,0.7,0l1.9-0.8c0.2-0.2,0.2-0.5,0-0.7L33.4,32l-2.2,2.2L32.6,35.4z"/>
	<g>
		<path fill="#37505F" d="M27.4,20.3l-0.2-0.2L15.5,9.4c-0.4-0.4-0.9-0.6-1.4-0.6c-0.5,0-1,0.2-1.4,0.6l-4.1,4.1
			c-0.8,0.8-0.8,2.1,0,2.8l10.7,11.7c0,0,0.2,0.2,0.2,0.2c0.4,0.4,0.8,0.8,1.2,0.8c0.3,0,0.5-0.1,0.8-0.4l6.3-6.3
			c0.3-0.3,0.4-0.5,0.4-0.8C28.2,21.1,27.8,20.7,27.4,20.3z M27.6,22.1l-6.3,6.3c-0.7,0.7-1.1,0-1.8-0.6l0,0L8.8,16.1l0,0
			c-0.7-0.7-0.7-1.8,0-2.4l4.1-4.1c0.7-0.7,1.8-0.7,2.4,0l0,0L27,20.3l0,0C27.6,21,28.3,21.5,27.6,22.1z"/>
	</g>
	<path fill="#37505F" d="M26.7,20.6c0.5,0.5,0.9,0.8,0.4,1.3l-5.9,5.9c-0.5,0.5-0.8,0.1-1.3-0.4L9.1,15.8c-0.5-0.5-0.5-1.4,0-1.9
		l4.1-4.1c0.5-0.5,1.4-0.5,1.9,0L26.7,20.6z"/>
	<g>
		<path fill="#37505F" d="M28.4,22.4l-6.8,6.8c-0.1,0.1-0.2,0.3-0.2,0.5c0,0.3,0.2,0.5,0.4,0.7l0,0c0.6,0.6,1,0.4,1.2,0.2l6.8-6.8
			c0.1-0.1,0.2-0.3,0.2-0.5c0-0.3-0.2-0.5-0.4-0.7C29,22,28.6,22.2,28.4,22.4z M29.5,23.6l-6.8,6.8c-0.3,0.3-0.5,0.1-0.8-0.2
			c-0.3-0.3-0.4-0.5-0.2-0.8l6.8-6.8c0.3-0.3,0.5-0.1,0.8,0.2C29.6,23,29.8,23.3,29.5,23.6z"/>
	</g>
	<path fill="#37505F" d="M22.2,29.9c0.1,0.1,0.4,0.1,0.5,0l6.4-6.4c0.1-0.1,0.1-0.4,0-0.5l0,0c-0.1-0.1-0.4-0.1-0.5,0l-6.4,6.4
		C22.1,29.5,22.1,29.8,22.2,29.9L22.2,29.9z"/>
</g>
</svg>
